<?xml version="1.0" encoding="utf-8"?>
<!-- Generator: Adobe Illustrator 19.2.1, SVG Export Plug-In . SVG Version: 6.00 Build 0)  -->
<svg version="1.1" xmlns="http://www.w3.org/2000/svg" xmlns:xlink="http://www.w3.org/1999/xlink" x="0px" y="0px" width="407.2px"
	 height="341px" viewBox="0 0 407.2 341" enable-background="new 0 0 407.2 341" xml:space="preserve">
<g id="Layer_30">
	
		<text transform="matrix(0 -1 1 0 29.5666 162.7401)" fill="#D9EAF8" font-family="'HelveticaNeue-CondensedBlack'" font-size="27.8941px">FEMALE</text>
	
		<text transform="matrix(0 -1 1 0 29.5674 251.5997)" fill="#2D4171" font-family="'HelveticaNeue-CondensedBlack'" font-size="27.8941px">MALE</text>
	
		<text transform="matrix(0 -1 1 0 22.4956 180.7541)" fill="#4F70B6" font-family="'HelveticaNeue-CondensedBlack'" font-size="8.7039px">TO</text>
	<g>
		<path fill="#D9EAF8" d="M71.7,256.5l3.2-3l2.8,3l4.2-3l1.8,3l3-3l2.8,3l3-3l2.8,3l2.5-3l2.3,3l0,0l3.6-15.4
			c-3.3-0.8-6.6-1.7-10-2.8c-6-1.9-11.4-3.8-16.4-5.7l-8.8,20.8l0,0L71.7,256.5z"/>
		<path fill="#2D4171" d="M66.7,266.7c1.2,1.5,0,2.1-0.3,4.4c-0.3,2.4,0.3,2.4,2.9,5.3c2.7,2.9,1.5,1.2,2.9,4.4c1.5,3.2,0,0,0.6,2.9
			c0.6,2.9,1.2,1.5,2.9,2.7c1.8,1.2,0.6,2.1,0,2.9c-0.6,0.9,0,4.1,0,4.1l-1.6,3.2c4.7,1.5,10,3,15.8,4.4l10.3-44.6l0,0l-2.3-3
			l-2.5,3l-2.8-3l-3,3l-2.8-3l-3,3l-1.8-3l-4.2,3l-2.8-3l-3.2,3l-3.1-3l0,0l-3.4,8.2C65.2,261.7,65.5,265.2,66.7,266.7z"/>
	</g>
	<g>
		<path fill="#D9EAF8" d="M149.8,261.5l2.4-4.6l3.4,4.6l3.2-4.6l3,4.6l4.2-4.6l1.6,4.6l1.9-1.9l1.8-4.3
			c-17.8-6.8-26.9-13.8-33.1-20.2c-0.8,0.9-1.2,2.1-0.2,3.9c2.3,4.3,2.6,6.8,4.7,5.5c2.1-1.3,4-2.1,2.3,0.3
			c-1.7,2.4-4.7,3.3-2.3,5.2c2.3,1.9,4.3,3.3,1.9,5.5c-2.3,2.2-4,2-0.9,3.7c0.4,0.2,0.8,0.4,1,0.6l1.8-2.9L149.8,261.5z"/>
		<path fill="#2D4171" d="M142.9,264.6c-2.8,3-4.7,4.3-2.8,6.2c1.9,1.9,4.5,1.9,4.5,4.5c0,2.6-1.5,3-1.9,4.5c-0.4,1.5-0.9,4,1.7,5.1
			c2.6,1.1,2.6,1.3,3,3.8c0.3,1.5-0.1,2.8,0.2,3.8c1.9,1,4.6,2.5,8,4c1.9,0.8,4.1,1.6,6.1,2.4c1.1,0.5,2.2,0.9,3.1,1.3
			c1.3,0.5,2.7,0.9,4.1,1.4l1.2-2.3c0,0-0.4-2.3,0-3c0.4-0.6,1.3-1.3,0-2.1c-1.3-0.9-1.7,0.2-2.1-1.9c-0.4-2.1,0.6,0.2-0.4-2.1
			c-1.1-2.3-0.2-1.1-2.1-3.2c-1.9-2.1-2.3-2.1-2.1-3.8c0.2-1.7,1.1-2.1,0.2-3.2c-0.9-1.1-1.1-3.6-1.1-3.6l7-16.6l-1.9,1.9l-1.6-4.6
			l-4.2,4.6l-3-4.6l-3.2,4.6l-3.4-4.6l-2.4,4.6l-3.2-4.6l-1.8,2.9C146.6,261.1,145.3,262,142.9,264.6z"/>
	</g>
	<g>
		<path fill="#D9EAF8" d="M215.8,259.3l4.7,6.6l3.1-6.6l4.8,6.6l2.9-6.6l3.9,6.6l3.3-6.6l3.9,6.6l2.7-6.6l1.2,2l4.5-5.2
			c0,0-9.4,0-11.2,0s-7.4,2.7-4.4-1.5c2.9-4.1,4.7-5.6,1.5-7.1c-3.2-1.5-4.4-1.8-4.4-4.9c0-1.5,0.7-3.3,1.5-4.6
			c-6.6,0.5-14.1,0.5-22.3-0.3l-1.2,24.4l1.6,2.7L215.8,259.3z"/>
		<path fill="#2D4171" d="M231.4,300.3v-21.5l15-17.5l-1.2-2l-2.7,6.6l-3.9-6.6l-3.3,6.6l-3.9-6.6l-2.9,6.6l-4.8-6.6l-3.1,6.6
			l-4.7-6.6l-3.9,5.6l-1.6-2.7l-1.8,37C215.7,299.9,223.3,300.3,231.4,300.3z"/>
	</g>
	<g>
		<path fill="#D9EAF8" d="M288.6,256.5l2.9,5.2l2.6-5.2l3.3,5.2l4.1-5.2l1.9,5.2l3.9-5.2l0,0c-0.2-2.4-0.1-4.1,0.5-4.4
			c2.4-1.2,1.5-7.1,3.2-10.3c0,0,0,0,0,0c2.6-4.9-0.3-7.9-3-7.9c-1.6,0-14.7,14.2-23.9,25.8l0.9,2.1L288.6,256.5z"/>
		<path fill="#2D4171" d="M275,274.5c3.2,2.4,2.7,1.5,5,5c0.1,0.1,0.2,0.2,0.3,0.3c1.9,1.5,4.3,3.2,7.1,5.2c3.5,2.3,7.8,4.9,12,7.4
			c4.1,2.4,7.9,4.7,10.8,6.3c1.1,0.5,2.2,1.1,3.3,1.6c-1-1-2.1-2.6-1.2-4.4c1.5-2.9-3.5-6.2-4.4-6.5c-0.9-0.3-0.6-12.7,1.2-14.4
			c1.3-1.3-1.2-12.3-1.7-18.6l0,0l-3.9,5.2l-1.9-5.2l-4.1,5.2l-3.3-5.2l-2.6,5.2l-2.9-5.2l-3.6,5.2l-0.9-2.1
			C278.2,267.1,273.8,273.6,275,274.5z"/>
	</g>
	<g>
		<path fill="#D9EAF8" d="M62.1,49.7l4.1-7.2l4.2,7.2l2.3-3c-1.1-1.2-2.6-2.5-4.5-3.5c-5-2.5-15.1-1.1-12.4,2.5l1.9-3.2L62.1,49.7z"
			/>
		<path fill="#D9EAF8" d="M114.9,43.3c-0.5-0.6-1.1-1.1-2.2-1.3c-1.7-0.3-3.5-0.3-5.2,0l3.6,7.7L114.9,43.3z"/>
		<path fill="#D9EAF8" d="M107.2,42.1c-2.1,0.5-4,1.5-5.7,3l2.3,3.5L107.2,42.1z"/>
		<path fill="#2D4171" d="M56.7,46.5c5,4.2-0.9,8.3,8.3,15.1c9.2,6.8,46-5.6,49.9-11.3c0,0,1.9-4.7,0.1-7.1l-3.8,6.5l-3.6-7.7
			c-0.1,0-0.2,0-0.3,0.1l-3.4,6.6l-2.3-3.5c-0.8,0.7-1.5,1.6-2.1,2.6c-3,4.7-19.3,4.2-21.9,3.6c-1.6-0.4-2.8-2.4-4.8-4.5l-2.3,3
			l-4.2-7.2l-4.1,7.2l-4.3-7.2l-1.9,3.2C56,45.9,56.3,46.2,56.7,46.5z"/>
	</g>
	<g>
		<path fill="#D9EAF8" d="M364,248.7l2.1,4.8l2.2-4.8l2.4,4.8l2.2-4.8l1.8,4.8l1-2.2c-0.5-0.2-0.8-0.7-0.6-1.8
			c0.2-1.1,0.5-2,0.7-2.8c0.5-2.1,0.7-4.1-0.9-8.7c-1.2-3.4-4.7-0.6-8.1,3.5c-2.8,3.4-5.5,7.8-6.7,10.4l0.6,1.6L364,248.7z"/>
		<path fill="#D9EAF8" d="M379.5,252c-0.4-0.2-1-0.3-1.6-0.4l0.7,1.9L379.5,252z"/>
		<path fill="#2D4171" d="M366.9,264.1c0.6,0.4,1.2,0.6,1.7,0.8c-1.1,1.5-0.9,4.5-3,4.2c-2.5-0.4-1.4-2.1-3.2-1.5
			c-3.2,1.1-10.2,6.5-8.4,8.8c1.8,2.3,6.2-2.8,5.6-0.5c-0.6,2.4-16.4,9.9-10.9,19.6c5.4,9.8,8.1-3,11.3-1.8c3.2,1.2-0.4-5.2,0.9-7.9
			s5.5-7.8,7.7-6.2c2.2,1.5,5.7-6.6,5.7-8.8c0-2.2,6.3-2,5.1-4c-1.3-2-5.8-1.9-7-0.6c-0.6,0.7-0.8-0.1-1.1-0.9
			c1.6,0,3.1-0.4,4.9-0.7c3.3-0.7,4.5-6.9,4.4-10.9c0-0.9-0.4-1.5-0.9-1.7l-0.8,1.5l-0.7-1.9c-0.8-0.1-1.7-0.1-2.3-0.3l-1,2.2
			l-1.8-4.8l-2.2,4.8l-2.4-4.8l-2.2,4.8l-2.1-4.8l-3.3,4.8l-0.6-1.6c-0.1,0.3-0.3,0.6-0.4,0.9C357.8,257.9,362,261,366.9,264.1z"/>
	</g>
	<g>
		<path fill="#D9EAF8" d="M141.7,31.2l3.8,5.1l3.5-5.1l2.4,5.1l4.4-5.1l1.8,5.1l3.7-5.1l2.3,5.1l3.3-5.1l3.8,5.1l2.6-5.1l4.5,5.1
			l1.1-1.8c-0.3-0.2-0.5-0.5-0.7-0.9c-1.4-2.9-1.3-2.4-3.1-2.9c-1.8-0.5-1.4-0.3-1.3-1.6c0.2-1.3,0-3.9-1.1-4.8
			c-1.1-1,1.4-6.4-0.8-6.4c-2.2,0-3.5,2.1-5.5,1.4c-1.9-0.6-3.2-0.3-4.3-1.4c-1.1-1.1-2.1-2.2-3.5-1.8c-1.4,0.5-2.7-2.9-3.4-3.1
			c-0.6-0.2-1.8,0-1.8,0l-15.9,18.5v2.5l1.1,2.2L141.7,31.2z"/>
		<path fill="#2D4171" d="M137.4,49.2c0.2-0.1,3.4-0.9,4.2,0.6c0.8,1.6,2.8,2.6,3.4,1.8c0.6-0.8,3.4-3.5,4.3-1.2
			c1,2.3,4.5,3.6,5.8,2.9c1.3-0.7,10-7,10.7-4.6c0.7,2.4,0.2,3.4,1.9,3c1.7-0.4,2.7,0.1,3.1,1.6c0.5,1.4,0.5,4.2,2.3,4.1
			c1.8-0.1,3.9,2.2,6.6,1.4c2.8-0.7,8.9,1.1,9.1,2.3s-2,0.7-1.6,1.3c0.5,0.6,0.8,1.7,0.8,1.7c-2.9-0.2-5.3-3.1-5.5,0
			c-0.2,3.1,1.2,5.9,0,9.6c-1.2,3.8,0,5.1,2.8,2.2c2.8-2.9,12.9-3.7,10.7-5.8c-2.2-2.1-5.3-1.6-3.6-3.6c1.7-1.9,11.6-5.1,12.3-7.7
			c0.4-1.6,1.9-2.4,2-2.8c0.1-0.2-0.4-0.3-2-0.2c-4.1,0.2-5.4,1.3-7.5,1c-2.1-0.3-3.9-1.6-4.8-2.6c-1-1-2.2-1.6-4.2-1.4
			c-1.9,0.2-1.1,1-2.4-3.1c-1.3-4-3.8-16.1-3.8-16.1s-1.9,2.1-3.4,0.9l-1.1,1.8l-4.5-5.1l-2.6,5.1l-3.8-5.1l-3.3,5.1l-2.3-5.1
			l-3.7,5.1l-1.8-5.1l-4.4,5.1l-2.4-5.1l-3.5,5.1l-3.8-5.1l-3.3,5.1l-1.1-2.2L137.4,49.2C137.4,49.2,137.4,49.2,137.4,49.2z"/>
	</g>
	<g>
		<path fill="#D9EAF8" d="M243.5,45.1l4.2-5.1l2.4,5.1l2.9-5.1l3.1,5.1l2.4-5.1l1.7,5.1l4-5.1l2.7,5.1l3.3-4.2
			c-0.2-1.1-0.7-2.3-1.7-3.7c-2.8-3.8,2.3-1.5,1.9-4.3c-0.4-2.8-4.9-5.6-6.3-8.5c-1-2.1-1.4-3.8-0.8-4.9c-0.2-0.1-0.3-0.2-0.5-0.4
			c-1-1.2,0.4-2.3-0.9-2.6c-1.3-0.3-0.4,1.5-2-0.8c-1.6-2.3-3.4-4.8-3.4-2.1s0.7,7.9-0.8,8.5s-4.8,0.8-5.4-1c-0.6-1.8,0.3-1.8-1.2-2
			c-1.4-0.2-0.5-0.6-1-1.6c-1.4-2.7-1.1-3.2-2.5-2.5c-1.4,0.7-3.6,2.1-3.7-0.3c-0.1-2.4-4.9-3.8-6.6-2.7c-1.6,1.1-2.6,0.3-3,3.2
			c-0.4,2.9-1.4,5.1,1.1,6.4c2.5,1.3,3.8,0.9,1.9,4.2c-1.9,3.3-4.1,2.9-0.1,5.2c4,2.3,6.1,7.1,4.8,8.7c-1.3,1.5-2.4,2.5-1.9,3.4
			c0.2,0.3,0.2,0.5,0.2,0.7l2.7-3.8L243.5,45.1z"/>
		<path fill="#2D4171" d="M236.4,45c-1.5,0.6-2.6,1-0.8,2.2c1.8,1.2,1.4,0.5,3.2,3.3c1.8,2.7,1.8,4.7,1.2,5.1
			c-0.6,0.4-0.6,1.8-1.1,3c0,0,2.1,10.3,3.2,13.7c1.1,3.4,0.4,2.7,2.1,2.6c1.6-0.1,2.7,0.4,3.6,1.2c0.8,0.8,2.3,1.9,4.1,2.2
			c1.8,0.3,2.9-0.7,6.4-0.8c1.4-0.1,1.8,0,1.7,0.2l0,0c0,0,1.1-1.6,1.9-1.7c0.9-0.2,4.2-0.3,4.4-0.5c0.2-0.2,0.3-0.6,0.5-0.9
			c0.2-0.3,2.9-2.6,2.2-4.3c-0.7-1.7,1.2-3.8,0.5-4.8c-0.5-0.7-0.2-0.5,0.2-1c0.1-0.2,0.3-0.4,0.4-0.8c0.4-1.6-0.6-2.9,0.4-3
			c1-0.1,4.1,0.3,4.2-0.5c0.1-0.8,0.3-1,1.3-0.6c0.7,0.3,2.2-0.5,3-1.7c0.4-0.5,0.6-1.1,0.7-1.8c0.2-2.1-1.4-3.9-2.7-3.6
			c-1.3,0.4-4.4,3.5-5.5,5.1c-1.1,1.6-2.5,1.3-2.5,2.3c0,1-2.2,4.6-2,6c0.2,1.3-1.4,3.6-1.1,2.1c0.3-1.5,2-6.2,2-6.9
			c0-0.7-0.2-2.3,0.7-3.2c0.9-0.9,2.9-2.4,2.6-4.2c-0.3-1.8,0-3.2,2.1-3.2c2.1,0.1,4.4-4.2,6.1-4.1c1.7,0.1,3.2,0.5,3.7-0.8
			c0.2-0.6,1.2-1.3,2.2-2.1c-2.1,0.4-5.6,0.7-8.1,1.1c-3.4,0.5-5,1.9-6,0.6c-0.7-0.8-0.4-2.3-0.8-4.3l-3.3,4.2l-2.7-5.1l-4,5.1
			l-1.7-5.1l-2.4,5.1l-3.1-5.1l-2.9,5.1l-2.4-5.1l-4.2,5.1l-2.5-5.1l-2.7,3.8C238.1,44.3,237.5,44.6,236.4,45z"/>
	</g>
	<g>
		<path fill="#D9EAF8" d="M332.1,29.6l2.7-4.2l3.3,4.2l3.8-4.2l2,4.2l3.4-4.2l1.5,4.2l3.2-3.6l0.5-10.5c-6.7-0.6-13.9-1.8-21.6-3.7
			l-3.8,16.5l3-2.9L332.1,29.6z"/>
		<path fill="#2D4171" d="M349.6,76.9l2.4-50.9l-3.2,3.6l-1.5-4.2l-3.4,4.2l-2-4.2l-3.8,4.2l-3.3-4.2l-2.7,4.2l-2-4.2l-3,2.9
			l-10,43.4C326.5,73.9,337.4,75.8,349.6,76.9z"/>
	</g>
	<g>
		<path fill="#D9EAF8" d="M117.5,150c-0.4,0-0.7-0.1-1.1-0.1l0.4,1.3L117.5,150z"/>
		<path fill="#D9EAF8" d="M111.4,149.9c-1.4-0.5-2.3-1.7-3.2-2.8l2.4,4.1L111.4,149.9z"/>
		<path fill="#D9EAF8" d="M54.6,144.3l2.5,6.9l4-6.9l3.3,6.9l3.4-6.9l3.4,6.9l2.2-6.9l3.6,6.9l3.8-6.9l3.4,6.9l4.4-6.9l2.7,6.9
			l2.6-6.9l3.8,6.9l3.1-6.9l3.6,6.9l1.9-5.9c-0.3-0.2-0.7-0.4-1.2-0.5c-3.9-0.9-9.8-1.8-10.3-5.6c-0.3-1.9-1.1-6.1-1.7-10
			c-4.4,6.3-11.8,10.3-15.5,8.9c-5.3-2.1-6.3-0.8-6.6,3.2c-0.3,3.9-16.3,1.8-21.3,2.4c-1.4,0.2-2,0.8-2.2,1.9l3,5.7L54.6,144.3z"/>
		<path fill="#2D4171" d="M48.2,156.5c-0.1,0.9-0.2,1.7-0.4,2.6c-0.5,2.1-1.2,3.4-1.9,4.3c1.9,1.6,3.2,4.7,5.7,3.5
			c3.7-1.8,12.3-7.9,16.8-4.5c4.6,3.4-0.4,5.2,4.6,10.2c4.9,5.1,6.3,7.7,10.9,7.9c4.6,0.2,5.1,12.3,10.5,9.3c5.4-3,3.5-4.9,4-7.2
			c0.5-2.3,18.9-11.2,18.4-17.2c-0.5-6,3.3-4.9,4.2-9.3c0.1-0.4,0.1-0.8,0.2-1.2c0.1-0.6,0.1-1.3,0-1.8l0,0l0,0
			c-0.3-1.8-1.4-2.9-3.5-3.2l-0.8,1.2l-0.4-1.3c-0.6,0-1.2,0-1.9,0.1c-1.3,0.2-2.3,0.1-3.1-0.2l-0.8,1.3l-2.4-4.1
			c-0.6-0.7-1.1-1.3-1.9-1.8l-1.9,5.9l-3.6-6.9l-3.1,6.9l-3.8-6.9l-2.6,6.9l-2.7-6.9l-4.4,6.9l-3.4-6.9l-3.8,6.9l-3.6-6.9l-2.2,6.9
			l-3.4-6.9l-3.4,6.9l-3.3-6.9l-4,6.9l-2.5-6.9l-4,6.9l-3-5.7C47.2,147.8,48.7,151.8,48.2,156.5z"/>
	</g>
	<g>
		<path fill="#D9EAF8" d="M152,145.4l1.8,5.4l6.2-5.4l1.8,5.4l3.8-5.4l2,5.4l4.7-5.4l2.7,5.4l2.3-3.1c0-0.2,0-0.3,0-0.5
			c0.2-1.9,0.9-3.1,0.9-3.6c0-0.3-0.4-0.5-1.3-0.4c-2.6,0.2-1.9-1-1.6-2.6c0.4-1.6,3.2-0.9,5.2-2.5c2.1-1.6-1.6-2.7-3.2-1.2
			c-1.6,1.5-4.3,0.9-5.8,0.2c-1.6-0.6-0.6-2.6,1.3-1.6c1.9,1,7.4-2.1,8.5-3c1.1-1-0.4-1.3-1.3-0.2c-1,1.1-5.7,0.7-5.5-0.7
			c0.2-1.5,5.3-2.6,6.8-3.5c1.5-1,0.4-1.5-0.7-1.9c-1.1-0.5,0.7-2.4,2.6-4.7c1.8-2.3-0.9-1.3-1.7-2.1c-0.9-0.7,1.9-2.5,0-3.3
			c-1.9-0.8-5.7,2.7-8.3,3.2c-2.6,0.5-2.4,1.5-2.8,2.4c-0.4,0.9,0.5,1.6,1.6,1.9c1.1,0.2,1.4,1.1,2.2-1c0.8-2.2,1.3,0.4,2.6,1.8
			c1.2,1.3-0.4,1.8-0.9,1.2c-0.5-0.6-2.9-1.2-3.5-0.5c-0.6,0.7-1.7-0.4-2.8-1.6c-1.1-1.2-1.9-1.2-2.8,0c-0.9,1.2,1.2,1.9,2.8,2.9
			c1.6,1,0.7,1.7-0.9,1.5c-1.6-0.2-1.7-1.5-3.4-1.7c-1.7-0.2-0.4,1.8,1.1,3.6c1.5,1.8-0.1,1.5-2.1,2.3c-1.9,0.9-1.2-2.9-0.6-6.3
			c0.6-3.4-1.6-1.1-3,0.6c-1.5,1.7-1.6-0.7-2.4-2.1c-0.9-1.3-3.4,3-4.3,5c-0.9,1.9-0.6,1.3,1.3,2.8c1.9,1.5,1.3,2.8,1.1,4.7
			c-0.2,1.9-2.7,0.7-2.7-0.4c0-1.1-0.2-2.1-1.5-2.3c-1.2-0.2-2.2-2.4-1.5-3.5c0.7-1.1-2.6-2.7-4.3-2.3c-1.7,0.4-2.9,1.7-4.3,3.2
			c-1.3,1.5,2.6,1.8,5.5,1.3c2.9-0.5,3,2.2,0.2,4c-2.8,1.8-1.1,0.8,0.4,1.2c1.5,0.4,3.9,1.3,6.4,3.6c2.6,2.3-1.6,3.4-3.5,2.6
			c-1.9-0.9-2.4,0.6-5,2.2c-0.5,0.3-0.9,0.4-1.2,0.3l2.1,4.3L152,145.4z"/>
		<path fill="#D9EAF8" d="M183.8,145.4l3.4,5.4l2.7-3.6c0,0-0.1,0-0.2,0.1c-2.6,1-2.3-0.6-2.9-3.3c-0.6-2.7-1.1-1.5-4-0.6
			c-1.9,0.6-2.6,2.4-2.9,4.6l0.9,2.8L183.8,145.4z"/>
		<path fill="#D9EAF8" d="M195.7,148.2c0-2.1-2-2.2-4-1.7l1.8,4.2L195.7,148.2z"/>
		<path fill="#D9EAF8" d="M140.6,150.8l4-5.4c0-1.1,0.7-2.5,1.9-3.3c2.3-1.5-0.6-2.2-1.7-4.1c-1.1-1.9-2.6-1.7-6.1,0.5
			c-3.5,2.2-3.6,4.3-2.1,8.3c0,0,0,0,0,0.1l1-1.4L140.6,150.8z"/>
		<path fill="#2D4171" d="M138.8,152.2c-0.2,0.8-0.5,1.3-0.6,1.7c0.1,0.2,0.3,0.4,0.4,0.7c1.1,2.1,0.6,6.8,0.6,6.8l5.3,10.2
			c0,0,2.2-0.6,4,1.6c1.8,2.2,8.5,4.1,8.5,6.1c0,1.9-1.8,11.9-1.8,11.9c7,0.8,11.8,0.9,14.1,0.8c-0.1-0.3-0.1-0.5-0.2-0.8
			c-0.7-3.6,0.1-0.3,1.9-1.5c1.8-1.2,0.2-0.7-1.1-2.6c-1.3-1.8-0.6-0.9-1.5-4.4c-0.9-3.5,1.9-0.2,5.3,0.1c3.4,0.4,0.4-1.7-1.2-2.7
			c-1.6-1-0.2-2.6,1.2-5.5c1.5-2.9,1,1.7,1.7,4.1c0.7,2.4,4.9,0.1,7.2,1.5c2.3,1.3,1.5-1.1-0.2-4c-1.7-2.9,2.3,0.2,7.4,0.8
			c5.1,0.6-0.1-2-4.3-4c-1.6-0.8-3-1.3-4-1.8c-1.6-0.7-2.4-1.1-1.7-1.2c1.1-0.2,6.4,1.5,5-1.1c-1.5-2.6-5-2.9-9.5-6.9
			c-4.5-4,5.3-1.2,7.7,1.3c2.3,2.6,5.2,6.4,7.9,5.6c2.7-0.9,11.4,4,16.5,6.6c5.1,2.6,5.8-1.9-0.9-4.4c-6.7-2.4,1.5-1,7.5,1.1
			c6.1,2.1,0.6-3.7-4.3-6.3c-4.9-2.7-3.2-1.3-5.1-3.9c-1.9-2.6,2.7,1.6,6.8,2.7c4.1,1.1,0.2-2.3-1.2-3.5c-1.5-1.2,1.3-1.7,1.2-3.8
			c-0.1-2.1-2.1-0.6-4.1-2.4c-2-1.8-1.1-0.6-2.1,0.9c-1,1.5-1.1,1.1-2.1-1.3c-1-2.4-0.5-1.6-3.2-0.7c-2.7,0.9-5-1.7-4.6-5.1
			c0-0.2,0-0.3,0-0.4l-2.1,2.6l-1.8-4.2c-0.6,0.2-1.3,0.4-1.8,0.6l-2.7,3.6l-3.4-5.4l-2.9,5.4l-0.9-2.8c-0.1,1.2-0.2,2.5-0.2,3.7
			c0,3.6-2.4-0.9-2.4-4l-2.3,3.1l-2.7-5.4l-4.7,5.4l-2-5.4l-3.8,5.4l-1.8-5.4l-6.2,5.4l-1.8-5.4l-4.8,5.4l-2.1-4.3
			c-0.4-0.1-0.6-0.6-0.6-1.2l-4,5.4l-3.1-5.4l-1,1.4C138.1,150.7,139.8,149.2,138.8,152.2z"/>
	</g>
	<g>
		<path fill="#D9EAF8" d="M233.7,141.4l3.3,5.6l3.4-5.6l2.2,5.6l3.1-5.6l3.6,5.6l3.4-5.6l2.7,5.6l2.7-5.6l3.3,5.6l3.7-5.6l0.7,1.3
			c0.1-2.6,0-6.3-1.1-8.4c-0.2-0.4-0.4-0.8-0.6-1.1c-1.5-2.3-2.8-2.3-6.4-1.6c-4.1,0.8-3.1-2.4-2.8-5.3c0.4-2.9-1.8-4.3-5.3-1.2
			c-3.5,3.1-2.2-0.6-2.9-4.3c-0.8-3.7-8.1,3.3-10.9,1.5c-1.7-1.1-2.4-2.3-3.5-2.8c0,0,0,0,0,0c-1.8,3.2-0.9,9.1-3.2,10.3
			c-1.4,0.7-0.1,7.9,0.8,14.1l1.6,3L233.7,141.4z"/>
		<path fill="#2D4171" d="M230.2,152.9c-1.8,1.8-2.1,14.2-1.2,14.4c0.9,0.3,5.9,3.5,4.4,6.5c-0.9,1.8,0.2,3.4,1.2,4.4
			c8.2,4,17.3,7.5,26.8,9.8c11.8,2.8,22,4.5,30.3,5.4c0,0,2.5-13.7,2.9-18.3c0-0.4,0-0.7,0-0.9c0-3.1-10.8-6.3-13.8-9.8
			c-2.9-3.5-6.5-2.6-6.5-2.6l-8.6-16.5c0,0,0.1-1.1,0.2-2.7l-0.7-1.3l-3.7,5.6l-3.3-5.6l-2.7,5.6l-2.7-5.6l-3.4,5.6l-3.6-5.6
			l-3.1,5.6l-2.2-5.6L237,147l-3.3-5.6l-2.3,5.6l-1.6-3C230.4,148.3,230.9,152.2,230.2,152.9z"/>
	</g>
	<g>
		<path fill="#D9EAF8" d="M319.7,164.4l2.2,5.8l4.2-5.8l2.2,5.8l2.5-5.8l3.6,5.8l5.6-5.8l2,5.8l3.8-5.8l0.3,1.1
			c0.5-2,0.4-4.4-1.2-6.2c-2.9-3.4-6.5-5.5-7.3-4.1c-0.8,1.4-0.8-1.2-1.7-0.9c-0.9,0.3-2.2,3.1-2.2,0.9c0-2.3,0.6-2.9-0.8-2.8
			c-1.4,0.1-6.1,0.2-6.7,0.8c-0.6,0.6-2.5,1.5-1.5-1.2c1.1-2.7-2.6,1.5-4.3,0.7c-1.8-0.8,0.1-2-1.7-2.6c-1.3-0.4-2.9,0.5-3.7,0.4
			c-0.3,0-0.5-0.2-0.6-0.7c-0.1-0.6-0.1-1.2-0.1-1.8c-0.1-0.8-0.3-1.5-1.2-1.7c-1.5-0.3-3.4-3.4-4.5-2.7c-0.6,0.4-0.9,0.9-1.2,1.4
			c-0.8,1.7-0.2,4,1.2,7c1.9,4,8.4,8.1,8.9,12.1c0.3,2-1.3,2.2-2.6,2.5l1.4,3.4L319.7,164.4z"/>
		<path fill="#D9EAF8" d="M349.6,167.4c-0.3-1.6-0.7-3.8-1.3-3.4c-0.6,0.3-1.2,1.5-1.7,3l1,3.2L349.6,167.4z"/>
		<path fill="#2D4171" d="M314.9,170.5c3.9,5.5,2.1,9.5,3.5,11.4c1.5,1.9,3.8-0.1,8.6-0.9c3.5-0.6,8.5-0.9,11.5-1.5
			c1.1-0.2,2-0.5,2.4-0.8c1.7-1.3,2-1.2,1.5-3.9c-0.5-2.8,0.2-4.1,1.8-5.5c0.7-0.6,1.5-2,1.9-3.7l-0.3-1.1l-3.8,5.8l-2-5.8l-5.6,5.8
			l-3.6-5.8l-2.5,5.8l-2.2-5.8l-4.2,5.8l-2.2-5.8l-3.3,5.8l-1.4-3.4C313.8,167.2,312.9,167.7,314.9,170.5z"/>
		<path fill="#2D4171" d="M346,173.8c0.8,3.3,0,16.7,3.7,16.8c3.7,0.1,4.4-2.2,5.9-4c1.5-1.9,2.4,0.5,3.3-1.3c1-1.8,3.6-4.8,3.7-2.7
			c0.1,2.2,0.2,6.1,1.5,3.7c1.3-2.4-0.4-5.7,0.6-6.7c1-1,0.8,2.3,2.1,2.7c1.3,0.4,1.5-0.1,1.6-1.2c0.1-1.1,1.7,2.7,2.4,1.2
			c0.6-1.5-0.4-2.2-1-3.7c-0.6-1.5,2.4-1.2,0.7-2.4c-1.7-1.2-1.1,1.4-2,0.9c-0.9-0.4-0.4-1.7-1.2-1.6c-0.8,0.1-1.3,2.1-1.9,1.6
			c-0.6-0.5,1.3-3.4,0.6-4c-0.7-0.6-3,2.3-3.7,1.1c-0.7-1.2-0.7-6.2-1.6-5.1c-0.9,1.1-3.2,4-4.1,3.5c-0.9-0.5-4.5-1.5-4.4-2.8
			c0.1-1.3-1.4-1.3-2-1c-0.2,0.1-0.4-0.7-0.6-1.7l-2,2.8l-1-3.2C345.9,169.1,345.6,171.9,346,173.8z"/>
	</g>
	<text transform="matrix(1 0 0 1 79.8794 206.158)"><tspan x="0" y="0" fill="#4F70B6" font-family="'HelveticaNeue'" font-size="8.7039px">NB</tspan><tspan x="-24.9" y="13.1" fill="#2D4171" font-family="'HelveticaNeue-Bold'" font-size="11.9679px">86% </tspan><tspan x="3.7" y="13.1" fill="#4F70B6" font-family="'HelveticaNeue-Bold'" font-size="11.9679px">- </tspan><tspan x="11.9" y="13.1" fill="#D9EAF8" font-family="'HelveticaNeue-Bold'" font-size="11.9679px">24%</tspan></text>
	<text transform="matrix(1 0 0 1 165.7525 206.158)"><tspan x="0" y="0" fill="#4F70B6" font-family="'HelveticaNeue'" font-size="8.7039px">NU</tspan><tspan x="-24.8" y="13.1" fill="#2D4171" font-family="'HelveticaNeue-Bold'" font-size="11.9679px">73% </tspan><tspan x="3.8" y="13.1" fill="#4F70B6" font-family="'HelveticaNeue-Bold'" font-size="11.9679px">- </tspan><tspan x="12" y="13.1" fill="#D9EAF8" font-family="'HelveticaNeue-Bold'" font-size="11.9679px">27%</tspan></text>
	<text transform="matrix(1 0 0 1 252.4312 206.158)"><tspan x="0" y="0" fill="#4F70B6" font-family="'HelveticaNeue'" font-size="8.7039px">NT</tspan><tspan x="-25.4" y="13.1" fill="#2D4171" font-family="'HelveticaNeue-Bold'" font-size="11.9679px">77% </tspan><tspan x="3.2" y="13.1" fill="#4F70B6" font-family="'HelveticaNeue-Bold'" font-size="11.9679px">- </tspan><tspan x="11.4" y="13.1" fill="#D9EAF8" font-family="'HelveticaNeue-Bold'" font-size="11.9679px">23%</tspan></text>
	<text transform="matrix(1 0 0 1 338.4668 206.158)"><tspan x="0" y="0" fill="#4F70B6" font-family="'HelveticaNeue'" font-size="8.7039px">NF</tspan><tspan x="-27.1" y="13.1" fill="#2D4171" font-family="'HelveticaNeue-Bold'" font-size="11.9679px">65% </tspan><tspan x="1.5" y="13.1" fill="#4F70B6" font-family="'HelveticaNeue-Bold'" font-size="11.9679px">- </tspan><tspan x="9.7" y="13.1" fill="#D9EAF8" font-family="'HelveticaNeue-Bold'" font-size="11.9679px">35%</tspan><tspan x="35" y="13.1" fill="#2D4171" font-family="'HelveticaNeue-Bold'" font-size="11.9679px"> </tspan></text>
	<text transform="matrix(1 0 0 1 77.9956 90.5671)"><tspan x="0" y="0" fill="#4F70B6" font-family="'HelveticaNeue'" font-size="8.7039px">PE</tspan><tspan x="-22.2" y="13.1" fill="#2D4171" font-family="'HelveticaNeue-Bold'" font-size="11.9679px">94% </tspan><tspan x="6.4" y="13.1" fill="#4F70B6" font-family="'HelveticaNeue-Bold'" font-size="11.9679px">-</tspan><tspan x="11.2" y="13.1" fill="#2D4171" font-family="'HelveticaNeue-Bold'" font-size="11.9679px"> </tspan><tspan x="14.6" y="13.1" fill="#D9EAF8" font-family="'HelveticaNeue-Bold'" font-size="11.9679px">6%</tspan></text>
	<text transform="matrix(1 0 0 1 169.2447 90.5671)"><tspan x="0" y="0" fill="#4F70B6" font-family="'HelveticaNeue'" font-size="8.7039px">ON</tspan><tspan x="-24.6" y="13.1" fill="#2D4171" font-family="'HelveticaNeue-Bold'" font-size="11.9679px">74% </tspan><tspan x="4" y="13.1" fill="#4F70B6" font-family="'HelveticaNeue-Bold'" font-size="11.9679px">- </tspan><tspan x="12.2" y="13.1" fill="#D9EAF8" font-family="'HelveticaNeue-Bold'" font-size="11.9679px">26%</tspan></text>
	<text transform="matrix(1 0 0 1 256.8282 90.5671)"><tspan x="0" y="0" fill="#4F70B6" font-family="'HelveticaNeue'" font-size="8.7039px">QC</tspan><tspan x="-24.6" y="13.1" fill="#2D4171" font-family="'HelveticaNeue-Bold'" font-size="11.9679px">68% </tspan><tspan x="4" y="13.1" fill="#4F70B6" font-family="'HelveticaNeue-Bold'" font-size="11.9679px">- </tspan><tspan x="12.2" y="13.1" fill="#D9EAF8" font-family="'HelveticaNeue-Bold'" font-size="11.9679px">32%</tspan></text>
	<text transform="matrix(1 0 0 1 340.208 90.5671)"><tspan x="0" y="0" fill="#4F70B6" font-family="'HelveticaNeue'" font-size="8.7039px">SK</tspan><tspan x="-25.3" y="13.1" fill="#2D4171" font-family="'HelveticaNeue-Bold'" font-size="11.9679px">72% </tspan><tspan x="3.3" y="13.1" fill="#4F70B6" font-family="'HelveticaNeue-Bold'" font-size="11.9679px">- </tspan><tspan x="11.5" y="13.1" fill="#D9EAF8" font-family="'HelveticaNeue-Bold'" font-size="11.9679px">%28</tspan></text>
	<text transform="matrix(1 0 0 1 80.2178 317.3064)"><tspan x="0" y="0" fill="#4F70B6" font-family="'HelveticaNeue'" font-size="8.7039px">AB</tspan><tspan x="-25.2" y="13.1" fill="#2D4171" font-family="'HelveticaNeue-Bold'" font-size="11.9679px">79% </tspan><tspan x="3.4" y="13.1" fill="#4F70B6" font-family="'HelveticaNeue-Bold'" font-size="11.9679px">-</tspan><tspan x="8.2" y="13.1" fill="#2D4171" font-family="'HelveticaNeue-Bold'" font-size="11.9679px"> </tspan><tspan x="11.6" y="13.1" fill="#D9EAF8" font-family="'HelveticaNeue-Bold'" font-size="11.9679px">21%</tspan></text>
	<text transform="matrix(1 0 0 1 220.5259 317.3064)"><tspan x="0" y="0" fill="#4F70B6" font-family="'HelveticaNeue'" font-size="8.7039px">MB</tspan><tspan x="-23.4" y="13.1" fill="#2D4171" font-family="'HelveticaNeue-Bold'" font-size="11.9679px">78% </tspan><tspan x="4.2" y="13.1" fill="#4F70B6" font-family="'HelveticaNeue-Bold'" font-size="11.9679px">- </tspan><tspan x="12" y="13.1" fill="#D9EAF8" font-family="'HelveticaNeue-Bold'" font-size="11.9679px">22%</tspan></text>
	<text transform="matrix(1 0 0 1 150.6387 317.3064)"><tspan x="0" y="0" fill="#4F70B6" font-family="'HelveticaNeue'" font-size="8.7039px">BC</tspan><tspan x="-24" y="13.1" fill="#2D4171" font-family="'HelveticaNeue-Bold'" font-size="11.9679px">80% </tspan><tspan x="3.6" y="13.1" fill="#4F70B6" font-family="'HelveticaNeue-Bold'" font-size="11.9679px">- </tspan><tspan x="11.3" y="13.1" fill="#D9EAF8" font-family="'HelveticaNeue-Bold'" font-size="11.9679px">20%</tspan></text>
	<text transform="matrix(1 0 0 1 291.9038 317.3064)"><tspan x="0" y="0" fill="#4F70B6" font-family="'HelveticaNeue'" font-size="8.7039px">YK</tspan><tspan x="-25.3" y="13.1" fill="#2D4171" font-family="'HelveticaNeue-Bold'" font-size="11.9679px">71% </tspan><tspan x="3.3" y="13.1" fill="#4F70B6" font-family="'HelveticaNeue-Bold'" font-size="11.9679px">- </tspan><tspan x="11.5" y="13.1" fill="#D9EAF8" font-family="'HelveticaNeue-Bold'" font-size="11.9679px">29%</tspan></text>
	<text transform="matrix(1 0 0 1 362.2007 317.3064)"><tspan x="0" y="0" fill="#4F70B6" font-family="'HelveticaNeue'" font-size="8.7039px">NS</tspan><tspan x="-25.1" y="13.1" fill="#2D4171" font-family="'HelveticaNeue-Bold'" font-size="11.9679px">89% </tspan><tspan x="3.5" y="13.1" fill="#4F70B6" font-family="'HelveticaNeue-Bold'" font-size="11.9679px">- </tspan><tspan x="11.7" y="13.1" fill="#D9EAF8" font-family="'HelveticaNeue-Bold'" font-size="11.9679px">11%</tspan></text>
</g>
<g id="Layer_2">
</g>
</svg>
