<?xml version="1.0" encoding="utf-8"?>
<!-- Generator: Adobe Illustrator 19.2.1, SVG Export Plug-In . SVG Version: 6.00 Build 0)  -->
<svg version="1.1" xmlns="http://www.w3.org/2000/svg" xmlns:xlink="http://www.w3.org/1999/xlink" x="0px" y="0px" width="792.1px"
	 height="157.8px" viewBox="0 0 792.1 157.8" style="enable-background:new 0 0 792.1 157.8;" xml:space="preserve">
<style type="text/css">
	.st0{fill:none;}
	.st1{fill:#AAC5E7;stroke:#000000;stroke-width:1.1128;stroke-miterlimit:10;}
	.st2{fill:#FBD7A7;}
	.st3{fill:#5D4838;}
	.st4{fill:#A79072;}
	.st5{fill:#2D4171;}
	.st6{fill:#D9EAF8;}
	.st7{fill:#4F70B6;}
	.st8{fill:#D9EAF8;stroke:#2D4171;stroke-width:0.5;stroke-miterlimit:10;}
	.st9{fill:none;stroke:#FBD7A7;stroke-width:1.088;stroke-linecap:round;stroke-miterlimit:10;}
	.st10{fill:none;stroke:#FBD7A7;stroke-width:2.7079;stroke-miterlimit:10;}
	.st11{fill:#FFFFFF;stroke:#2D4171;stroke-miterlimit:10;}
	.st12{fill:#FFFFFF;stroke:#2D4171;stroke-width:2.8741;stroke-miterlimit:10;}
	.st13{fill:#D9EAF8;stroke:#2D4171;stroke-width:3;stroke-miterlimit:10;}
	.st14{fill:#7698CF;}
	.st15{fill:#AAC5E7;}
	.st16{fill:none;stroke:#4F70B6;stroke-width:1.3493;stroke-miterlimit:10;}
	.st17{fill:#FFFFFF;}
	.st18{fill:#D9EAF8;stroke:#4F70B6;stroke-width:0.5;stroke-miterlimit:10;}
	.st19{fill:#4F70B6;stroke:#4F70B6;stroke-width:0.5;stroke-linecap:round;stroke-miterlimit:10;}
	.st20{fill:#4F70B6;stroke:#AAC5E7;stroke-width:0.5;stroke-miterlimit:10;}
	.st21{fill:#4F70B6;stroke:#4F70B6;stroke-width:0.5;stroke-miterlimit:10;}
	.st22{fill:none;stroke:#FBD7A7;stroke-width:2.7079;stroke-linecap:round;stroke-miterlimit:10;}
	.st23{fill:none;stroke:#2D4171;stroke-width:2.7079;stroke-linecap:round;stroke-miterlimit:10;}
	.st24{fill:none;stroke:#4F70B6;stroke-width:1.088;stroke-miterlimit:10;}
	.st25{fill:#7698CF;stroke:#2D4171;stroke-width:3;stroke-miterlimit:10;}
	.st26{fill:#D9EAF8;stroke:#4F70B6;stroke-width:3;stroke-miterlimit:10;}
	.st27{fill:#4F70B6;stroke:#2D4171;stroke-width:3;stroke-miterlimit:10;}
	.st28{fill:#FBD7A7;stroke:#A79072;stroke-width:3;stroke-miterlimit:10;}
	.st29{fill:none;stroke:#7698CF;stroke-width:1.0494;stroke-miterlimit:10;}
	.st30{fill:none;stroke:#2D4171;stroke-width:1.0494;stroke-miterlimit:10;}
	.st31{fill:none;stroke:#D9EAF8;stroke-width:1.2626;stroke-miterlimit:10;}
	.st32{fill:none;stroke:#4F70B6;stroke-width:1.2626;stroke-miterlimit:10;}
	.st33{fill:none;stroke:#7698CF;stroke-width:1.2626;stroke-miterlimit:10;}
	.st34{fill:none;stroke:#2D4171;stroke-width:1.2626;stroke-miterlimit:10;}
	.st35{fill:none;stroke:#7698CF;stroke-width:1.3994;stroke-miterlimit:10;}
	.st36{fill:none;stroke:#4F70B6;stroke-width:1.0494;stroke-miterlimit:10;}
	.st37{fill:none;stroke:#D9EAF8;stroke-width:1.0494;stroke-miterlimit:10;}
	.st38{fill:#FFFFFF;stroke:#2D4171;stroke-width:3;stroke-miterlimit:10;}
	.st39{fill:none;stroke:#000000;stroke-width:0.3;}
</style>
<g id="Layer_30">
	<path class="st3" d="M122.3,59.4c2.2,2,0.4,6.5,0.4,6.5s4.7-6.4,8.7-8.5c4-2.2,10,1.8,10,1.8s-3.7,6.2-10.1,4.1
		C125,61.3,122.3,59.4,122.3,59.4z"/>
	<path class="st3" d="M230.1,59.4c2.2,2,0.4,6.5,0.4,6.5s4.7-6.4,8.7-8.5c4-2.2,10,1.8,10,1.8s-3.7,6.2-10.1,4.1
		C232.8,61.3,230.1,59.4,230.1,59.4z"/>
	<path class="st4" d="M372.8,73.9c1.8,1.7,0.3,5.4,0.3,5.4s3.9-5.3,7.2-7.1s8.3,1.5,8.3,1.5s-3.1,5.2-8.4,3.4
		C375,75.5,372.8,73.9,372.8,73.9z"/>
</g>
<g id="Layer_2">
	<g>
		<path class="st3" d="M113.6,77.9c-1.2,1.8-5.5,3.1-12.1,4.8c-1.1,14.3-10.1,29.1-27.7,29.1c-12.8,0-15.8-7-17-10.4
			c-0.7-2-2.3-18.8-0.1-18.6c1.4,0.2,2.6,6.1,5.8,8.6c3.9,3.1,12,6.6,4.8,6.8c-6.2,0.2-5.5,10.4,7.2,9.7c6.6-0.4,11-7.1,12.9-20.9
			c-2.9,0.6-6.6,2.1-10.4,4.3l2.1-6.7c2.7-2.2,5.3-4,9-5.3c1.1-10.8,3.2-15.9,9.2-22.1c3.3-0.4,5.3-0.7,8.1-0.8
			c-2.7,5.3-2.9,8.2-3.2,17.7c4.9-1.6,7.8-2.8,12.4-4.9L113.6,77.9z M116.7,38.7c-0.9,5-2.1,8.3-4.2,10.2c-2,1.8-4.9,2.6-9.2,2.6
			c-4.3,0-11.2-0.4-15.5-0.4c-8,0-15.4,3-15.4,10.1c0,3.1,1.7,5.3,5.4,7.1c1.3,0.6,1.8,1.1,1.8,1.5c0,2-3.5,5.4-6.6,6.5
			c-4.5-1.2-6.7-4.1-6.7-8.7c0-7.7,9.4-28.3,28.1-28.3c1.5,0,12.6,1,14.9,1c2.8,0,4.4-0.6,4.9-1.6H116.7z"/>
		<g>
			<path class="st3" d="M132.1,101.6c-1.5,0-2.6-1.5-2.6-3.7c0-2.9,1-7.4,3.1-13.8l5-15.6h-0.6l-12.7,2.7c-2.1,5.7-7.2,19-7.2,29.5
				c0,6.5,3.3,11.5,7.6,11.5c2.1,0,7.3-1.5,17.5-12.3V94C137.8,98.9,135.3,101.6,132.1,101.6z"/>
		</g>
		<path class="st3" d="M141.1,95.2c5.2-5.4,13.3-15.6,16.5-24.7c4.9-1.3,10.5-2,11.1-2c0.3,0,0.5,0.1,0.5,0.4c0,0.3-0.1,0.9-0.4,1.5
			c-0.5,1.4-0.8,3.2-0.8,4.4c0,1.8,0.6,3.5,2.7,6.4c2.6,3.9,3.4,6.2,3.4,9c0,10.2-12,21.8-22.5,21.8c-4.5,0-9-2.9-9-5.6
			c0-1.5,5.1-7.9,6.7-7.9c1.1,0,1.9,1.1,2.7,3.5c1,3.4,2.2,4.7,4.5,4.7c4.1,0,8.4-4.5,8.4-8.9c0-2.2-0.8-4.4-3.3-8.2
			c-2.7-4.1-3.5-5.6-4.6-9c-4.6,7.3-8.3,12-14.7,19.1h-1.1V95.2z"/>
		<path class="st3" d="M177.8,112c-0.4-3.5-0.6-7.3-0.6-11.4c0-19.4,4.9-35.2,17-54.9c8.5-3.5,16.1-6,17-6c1.7,0,3.1,3.3,3.1,7.4
			c0,6.9-3.9,14.6-13.4,27.2c8.2-4.7,10-5.8,13.3-5.8c3.5,0,5.7,2.7,5.7,6.6c0,2.8-1.5,8.6-4.3,16c-1.7,4.5-2.9,8.6-2.9,9.8
			c0,1.4,1,2.8,2.2,2.8c2.1,0,5.9-3.1,11.8-9.6v5.7c-8.1,8.4-14.2,12.3-19.4,12.3c-4.5,0-7.9-3.4-7.9-8.2c0-3.8,1.6-9.6,4.6-16.9
			c1.6-3.7,2.5-6.4,2.5-7.7c0-1.2-0.8-2-1.9-2c-2.8,0-8.5,4.2-13.8,10.1c-1.3,7.5-1.7,12.6-1.7,22.1L177.8,112z M209.9,48.7
			c0-1.8-0.6-3-1.6-3c-2.5,0-6.5,6.3-10.6,16c-2.2,5.5-3.5,9.3-5.5,17.6C205.7,63.4,209.9,54,209.9,48.7z"/>
		<g>
			<path class="st3" d="M241.1,101.6c-1.5,0-2.6-1.5-2.6-3.7c0-2.9,1-7.4,3.1-13.8l5-15.6H246l-12.7,2.7c-2.1,5.7-7.2,19-7.2,29.5
				c0,6.5,3.3,11.5,7.6,11.5c2.1,0,7.3-1.5,17.5-12.3V94C246.7,98.9,244.2,101.6,241.1,101.6z"/>
		</g>
		<path class="st3" d="M251.2,112c-0.2-3-0.5-5.9-0.5-10c0-10.3,2.1-18.8,7.9-31.4l12.2-2.4c-1.7,4.7-4,11.1-5,16.3
			c7.9-8.7,15.1-16.2,21.6-16.2c3.4,0,5.9,2.9,5.9,6.7c0,2.9-1.5,8.7-4.3,15.7c-1.8,4.7-3,8.4-3,9.8c0,1.8,0.9,3,2.5,3
			c3.5,0,10.4-8,11.8-9.6v5.7c-8,8.4-14.1,12.2-19.7,12.2c-4.5,0-7.5-3.4-7.5-8.6c0-3.3,1.7-9.7,4.4-16.4c1.4-3.6,2.1-5.8,2.4-7.5
			c0-1.1-0.4-1.6-1.2-1.6c-2.9,0-10.2,8.8-14.6,14.1c-1.5,7.8-1.6,11.6-1.6,17.5L251.2,112z"/>
		<path class="st3" d="M324.4,100c-6.9,7.7-10.8,10.4-15.3,10.4c-5.5,0-9.4-5.7-9.4-14c0-13.6,12.5-28,24.2-28
			c3.4,0,5.9,1.2,8.6,4.1c3.4-1.2,5.2-2,9.4-4h1.1c-1.2,3.8-2.1,7.5-3,11.5l-4.7,25.1c3.5-1.4,7.9-2.4,10.6-6.6c0.7-1-1.5,0-1.5-0.8
			c-0.1-1.1,2.5-3.2,3.9-4.9c0.3-0.3,0.9-0.1,0.9,0.3v1.9c0,3.4-1.5,6.5-4.1,8.6c-3.3,2.7-6.6,4.4-11,6c-5.3,16.8-14.3,26.9-24,26.9
			c-5.2,0-8.7-3.6-8.7-8.9c0-10,12.5-14.7,21-17.8L324.4,100z M305.1,127.6c0,3,1.9,5.1,4.8,5.1c4.6,0,7.9-5.3,11.4-18.5
			C310.2,118.2,305.1,122.3,305.1,127.6z M311.8,93.9c0,4.6,2,7.5,5.2,7.5c9,0,12.1-21.1,12.1-23.7c0-3.2-1.7-5.4-4.1-5.4
			C317.1,72.2,311.8,85.4,311.8,93.9z"/>
		<g>
			<path class="st4" d="M381.5,104.1c-1.1,0-1.8-1.1-1.8-2.6c0-2,0.7-5.2,2.2-9.7l3.5-11h-0.4l-8.9,1.9c-1.5,4-5.1,13.4-5.1,20.8
				c0,4.6,2.3,8.1,5.3,8.1c1.5,0,5.1-1.1,12.3-8.7v-4C385.5,102.2,383.7,104.1,381.5,104.1z"/>
		</g>
		<path class="st4" d="M388.6,111.4c-0.1-2.1-0.4-4.2-0.4-7.1c0-7.3,1.5-13.3,5.6-22.2l8.6-1.7c-1.2,3.3-2.8,7.9-3.5,11.5
			c5.6-6.1,10.7-11.4,15.2-11.4c2.4,0,4.2,2,4.2,4.8c0,2-1.1,6.1-3,11.1c-1.3,3.3-2.1,5.9-2.1,6.9c0,1.3,0.6,2.1,1.7,2.1
			c1.3,0,4-1.5,5.8-3.1c0.5-0.5-2.2-0.9-1.2-1.4c1.2-0.5,2.3-2,3-2.9c0.2-0.2,0.5-0.1,0.5,0.2l0.1,1.6c0.1,2-0.7,3.8-2.1,5.2
			c-4.6,4.3-8.3,6.3-11.7,6.3c-3.2,0-5.3-2.4-5.3-6.1c0-2.3,1.2-6.9,3.1-11.5c1-2.5,1.5-4.1,1.7-5.3c0-0.8-0.3-1.2-0.9-1.2
			c-2,0-7.2,6.2-10.3,10c-1.1,5.5-1.2,8.2-1.2,12.3L388.6,111.4z"/>
		<path class="st3" d="M499,99.7c-4.6,4.5-12.5,12.3-28.5,12.3s-27.3-11-27.3-26.8c0-25.6,20.6-45.6,37.6-45.6
			c9.6,0,16.4,6.3,16.4,15.6c0,12.1-8.5,22.3-18.4,22.3c-5.2,0-11.2-7.2-11.1-11.4c0-2.6,4.5-10.3,5.7-9.6c2.3,1.3-1.6,5.1,1.7,10.5
			c0.3,0.5,0,1.1-0.6,1.2c-3.3,0.3-1.5,3.7,4.4,3.9c5.6,0.2,8.5-11.9,8.5-19.7c0-5.5-2.8-9-7.1-9c-9.9,0-22.2,20.9-22.2,37.9
			c0,13.9,8.7,23.8,21,23.8c7.3,0,12.9-3,20-11.1V99.7z"/>
		<path class="st3" d="M552.3,99.7c-8.6,8.1-12.9,12.2-18,12.2c-7.7,0-7.6-10.8-7.5-13.9c-6.9,9.8-12.1,13.9-17.9,13.9
			c-5.9,0-10.5-6.2-10.5-14.2c0-17.2,16.9-29.5,26.1-29.5c4.1,0,7.1,1.9,8.7,5.7l10.2-5.6h2.8L541.8,83c-1.1,3.7-3.4,12.1-3.4,15.1
			c0,2.8,1.2,4.3,3.1,4.3c2.4,0,4.4-1.9,10.8-8.4V99.7z M511.1,96.5c0,3.6,1.9,6,4.7,6c7.4,0,13.8-15.9,13.8-24.2
			c0-3.7-1.7-5.9-4.6-5.9C517.6,72.3,511.1,88.1,511.1,96.5z"/>
		<path class="st3" d="M552.3,112c-0.2-3-0.5-5.9-0.5-10c0-10.3,2.1-18.8,7.9-31.4l12.2-2.4c-1.7,4.7-4,11.1-5,16.3
			c7.9-8.7,15.1-16.2,21.6-16.2c3.4,0,5.9,2.9,5.9,6.7c0,2.9-1.5,8.7-4.3,15.7c-1.8,4.7-3,8.4-3,9.8c0,1.8,0.9,3,2.5,3
			c3.5,0,10.4-8,11.8-9.6v5.7c-8,8.4-14.1,12.2-19.7,12.2c-4.5,0-7.5-3.4-7.5-8.6c0-3.3,1.7-9.7,4.4-16.4c1.4-3.6,2.1-5.8,2.4-7.5
			c0-1.1-0.4-1.6-1.2-1.6c-2.9,0-10.2,8.8-14.6,14.1c-1.5,7.8-1.6,11.6-1.6,17.5L552.3,112z"/>
		<path class="st3" d="M654.6,99.7c-8.6,8.1-12.9,12.2-18,12.2c-7.7,0-7.6-10.8-7.5-13.9c-6.9,9.8-12.1,13.9-17.9,13.9
			c-5.9,0-10.5-6.2-10.5-14.2c0-17.2,16.9-29.5,26.1-29.5c4.1,0,7.1,1.9,8.7,5.7l10.2-5.6h2.8L644,83c-1.1,3.7-3.4,12.1-3.4,15.1
			c0,2.8,1.2,4.3,3.1,4.3c2.4,0,4.4-1.9,10.8-8.4V99.7z M613.4,96.5c0,3.6,1.9,6,4.7,6c7.4,0,13.8-15.9,13.8-24.2
			c0-3.7-1.7-5.9-4.6-5.9C619.9,72.3,613.4,88.1,613.4,96.5z"/>
		<path class="st3" d="M690.1,42.2c-0.6-0.8,0.3-2.2,1.1-1.7c11.7,6.6,15.2-1.2,17.2-0.4c1.2,0.4-0.4,3.7-3.7,9.3
			c-7.2,12.5-10.3,40.3-10.3,48.7c0,2.6,1.1,4.2,2.9,4.2c2.9,0,7.3-4.6,10.5-8.3v5.7c-6.5,6.4-12.5,12.2-17.6,12.2
			c-1.1,0-7.7,0-7.8-13.5c-3,4.6-4.9,7-8.1,9.4c-3.3,2.7-6.6,4.1-9.5,4.1c-5.7,0-10.7-6.2-10.7-13.4c0-14.9,13-30.2,25.6-30.2
			c3.2,0,4.7,0.7,7.3,3.3l5.6-17.2c1.2-3.7,0.6-7.7-1.6-10.9L690.1,42.2z M667.1,96.5c0,3.7,1.8,5.9,4.7,5.9
			c7.3,0,13.4-15.4,13.4-23.8c0-3.9-1.8-6.4-4.8-6.4C673.5,72.1,667.1,88.3,667.1,96.5z"/>
		<path class="st3" d="M765.7,88.9c1-1.1,1,0.2,0.9,0.8c-1.3,3.8-3.7,8.2-6.6,11.2c-7.4,7.8-12,11.1-16.8,11.1
			c-7.7,0-7.6-10.8-7.5-13.9c-6.9,9.8-12.1,13.9-17.9,13.9c-5.9,0-10.5-6.2-10.5-14.2c0-17.2,16.9-29.5,26.1-29.5
			c4.1,0,7.1,1.9,8.7,5.7l10.2-5.6h2.8L750.6,83c-1.1,3.7-3.4,12.1-3.4,15.1c0,2.8,1.2,4.3,3.1,4.3c2,0,4.7,0,8.8-5.4
			c0.6-0.8-8.4-1.1-3.8-2.3C759.9,93.5,763.9,90.8,765.7,88.9z M719.9,96.5c0,3.6,1.9,6,4.7,6c7.4,0,13.8-15.9,13.8-24.2
			c0-3.7-1.7-5.9-4.6-5.9C726.5,72.3,719.9,88.1,719.9,96.5z"/>
	</g>
</g>
</svg>
