<?xml version="1.0" encoding="utf-8"?>
<!-- Generator: Adobe Illustrator 19.2.1, SVG Export Plug-In . SVG Version: 6.00 Build 0)  -->
<svg version="1.1" xmlns="http://www.w3.org/2000/svg" xmlns:xlink="http://www.w3.org/1999/xlink" x="0px" y="0px" width="454.7px"
	 height="91.8px" viewBox="0 0 454.7 91.8" enable-background="new 0 0 454.7 91.8" xml:space="preserve">
<g id="Layer_30">
	<text transform="matrix(1 0 0 1 121.5236 56.5392)"><tspan x="0" y="0" fill="#D9EAF8" font-family="'HelveticaNeue-CondensedBlack'" font-size="28.2878px">WALLEYE</tspan><tspan x="-112.9" y="14.1" fill="#2D4171" font-family="'HelveticaNeue-Bold'" font-size="11.9679px">The most prodominant species caught</tspan></text>
	<g>
		<g>
			<g>
				<g>
					<path fill="#7698CF" d="M388.4,35.2c1.4-4.9,3.3-17.5,1.1-16.4s-5.2-7.7-6.8-6.7c-1.6,1-8.7-4.7-9-2.8
						c-0.3,1.9-9.8-1.1-11.5,1.6s-8.7,2.2-9,4.6c-0.3,2.5-5.6,1.6-6.5,4.1c-0.9,2.5-5.5,2.7-6.1,4.9s-3.5,6-2.7,9
						C338.7,36.6,388.4,35.2,388.4,35.2z"/>
				</g>
				<g>
					<path fill="#7698CF" d="M298.6,41.8c-7.9-6-12-7.1-1.4-14.2s22.1-19.9,28.1-13.9c6,6,12.5,19.9,12.5,19.9L298.6,41.8z"/>
				</g>
				<g>
					<path fill="#7698CF" d="M332.7,57.9c-2.2,5.2-12,22.9-19.9,17.2s-18.8-19.9-6-22.4S332.7,57.9,332.7,57.9z"/>
				</g>
			</g>
			<path fill="#4F70B6" d="M380.5,29.2c-37.8-3.7-79.2,8.4-92,10.8c0,0,0,0,0,0c-3.1,0.8-8.5,12.2,5,13.2
				c15.8,0.5,22.4,8.2,60.8,10.1c38.5,1.9,82.7-10.4,82.7-12.5c0-2.2-15.3,3.5-13.9,1.4c1.4-2.2,14.7-3,15.6-4.9
				S421.9,33.3,380.5,29.2z"/>
			<path fill="#7698CF" d="M289.6,39.8c0,0-3.2,0.5-3.9,0.6c-7.6,0.3-22.8-22.3-30.5-18.2c-7.6,4.1,4.7,18.2,3,26.3
				c-1.4,6.7-9.1,16.2-3,21.1c6.1,4.9,23.4-16.9,39.2-16.3C280.9,52.3,286.5,40.6,289.6,39.8z"/>
			<g>
				<circle fill="#FFFFFF" cx="419.5" cy="44" r="1.9"/>
			</g>
		</g>
		<g>
			<path fill="#7698CF" d="M389.2,57.1c-0.9,4.9-1.6,27.6-10.1,26.7s-16.9-13.6-4.4-21.8C387.3,53.8,389.2,57.1,389.2,57.1z"/>
		</g>
	</g>
</g>
<g id="Layer_2">
</g>
</svg>
