<?xml version="1.0" encoding="utf-8"?>
<!-- Generator: Adobe Illustrator 19.2.1, SVG Export Plug-In . SVG Version: 6.00 Build 0)  -->
<svg version="1.1" xmlns="http://www.w3.org/2000/svg" xmlns:xlink="http://www.w3.org/1999/xlink" x="0px" y="0px" width="597.5px"
	 height="501px" viewBox="0 0 597.5 501" enable-background="new 0 0 597.5 501" xml:space="preserve">
<g id="Layer_5">
	<g>
		<g>
			<text transform="matrix(1 0 0 1 338.6337 50.284)"><tspan x="0" y="0" fill="#2D4171" font-family="'HelveticaNeue-Bold'" font-size="18.1015px">Nova Scotia</tspan><tspan x="0" y="24.5" fill="#2D4171" font-family="'HelveticaNeue'" font-size="20.3827px">1.7%</tspan></text>
		</g>
		<g>
			<g>
				<polyline fill="none" stroke="#7697CE" stroke-width="1.0494" stroke-miterlimit="10" points="319.9,98.2 319.7,50.3 
					335.8,50.3 				"/>
				<g>
					
						<ellipse transform="matrix(1 -2.591132e-03 2.591132e-03 1 -0.2531 0.8291)" fill="#7697CE" cx="319.9" cy="98.1" rx="2.4" ry="2.4"/>
				</g>
			</g>
		</g>
		<g>
			<text transform="matrix(1 0 0 1 242.8662 29.3758)"><tspan x="0" y="0" fill="#2D4171" font-family="'HelveticaNeue-Bold'" font-size="18.1015px">P.E.I.</tspan><tspan x="0" y="24.5" fill="#2D4171" font-family="'HelveticaNeue'" font-size="20.3827px">0.2 %</tspan></text>
		</g>
		<g>
			<g>
				<polyline fill="none" stroke="#2D4171" stroke-width="1.0494" stroke-miterlimit="10" points="303.1,90.9 303.1,29.4 287,29.4 
									"/>
				<g>
					<circle fill="#2D4171" cx="303.1" cy="90.8" r="2.4"/>
				</g>
			</g>
		</g>
		<g>
			<g>
				<text transform="matrix(1 0 0 1 531.2607 303.2078)"><tspan x="0" y="0" fill="#2D4171" font-family="'HelveticaNeue-Bold'" font-size="18.1015px">Yukon</tspan><tspan x="0" y="24.5" fill="#2D4171" font-family="'HelveticaNeue'" font-size="20.3827px">0.2%</tspan></text>
			</g>
		</g>
		<g>
			<g>
				<polyline fill="none" stroke="#D8EAF8" stroke-width="1.2626" stroke-miterlimit="10" points="372.8,294.6 396.4,294.6 
					396.4,305.3 532.3,303.2 				"/>
				<g>
					<circle fill="#D8EAF8" cx="373" cy="294.6" r="2.8"/>
				</g>
			</g>
		</g>
		<g>
			<text transform="matrix(1 0 0 1 474.3828 261.9246)"><tspan x="0" y="0" fill="#2D4171" font-family="'HelveticaNeue-Bold'" font-size="18.1015px">B.C. Tidal</tspan><tspan x="0" y="24.5" fill="#2D4171" font-family="'HelveticaNeue'" font-size="20.3827px">6.9%</tspan></text>
		</g>
		<g>
			<g>
				
					<line fill="none" stroke="#4F70B5" stroke-width="1.2626" stroke-miterlimit="10" x1="385.7" y1="261.3" x2="471.5" y2="261.3"/>
				<g>
					<circle fill="#4F70B5" cx="385.8" cy="261.3" r="2.8"/>
				</g>
			</g>
		</g>
		<g>
			<g>
				<line fill="none" stroke="#D8EAF8" stroke-width="1.2626" stroke-miterlimit="10" x1="159.1" y1="132.5" x2="84.8" y2="132.5"/>
				<g>
					<circle fill="#D8EAF8" cx="158.9" cy="132.5" r="2.8"/>
				</g>
			</g>
		</g>
		<g>
			<text transform="matrix(1 0 0 1 11.291 134.1199)"><tspan x="0" y="0" fill="#2D4171" font-family="'HelveticaNeue-Bold'" font-size="18.1015px">Quebec</tspan><tspan x="0" y="24.5" fill="#2D4171" font-family="'HelveticaNeue'" font-size="20.3827px">26.7%</tspan></text>
		</g>
		<g>
			<text transform="matrix(1 0 0 1 160.54 403.0164)"><tspan x="0" y="0" fill="#2D4171" font-family="'HelveticaNeue-Bold'" font-size="18.1015px">Ontario</tspan><tspan x="0" y="24.5" fill="#2D4171" font-family="'HelveticaNeue'" font-size="20.3827px">31.1%</tspan></text>
		</g>
		<g>
			<g>
				<polyline fill="none" stroke="#7697CE" stroke-width="1.2626" stroke-miterlimit="10" points="150.1,303.4 149.8,403 158,403 
									"/>
				<g>
					
						<ellipse transform="matrix(3.235605e-03 -1 1 3.235605e-03 -153.8983 452.6002)" fill="#7697CE" cx="150.1" cy="303.5" rx="2.8" ry="2.8"/>
				</g>
			</g>
		</g>
		<g>
			<text transform="matrix(1 0 0 1 428.787 401.9597)"><tspan x="0" y="0" fill="#2D4171" font-family="'HelveticaNeue-Bold'" font-size="18.1015px">Nunavut</tspan><tspan x="0" y="24.5" fill="#2D4171" font-family="'HelveticaNeue'" font-size="20.3827px">0.03%</tspan></text>
		</g>
		<g>
			<g>
				<polyline fill="none" stroke="#2D4171" stroke-width="1.2626" stroke-miterlimit="10" points="382.2,293.7 382.2,400.3 
					425.6,400.3 				"/>
				<g>
					<circle fill="#2D4171" cx="382.2" cy="293.8" r="2.8"/>
				</g>
			</g>
		</g>
		<text transform="matrix(1 0 0 1 372.4111 459.1492)"><tspan x="0" y="0" fill="#2D4171" font-family="'HelveticaNeue-Bold'" font-size="18.1015px">Saskatchewan</tspan><tspan x="0" y="24.5" fill="#2D4171" font-family="'HelveticaNeue'" font-size="20.3827px">4.8%</tspan></text>
		<g>
			<g>
				<polyline fill="none" stroke="#D8EAF8" stroke-width="1.2626" stroke-miterlimit="10" points="360.3,322.4 360.3,459.1 
					369.3,459.1 				"/>
				<g>
					<circle fill="#D8EAF8" cx="360.3" cy="322.5" r="2.8"/>
				</g>
			</g>
		</g>
		<text transform="matrix(1 0 0 1 243.4648 468.3543)"><tspan x="0" y="0" fill="#2D4171" font-family="'HelveticaNeue-Bold'" font-size="18.1015px">Alberta</tspan><tspan x="0" y="24.5" fill="#2D4171" font-family="'HelveticaNeue'" font-size="20.3827px">7.3%</tspan></text>
		<g>
			<g>
				<polyline fill="none" stroke="#2D4171" stroke-width="1.2626" stroke-miterlimit="10" points="325.8,340.4 325.8,468.4 
					316.8,468.4 				"/>
				<g>
					<circle fill="#2D4171" cx="325.8" cy="340.5" r="2.8"/>
				</g>
			</g>
		</g>
		<g>
			<text transform="matrix(1 0 0 1 475.6474 353.7742)"><tspan x="0" y="0" fill="#2D4171" font-family="'HelveticaNeue-Bold'" font-size="18.1015px">N.W.T.</tspan><tspan x="0" y="24.5" fill="#2D4171" font-family="'HelveticaNeue'" font-size="20.3827px">0.08%</tspan></text>
		</g>
		<g>
			<g>
				<polyline fill="none" stroke="#7697CE" stroke-width="1.3994" stroke-miterlimit="10" points="366.9,300.2 388.9,300.2 
					388.9,353.8 473.1,353.8 				"/>
				<g>
					<circle fill="#7697CE" cx="367" cy="300.2" r="3.2"/>
				</g>
			</g>
		</g>
		<g>
			<text transform="matrix(1 0 0 1 452.5703 207.2586)"><tspan x="0" y="0" fill="#2D4171" font-family="'HelveticaNeue-Bold'" font-size="18.1015px">B.C. Freshwater</tspan><tspan x="0" y="24.5" fill="#2D4171" font-family="'HelveticaNeue'" font-size="20.3827px">8.6%</tspan></text>
		</g>
		<g>
			<g>
				
					<line fill="none" stroke="#2D4171" stroke-width="1.0494" stroke-miterlimit="10" x1="390.9" y1="207.3" x2="449.8" y2="207.3"/>
				<g>
					<circle fill="#2D4171" cx="391" cy="207.3" r="2.4"/>
				</g>
			</g>
		</g>
		<g>
			<text transform="matrix(1 0 0 1 449.6435 151.7771)"><tspan x="0" y="0" fill="#2D4171" font-family="'HelveticaNeue-Bold'" font-size="18.1015px">Manitoba</tspan><tspan x="0" y="24.5" fill="#2D4171" font-family="'HelveticaNeue'" font-size="20.3827px">4.9%</tspan></text>
		</g>
		<g>
			<g>
				<polyline fill="none" stroke="#4F70B5" stroke-width="1.0494" stroke-miterlimit="10" points="386,170.7 430.6,170.7 
					430.7,151.8 446.8,151.8 				"/>
				<g>
					<circle fill="#4F70B5" cx="386.2" cy="170.7" r="2.4"/>
				</g>
			</g>
		</g>
		<g>
			<text transform="matrix(1 0 0 1 414.2099 98.4949)"><tspan x="0" y="0" fill="#2D4171" font-family="'HelveticaNeue-Bold'" font-size="18.1015px">New Brunswick</tspan><tspan x="0" y="24.5" fill="#2D4171" font-family="'HelveticaNeue'" font-size="20.3827px">1.7%</tspan></text>
		</g>
		<g>
			<g>
				<polyline fill="none" stroke="#D8EAF8" stroke-width="1.0494" stroke-miterlimit="10" points="350.6,117.4 395.1,117.4 
					395.3,98.5 411.4,98.5 				"/>
				<g>
					<circle fill="#D8EAF8" cx="350.7" cy="117.4" r="2.4"/>
				</g>
			</g>
		</g>
		<g>
			<path fill="#D8EAF8" d="M386.1,298.1c1.6-2.8,3.1-5.6,4.5-8.6l-132.4-65L386.1,298.1z"/>
			<path fill="#4F70B5" d="M258.2,224.6l132.4,65c4-8.4,7.3-17.4,9.9-26.9c0.5-1.9,1.4-5.6,1.8-7.5L258.2,224.6z"/>
		</g>
		<path fill="#7697CE" d="M386.1,298.1l-127.9-73.6l124.8,78.7c0.5-0.9,1.1-1.7,1.6-2.6C385.2,299.8,385.7,299,386.1,298.1z"/>
		<path fill="#7697CE" d="M258.2,224.6l-147.2,0c0,1.7,0,3.4,0.1,5.1c2.8,81.3,71,144.9,152.3,142c17.9-0.6,30.9-3.3,47.6-9.7
			L258.2,224.6z"/>
		<g>
			<path fill="#2D4171" d="M311,362c17.3-6.7,32.5-15.8,45.5-27.2l-98.2-110.2L311,362z"/>
			<path fill="#D8EAF8" d="M356.5,334.8c9.6-8.4,17.9-18.1,24.8-28.8l-123-81.4L356.5,334.8z"/>
			<path fill="#2D4171" d="M258.2,224.6l123,81.4c0.6-0.9,1.2-1.8,1.8-2.8L258.2,224.6z"/>
		</g>
		<path fill="#2D4171" d="M404.9,209.7c-0.3-2.6-0.6-5.3-1-7.9c-0.8-5.5-2-10.8-3.4-16.1l-142.3,38.9l144,30.6
			C405.5,239.8,406.3,224.5,404.9,209.7z"/>
		<path fill="#7697CE" d="M311,87.1l-52.8,137.5l90.1-116.6C337.3,99.4,324.8,92.4,311,87.1z"/>
		<g>
			<path fill="#D8EAF8" d="M276.2,78.4c-6.5-0.8-11.4-1.1-17.9-1.1c-1,0-4.2,0.1-5.1,0.1C173.6,80.2,111,145.6,111,224.6l147.2,0
				l40.3-141.7C291.5,80.8,284.7,79.4,276.2,78.4z"/>
			<path fill="#2D4171" d="M298.6,82.8l-40.3,141.7L311,87.1C306.5,85.4,302.5,84,298.6,82.8z"/>
		</g>
		<g>
			<path fill="#D8EAF8" d="M348.4,107.9l-90.1,116.6l116.2-90.9C366.9,124.1,358.2,115.5,348.4,107.9z"/>
			<path fill="#4F70B5" d="M399.1,180.6c-1.5-4.9-3.3-9.6-5.2-14.3c-3-7.1-6.7-14-10.8-20.5c-2.7-4.2-5.6-8.3-8.6-12.2l-116.2,90.9
				l142.3-38.9C400.1,184,399.6,182.3,399.1,180.6z"/>
		</g>
		<circle fill="#FFFFFF" stroke="#2D4171" stroke-width="3" stroke-miterlimit="10" cx="259.5" cy="224.6" r="120.1"/>
		<text transform="matrix(1 0 0 1 187.207 210.1004)"><tspan x="0" y="0" fill="#2D4171" font-family="'HelveticaNeue-CondensedBlack'" font-size="33.2752px">Canadian</tspan><tspan x="7.6" y="28.3" fill="#2D4171" font-family="'HelveticaNeue-CondensedBlack'" font-size="33.2752px">Anglers</tspan><tspan x="-12.7" y="64.1" fill="#2D4171" font-family="'HelveticaNeue-Light'" font-size="37.8127px">2,456,876</tspan></text>
	</g>
</g>
<g id="Information">
</g>
<g id="Margin_LR">
</g>
<g id="_x34__x2F_8_x2F_12_Layout" opacity="0.46">
</g>
<g id="Baseline_Grids" display="none">
</g>
</svg>
