<?xml version="1.0" encoding="utf-8"?>
<!-- Generator: Adobe Illustrator 19.2.1, SVG Export Plug-In . SVG Version: 6.00 Build 0)  -->
<svg version="1.1" xmlns="http://www.w3.org/2000/svg" xmlns:xlink="http://www.w3.org/1999/xlink" x="0px" y="0px" width="598.3px"
	 height="93.2px" viewBox="0 0 598.3 93.2" enable-background="new 0 0 598.3 93.2" xml:space="preserve">
<g id="Layer_5">
	<g>
		<path fill="#A79072" d="M284.9,48.7c-2.5,3.5-5.6,4.9-2.3,5.2c3.3,0.3,3.3,5.1-1.9,5.4c-1.6,0.1-4.5-1.5-7.8-4
			c1.2-1,2.1-1.9,2.7-2.3c2.7-2.1,7.8-7.8,7.8-10.8c0-6.4-5-7.6-7.8-6.5c-5.7,2.1-3.6,9.6-6.3,13.1c-0.4,0.5-1.1,1.1-2,1.7
			c-2.2-2.2-4.4-4.5-6.3-7c1.1-0.4,2.3-0.8,3.4-1.3c7-3.1,8.3-7.7,7.4-13.1c-0.9-5.4-6-9.6-14.4-9.6c-8.4,0-10.8,4.8-12.6,9.9
			c-0.8,2.1,0.8,5.5,3.2,9.1c-1.8,1-3.5,2.5-5,4.7c-5.7,8.7-3,15.6,8.4,19.2c6.2,2,12-0.4,16.5-3.2c3.5,2.6,7.4,4.8,11.4,5.6
			c7.5,1.5,9-6.3,9.3-14.1C288.9,42.7,287.4,45.1,284.9,48.7z M277.8,40.4c0.9,0,1.7,0.8,1.7,1.8s-0.8,1.8-1.7,1.8s-1.7-0.8-1.7-1.8
			S276.8,40.4,277.8,40.4z M255,32.3c-2.1-10.5,8.4-4.8,6.4,0c-0.8,1.8-2.8,2.6-5.3,3.3C255.6,34.4,255.2,33.3,255,32.3z
			 M250.5,51.7c-0.6-2.8,1-4.5,3.5-5.7c2,2.3,4,4.3,5.5,5.7c0.5,0.5,1.1,1,1.6,1.5C256.3,54.8,251.2,55.1,250.5,51.7z"/>
		<g>
			<path fill="#5C4737" d="M71.5,67.5c-4.3,4.2-11.8,11.6-26.9,11.6c-15.2,0-25.8-10.4-25.8-25.3c0-24.1,19.4-43,35.5-43
				c9.1,0,15.4,6,15.4,14.8c0,11.4-8,21-17.4,21c-4.9,0-8.4-2.8-8.4-6.8c0-1.7,2.3-14.1,4.2-12.8c1.5,2.6,5.3,8.7,2,8.7
				c-4.1,0-1,3.9-0.2,3.9c5.1,0,10.4-9.4,10.4-16.8c0-5.2-2.6-8.5-6.7-8.5c-9.4,0-20.9,19.7-20.9,35.8c0,13.1,8.2,22.5,19.8,22.5
				c6.9,0,12.2-2.8,18.9-10.5V67.5z"/>
			<path fill="#5C4737" d="M121.8,67.5c-8.1,7.6-12.2,11.5-17,11.5c-7.2,0-7.1-10.2-7-13.1C91.3,75.1,86.4,79,80.9,79
				c-5.6,0-9.9-5.9-9.9-13.4c0-16.2,15.9-27.8,24.6-27.8c3.9,0,6.7,1.8,8.2,5.4l9.6-5.3h2.6l-4.1,13.8c-1.1,3.5-3.2,11.4-3.2,14.3
				c0,2.6,1.2,4.1,2.9,4.1c2.2,0,4.1-1.8,10.2-7.9V67.5z M82.9,64.4c0,3.4,1.8,5.7,4.4,5.7c6.9,0,13-15,13-22.9
				c0-3.5-1.6-5.6-4.3-5.6C89.1,41.6,82.9,56.5,82.9,64.4z"/>
			<path fill="#5C4737" d="M132.5,24.4l12.6-2.6l-4.8,16.4l6.6-0.4l-1.5,7.2l-7.3,0.6c-1.1,3.9-4.7,13.7-4.7,19.3c0,3,1.6,5,4,5
				c4,0,6.9-3,11.7-7.9v5.4c-8.4,8.3-13.5,11.5-18.5,11.5c-5.4,0-9.1-4.9-9.1-12.4c0-6.7,2.7-13.8,4.4-20.1l-3.7,0.2l1.5-7.4
				l4.4-0.2L132.5,24.4z"/>
			<path fill="#5C4737" d="M184.2,67.5c-8.4,8.2-14.5,11.5-21.5,11.5c-8.2,0-14.1-5.9-14.1-14.1c0-13.4,11.7-27,23.2-27
				c5.6,0,9.5,3.4,9.5,8.4c0,1.7-0.6,2.5-2.3,3.3l-5.5,2.6c-0.6,0.3-1.2,0.5-1.4,0.5c-0.5,0-0.7-0.4-0.7-1c0-0.8,0.6-4.1,0.6-5
				c0-2.8-1.3-4.6-3.2-4.6c-4.7,0-9.2,8.1-9.2,16.7c0,7.4,3.9,12.3,9.8,12.3c4.7,0,8.5-2.2,14.9-8.9V67.5z"/>
			<path fill="#5C4737" d="M184.3,79.1c-0.4-3.3-0.6-6.9-0.6-10.7c0-18.3,4.6-33.2,16-51.8c8-3.3,15.2-5.7,16-5.7
				c1.6,0,2.9,3.1,2.9,6.9c0,6.5-3.7,13.8-12.6,25.7c7.7-4.4,9.5-5.5,12.5-5.5c3.3,0,5.4,2.5,5.4,6.3c0,2.6-1.4,8.1-4.1,15.1
				c-1.6,4.2-2.7,8.1-2.7,9.3c0,1.4,1,2.6,2.1,2.6c1.8,0,6-0.6,9.5-5.9c1.5-2.4-3.3-1.4-1.5-3.2l4.2-3.7c0.3-0.3,0.9,0,0.8,0.4
				l-0.3,1.7c-1.1,5.1-3.8,9.7-7.8,13c-4.7,3.8-8.5,5.6-12,5.6c-4.2,0-7.4-3.2-7.4-7.7c0-3.6,1.5-9.1,4.3-15.9
				c1.5-3.5,2.3-6.1,2.3-7.2c0-1.2-0.8-1.9-1.8-1.9c-2.6,0-8,4-13,9.6c-1.3,7-1.6,11.9-1.6,20.8L184.3,79.1z M214.6,19.3
				c0-1.7-0.6-2.8-1.5-2.8c-2.3,0-6.2,6-10,15.1c-2.1,5.2-3.3,8.8-5.2,16.6C210.6,33.2,214.6,24.3,214.6,19.3z"/>
			<path fill="#5C4737" d="M337.5,44.2c-1.2,8-2.5,18-9.9,25.7c-5.4,5.7-13,9.1-20.7,9.1c-12,0-13.5-8.2-13.5-10.8
				c0-0.9,0.2-1.4,0.6-1.9c1.1-1.4,7.5-5.4,9.4-5.4c1.2,0,1.5,0.5,1.5,1.8c0,0.9-1,5.5-1,6.5c0,3.6,2.2,6.1,5.3,6.1
				c2.8,0,11.1-1.7,14.1-25c1.6-13.3,3.8-19.2,8.8-24c3.2-3.1,7.8-5.4,11-5.4c0.9,0,1.4,0.4,2.6,1.6
				C340.4,26.7,339.5,29.1,337.5,44.2z M369.8,67.5C362.2,75.7,357,79,351.2,79C345,79,341,74.6,341,68.1c0-2.1,0.4-4.3,1.4-8.3
				c1-3.8,1.3-5.5,1.3-7.6c0-3.1-0.9-4.4-2.9-4.5c-1.4-0.1-1.7-0.5-1.7-1.6c0-1.8,0.8-2.8,2.2-2.8c0.5,0,2.5,0.2,3,0.2
				c2.3,0,3.6-0.6,5.5-2.3c2.8-3.1,4.1-7.3,4.1-12.4c0-9.5-5.5-14.3-16.2-14.3c-13.7,0-26.3,8.7-26.3,18c0,2.6,1.3,4.5,3.9,5.9
				c1.4,0.7,1.8,1.4,1.8,2.3c0,1.8-7.1,4.3-8.5,4.3c-2.8,0-5.4-4.2-5.4-8.9c0-14.2,16.2-25.4,36.5-25.4c19.5,0,27.1,10.2,27.1,18.9
				c0,4.3-2.2,8.5-6.1,11.6c-2.8,2.2-6.1,3.5-13.3,5.3c5.8,3.4,8,6.8,8,12.3c0,1.8-0.2,3.4-0.7,6c-0.2,1.4-0.3,2.3-0.3,3
				c0,2.5,1.2,4.1,3.2,4.1c3.9,0,8.2-4.8,12.3-9.6V67.5z"/>
			<path fill="#5C4737" d="M405.1,67.5c-9,8.7-14.2,11.5-21.2,11.5c-8.6,0-14.3-5.9-14.3-14.9c0-13.3,10.9-26.2,22.3-26.2
				c5.8,0,9.6,3.3,9.6,8.2c0,9.1-12.8,13.4-20.7,15.8c1.2,5.9,4.6,9.2,9.8,9.2c5.3,0,8.7-3.4,14.5-9.1V67.5z M392.4,46.3
				c0-2.9-1.2-4.5-3.3-4.5c-3.6,0-8.8,5.8-8.8,17.1C388.3,56.6,392.4,52.3,392.4,46.3z"/>
			<path fill="#5C4737" d="M436.2,67.5c-9.1,8.3-14.9,11.5-20.5,11.5c-6.8,0-11.2-5.6-11.2-14.4c0-17.2,10-40.7,14.7-49.3l12-4.4
				c0.3-0.1,0.6-0.2,0.9-0.2c1.8,0,3.1,2.9,3.1,7.4c0,12.5-5.4,23.7-18.2,37.8c-0.2,2.5-0.4,5-0.4,6.8c0,5.4,2.1,8.9,5.5,8.9
				c4.3,0,8.3-3.8,14.2-9.5V67.5z M431.6,20c0-2.3-0.8-3.9-1.8-3.9c-1.5,0-4.2,5.5-6.9,14.2c-1.6,5.3-2.6,9.1-4.6,18.7
				C425.8,40.8,431.6,28.2,431.6,20z"/>
			<path fill="#5C4737" d="M471.5,67.5c-9,8.7-14.2,11.5-21.2,11.5c-8.6,0-14.3-5.9-14.3-14.9c0-13.3,10.9-26.2,22.3-26.2
				c5.8,0,9.6,3.3,9.6,8.2c0,9.1-12.8,13.4-20.7,15.8c1.2,5.9,4.6,9.2,9.8,9.2c5.3,0,8.7-3.4,14.5-9.1V67.5z M458.8,46.3
				c0-2.9-1.2-4.5-3.3-4.5c-3.6,0-8.8,5.8-8.8,17.1C454.7,56.6,458.8,52.3,458.8,46.3z"/>
			<path fill="#5C4737" d="M521.7,67.5c-8.1,7.6-12.2,11.5-17,11.5c-7.2,0-7.1-10.2-7-13.1c-6.5,9.3-11.4,13.1-16.9,13.1
				c-5.6,0-9.9-5.9-9.9-13.4c0-16.2,15.9-27.8,24.6-27.8c3.9,0,6.7,1.8,8.2,5.4l9.7-5.3h2.6l-4.1,13.8c-1.1,3.5-3.2,11.4-3.2,14.3
				c0,2.6,1.2,4.1,2.9,4.1c2.2,0,4.1-1.8,10.2-7.9V67.5z M482.9,64.4c0,3.4,1.8,5.7,4.4,5.7c6.9,0,13-15,13-22.9
				c0-3.5-1.6-5.6-4.3-5.6C489,41.6,482.9,56.5,482.9,64.4z"/>
			<path fill="#5C4737" d="M520.7,63.2c4.9-5.1,12.5-14.8,15.5-23.4c4.6-1.3,9.9-1.9,10.5-1.9c0.3,0,0.5,0.1,0.5,0.4
				c0,0.3-0.1,0.9-0.4,1.4c-0.5,1.4-0.8,3-0.8,4.1c0,1.7,0.6,3.3,2.5,6.1c2.4,3.7,3.2,5.9,3.2,8.5c0,9.6-11.3,20.6-21.2,20.6
				c-4.2,0-8.5-2.7-8.5-5.3c0-1.4,4.8-7.4,6.4-7.4c1.1,0,1.8,1.1,2.5,3.3c1,3.2,2.1,4.4,4.2,4.4c3.9,0,7.9-4.2,7.9-8.4
				c0-2.1-0.8-4.1-3.1-7.7c-2.5-3.9-3.3-5.3-4.3-8.5c-4.3,6.9-7.8,11.3-13.9,18h-1.1V63.2z"/>
			<path fill="#5C4737" d="M591.2,58.7c-0.8,6.4-4.1,12.2-9.4,15.9c-4.6,3.2-8.4,4.4-13,4.4c-8.6,0-14.3-5.9-14.3-14.9
				c0-13.3,10.9-26.2,22.3-26.2c5.8,0,9.6,3.3,9.6,8.2c0,9.1-12.8,13.4-20.7,15.8c1.2,5.9,4.6,9.2,9.8,9.2c4.8,0,9.3-1.7,12.9-7.5
				c1.1-1.7-1.9-0.6-1.8-1.8l4-3.6C590.9,58.1,591.3,58.3,591.2,58.7L591.2,58.7z M577.5,46.3c0-2.9-1.2-4.5-3.3-4.5
				c-3.6,0-8.8,5.8-8.8,17.1C573.4,56.6,577.5,52.3,577.5,46.3z"/>
		</g>
	</g>
</g>
<g id="Information">
</g>
<g id="Margin_LR">
</g>
<g id="_x34__x2F_8_x2F_12_Layout" opacity="0.46">
</g>
<g id="Baseline_Grids" display="none">
</g>
</svg>
