<?xml version="1.0" encoding="utf-8"?>
<!-- Generator: Adobe Illustrator 19.2.1, SVG Export Plug-In . SVG Version: 6.00 Build 0)  -->
<svg version="1.1" xmlns="http://www.w3.org/2000/svg" xmlns:xlink="http://www.w3.org/1999/xlink" x="0px" y="0px" width="197.7px"
	 height="209.6px" viewBox="0 0 197.7 209.6" style="enable-background:new 0 0 197.7 209.6;" xml:space="preserve">
<style type="text/css">
	.st0{fill:none;}
	.st1{fill:#AAC5E7;stroke:#000000;stroke-width:1.1128;stroke-miterlimit:10;}
	.st2{fill:#FBD7A7;}
	.st3{fill:#5D4838;}
	.st4{fill:#A79072;}
	.st5{fill:#2D4171;}
	.st6{fill:#D9EAF8;}
	.st7{fill:#4F70B6;}
	.st8{fill:#D9EAF8;stroke:#2D4171;stroke-width:0.5;stroke-miterlimit:10;}
	.st9{fill:none;stroke:#FBD7A7;stroke-width:1.088;stroke-linecap:round;stroke-miterlimit:10;}
	.st10{display:none;fill:none;stroke:#FBD7A7;stroke-width:2.7079;stroke-miterlimit:10;}
	.st11{fill:#FFFFFF;stroke:#2D4171;stroke-miterlimit:10;}
	.st12{fill:#FFFFFF;stroke:#2D4171;stroke-width:2.8741;stroke-miterlimit:10;}
	.st13{display:none;fill:#D9EAF8;stroke:#2D4171;stroke-width:3;stroke-miterlimit:10;}
	.st14{fill:#7698CF;}
	.st15{fill:#D9EAF8;stroke:#2D4171;stroke-width:3;stroke-miterlimit:10;}
	.st16{fill:#AAC5E7;}
	.st17{fill:none;stroke:#4F70B6;stroke-width:1.3493;stroke-miterlimit:10;}
	.st18{fill:#FFFFFF;}
	.st19{display:none;}
	.st20{display:inline;fill:none;}
	.st21{display:inline;fill:#2D4171;}
	.st22{fill:none;stroke:#FBD7A7;stroke-width:2.7079;stroke-linecap:round;stroke-miterlimit:10;}
	.st23{fill:none;stroke:#2D4171;stroke-width:2.7079;stroke-linecap:round;stroke-miterlimit:10;}
	.st24{fill:none;stroke:#4F70B6;stroke-width:1.088;stroke-miterlimit:10;}
	.st25{fill:#7698CF;stroke:#2D4171;stroke-width:3;stroke-miterlimit:10;}
	.st26{fill:#D9EAF8;stroke:#4F70B6;stroke-width:3;stroke-miterlimit:10;}
	.st27{fill:#4F70B6;stroke:#2D4171;stroke-width:3;stroke-miterlimit:10;}
	.st28{fill:#FBD7A7;stroke:#A79072;stroke-width:3;stroke-miterlimit:10;}
	.st29{fill:none;stroke:#7698CF;stroke-width:1.0494;stroke-miterlimit:10;}
	.st30{fill:none;stroke:#2D4171;stroke-width:1.0494;stroke-miterlimit:10;}
	.st31{fill:none;stroke:#D9EAF8;stroke-width:1.2626;stroke-miterlimit:10;}
	.st32{fill:none;stroke:#4F70B6;stroke-width:1.2626;stroke-miterlimit:10;}
	.st33{fill:none;stroke:#7698CF;stroke-width:1.2626;stroke-miterlimit:10;}
	.st34{fill:none;stroke:#2D4171;stroke-width:1.2626;stroke-miterlimit:10;}
	.st35{fill:none;stroke:#7698CF;stroke-width:1.3994;stroke-miterlimit:10;}
	.st36{fill:none;stroke:#4F70B6;stroke-width:1.0494;stroke-miterlimit:10;}
	.st37{fill:none;stroke:#D9EAF8;stroke-width:1.0494;stroke-miterlimit:10;}
	.st38{fill:#FFFFFF;stroke:#2D4171;stroke-width:3;stroke-miterlimit:10;}
	.st39{fill:none;stroke:#000000;stroke-width:0.3;}
	.st40{fill:#D9EAF8;stroke:#4F70B6;stroke-width:0.5;stroke-miterlimit:10;}
	.st41{fill:#4F70B6;stroke:#4F70B6;stroke-width:0.5;stroke-linecap:round;stroke-miterlimit:10;}
	.st42{fill:#4F70B6;stroke:#AAC5E7;stroke-width:0.5;stroke-miterlimit:10;}
	.st43{fill:#4F70B6;stroke:#4F70B6;stroke-width:0.5;stroke-miterlimit:10;}
</style>
<g id="Layer_30">
	<g>
		<g>
			<path class="st6" d="M30.3,165c0.2-0.8,0.5-1.6,1-2.1c0.5-0.6,1.1-1.1,2-1.4s2-0.5,3.3-0.5c1.3,0,2.4,0.1,3.2,0.4
				c0.8,0.3,1.5,0.7,2,1.2c0.5,0.5,0.8,1.1,1,1.7c0.2,0.7,0.3,1.4,0.3,2.1c0,1.4-0.2,2.5-0.7,3.4c-0.5,0.9-1.1,1.8-1.8,2.5l-3.1,3
				c-0.2,0.2-0.5,0.5-0.7,0.8c-0.3,0.3-0.5,0.6-0.6,0.9H43v4H29.9c0-1.4,0.2-2.7,0.6-4c0.4-1.3,1.2-2.5,2.4-3.7l3.5-3.6
				c0.5-0.5,0.9-1,1.1-1.5c0.2-0.5,0.3-1.1,0.3-1.8c0-0.8-0.1-1.4-0.4-1.8c-0.2-0.3-0.6-0.5-1-0.5c-0.2,0-0.4,0-0.5,0.1
				s-0.3,0.2-0.5,0.4s-0.3,0.5-0.3,0.8c-0.1,0.3-0.1,0.8-0.1,1.4v0.8H30C30,166.8,30.1,165.8,30.3,165z"/>
			<path class="st6" d="M45,166.2c0.3-1.3,0.7-2.4,1.2-3.1c0.6-0.8,1.3-1.3,2.1-1.6s1.9-0.5,3-0.5s2.2,0.2,3,0.5s1.6,0.8,2.1,1.6
				c0.6,0.8,1,1.8,1.2,3.1c0.3,1.3,0.4,3,0.4,5c0,2-0.1,3.7-0.4,5s-0.7,2.3-1.2,3.1c-0.6,0.8-1.3,1.3-2.1,1.6s-1.9,0.4-3,0.4
				s-2.2-0.1-3-0.4s-1.6-0.8-2.1-1.6c-0.6-0.8-1-1.8-1.2-3.1s-0.4-3-0.4-5C44.6,169.2,44.7,167.5,45,166.2z M50.2,177.4
				c0.2,0.5,0.6,0.7,1.2,0.7s0.9-0.2,1.2-0.7c0.2-0.5,0.4-1.5,0.4-2.9v-6.6c0-1.4-0.1-2.4-0.4-2.9c-0.2-0.5-0.6-0.8-1.2-0.8
				s-0.9,0.3-1.2,0.8c-0.2,0.5-0.4,1.5-0.4,2.9v6.6C49.8,175.9,49.9,176.9,50.2,177.4z"/>
			<path class="st6" d="M59.7,166.2c0.3-1.3,0.7-2.4,1.2-3.1c0.6-0.8,1.3-1.3,2.1-1.6s1.9-0.5,3-0.5s2.2,0.2,3,0.5s1.6,0.8,2.1,1.6
				c0.6,0.8,1,1.8,1.2,3.1c0.3,1.3,0.4,3,0.4,5c0,2-0.1,3.7-0.4,5s-0.7,2.3-1.2,3.1c-0.6,0.8-1.3,1.3-2.1,1.6s-1.9,0.4-3,0.4
				s-2.2-0.1-3-0.4s-1.6-0.8-2.1-1.6c-0.6-0.8-1-1.8-1.2-3.1s-0.4-3-0.4-5C59.3,169.2,59.4,167.5,59.7,166.2z M64.9,177.4
				c0.2,0.5,0.6,0.7,1.2,0.7s0.9-0.2,1.2-0.7c0.2-0.5,0.4-1.5,0.4-2.9v-6.6c0-1.4-0.1-2.4-0.4-2.9c-0.2-0.5-0.6-0.8-1.2-0.8
				s-0.9,0.3-1.2,0.8c-0.2,0.5-0.4,1.5-0.4,2.9v6.6C64.5,175.9,64.7,176.9,64.9,177.4z"/>
			<path class="st6" d="M89.9,166.2c0-0.6-0.1-1.1-0.4-1.5c-0.2-0.4-0.6-0.6-1.1-0.6c-0.6,0-1,0.2-1.2,0.6c-0.3,0.4-0.4,0.8-0.4,1.2
				c0,0.7,0.2,1.2,0.6,1.6c0.4,0.4,1,0.7,1.6,1c0.6,0.3,1.3,0.6,2.1,0.9c0.7,0.3,1.4,0.7,2.1,1.1c0.6,0.5,1.2,1.1,1.6,1.9
				c0.4,0.8,0.6,1.8,0.6,3c0,2.1-0.6,3.7-1.8,4.7c-1.2,1-3,1.5-5.3,1.5c-1.1,0-2.1-0.1-2.9-0.3c-0.8-0.2-1.5-0.5-2.1-0.9
				c-0.6-0.4-1-1-1.3-1.7c-0.3-0.7-0.5-1.6-0.5-2.7V175h5.1v0.5c0,0.9,0.2,1.5,0.5,1.8c0.3,0.3,0.7,0.5,1.2,0.5c0.5,0,1-0.2,1.3-0.6
				c0.3-0.4,0.4-0.8,0.4-1.4c0-0.7-0.2-1.2-0.6-1.6c-0.4-0.4-0.9-0.7-1.5-1c-0.6-0.3-1.3-0.6-2-0.8c-0.7-0.3-1.4-0.7-2-1.1
				c-0.6-0.5-1.1-1-1.5-1.8c-0.4-0.7-0.6-1.7-0.6-2.9c0-2.1,0.5-3.6,1.6-4.7s2.8-1.6,5-1.6c2.3,0,4,0.5,5,1.5c1,1,1.5,2.6,1.5,4.7
				h-4.9V166.2z"/>
			<path class="st6" d="M104.9,160.8c1,0,1.9,0.2,2.6,0.5c0.7,0.3,1.3,0.8,1.8,1.3c0.5,0.6,0.8,1.2,1.1,2c0.2,0.8,0.3,1.6,0.3,2.5
				c0,2.1-0.6,3.7-1.7,4.7s-2.8,1.6-4.9,1.6h-1.8v7.7H97v-20.2H104.9z M103.3,169.5c0.7,0,1.2-0.2,1.5-0.6s0.5-1,0.5-1.9
				c0-1.6-0.7-2.5-2-2.5h-1v4.9H103.3z"/>
			<path class="st6" d="M124.4,160.8v4.3h-6.7v3.5h6.3v4.1h-6.3v4h7v4.3h-12.2v-20.2H124.4z"/>
			<path class="st6" d="M134.3,164.6c-0.2-0.4-0.6-0.6-1.1-0.6c-0.4,0-0.7,0.1-0.9,0.3c-0.2,0.2-0.4,0.6-0.5,1.1
				c-0.1,0.5-0.2,1.2-0.2,2.1c0,0.9-0.1,2-0.1,3.4c0,1.4,0,2.5,0.1,3.4c0,0.9,0.1,1.6,0.2,2.1c0.1,0.5,0.3,0.9,0.5,1.1
				c0.2,0.2,0.6,0.3,0.9,0.3c0.3,0,0.6-0.1,0.8-0.2c0.2-0.2,0.4-0.4,0.5-0.8s0.2-0.9,0.2-1.5s0.1-1.4,0.1-2.4h5.1v1.5
				c0,1.4-0.2,2.6-0.6,3.5c-0.4,0.9-0.9,1.6-1.5,2.1c-0.6,0.5-1.3,0.9-2.1,1c-0.8,0.2-1.6,0.3-2.5,0.3c-1.5,0-2.7-0.2-3.6-0.5
				c-0.9-0.4-1.7-1-2.2-1.8c-0.5-0.8-0.9-1.9-1.1-3.3c-0.2-1.3-0.3-2.9-0.3-4.8c0-1.9,0.1-3.6,0.4-4.9c0.2-1.3,0.6-2.4,1.2-3.3
				c0.6-0.8,1.3-1.4,2.2-1.8c0.9-0.4,2.1-0.6,3.4-0.6c1.2,0,2.2,0.2,3,0.5c0.8,0.3,1.5,0.7,2,1.3c0.5,0.6,0.9,1.2,1.1,2
				c0.2,0.8,0.4,1.7,0.4,2.6v1.3h-5.1V167C134.6,165.8,134.5,165,134.3,164.6z"/>
			<path class="st6" d="M146.8,160.8V181h-5.3v-20.2H146.8z"/>
			<path class="st6" d="M161.1,160.8v4.3h-6.7v3.5h6.3v4.1h-6.3v4h7v4.3h-12.2v-20.2H161.1z"/>
			<path class="st6" d="M171.1,166.2c0-0.6-0.1-1.1-0.4-1.5c-0.2-0.4-0.6-0.6-1.1-0.6c-0.6,0-1,0.2-1.2,0.6
				c-0.3,0.4-0.4,0.8-0.4,1.2c0,0.7,0.2,1.2,0.6,1.6c0.4,0.4,1,0.7,1.6,1c0.6,0.3,1.3,0.6,2.1,0.9c0.7,0.3,1.4,0.7,2.1,1.1
				c0.6,0.5,1.2,1.1,1.6,1.9c0.4,0.8,0.6,1.8,0.6,3c0,2.1-0.6,3.7-1.8,4.7c-1.2,1-3,1.5-5.3,1.5c-1.1,0-2.1-0.1-2.9-0.3
				c-0.8-0.2-1.5-0.5-2.1-0.9c-0.6-0.4-1-1-1.3-1.7c-0.3-0.7-0.5-1.6-0.5-2.7V175h5.1v0.5c0,0.9,0.2,1.5,0.5,1.8
				c0.3,0.3,0.7,0.5,1.2,0.5c0.5,0,1-0.2,1.3-0.6c0.3-0.4,0.4-0.8,0.4-1.4c0-0.7-0.2-1.2-0.6-1.6c-0.4-0.4-0.9-0.7-1.5-1
				c-0.6-0.3-1.3-0.6-2-0.8c-0.7-0.3-1.4-0.7-2-1.1c-0.6-0.5-1.1-1-1.5-1.8c-0.4-0.7-0.6-1.7-0.6-2.9c0-2.1,0.5-3.6,1.6-4.7
				s2.8-1.6,5-1.6c2.3,0,4,0.5,5,1.5c1,1,1.5,2.6,1.5,4.7h-4.9V166.2z"/>
			<path class="st5" d="M12.4,189v1.1h0c0.1-0.2,0.2-0.4,0.3-0.5c0.1-0.2,0.3-0.3,0.5-0.4c0.2-0.1,0.4-0.2,0.6-0.3
				c0.2-0.1,0.4-0.1,0.6-0.1c0.1,0,0.2,0,0.4,0.1v1.6c-0.1,0-0.2,0-0.3,0c-0.1,0-0.2,0-0.3,0c-0.3,0-0.6,0.1-0.8,0.2
				c-0.2,0.1-0.4,0.2-0.5,0.4c-0.1,0.2-0.2,0.4-0.3,0.6s-0.1,0.5-0.1,0.8v2.8h-1.7V189H12.4z"/>
			<path class="st5" d="M17.1,193.7c0.3,0.2,0.6,0.4,1.1,0.4c0.3,0,0.6-0.1,0.9-0.3c0.2-0.2,0.4-0.4,0.5-0.5H21
				c-0.2,0.7-0.6,1.3-1.1,1.6c-0.5,0.3-1.1,0.5-1.8,0.5c-0.5,0-0.9-0.1-1.3-0.2c-0.4-0.2-0.7-0.4-1-0.7c-0.3-0.3-0.5-0.6-0.6-1
				c-0.1-0.4-0.2-0.8-0.2-1.3c0-0.5,0.1-0.9,0.2-1.3c0.2-0.4,0.4-0.7,0.6-1c0.3-0.3,0.6-0.5,1-0.7c0.4-0.2,0.8-0.3,1.3-0.3
				c0.5,0,1,0.1,1.4,0.3c0.4,0.2,0.7,0.5,1,0.8c0.3,0.3,0.4,0.7,0.5,1.2c0.1,0.4,0.2,0.9,0.1,1.4h-4.5
				C16.7,193,16.8,193.4,17.1,193.7z M19,190.4c-0.2-0.2-0.5-0.3-0.9-0.3c-0.3,0-0.5,0-0.7,0.1s-0.3,0.2-0.4,0.3s-0.2,0.3-0.2,0.4
				s-0.1,0.3-0.1,0.4h2.8C19.3,191,19.2,190.6,19,190.4z"/>
			<path class="st5" d="M23.5,193.6c0.1,0.1,0.2,0.2,0.3,0.3c0.1,0.1,0.3,0.1,0.4,0.2c0.2,0,0.3,0.1,0.5,0.1c0.1,0,0.2,0,0.4,0
				c0.1,0,0.3-0.1,0.4-0.1c0.1-0.1,0.2-0.1,0.3-0.2c0.1-0.1,0.1-0.2,0.1-0.4c0-0.3-0.2-0.4-0.5-0.6c-0.3-0.1-0.8-0.3-1.4-0.4
				c-0.2-0.1-0.5-0.1-0.7-0.2c-0.2-0.1-0.4-0.2-0.6-0.3c-0.2-0.1-0.3-0.3-0.4-0.5s-0.2-0.4-0.2-0.7c0-0.4,0.1-0.7,0.2-1
				c0.2-0.3,0.4-0.5,0.6-0.6c0.3-0.1,0.5-0.3,0.9-0.3s0.6-0.1,1-0.1s0.7,0,1,0.1c0.3,0.1,0.6,0.2,0.8,0.3c0.2,0.2,0.5,0.4,0.6,0.6
				c0.2,0.3,0.3,0.6,0.3,1h-1.6c0-0.3-0.1-0.5-0.4-0.7c-0.2-0.1-0.5-0.2-0.8-0.2c-0.1,0-0.2,0-0.3,0c-0.1,0-0.2,0-0.3,0.1
				s-0.2,0.1-0.2,0.2c-0.1,0.1-0.1,0.2-0.1,0.3c0,0.2,0.1,0.3,0.2,0.4c0.1,0.1,0.3,0.2,0.4,0.2c0.2,0.1,0.4,0.1,0.6,0.2
				s0.5,0.1,0.7,0.2c0.2,0.1,0.5,0.1,0.7,0.2s0.4,0.2,0.6,0.3c0.2,0.1,0.3,0.3,0.4,0.5s0.2,0.4,0.2,0.7c0,0.4-0.1,0.7-0.2,1
				c-0.2,0.3-0.4,0.5-0.6,0.7c-0.3,0.2-0.6,0.3-0.9,0.4c-0.3,0.1-0.7,0.1-1,0.1c-0.4,0-0.7,0-1.1-0.1c-0.3-0.1-0.6-0.2-0.9-0.4
				c-0.3-0.2-0.5-0.4-0.7-0.7c-0.2-0.3-0.3-0.6-0.3-1h1.6C23.4,193.3,23.5,193.5,23.5,193.6z"/>
			<path class="st5" d="M28.6,188v-1.4h1.7v1.4H28.6z M30.3,189v6.2h-1.7V189H30.3z"/>
			<path class="st5" d="M36,194.4c-0.2,0.3-0.5,0.6-0.8,0.7s-0.7,0.2-1.1,0.2c-0.5,0-0.9-0.1-1.2-0.3c-0.4-0.2-0.6-0.4-0.9-0.7
				c-0.2-0.3-0.4-0.7-0.5-1.1c-0.1-0.4-0.2-0.8-0.2-1.2c0-0.4,0.1-0.8,0.2-1.2c0.1-0.4,0.3-0.7,0.5-1c0.2-0.3,0.5-0.5,0.9-0.7
				s0.7-0.3,1.2-0.3c0.4,0,0.7,0.1,1,0.2c0.3,0.2,0.6,0.4,0.8,0.7h0v-3.1h1.7v8.5H36L36,194.4L36,194.4z M36,191.3
				c0-0.2-0.1-0.4-0.2-0.6c-0.1-0.2-0.3-0.3-0.4-0.4c-0.2-0.1-0.4-0.2-0.7-0.2s-0.5,0.1-0.7,0.2c-0.2,0.1-0.3,0.3-0.5,0.4
				c-0.1,0.2-0.2,0.4-0.3,0.6s-0.1,0.5-0.1,0.7c0,0.2,0,0.5,0.1,0.7s0.1,0.5,0.3,0.6c0.1,0.2,0.3,0.3,0.5,0.5
				c0.2,0.1,0.4,0.2,0.7,0.2c0.3,0,0.5-0.1,0.7-0.2c0.2-0.1,0.3-0.3,0.4-0.4c0.1-0.2,0.2-0.4,0.2-0.6s0.1-0.5,0.1-0.7
				C36,191.8,36,191.6,36,191.3z"/>
			<path class="st5" d="M40.8,193.7c0.3,0.2,0.6,0.4,1.1,0.4c0.3,0,0.6-0.1,0.9-0.3c0.2-0.2,0.4-0.4,0.5-0.5h1.5
				c-0.2,0.7-0.6,1.3-1.1,1.6c-0.5,0.3-1.1,0.5-1.8,0.5c-0.5,0-0.9-0.1-1.3-0.2c-0.4-0.2-0.7-0.4-1-0.7c-0.3-0.3-0.5-0.6-0.6-1
				c-0.1-0.4-0.2-0.8-0.2-1.3c0-0.5,0.1-0.9,0.2-1.3c0.2-0.4,0.4-0.7,0.6-1c0.3-0.3,0.6-0.5,1-0.7c0.4-0.2,0.8-0.3,1.3-0.3
				c0.5,0,1,0.1,1.4,0.3c0.4,0.2,0.7,0.5,1,0.8c0.3,0.3,0.4,0.7,0.5,1.2c0.1,0.4,0.2,0.9,0.1,1.4h-4.5
				C40.4,193,40.5,193.4,40.8,193.7z M42.7,190.4c-0.2-0.2-0.5-0.3-0.9-0.3c-0.3,0-0.5,0-0.7,0.1s-0.3,0.2-0.4,0.3s-0.2,0.3-0.2,0.4
				s-0.1,0.3-0.1,0.4h2.8C43,191,42.9,190.6,42.7,190.4z"/>
			<path class="st5" d="M49.2,188v-1.4h1.7v1.4H49.2z M50.9,189v6.2h-1.7V189H50.9z"/>
			<path class="st5" d="M53.8,189v0.9h0c0.2-0.4,0.5-0.6,0.8-0.8c0.3-0.2,0.7-0.2,1.1-0.2c0.5,0,0.8,0.1,1.1,0.2
				c0.3,0.1,0.5,0.3,0.7,0.5c0.2,0.2,0.3,0.5,0.4,0.8c0.1,0.3,0.1,0.7,0.1,1v3.8h-1.7v-3.5c0-0.5-0.1-0.9-0.2-1.1
				c-0.2-0.3-0.4-0.4-0.8-0.4c-0.5,0-0.8,0.1-1,0.4c-0.2,0.3-0.3,0.7-0.3,1.4v3.2h-1.7V189H53.8z"/>
			<path class="st5" d="M68.3,188.9c-0.1-0.2-0.3-0.3-0.4-0.5c-0.2-0.1-0.4-0.2-0.6-0.3c-0.2-0.1-0.4-0.1-0.7-0.1
				c-0.4,0-0.8,0.1-1.1,0.2c-0.3,0.2-0.5,0.4-0.7,0.7s-0.3,0.6-0.4,0.9c-0.1,0.4-0.1,0.7-0.1,1.1c0,0.4,0,0.7,0.1,1
				c0.1,0.3,0.2,0.6,0.4,0.9c0.2,0.3,0.4,0.5,0.7,0.7c0.3,0.2,0.7,0.2,1.1,0.2c0.6,0,1-0.2,1.3-0.5c0.3-0.4,0.5-0.8,0.6-1.4h1.8
				c0,0.5-0.2,1-0.4,1.4c-0.2,0.4-0.5,0.8-0.8,1.1c-0.3,0.3-0.7,0.5-1.1,0.7c-0.4,0.2-0.9,0.2-1.4,0.2c-0.7,0-1.2-0.1-1.8-0.3
				c-0.5-0.2-1-0.5-1.3-0.9c-0.4-0.4-0.6-0.9-0.8-1.4c-0.2-0.5-0.3-1.1-0.3-1.7c0-0.6,0.1-1.2,0.3-1.8c0.2-0.5,0.5-1,0.8-1.4
				c0.4-0.4,0.8-0.7,1.3-1c0.5-0.2,1.1-0.3,1.8-0.3c0.5,0,0.9,0.1,1.3,0.2s0.8,0.3,1.1,0.6c0.3,0.3,0.6,0.6,0.8,1
				c0.2,0.4,0.4,0.8,0.4,1.3h-1.8C68.5,189.3,68.4,189.1,68.3,188.9z"/>
			<path class="st5" d="M71.4,190.9c0-0.4,0.1-0.7,0.3-1c0.2-0.3,0.4-0.5,0.7-0.6c0.3-0.2,0.6-0.3,0.9-0.3c0.3-0.1,0.7-0.1,1-0.1
				c0.3,0,0.6,0,0.9,0.1c0.3,0,0.6,0.1,0.9,0.3c0.3,0.1,0.5,0.3,0.6,0.5c0.2,0.2,0.3,0.5,0.3,0.9v3.2c0,0.3,0,0.5,0,0.8
				c0,0.3,0.1,0.4,0.2,0.6h-1.7c0-0.1-0.1-0.2-0.1-0.3c0-0.1,0-0.2,0-0.3c-0.3,0.3-0.6,0.5-1,0.6c-0.4,0.1-0.7,0.2-1.1,0.2
				c-0.3,0-0.6,0-0.8-0.1c-0.3-0.1-0.5-0.2-0.7-0.3s-0.3-0.3-0.4-0.6c-0.1-0.2-0.2-0.5-0.2-0.8c0-0.4,0.1-0.6,0.2-0.9
				s0.3-0.4,0.5-0.5s0.4-0.2,0.7-0.3c0.3-0.1,0.5-0.1,0.8-0.2c0.3,0,0.5-0.1,0.8-0.1c0.2,0,0.5-0.1,0.7-0.1s0.3-0.1,0.5-0.2
				c0.1-0.1,0.2-0.2,0.2-0.4c0-0.2,0-0.3-0.1-0.4s-0.1-0.2-0.2-0.3c-0.1-0.1-0.2-0.1-0.3-0.1c-0.1,0-0.3,0-0.4,0
				c-0.3,0-0.6,0.1-0.8,0.2s-0.3,0.4-0.3,0.7H71.4z M75.4,192.1c-0.1,0.1-0.2,0.1-0.3,0.1c-0.1,0-0.2,0.1-0.3,0.1
				c-0.1,0-0.3,0-0.4,0.1c-0.1,0-0.3,0-0.4,0.1c-0.1,0-0.3,0.1-0.4,0.1c-0.1,0-0.2,0.1-0.3,0.2c-0.1,0.1-0.2,0.2-0.2,0.3
				s-0.1,0.2-0.1,0.4c0,0.2,0,0.3,0.1,0.4c0.1,0.1,0.1,0.2,0.2,0.2c0.1,0.1,0.2,0.1,0.3,0.1c0.1,0,0.3,0,0.4,0
				c0.3,0,0.6-0.1,0.8-0.2c0.2-0.1,0.3-0.2,0.4-0.4s0.1-0.3,0.2-0.5c0-0.2,0-0.3,0-0.4V192.1z"/>
			<path class="st5" d="M80,189v0.9h0c0.2-0.4,0.5-0.6,0.8-0.8c0.3-0.2,0.7-0.2,1.1-0.2c0.5,0,0.8,0.1,1.1,0.2
				c0.3,0.1,0.5,0.3,0.7,0.5c0.2,0.2,0.3,0.5,0.4,0.8c0.1,0.3,0.1,0.7,0.1,1v3.8h-1.7v-3.5c0-0.5-0.1-0.9-0.2-1.1
				c-0.2-0.3-0.4-0.4-0.8-0.4c-0.5,0-0.8,0.1-1,0.4c-0.2,0.3-0.3,0.7-0.3,1.4v3.2h-1.7V189H80z"/>
			<path class="st5" d="M85.4,190.9c0-0.4,0.1-0.7,0.3-1c0.2-0.3,0.4-0.5,0.7-0.6c0.3-0.2,0.6-0.3,0.9-0.3c0.3-0.1,0.7-0.1,1-0.1
				c0.3,0,0.6,0,0.9,0.1c0.3,0,0.6,0.1,0.9,0.3c0.3,0.1,0.5,0.3,0.6,0.5c0.2,0.2,0.3,0.5,0.3,0.9v3.2c0,0.3,0,0.5,0,0.8
				c0,0.3,0.1,0.4,0.2,0.6h-1.7c0-0.1-0.1-0.2-0.1-0.3c0-0.1,0-0.2,0-0.3c-0.3,0.3-0.6,0.5-1,0.6c-0.4,0.1-0.7,0.2-1.1,0.2
				c-0.3,0-0.6,0-0.8-0.1c-0.3-0.1-0.5-0.2-0.7-0.3s-0.3-0.3-0.4-0.6c-0.1-0.2-0.2-0.5-0.2-0.8c0-0.4,0.1-0.6,0.2-0.9
				s0.3-0.4,0.5-0.5s0.4-0.2,0.7-0.3c0.3-0.1,0.5-0.1,0.8-0.2c0.3,0,0.5-0.1,0.8-0.1c0.2,0,0.5-0.1,0.7-0.1s0.3-0.1,0.5-0.2
				c0.1-0.1,0.2-0.2,0.2-0.4c0-0.2,0-0.3-0.1-0.4s-0.1-0.2-0.2-0.3c-0.1-0.1-0.2-0.1-0.3-0.1c-0.1,0-0.3,0-0.4,0
				c-0.3,0-0.6,0.1-0.8,0.2s-0.3,0.4-0.3,0.7H85.4z M89.3,192.1c-0.1,0.1-0.2,0.1-0.3,0.1c-0.1,0-0.2,0.1-0.3,0.1
				c-0.1,0-0.3,0-0.4,0.1c-0.1,0-0.3,0-0.4,0.1c-0.1,0-0.3,0.1-0.4,0.1c-0.1,0-0.2,0.1-0.3,0.2c-0.1,0.1-0.2,0.2-0.2,0.3
				s-0.1,0.2-0.1,0.4c0,0.2,0,0.3,0.1,0.4c0.1,0.1,0.1,0.2,0.2,0.2c0.1,0.1,0.2,0.1,0.3,0.1c0.1,0,0.3,0,0.4,0
				c0.3,0,0.6-0.1,0.8-0.2c0.2-0.1,0.3-0.2,0.4-0.4s0.1-0.3,0.2-0.5c0-0.2,0-0.3,0-0.4V192.1z"/>
			<path class="st5" d="M96.7,194.4c-0.2,0.3-0.5,0.6-0.8,0.7s-0.7,0.2-1.1,0.2c-0.5,0-0.9-0.1-1.2-0.3c-0.4-0.2-0.6-0.4-0.9-0.7
				c-0.2-0.3-0.4-0.7-0.5-1.1c-0.1-0.4-0.2-0.8-0.2-1.2c0-0.4,0.1-0.8,0.2-1.2c0.1-0.4,0.3-0.7,0.5-1c0.2-0.3,0.5-0.5,0.9-0.7
				s0.7-0.3,1.2-0.3c0.4,0,0.7,0.1,1,0.2c0.3,0.2,0.6,0.4,0.8,0.7h0v-3.1h1.7v8.5h-1.6L96.7,194.4L96.7,194.4z M96.7,191.3
				c0-0.2-0.1-0.4-0.2-0.6c-0.1-0.2-0.3-0.3-0.4-0.4c-0.2-0.1-0.4-0.2-0.7-0.2s-0.5,0.1-0.7,0.2c-0.2,0.1-0.3,0.3-0.5,0.4
				c-0.1,0.2-0.2,0.4-0.3,0.6s-0.1,0.5-0.1,0.7c0,0.2,0,0.5,0.1,0.7s0.1,0.5,0.3,0.6c0.1,0.2,0.3,0.3,0.5,0.5
				c0.2,0.1,0.4,0.2,0.7,0.2c0.3,0,0.5-0.1,0.7-0.2c0.2-0.1,0.3-0.3,0.4-0.4c0.1-0.2,0.2-0.4,0.2-0.6s0.1-0.5,0.1-0.7
				C96.7,191.8,96.7,191.6,96.7,191.3z"/>
			<path class="st5" d="M99.6,190.9c0-0.4,0.1-0.7,0.3-1c0.2-0.3,0.4-0.5,0.7-0.6c0.3-0.2,0.6-0.3,0.9-0.3c0.3-0.1,0.7-0.1,1-0.1
				c0.3,0,0.6,0,0.9,0.1c0.3,0,0.6,0.1,0.9,0.3c0.3,0.1,0.5,0.3,0.6,0.5c0.2,0.2,0.3,0.5,0.3,0.9v3.2c0,0.3,0,0.5,0,0.8
				c0,0.3,0.1,0.4,0.2,0.6h-1.7c0-0.1-0.1-0.2-0.1-0.3c0-0.1,0-0.2,0-0.3c-0.3,0.3-0.6,0.5-1,0.6c-0.4,0.1-0.7,0.2-1.1,0.2
				c-0.3,0-0.6,0-0.8-0.1c-0.3-0.1-0.5-0.2-0.7-0.3s-0.3-0.3-0.4-0.6c-0.1-0.2-0.2-0.5-0.2-0.8c0-0.4,0.1-0.6,0.2-0.9
				s0.3-0.4,0.5-0.5s0.4-0.2,0.7-0.3c0.3-0.1,0.5-0.1,0.8-0.2c0.3,0,0.5-0.1,0.8-0.1c0.2,0,0.5-0.1,0.7-0.1s0.3-0.1,0.5-0.2
				c0.1-0.1,0.2-0.2,0.2-0.4c0-0.2,0-0.3-0.1-0.4s-0.1-0.2-0.2-0.3c-0.1-0.1-0.2-0.1-0.3-0.1c-0.1,0-0.3,0-0.4,0
				c-0.3,0-0.6,0.1-0.8,0.2s-0.3,0.4-0.3,0.7H99.6z M103.5,192.1c-0.1,0.1-0.2,0.1-0.3,0.1c-0.1,0-0.2,0.1-0.3,0.1
				c-0.1,0-0.3,0-0.4,0.1c-0.1,0-0.3,0-0.4,0.1c-0.1,0-0.3,0.1-0.4,0.1c-0.1,0-0.2,0.1-0.3,0.2c-0.1,0.1-0.2,0.2-0.2,0.3
				s-0.1,0.2-0.1,0.4c0,0.2,0,0.3,0.1,0.4c0.1,0.1,0.1,0.2,0.2,0.2c0.1,0.1,0.2,0.1,0.3,0.1c0.1,0,0.3,0,0.4,0
				c0.3,0,0.6-0.1,0.8-0.2c0.2-0.1,0.3-0.2,0.4-0.4s0.1-0.3,0.2-0.5c0-0.2,0-0.3,0-0.4V192.1z"/>
			<path class="st5" d="M108.4,186.6v1.8c0,0.3,0,0.5-0.1,0.7c-0.1,0.2-0.2,0.4-0.4,0.6c-0.2,0.2-0.3,0.3-0.5,0.4
				c-0.2,0.1-0.4,0.2-0.7,0.2v-0.8c0.3-0.1,0.5-0.3,0.6-0.5c0.1-0.2,0.2-0.5,0.2-0.7h-0.8v-1.8H108.4z"/>
			<path class="st5" d="M110.4,193.6c0.1,0.1,0.2,0.2,0.3,0.3c0.1,0.1,0.3,0.1,0.4,0.2c0.2,0,0.3,0.1,0.5,0.1c0.1,0,0.2,0,0.4,0
				c0.1,0,0.3-0.1,0.4-0.1c0.1-0.1,0.2-0.1,0.3-0.2c0.1-0.1,0.1-0.2,0.1-0.4c0-0.3-0.2-0.4-0.5-0.6c-0.3-0.1-0.8-0.3-1.4-0.4
				c-0.2-0.1-0.5-0.1-0.7-0.2c-0.2-0.1-0.4-0.2-0.6-0.3c-0.2-0.1-0.3-0.3-0.4-0.5s-0.2-0.4-0.2-0.7c0-0.4,0.1-0.7,0.2-1
				c0.2-0.3,0.4-0.5,0.6-0.6c0.3-0.1,0.5-0.3,0.9-0.3s0.6-0.1,1-0.1s0.7,0,1,0.1c0.3,0.1,0.6,0.2,0.8,0.3c0.2,0.2,0.5,0.4,0.6,0.6
				c0.2,0.3,0.3,0.6,0.3,1h-1.6c0-0.3-0.1-0.5-0.4-0.7c-0.2-0.1-0.5-0.2-0.8-0.2c-0.1,0-0.2,0-0.3,0c-0.1,0-0.2,0-0.3,0.1
				s-0.2,0.1-0.2,0.2c-0.1,0.1-0.1,0.2-0.1,0.3c0,0.2,0.1,0.3,0.2,0.4c0.1,0.1,0.3,0.2,0.4,0.2c0.2,0.1,0.4,0.1,0.6,0.2
				s0.5,0.1,0.7,0.2c0.2,0.1,0.5,0.1,0.7,0.2s0.4,0.2,0.6,0.3c0.2,0.1,0.3,0.3,0.4,0.5s0.2,0.4,0.2,0.7c0,0.4-0.1,0.7-0.2,1
				c-0.2,0.3-0.4,0.5-0.6,0.7c-0.3,0.2-0.6,0.3-0.9,0.4c-0.3,0.1-0.7,0.1-1,0.1c-0.4,0-0.7,0-1.1-0.1c-0.3-0.1-0.6-0.2-0.9-0.4
				c-0.3-0.2-0.5-0.4-0.7-0.7c-0.2-0.3-0.3-0.6-0.3-1h1.6C110.3,193.3,110.3,193.5,110.4,193.6z"/>
			<path class="st5" d="M118.1,190.1V189h1v-0.5c0-0.6,0.2-1,0.5-1.4c0.3-0.4,0.9-0.5,1.6-0.5c0.2,0,0.3,0,0.5,0c0.2,0,0.3,0,0.4,0
				v1.3c-0.2,0-0.4,0-0.6,0c-0.2,0-0.4,0.1-0.5,0.2c-0.1,0.1-0.1,0.3-0.1,0.5v0.4h1.2v1.1h-1.2v5.1h-1.7v-5.1H118.1z"/>
			<path class="st5" d="M124.3,189v1.1h0c0.1-0.2,0.2-0.4,0.3-0.5c0.1-0.2,0.3-0.3,0.5-0.4c0.2-0.1,0.4-0.2,0.6-0.3
				c0.2-0.1,0.4-0.1,0.6-0.1c0.1,0,0.2,0,0.4,0.1v1.6c-0.1,0-0.2,0-0.3,0c-0.1,0-0.2,0-0.3,0c-0.3,0-0.6,0.1-0.8,0.2
				c-0.2,0.1-0.4,0.2-0.5,0.4c-0.1,0.2-0.2,0.4-0.3,0.6s-0.1,0.5-0.1,0.8v2.8h-1.7V189H124.3z"/>
			<path class="st5" d="M129,193.7c0.3,0.2,0.6,0.4,1.1,0.4c0.3,0,0.6-0.1,0.9-0.3c0.2-0.2,0.4-0.4,0.5-0.5h1.5
				c-0.2,0.7-0.6,1.3-1.1,1.6c-0.5,0.3-1.1,0.5-1.8,0.5c-0.5,0-0.9-0.1-1.3-0.2c-0.4-0.2-0.7-0.4-1-0.7c-0.3-0.3-0.5-0.6-0.6-1
				c-0.1-0.4-0.2-0.8-0.2-1.3c0-0.5,0.1-0.9,0.2-1.3c0.2-0.4,0.4-0.7,0.6-1c0.3-0.3,0.6-0.5,1-0.7c0.4-0.2,0.8-0.3,1.3-0.3
				c0.5,0,1,0.1,1.4,0.3c0.4,0.2,0.7,0.5,1,0.8c0.3,0.3,0.4,0.7,0.5,1.2c0.1,0.4,0.2,0.9,0.1,1.4h-4.5
				C128.6,193,128.7,193.4,129,193.7z M130.9,190.4c-0.2-0.2-0.5-0.3-0.9-0.3c-0.3,0-0.5,0-0.7,0.1s-0.3,0.2-0.4,0.3
				s-0.2,0.3-0.2,0.4s-0.1,0.3-0.1,0.4h2.8C131.2,191,131.1,190.6,130.9,190.4z"/>
			<path class="st5" d="M135.5,193.6c0.1,0.1,0.2,0.2,0.3,0.3c0.1,0.1,0.3,0.1,0.4,0.2c0.2,0,0.3,0.1,0.5,0.1c0.1,0,0.2,0,0.4,0
				c0.1,0,0.3-0.1,0.4-0.1c0.1-0.1,0.2-0.1,0.3-0.2c0.1-0.1,0.1-0.2,0.1-0.4c0-0.3-0.2-0.4-0.5-0.6c-0.3-0.1-0.8-0.3-1.4-0.4
				c-0.2-0.1-0.5-0.1-0.7-0.2c-0.2-0.1-0.4-0.2-0.6-0.3c-0.2-0.1-0.3-0.3-0.4-0.5s-0.2-0.4-0.2-0.7c0-0.4,0.1-0.7,0.2-1
				c0.2-0.3,0.4-0.5,0.6-0.6c0.3-0.1,0.5-0.3,0.9-0.3s0.6-0.1,1-0.1s0.7,0,1,0.1c0.3,0.1,0.6,0.2,0.8,0.3c0.2,0.2,0.5,0.4,0.6,0.6
				c0.2,0.3,0.3,0.6,0.3,1h-1.6c0-0.3-0.1-0.5-0.4-0.7c-0.2-0.1-0.5-0.2-0.8-0.2c-0.1,0-0.2,0-0.3,0c-0.1,0-0.2,0-0.3,0.1
				s-0.2,0.1-0.2,0.2c-0.1,0.1-0.1,0.2-0.1,0.3c0,0.2,0.1,0.3,0.2,0.4c0.1,0.1,0.3,0.2,0.4,0.2c0.2,0.1,0.4,0.1,0.6,0.2
				s0.5,0.1,0.7,0.2c0.2,0.1,0.5,0.1,0.7,0.2s0.4,0.2,0.6,0.3c0.2,0.1,0.3,0.3,0.4,0.5s0.2,0.4,0.2,0.7c0,0.4-0.1,0.7-0.2,1
				c-0.2,0.3-0.4,0.5-0.6,0.7c-0.3,0.2-0.6,0.3-0.9,0.4c-0.3,0.1-0.7,0.1-1,0.1c-0.4,0-0.7,0-1.1-0.1c-0.3-0.1-0.6-0.2-0.9-0.4
				c-0.3-0.2-0.5-0.4-0.7-0.7c-0.2-0.3-0.3-0.6-0.3-1h1.6C135.3,193.3,135.4,193.5,135.5,193.6z"/>
			<path class="st5" d="M142.2,186.6v3.2h0c0.2-0.4,0.5-0.6,0.8-0.8c0.3-0.2,0.7-0.2,1-0.2c0.5,0,0.8,0.1,1.1,0.2
				c0.3,0.1,0.5,0.3,0.7,0.5c0.2,0.2,0.3,0.5,0.4,0.8c0.1,0.3,0.1,0.7,0.1,1v3.8h-1.7v-3.5c0-0.5-0.1-0.9-0.2-1.1
				c-0.2-0.3-0.4-0.4-0.8-0.4c-0.5,0-0.8,0.1-1,0.4c-0.2,0.3-0.3,0.7-0.3,1.4v3.2h-1.7v-8.5H142.2z"/>
			<path class="st5" d="M156.2,195.2l-1.1-4.2h0l-1.1,4.2h-1.8l-2-6.2h1.8l1.1,4.2h0l1-4.2h1.7l1.1,4.2h0l1.1-4.2h1.7l-2,6.2H156.2z
				"/>
			<path class="st5" d="M160.5,190.9c0-0.4,0.1-0.7,0.3-1c0.2-0.3,0.4-0.5,0.7-0.6c0.3-0.2,0.6-0.3,0.9-0.3c0.3-0.1,0.7-0.1,1-0.1
				c0.3,0,0.6,0,0.9,0.1c0.3,0,0.6,0.1,0.9,0.3c0.3,0.1,0.5,0.3,0.6,0.5c0.2,0.2,0.3,0.5,0.3,0.9v3.2c0,0.3,0,0.5,0,0.8
				c0,0.3,0.1,0.4,0.2,0.6h-1.7c0-0.1-0.1-0.2-0.1-0.3c0-0.1,0-0.2,0-0.3c-0.3,0.3-0.6,0.5-1,0.6c-0.4,0.1-0.7,0.2-1.1,0.2
				c-0.3,0-0.6,0-0.8-0.1c-0.3-0.1-0.5-0.2-0.7-0.3s-0.3-0.3-0.4-0.6c-0.1-0.2-0.2-0.5-0.2-0.8c0-0.4,0.1-0.6,0.2-0.9
				s0.3-0.4,0.5-0.5s0.4-0.2,0.7-0.3c0.3-0.1,0.5-0.1,0.8-0.2c0.3,0,0.5-0.1,0.8-0.1c0.2,0,0.5-0.1,0.7-0.1s0.3-0.1,0.5-0.2
				c0.1-0.1,0.2-0.2,0.2-0.4c0-0.2,0-0.3-0.1-0.4s-0.1-0.2-0.2-0.3c-0.1-0.1-0.2-0.1-0.3-0.1c-0.1,0-0.3,0-0.4,0
				c-0.3,0-0.6,0.1-0.8,0.2s-0.3,0.4-0.3,0.7H160.5z M164.5,192.1c-0.1,0.1-0.2,0.1-0.3,0.1c-0.1,0-0.2,0.1-0.3,0.1
				c-0.1,0-0.3,0-0.4,0.1c-0.1,0-0.3,0-0.4,0.1c-0.1,0-0.3,0.1-0.4,0.1c-0.1,0-0.2,0.1-0.3,0.2c-0.1,0.1-0.2,0.2-0.2,0.3
				s-0.1,0.2-0.1,0.4c0,0.2,0,0.3,0.1,0.4c0.1,0.1,0.1,0.2,0.2,0.2c0.1,0.1,0.2,0.1,0.3,0.1c0.1,0,0.3,0,0.4,0
				c0.3,0,0.6-0.1,0.8-0.2c0.2-0.1,0.3-0.2,0.4-0.4s0.1-0.3,0.2-0.5c0-0.2,0-0.3,0-0.4V192.1z"/>
			<path class="st5" d="M170.9,189v1.1h-1.2v3.1c0,0.3,0,0.5,0.1,0.6s0.3,0.1,0.6,0.1c0.1,0,0.2,0,0.3,0c0.1,0,0.2,0,0.3,0v1.3
				c-0.1,0-0.3,0-0.5,0s-0.3,0-0.5,0c-0.3,0-0.5,0-0.7-0.1s-0.4-0.1-0.6-0.2c-0.2-0.1-0.3-0.3-0.4-0.4s-0.2-0.4-0.2-0.8v-3.7h-1V189
				h1v-1.9h1.7v1.9H170.9z"/>
			<path class="st5" d="M173.5,193.7c0.3,0.2,0.6,0.4,1.1,0.4c0.3,0,0.6-0.1,0.9-0.3c0.2-0.2,0.4-0.4,0.5-0.5h1.5
				c-0.2,0.7-0.6,1.3-1.1,1.6c-0.5,0.3-1.1,0.5-1.8,0.5c-0.5,0-0.9-0.1-1.3-0.2c-0.4-0.2-0.7-0.4-1-0.7c-0.3-0.3-0.5-0.6-0.6-1
				c-0.1-0.4-0.2-0.8-0.2-1.3c0-0.5,0.1-0.9,0.2-1.3c0.2-0.4,0.4-0.7,0.6-1c0.3-0.3,0.6-0.5,1-0.7c0.4-0.2,0.8-0.3,1.3-0.3
				c0.5,0,1,0.1,1.4,0.3c0.4,0.2,0.7,0.5,1,0.8c0.3,0.3,0.4,0.7,0.5,1.2c0.1,0.4,0.2,0.9,0.1,1.4h-4.5
				C173.1,193,173.3,193.4,173.5,193.7z M175.4,190.4c-0.2-0.2-0.5-0.3-0.9-0.3c-0.3,0-0.5,0-0.7,0.1s-0.3,0.2-0.4,0.3
				s-0.2,0.3-0.2,0.4s-0.1,0.3-0.1,0.4h2.8C175.8,191,175.6,190.6,175.4,190.4z"/>
			<path class="st5" d="M180.2,189v1.1h0c0.1-0.2,0.2-0.4,0.3-0.5c0.1-0.2,0.3-0.3,0.5-0.4c0.2-0.1,0.4-0.2,0.6-0.3
				c0.2-0.1,0.4-0.1,0.6-0.1c0.1,0,0.2,0,0.4,0.1v1.6c-0.1,0-0.2,0-0.3,0c-0.1,0-0.2,0-0.3,0c-0.3,0-0.6,0.1-0.8,0.2
				c-0.2,0.1-0.4,0.2-0.5,0.4c-0.1,0.2-0.2,0.4-0.3,0.6s-0.1,0.5-0.1,0.8v2.8h-1.7V189H180.2z"/>
			<path class="st5" d="M184.7,193.6c0.1,0.1,0.2,0.2,0.3,0.3c0.1,0.1,0.3,0.1,0.4,0.2c0.2,0,0.3,0.1,0.5,0.1c0.1,0,0.2,0,0.4,0
				c0.1,0,0.3-0.1,0.4-0.1c0.1-0.1,0.2-0.1,0.3-0.2c0.1-0.1,0.1-0.2,0.1-0.4c0-0.3-0.2-0.4-0.5-0.6c-0.3-0.1-0.8-0.3-1.4-0.4
				c-0.2-0.1-0.5-0.1-0.7-0.2c-0.2-0.1-0.4-0.2-0.6-0.3c-0.2-0.1-0.3-0.3-0.4-0.5s-0.2-0.4-0.2-0.7c0-0.4,0.1-0.7,0.2-1
				c0.2-0.3,0.4-0.5,0.6-0.6c0.3-0.1,0.5-0.3,0.9-0.3s0.6-0.1,1-0.1s0.7,0,1,0.1c0.3,0.1,0.6,0.2,0.8,0.3c0.2,0.2,0.5,0.4,0.6,0.6
				c0.2,0.3,0.3,0.6,0.3,1h-1.6c0-0.3-0.1-0.5-0.4-0.7c-0.2-0.1-0.5-0.2-0.8-0.2c-0.1,0-0.2,0-0.3,0c-0.1,0-0.2,0-0.3,0.1
				s-0.2,0.1-0.2,0.2c-0.1,0.1-0.1,0.2-0.1,0.3c0,0.2,0.1,0.3,0.2,0.4c0.1,0.1,0.3,0.2,0.4,0.2c0.2,0.1,0.4,0.1,0.6,0.2
				s0.5,0.1,0.7,0.2c0.2,0.1,0.5,0.1,0.7,0.2s0.4,0.2,0.6,0.3c0.2,0.1,0.3,0.3,0.4,0.5s0.2,0.4,0.2,0.7c0,0.4-0.1,0.7-0.2,1
				c-0.2,0.3-0.4,0.5-0.6,0.7c-0.3,0.2-0.6,0.3-0.9,0.4c-0.3,0.1-0.7,0.1-1,0.1c-0.4,0-0.7,0-1.1-0.1c-0.3-0.1-0.6-0.2-0.9-0.4
				c-0.3-0.2-0.5-0.4-0.7-0.7c-0.2-0.3-0.3-0.6-0.3-1h1.6C184.5,193.3,184.6,193.5,184.7,193.6z"/>
		</g>
	</g>
	<path class="st7" d="M88.2,13.3c3-1.8,18.5,8.4,18.9,19.2s11.6-2.5,15.3,2.5s-9.8,29.2-5.5,31.9c4.3,2.8,6.4-17.7,11.4-13.3
		s10.3,9,18.3,7.4c8-1.6-4,9,0,16c4,6.9,13-2.7,12.7,7.1S124.7,101,129,110c4.2,9,14.8,8.7,8.3,12.4c-6.5,3.7-32.6-6.2-33.5,0.9
		c-0.9,7.1,9.9,22.8-1.4,27.8s-21-3.7-14.1-13.9c6.9-10.2,9.4-14.1-2.3-12.4c-11.6,1.7-20.7,8-22.7,2.5c-2-5.6,15.4-16.1,8.9-18.3
		C65.6,107,25.9,91.6,34.6,85s12.4-1,14.6-5c2.2-4-12.8-12-6.5-15.6c6.3-3.6,13.9,6,19.5,2.3c5.6-3.7-6.2-11.2,0.9-11.2
		s15.4,17.4,17.3,14S60.2,28,69.2,30.9s21.8,10,19.1,2.3C85.5,25.4,83.2,16.4,88.2,13.3z"/>
	<path class="st5" d="M118.5,96.5l6.8,1.6c0,0-8.7-16.7,0-18.6C134,77.6,128.8,93.7,118.5,96.5z"/>
	<path class="st5" d="M84.4,88.1l2.4,2.6c0,0-0.4-9.2,5.3-7.7C97.8,84.6,88.5,91,84.4,88.1z"/>
	<path class="st5" d="M95.9,63l-1-4c0,0-6.6,9.1-9.9,5S91.7,58.3,95.9,63z"/>
	<path class="st5" d="M109.8,62.4l1.6-4.1c0,0-9.9,5.6-11.4-1.6S110.8,56.1,109.8,62.4z"/>
	<path class="st5" d="M101.3,38.3l-6.1-3.4c0,0,3.6,18.5-5.3,17.8S90.7,38,101.3,38.3z"/>
	<path class="st5" d="M95.3,115.7l-2.1-4.3c0,0-3,12.1-9.8,7.9S91,110.3,95.3,115.7z"/>
	<path class="st5" d="M135.8,80.3l-0.2,4.1c0,0,8.9-6.8,10.9-2C148.5,87.4,138.5,86,135.8,80.3z"/>
	<path class="st5" d="M95.4,134.4l-1.9,2.4c0,0,7.8-1.8,7.3,3.3S93.6,138.4,95.4,134.4z"/>
	<path class="st5" d="M106,108.9l-0.9,4.6c0,0,9.2-7.7,12.1-0.6C120.2,120.1,106.3,115.5,106,108.9z"/>
	<path class="st5" d="M106.7,85.4l5.1,1.2c0,0-6.5-12.5,0-13.9C118.2,71.3,114.3,83.3,106.7,85.4z"/>
	<path class="st5" d="M66.6,82.3l3.7,4.1c0,0-0.7-14.3,8.2-11.9S73,86.9,66.6,82.3z"/>
	<path class="st5" d="M102.9,82.1l1.2-3.1c0,0-7.4,4.2-8.5-1.2C94.5,72.5,103.6,77.4,102.9,82.1z"/>
	<path class="st5" d="M88.4,98.7l-1.5-3.2c0,0-2.2,9-7.3,5.9C74.5,98.2,85.3,94.7,88.4,98.7z"/>
	<path class="st5" d="M124.3,63.3l-0.1,3.1c0,0,6.6-5.1,8.1-1.5C133.7,68.6,126.3,67.5,124.3,63.3z"/>
	<path class="st5" d="M95,99.7l-1.4,1.8c0,0,5.8-1.3,5.5,2.5C98.7,107.8,93.6,102.7,95,99.7z"/>
	<path class="st5" d="M107.9,101.3l3.3-1c0,0-8.3-3.4-4.6-7.8C110.4,88.1,112.2,98.9,107.9,101.3z"/>
	<path class="st5" d="M44.7,90l2.4,2.6c0,0-0.4-9.2,5.3-7.7C58.1,86.5,48.8,92.9,44.7,90z"/>
	<path class="st5" d="M61,81.8l1.2-3.1c0,0-7.4,4.2-8.5-1.2C52.6,72.2,61.7,77.2,61,81.8z"/>
	<path class="st5" d="M66,101.1l3.3-1c0,0-8.3-3.4-4.6-7.8C68.5,87.8,70.3,98.6,66,101.1z"/>
	<path class="st7" d="M129.3,49.6c0,3.1,1.1,2.5,3.5,3c2.3,0.4,3.6-6.7,0.6-6.6C130.5,46.1,129.3,46.5,129.3,49.6z"/>
	<path class="st7" d="M59.8,128.7c2.8,1.8,2.8,3.4,1.4,4.3c-1.4,0.9-6.5-1.1-6.8-3.2c-0.3-2,3.2,1.6,3.9,1.1
		C59,130.5,58.2,127.6,59.8,128.7z"/>
</g>
<g id="Layer_2">
</g>
</svg>
