<?xml version="1.0" encoding="utf-8"?>
<!-- Generator: Adobe Illustrator 19.2.1, SVG Export Plug-In . SVG Version: 6.00 Build 0)  -->
<svg version="1.1" xmlns="http://www.w3.org/2000/svg" xmlns:xlink="http://www.w3.org/1999/xlink" x="0px" y="0px" width="571.1px"
	 height="603.3px" viewBox="0 0 571.1 603.3" enable-background="new 0 0 571.1 603.3" xml:space="preserve">
<g id="Layer_5">
	
		<text transform="matrix(1 0 0 1 286.0128 588.4513)" fill="#D8EAF8" font-family="'HelveticaNeue-CondensedBlack'" font-size="45.4904px">FEMALE</text>
	
		<text transform="matrix(1 0 0 1 141.0967 588.4523)" fill="#2D4171" font-family="'HelveticaNeue-CondensedBlack'" font-size="45.4904px">MALE</text>
	
		<text transform="matrix(1 0 0 1 256.6348 576.92)" fill="#4F70B5" font-family="'HelveticaNeue-CondensedBlack'" font-size="14.1946px">TO</text>
	<g>
		<g>
			<path fill="#D8EAF8" d="M134.9,233.8c-0.6-0.1-1.2-0.1-1.9-0.1l0.6,2L134.9,233.8z"/>
			<path fill="#D8EAF8" d="M124.9,233.6c-2.4-0.9-3.7-2.8-5.1-4.6l3.9,6.7L124.9,233.6z"/>
			<path fill="#D8EAF8" d="M32.3,224.5l4.1,11.2l6.5-11.2l5.3,11.2l5.6-11.2l5.6,11.2l3.5-11.2l5.9,11.2l6.2-11.2l5.6,11.2l7.1-11.2
				l4.4,11.2l4.2-11.2l6.1,11.2l5-11.2l5.9,11.2l3-9.6c-0.6-0.3-1.2-0.6-1.9-0.7c-6.3-1.4-16-2.9-16.8-9.1
				c-0.4-3.2-1.8-9.9-2.8-16.3C88,210.1,76,216.8,70,214.4c-8.6-3.4-10.3-1.3-10.7,5.1c-0.4,6.4-26.6,3-34.7,3.9
				c-2.3,0.2-3.3,1.4-3.6,3.1l4.9,9.2L32.3,224.5z"/>
			<path fill="#2D4171" d="M21.9,244.4c-0.1,1.4-0.4,2.8-0.7,4.3c-0.9,3.4-2,5.6-3.1,7c3.1,2.7,5.2,7.7,9.4,5.7
				c6-2.9,20-12.8,27.4-7.3c7.4,5.6-0.6,8.4,7.4,16.7c8,8.3,10.3,12.6,17.7,12.8c7.4,0.3,8.3,20,17.1,15.1c8.9-4.9,5.7-8,6.6-11.7
				c0.9-3.7,30.8-18.3,30-28c-0.9-9.7,5.4-8,6.9-15.1c0.1-0.7,0.2-1.3,0.3-2c0.1-1.1,0.1-2,0-2.9l0,0l0,0c-0.4-2.9-2.2-4.8-5.8-5.2
				l-1.2,1.9l-0.6-2c-1,0-2,0.1-3.2,0.2c-2.1,0.3-3.7,0.1-5-0.4l-1.3,2.2l-3.9-6.7c-0.9-1.1-1.9-2.2-3.1-2.9l-3,9.6l-5.9-11.2
				l-5,11.2l-6.1-11.2l-4.2,11.2l-4.4-11.2l-7.1,11.2l-5.6-11.2L69,235.7L63,224.5l-3.5,11.2l-5.6-11.2l-5.6,11.2l-5.3-11.2
				l-6.5,11.2l-4.1-11.2l-6.5,11.2l-4.9-9.2C20.3,230.2,22.6,236.7,21.9,244.4z"/>
		</g>
		<g>
			<path fill="#D8EAF8" d="M191.2,226.3l3,8.9l10.1-8.9l2.9,8.9l6.2-8.9l3.3,8.9l7.7-8.9l4.4,8.9l3.7-5c0-0.3,0-0.6,0-0.8
				c0.2-3.1,1.5-5,1.4-6c-0.1-0.6-0.6-0.7-2.2-0.6c-4.2,0.4-3.2-1.6-2.6-4.3c0.6-2.7,5.2-1.5,8.5-4.1c3.4-2.6-2.6-4.4-5.2-2
				c-2.6,2.4-6.9,1.4-9.5,0.4c-2.6-1-1-4.2,2.2-2.6c3.2,1.6,12.1-3.4,13.9-5c1.8-1.6-0.6-2.2-2.2-0.4c-1.6,1.8-9.3,1.2-8.9-1.2
				c0.4-2.4,8.7-4.2,11.1-5.7c2.4-1.6,0.6-2.4-1.2-3.2c-1.8-0.8,1.2-4,4.2-7.7c3-3.8-1.4-2.2-2.8-3.4c-1.4-1.2,3.2-4.1,0-5.4
				c-3.2-1.2-9.3,4.4-13.5,5.2c-4.2,0.8-4,2.4-4.6,3.9c-0.6,1.5,0.8,2.6,2.6,3c1.8,0.4,2.2,1.8,3.6-1.7s2.2,0.7,4.2,2.9
				c2,2.2-0.6,3-1.4,2c-0.8-1-4.8-2-5.7-0.8c-1,1.2-2.8-0.6-4.6-2.6c-1.8-2-3.2-2-4.6,0c-1.4,2,2,3.2,4.6,4.8
				c2.6,1.6,1.2,2.8-1.4,2.4c-2.6-0.4-2.8-2.4-5.5-2.8c-2.8-0.4-0.6,3,1.8,5.9c2.4,3-0.2,2.4-3.4,3.8c-3.2,1.4-2-4.8-1-10.3
				c1-5.5-2.6-1.8-5,1c-2.4,2.8-2.6-1.2-4-3.4c-1.4-2.2-5.5,5-6.9,8.1c-1.4,3.2-1,2.2,2.2,4.6c3.2,2.4,2.2,4.6,1.8,7.7
				c-0.4,3.2-4.4,1.2-4.4-0.6c0-1.8-0.4-3.4-2.4-3.8c-2-0.4-3.6-4-2.4-5.7c1.2-1.8-4.2-4.4-6.9-3.8c-2.8,0.6-4.8,2.8-6.9,5.2
				c-2.2,2.4,4.2,3,8.9,2.2c4.8-0.8,5,3.6,0.4,6.6c-4.6,3-1.8,1.4,0.6,2c2.4,0.6,6.3,2.2,10.5,5.9c4.2,3.8-2.6,5.5-5.7,4.2
				c-3.1-1.4-4,1-8.2,3.6c-0.8,0.5-1.5,0.6-1.9,0.5l3.4,6.9L191.2,226.3z"/>
			<path fill="#D8EAF8" d="M243,226.3l5.6,8.9l4.4-5.9c-0.1,0-0.2,0.1-0.2,0.1c-4.2,1.6-3.8-1-4.8-5.4c-1-4.4-1.8-2.4-6.5-1
				c-3.1,0.9-4.3,3.9-4.7,7.6l1.5,4.6L243,226.3z"/>
			<path fill="#D8EAF8" d="M262.4,230.9c0-3.5-3.2-3.5-6.5-2.7l3,6.9L262.4,230.9z"/>
			<path fill="#D8EAF8" d="M172.6,235.1l6.5-8.9c0.1-1.7,1.2-4.1,3.1-5.3c3.8-2.4-1-3.6-2.8-6.7c-1.8-3.2-4.2-2.8-9.9,0.8
				c-5.7,3.6-5.9,6.9-3.5,13.5c0,0,0,0.1,0,0.1l1.6-2.3L172.6,235.1z"/>
			<path fill="#2D4171" d="M169.7,237.4c-0.4,1.2-0.7,2.2-1,2.8c0.2,0.3,0.4,0.7,0.6,1.1c1.8,3.4,1,11.1,1,11.1l8.7,16.6
				c0,0,3.6-1,6.5,2.6c3,3.6,13.9,6.7,13.9,9.9c0,3.2-2.9,19.3-2.9,19.4c11.4,1.4,19.3,1.4,23,1.4c-0.1-0.4-0.2-0.9-0.3-1.4
				c-1.2-5.8,0.2-0.5,3.2-2.5c3-2,0.4-1.2-1.8-4.2c-2.2-3-1-1.4-2.4-7.1c-1.4-5.7,3.2-0.4,8.7,0.2c5.5,0.6,0.6-2.8-2-4.4
				c-2.6-1.6-0.4-4.2,2-8.9s1.6,2.8,2.8,6.8c1.2,4,7.9,0.2,11.7,2.4s2.4-1.8-0.4-6.5c-2.8-4.8,3.8,0.4,12.1,1.3
				c8.3,0.9-0.2-3.3-6.9-6.5c-2.6-1.2-4.8-2.2-6.5-2.9c-2.7-1.2-3.9-1.8-2.8-2c1.8-0.4,10.5,2.4,8.1-1.8c-2.4-4.2-8.1-4.8-15.5-11.3
				c-7.3-6.5,8.7-2,12.5,2.2c3.8,4.2,8.5,10.5,12.9,9.1c4.4-1.4,18.6,6.5,27,10.7c8.4,4.2,9.5-3.2-1.4-7.1c-10.9-4,2.4-1.6,12.3,1.8
				c9.9,3.4,1-6-6.9-10.3c-7.9-4.4-5.2-2.2-8.3-6.3c-3.2-4.2,4.4,2.6,11.1,4.4c6.7,1.8,0.4-3.8-2-5.8c-2.4-2,2.2-2.8,2-6.1
				c-0.2-3.4-3.4-1-6.7-4c-3.3-3-1.8-1-3.4,1.4c-1.6,2.4-1.8,1.8-3.4-2.2c-1.6-4-0.8-2.6-5.2-1.2c-4.4,1.4-8.1-2.8-7.5-8.3
				c0-0.3,0-0.5,0-0.7l-3.5,4.2l-3-6.9c-1,0.3-2.1,0.6-3,1l-4.4,5.9l-5.6-8.9l-4.7,8.9l-1.5-4.6c-0.2,1.9-0.2,4-0.2,6.1
				c0,5.8-3.9-1.5-4-6.5l-3.7,5l-4.4-8.9l-7.7,8.9l-3.3-8.9l-6.2,8.9l-2.9-8.9l-10.1,8.9l-3-8.9l-7.9,8.9l-3.4-6.9
				c-0.7-0.2-1-1-0.9-1.9l-6.5,8.9l-5-8.9l-1.6,2.3C168.5,235,171.2,232.5,169.7,237.4z"/>
		</g>
		<g>
			<path fill="#D8EAF8" d="M324.4,219.7l5.3,9.2l5.6-9.2l3.5,9.2l5-9.2l5.9,9.2l5.6-9.2l4.4,9.2l4.5-9.2l5.4,9.2l6.1-9.2l1.1,2.1
				c0.1-4.2-0.1-10.3-1.9-13.6c-0.4-0.7-0.7-1.3-1-1.8c-2.4-3.7-4.6-3.8-10.5-2.7c-6.7,1.3-5.1-3.8-4.5-8.7c0.6-4.8-2.9-7.1-8.7-1.9
				c-5.8,5.1-3.5-1-4.8-7c-1.3-6-13.1,5.4-17.8,2.5c-2.8-1.7-4-3.7-5.7-4.6c0,0,0,0.1,0,0.1c-2.9,5.3-1.4,14.9-5.3,16.8
				c-2.3,1.1-0.2,12.9,1.3,23l2.7,4.9L324.4,219.7z"/>
			<path fill="#2D4171" d="M318.6,238.5c-2.9,2.9-3.4,23.1-1.9,23.6c1.4,0.5,9.6,5.8,7.2,10.6c-1.5,3,0.4,5.6,2,7.2
				c13.4,6.5,28.3,12.3,43.8,15.9c19.3,4.5,35.9,7.3,49.4,8.9c0,0,4.1-22.4,4.7-29.8c0-0.6,0.1-1.1,0.1-1.5c0-5.1-17.6-10.3-22.4-16
				c-4.8-5.8-10.6-4.2-10.6-4.2l-14.1-26.8c0,0,0.2-1.8,0.3-4.4l-1.1-2.1l-6.1,9.2l-5.4-9.2l-4.5,9.2l-4.4-9.2l-5.6,9.2l-5.9-9.2
				l-5,9.2l-3.5-9.2l-5.6,9.2l-5.3-9.2l-3.7,9.2L318,224C319,231.1,319.8,237.3,318.6,238.5z"/>
		</g>
		<g>
			<path fill="#D8EAF8" d="M464.6,257.3l3.5,9.5l6.8-9.5l3.5,9.5l4.1-9.5l5.9,9.5l9.2-9.5l3.3,9.5l6.2-9.5l0.6,1.8
				c0.8-3.3,0.6-7.1-2-10.2c-4.6-5.6-10.5-9-11.9-6.7c-1.4,2.2-1.4-1.9-2.8-1.4c-1.4,0.5-3.5,5.1-3.5,1.4s1-4.6-1.3-4.5
				s-10,0.4-10.9,1.3c-0.9,0.9-4.1,2.4-2.4-1.9c1.8-4.3-4.2,2.4-7.1,1.1c-2.9-1.3,0.2-3.2-2.7-4.2c-2.1-0.7-4.7,0.8-6.1,0.6
				c-0.5-0.1-0.9-0.4-1-1.1c-0.1-1-0.1-2-0.2-2.9c-0.1-1.4-0.4-2.4-1.9-2.7c-2.4-0.5-5.6-5.6-7.4-4.3c-0.9,0.7-1.5,1.4-1.9,2.3
				c-1.3,2.7-0.3,6.5,1.9,11.5c3,6.6,13.6,13.1,14.6,19.7c0.5,3.3-2.2,3.6-4.2,4.1l2.3,5.5L464.6,257.3z"/>
			<path fill="#D8EAF8" d="M513.5,262.2c-0.6-2.7-1.2-6.2-2.2-5.6c-0.9,0.6-2,2.5-2.7,4.9l1.6,5.3L513.5,262.2z"/>
			<path fill="#2D4171" d="M456.8,267.2c6.4,9,3.4,15.5,5.8,18.6c2.4,3,6.3-0.2,14.1-1.4c5.8-0.9,13.8-1.5,18.8-2.5
				c1.8-0.4,3.2-0.8,3.9-1.4c2.7-2.1,3.2-1.9,2.4-6.4c-0.8-4.5,0.3-6.7,2.9-9c1.2-1,2.5-3.3,3.1-6l-0.6-1.8l-6.2,9.5l-3.3-9.5
				l-9.2,9.5l-5.9-9.5l-4.1,9.5l-3.5-9.5l-6.8,9.5l-3.5-9.5l-5.3,9.5l-2.3-5.5C455,261.8,453.6,262.7,456.8,267.2z"/>
			<path fill="#2D4171" d="M507.6,272.6c1.3,5.4,0,27.2,6.1,27.4c6.1,0.2,7.2-3.5,9.6-6.6c2.4-3,3.8,0.8,5.4-2.1
				c1.6-2.9,5.9-7.9,6.1-4.3c0.2,3.5,0.3,9.9,2.4,6.1c2.1-3.8-0.6-9.3,1-10.9c1.6-1.6,1.3,3.7,3.4,4.4c2.1,0.7,2.4-0.2,2.6-2
				c0.2-1.8,2.8,4.5,3.8,2c1-2.5-0.6-3.6-1.6-6c-1-2.4,3.8-1.9,1.1-3.8c-2.7-1.9-1.8,2.2-3.2,1.5c-1.4-0.7-0.6-2.8-1.9-2.5
				c-1.3,0.2-2.1,3.4-3,2.5c-1-0.9,2.1-5.5,1-6.5c-1.1-1-5,3.7-6.1,1.8c-1.1-1.9-1.1-10.1-2.6-8.3c-1.4,1.8-5.3,6.6-6.7,5.8
				c-1.4-0.8-7.4-2.4-7.1-4.5c0.2-2.1-2.3-2.1-3.3-1.6c-0.4,0.2-0.7-1.1-1-2.8l-3.3,4.6l-1.6-5.3C507.4,265,506.8,269.4,507.6,272.6
				z"/>
		</g>
		<text transform="matrix(1 0 0 1 73.5314 325.3597)"><tspan x="0" y="0" fill="#4F70B5" font-family="'HelveticaNeue'" font-size="14.1946px">NB</tspan><tspan x="-40.6" y="21.3" fill="#2D4171" font-family="'HelveticaNeue-Bold'" font-size="19.5175px">86% </tspan><tspan x="6" y="21.3" fill="#4F70B5" font-family="'HelveticaNeue-Bold'" font-size="19.5175px">- </tspan><tspan x="19.4" y="21.3" fill="#D8EAF8" font-family="'HelveticaNeue-Bold'" font-size="19.5175px">24%</tspan></text>
		<text transform="matrix(1 0 0 1 213.5754 325.3597)"><tspan x="0" y="0" fill="#4F70B5" font-family="'HelveticaNeue'" font-size="14.1946px">NU</tspan><tspan x="-40.4" y="21.3" fill="#2D4171" font-family="'HelveticaNeue-Bold'" font-size="19.5175px">73% </tspan><tspan x="6.3" y="21.3" fill="#4F70B5" font-family="'HelveticaNeue-Bold'" font-size="19.5175px">- </tspan><tspan x="19.6" y="21.3" fill="#D8EAF8" font-family="'HelveticaNeue-Bold'" font-size="19.5175px">27%</tspan></text>
		<text transform="matrix(1 0 0 1 354.9318 325.3597)"><tspan x="0" y="0" fill="#4F70B5" font-family="'HelveticaNeue'" font-size="14.1946px">NT</tspan><tspan x="-41.4" y="21.3" fill="#2D4171" font-family="'HelveticaNeue-Bold'" font-size="19.5175px">77% </tspan><tspan x="5.2" y="21.3" fill="#4F70B5" font-family="'HelveticaNeue-Bold'" font-size="19.5175px">- </tspan><tspan x="18.6" y="21.3" fill="#D8EAF8" font-family="'HelveticaNeue-Bold'" font-size="19.5175px">23%</tspan></text>
		<text transform="matrix(1 0 0 1 495.2414 325.3597)"><tspan x="0" y="0" fill="#4F70B5" font-family="'HelveticaNeue'" font-size="14.1946px">NF</tspan><tspan x="-44.1" y="21.3" fill="#2D4171" font-family="'HelveticaNeue-Bold'" font-size="19.5175px">65% </tspan><tspan x="2.5" y="21.3" fill="#4F70B5" font-family="'HelveticaNeue-Bold'" font-size="19.5175px">- </tspan><tspan x="15.9" y="21.3" fill="#D8EAF8" font-family="'HelveticaNeue-Bold'" font-size="19.5175px">35%</tspan><tspan x="57.1" y="21.3" fill="#2D4171" font-family="'HelveticaNeue-Bold'" font-size="19.5175px"> </tspan></text>
	</g>
	<g>
		<g>
			<path fill="#D8EAF8" d="M36.7,70.3l6.8-11.8l6.8,11.8l3.7-5c-1.9-2-4.2-4.1-7.4-5.7c-8.1-4.1-24.6-1.8-20.2,4l3.1-5.2L36.7,70.3z
				"/>
			<path fill="#D8EAF8" d="M122.8,59.7c-0.7-1-1.9-1.8-3.6-2.1c-2.8-0.5-5.8-0.5-8.5,0.1l5.8,12.6L122.8,59.7z"/>
			<path fill="#D8EAF8" d="M110.2,57.8c-3.4,0.8-6.6,2.5-9.3,4.9l3.8,5.8L110.2,57.8z"/>
			<path fill="#2D4171" d="M27.8,65c8.2,6.8-1.5,13.6,13.6,24.7c15,11.1,75-9.2,81.3-18.4c0,0,3-7.6,0.2-11.5l-6.3,10.5l-5.8-12.6
				c-0.2,0-0.3,0.1-0.5,0.1l-5.5,10.7l-3.8-5.8c-1.3,1.2-2.5,2.6-3.5,4.2c-4.8,7.7-31.5,6.8-35.7,5.8c-2.7-0.6-4.5-3.9-7.8-7.4
				l-3.7,5l-6.8-11.8l-6.8,11.8l-7.1-11.8l-3.1,5.2C26.8,64.1,27.2,64.5,27.8,65z"/>
		</g>
		<g>
			<path fill="#D8EAF8" d="M166.5,40.1l6.1,8.3l5.7-8.3l3.8,8.3l7.1-8.3l3,8.3l6-8.3l3.7,8.3l5.3-8.3l6.2,8.3l4.2-8.3l7.3,8.3
				l1.8-2.9c-0.4-0.3-0.8-0.8-1.2-1.5c-2.4-4.7-2.1-3.9-5-4.7c-2.9-0.8-2.4-0.5-2.1-2.6c0.3-2.1,0-6.3-1.8-7.9
				c-1.8-1.6,2.4-10.5-1.3-10.5c-3.7,0-5.8,3.4-8.9,2.4c-3.1-1-5.2-0.5-7.1-2.4c-1.8-1.8-3.4-3.7-5.8-2.9c-2.4,0.8-4.5-4.7-5.5-5.1
				c-1-0.4-3,0-3,0l-25.9,30.2v4.1l1.8,3.6L166.5,40.1z"/>
			<path fill="#2D4171" d="M159.4,69.3c0.3-0.1,5.5-1.5,6.8,1c1.4,2.6,4.5,4.3,5.5,2.9c1-1.4,5.5-5.7,7.1-2c1.6,3.7,7.3,5.9,9.4,4.7
				s16.3-11.4,17.5-7.5c1.2,3.9,0.4,5.5,3.1,4.9c2.8-0.6,4.3,0.2,5.1,2.6c0.8,2.4,0.8,6.9,3.7,6.7c2.9-0.2,6.3,3.5,10.8,2.4
				s14.5,1.8,14.9,3.7c0.4,2-3.3,1.2-2.6,2.2c0.8,1,1.4,2.7,1.4,2.7c-4.7-0.4-8.6-5.1-9,0c-0.4,5.1,2,9.6,0,15.7
				c-2,6.1,0,8.2,4.5,3.5c4.5-4.7,21-6.1,17.5-9.5c-3.5-3.4-8.6-2.7-5.9-5.8c2.7-3.1,18.8-8.2,20-12.6c0.7-2.6,3-4,3.2-4.5
				c0.1-0.4-0.6-0.4-3.2-0.3c-6.7,0.3-8.8,2.1-12.2,1.6c-3.4-0.5-6.3-2.6-7.9-4.2c-1.6-1.6-3.7-2.6-6.8-2.4c-3.1,0.3-1.8,1.6-3.9-5
				c-2.1-6.5-6.1-26.2-6.1-26.2s-3.1,3.4-5.5,1.5l-1.8,2.9l-7.3-8.3l-4.2,8.3l-6.2-8.3l-5.3,8.3l-3.7-8.3l-6,8.3l-3-8.3l-7.1,8.3
				l-3.8-8.3l-5.7,8.3l-6.1-8.3l-5.3,8.3l-1.8-3.6L159.4,69.3C159.4,69.3,159.4,69.3,159.4,69.3z"/>
		</g>
		<g>
			<path fill="#D8EAF8" d="M332.4,62.6l6.8-8.3l3.8,8.3l4.7-8.3l5,8.3l3.9-8.3l2.9,8.3l6.5-8.3l4.4,8.3l5.3-6.8
				c-0.4-1.8-1.1-3.8-2.7-6c-4.5-6.3,3.8-2.5,3.1-7.1c-0.7-4.6-8.1-9.2-10.2-13.8c-1.6-3.5-2.2-6.1-1.4-8c-0.3-0.1-0.5-0.3-0.8-0.6
				c-1.6-2,0.7-3.8-1.5-4.3c-2.2-0.5-0.6,2.4-3.2-1.3c-2.6-3.7-5.6-7.8-5.6-3.4s1.2,12.9-1.3,13.9c-2.5,0.9-7.8,1.3-8.7-1.6
				c-0.9-2.9,0.4-2.9-1.9-3.2c-2.4-0.3-0.8-1-1.7-2.7c-2.3-4.4-1.7-5.2-4-4c-2.3,1.1-5.9,3.4-6.1-0.6c-0.2-3.9-8.1-6.2-10.8-4.4
				c-2.7,1.8-4.3,0.4-4.9,5.2c-0.7,4.7-2.2,8.3,1.8,10.4c4,2.1,6.3,1.5,3.1,6.8c-3.1,5.4-6.7,4.7-0.2,8.5c6.5,3.8,9.9,11.7,7.7,14.1
				c-2.1,2.5-3.9,4-3,5.6c0.3,0.4,0.3,0.8,0.3,1.1l4.4-6.3L332.4,62.6z"/>
			<path fill="#2D4171" d="M320.9,62.6c-2.5,0.9-4.3,1.7-1.3,3.6c2.9,2,2.2,0.8,5.2,5.3c2.9,4.5,2.9,7.6,1.9,8.3c-1,0.7-1,3-1.8,4.9
				c0,0,3.5,16.8,5.3,22.4c1.8,5.6,0.7,4.5,3.4,4.3c2.7-0.2,4.5,0.7,5.8,2c1.3,1.3,3.8,3.1,6.7,3.6c2.9,0.4,4.7-1.1,10.4-1.3
				c2.2-0.1,2.9,0,2.8,0.3l0,0c0,0,1.7-2.5,3.1-2.8c1.4-0.3,6.8-0.4,7.1-0.8c0.4-0.4,0.5-1,0.8-1.5c0.3-0.5,4.7-4.2,3.6-7
				c-1.2-2.8,1.9-6.2,0.8-7.8c-0.8-1.2-0.3-0.8,0.3-1.6c0.2-0.3,0.4-0.7,0.6-1.4c0.7-2.6-0.9-4.8,0.7-5c1.6-0.2,6.7,0.5,6.8-0.8
				c0.1-1.3,0.4-1.7,2.1-1c1.2,0.5,3.5-0.8,5-2.8c0.6-0.9,1-1.8,1.1-2.9c0.3-3.4-2.3-6.4-4.5-5.8c-2.2,0.6-7.1,5.6-9,8.2
				c-1.8,2.6-4.1,2.1-4.1,3.8c0,1.7-3.6,7.6-3.3,9.8s-2.4,5.8-1.8,3.4c0.5-2.4,3.2-10.1,3.2-11.3c0-1.2-0.3-3.7,1.2-5.2
				c1.4-1.5,4.8-3.9,4.3-6.8c-0.5-2.9,0-5.3,3.4-5.2c3.4,0.1,7.2-6.8,10-6.7c2.8,0.1,5.2,0.9,6-1.3c0.3-1,2-2.1,3.6-3.4
				c-3.5,0.7-9.1,1.1-13.2,1.7c-5.5,0.9-8.2,3.1-9.9,1c-1.1-1.4-0.6-3.8-1.3-7l-5.3,6.8l-4.4-8.3l-6.5,8.3l-2.9-8.3l-3.9,8.3l-5-8.3
				l-4.7,8.3l-3.8-8.3l-6.8,8.3l-4.1-8.3l-4.4,6.3C323.7,61.4,322.7,61.9,320.9,62.6z"/>
		</g>
		<g>
			<path fill="#D8EAF8" d="M477,37.4l4.4-6.8l5.4,6.8l6.2-6.8l3.3,6.8l5.6-6.8l2.4,6.8l5.3-5.9l0.8-17.2c-11-1-22.7-2.9-35.2-6
				l-6.2,26.9l4.9-4.7L477,37.4z"/>
			<path fill="#2D4171" d="M505.6,114.6l3.9-83l-5.3,5.9l-2.4-6.8l-5.6,6.8l-3.3-6.8l-6.2,6.8l-5.4-6.8l-4.4,6.8l-3.3-6.8l-4.9,4.7
				l-16.4,70.8C467.9,109.7,485.5,112.7,505.6,114.6z"/>
		</g>
		<text transform="matrix(1 0 0 1 62.5568 136.85)"><tspan x="0" y="0" fill="#4F70B5" font-family="'HelveticaNeue'" font-size="14.1946px">PE</tspan><tspan x="-36.3" y="21.3" fill="#2D4171" font-family="'HelveticaNeue-Bold'" font-size="19.5175px">94% </tspan><tspan x="10.4" y="21.3" fill="#4F70B5" font-family="'HelveticaNeue-Bold'" font-size="19.5175px">-</tspan><tspan x="18.3" y="21.3" fill="#2D4171" font-family="'HelveticaNeue-Bold'" font-size="19.5175px"> </tspan><tspan x="23.8" y="21.3" fill="#D8EAF8" font-family="'HelveticaNeue-Bold'" font-size="19.5175px">6%</tspan></text>
		<text transform="matrix(1 0 0 1 211.3683 136.85)"><tspan x="0" y="0" fill="#4F70B5" font-family="'HelveticaNeue'" font-size="14.1946px">ON</tspan><tspan x="-40.1" y="21.3" fill="#2D4171" font-family="'HelveticaNeue-Bold'" font-size="19.5175px">74% </tspan><tspan x="6.5" y="21.3" fill="#4F70B5" font-family="'HelveticaNeue-Bold'" font-size="19.5175px">- </tspan><tspan x="19.9" y="21.3" fill="#D8EAF8" font-family="'HelveticaNeue-Bold'" font-size="19.5175px">26%</tspan></text>
		<text transform="matrix(1 0 0 1 354.2014 136.85)"><tspan x="0" y="0" fill="#4F70B5" font-family="'HelveticaNeue'" font-size="14.1946px">QC</tspan><tspan x="-40.1" y="21.3" fill="#2D4171" font-family="'HelveticaNeue-Bold'" font-size="19.5175px">68% </tspan><tspan x="6.5" y="21.3" fill="#4F70B5" font-family="'HelveticaNeue-Bold'" font-size="19.5175px">- </tspan><tspan x="19.9" y="21.3" fill="#D8EAF8" font-family="'HelveticaNeue-Bold'" font-size="19.5175px">32%</tspan></text>
		<text transform="matrix(1 0 0 1 490.1779 136.85)"><tspan x="0" y="0" fill="#4F70B5" font-family="'HelveticaNeue'" font-size="14.1946px">SK</tspan><tspan x="-41.3" y="21.3" fill="#2D4171" font-family="'HelveticaNeue-Bold'" font-size="19.5175px">72% </tspan><tspan x="5.4" y="21.3" fill="#4F70B5" font-family="'HelveticaNeue-Bold'" font-size="19.5175px">- </tspan><tspan x="18.7" y="21.3" fill="#D8EAF8" font-family="'HelveticaNeue-Bold'" font-size="19.5175px">%28</tspan></text>
	</g>
	<g>
		<g>
			<path fill="#D8EAF8" d="M34.5,407.5l5.2-4.9l4.6,4.9l6.9-4.9l2.9,4.9l4.9-4.9l4.6,4.9l4.9-4.9l4.6,4.9l4.1-4.9l3.7,4.9l0,0
				l5.8-25.1c-5.3-1.3-10.8-2.8-16.4-4.5c-9.8-3.1-18.6-6.1-26.7-9.2l-14.3,33.9l0,0L34.5,407.5z"/>
			<path fill="#2D4171" d="M26.3,424c1.9,2.4,0,3.4-0.5,7.2s0.5,3.8,4.8,8.7c4.3,4.8,2.4,1.9,4.8,7.2c2.4,5.3,0,0,1,4.8
				c1,4.8,1.9,2.4,4.8,4.3c2.9,1.9,1,3.4,0,4.8c-1,1.4,0,6.7,0,6.7l-2.6,5.2c7.7,2.5,16.3,4.9,25.7,7.1l16.8-72.7l0,0l-3.7-4.9
				l-4.1,4.9l-4.6-4.9l-4.9,4.9l-4.6-4.9l-4.9,4.9l-2.9-4.9l-6.9,4.9l-4.6-4.9l-5.2,4.9l-5-4.9l0,0l-5.6,13.3
				C23.9,415.9,24.4,421.6,26.3,424z"/>
		</g>
		<g>
			<path fill="#D8EAF8" d="M161.9,415.7l3.9-7.5l5.6,7.5l5.2-7.5l4.9,7.5l6.9-7.5l2.6,7.5l3.1-3.1l2.9-7c-29-11.1-43.9-22.6-53.9-33
				c-1.3,1.4-2,3.5-0.4,6.4c3.8,6.9,4.2,11.1,7.6,9c3.5-2.1,6.6-3.4,3.8,0.5c-2.8,4-7.6,5.4-3.8,8.5c3.8,3.1,6.9,5.4,3.1,8.9
				c-3.8,3.6-6.6,3.2-1.4,6c0.7,0.4,1.2,0.7,1.7,1l2.9-4.8L161.9,415.7z"/>
			<path fill="#2D4171" d="M150.7,420.6c-4.5,4.9-7.6,6.9-4.5,10.1c3.1,3.1,7.3,3.1,7.3,7.3c0,4.2-2.4,4.9-3.1,7.3
				c-0.7,2.4-1.4,6.6,2.8,8.3c4.2,1.7,4.2,2.1,4.9,6.2c0.4,2.5-0.1,4.5,0.4,6.2c3.2,1.7,7.5,4,13.1,6.5c3.2,1.3,6.6,2.7,9.9,4
				c1.8,0.7,3.6,1.5,5.1,2.1c2.1,0.8,4.4,1.5,6.8,2.3l1.9-3.8c0,0-0.7-3.8,0-4.9c0.7-1,2.1-2.1,0-3.5c-2.1-1.4-2.8,0.3-3.5-3.1
				c-0.7-3.5,1,0.3-0.7-3.5c-1.7-3.8-0.3-1.7-3.5-5.2c-3.1-3.5-3.8-3.5-3.5-6.2c0.3-2.8,1.7-3.5,0.3-5.2c-1.4-1.7-1.7-5.9-1.7-5.9
				l11.4-27.1l-3.1,3.1l-2.6-7.5l-6.9,7.5l-4.9-7.5l-5.2,7.5l-5.6-7.5l-3.9,7.5l-5.2-7.5l-2.9,4.8
				C156.7,415,154.6,416.4,150.7,420.6z"/>
		</g>
		<g>
			<path fill="#D8EAF8" d="M269.5,412.1l7.7,10.7l5.1-10.7l7.8,10.7l4.8-10.7l6.4,10.7l5.3-10.7l6.3,10.7l4.4-10.7l2,3.3l7.3-8.5
				c0,0-15.4,0-18.3,0s-12,4.3-7.2-2.4c4.8-6.7,7.7-9.1,2.4-11.5c-5.3-2.4-7.2-2.9-7.2-7.9c0-2.5,1.2-5.3,2.4-7.5
				c-10.7,0.7-22.9,0.8-36.4-0.5l-1.9,39.9l2.6,4.4L269.5,412.1z"/>
			<path fill="#2D4171" d="M294.9,478.9v-35.1l24.4-28.5l-2-3.3l-4.4,10.7l-6.3-10.7l-5.3,10.7l-6.4-10.7l-4.8,10.7l-7.8-10.7
				l-5.1,10.7l-7.7-10.7l-6.4,9.1l-2.6-4.4l-2.9,60.3C269.3,478.2,281.7,478.8,294.9,478.9z"/>
		</g>
		<g>
			<path fill="#D8EAF8" d="M388.3,407.5l4.8,8.5l4.2-8.5l5.3,8.5l6.6-8.5l3.2,8.5l6.3-8.5l0,0c-0.3-3.9-0.2-6.7,0.8-7.2
				c3.8-1.9,2.4-11.5,5.3-16.8c0,0,0-0.1,0-0.1c4.3-8-0.5-12.9-4.8-12.9c-2.6,0-23.9,23.1-39,42.1l1.5,3.4L388.3,407.5z"/>
			<path fill="#2D4171" d="M366.1,436.8c5.3,3.8,4.3,2.4,8.2,8.2c0.1,0.1,0.2,0.3,0.4,0.5c3.1,2.4,6.9,5.3,11.6,8.5
				c5.7,3.7,12.8,8,19.5,12.1c6.6,4,13,7.7,17.6,10.3c1.7,0.9,3.5,1.8,5.3,2.6c-1.6-1.6-3.5-4.2-2-7.2c2.4-4.8-5.8-10.1-7.2-10.6
				s-1-20.7,1.9-23.6c2.1-2.1-1.9-20-2.8-30.3l0,0l-6.3,8.5l-3.2-8.5l-6.6,8.5l-5.3-8.5L393,416l-4.8-8.5l-5.8,8.5l-1.5-3.4
				C371.2,424.8,364,435.3,366.1,436.8z"/>
		</g>
		<g>
			<path fill="#D8EAF8" d="M511.1,394.8l3.3,7.9l3.7-7.9l4,7.9l3.7-7.9l2.9,7.9l1.6-3.6c-0.9-0.4-1.3-1.2-1-2.9
				c0.4-1.8,0.8-3.2,1.2-4.6c0.9-3.4,1.1-6.6-1.5-14.2c-1.9-5.5-7.7-1-13.2,5.7c-4.6,5.6-8.9,12.7-10.9,17l0.9,2.6L511.1,394.8z"/>
			<path fill="#D8EAF8" d="M536.5,400.2c-0.7-0.4-1.6-0.5-2.5-0.6l1.2,3.1L536.5,400.2z"/>
			<path fill="#2D4171" d="M515.9,419.8c1,0.6,1.9,1,2.8,1.4c-1.7,2.4-1.4,7.3-4.8,6.8c-4.1-0.6-2.3-3.5-5.3-2.5
				c-5.3,1.8-16.6,10.6-13.7,14.3c2.9,3.7,10.1-4.6,9.1-0.7c-1,3.8-26.7,16.1-17.8,32c8.8,15.9,13.3-4.9,18.4-2.9
				c5.2,1.9-0.6-8.4,1.5-12.8c2.1-4.4,9-12.7,12.5-10.2c3.6,2.5,9.3-10.8,9.3-14.3c0-3.5,10.3-3.2,8.3-6.5c-2.1-3.2-9.4-3-11.4-0.9
				c-1,1.1-1.3-0.2-1.9-1.5c2.6,0,5.1-0.6,7.9-1.1c5.3-1.1,7.4-11.3,7.2-17.7c0-1.5-0.7-2.4-1.5-2.8l-1.4,2.5l-1.2-3.1
				c-1.4-0.1-2.7-0.1-3.7-0.5l-1.6,3.6l-2.9-7.9l-3.7,7.9l-4-7.9l-3.7,7.9l-3.3-7.9l-5.4,7.9l-0.9-2.6c-0.2,0.5-0.5,1-0.6,1.5
				C501,409.8,508,414.8,515.9,419.8z"/>
		</g>
		<text transform="matrix(1 0 0 1 48.3869 506.6234)"><tspan x="0" y="0" fill="#4F70B5" font-family="'HelveticaNeue'" font-size="14.1946px">AB</tspan><tspan x="-41.2" y="21.3" fill="#2D4171" font-family="'HelveticaNeue-Bold'" font-size="19.5175px">79% </tspan><tspan x="5.5" y="21.3" fill="#4F70B5" font-family="'HelveticaNeue-Bold'" font-size="19.5175px">-</tspan><tspan x="13.4" y="21.3" fill="#2D4171" font-family="'HelveticaNeue-Bold'" font-size="19.5175px"> </tspan><tspan x="18.9" y="21.3" fill="#D8EAF8" font-family="'HelveticaNeue-Bold'" font-size="19.5175px">21%</tspan></text>
		<text transform="matrix(1 0 0 1 277.2038 506.6234)"><tspan x="0" y="0" fill="#4F70B5" font-family="'HelveticaNeue'" font-size="14.1946px">MB</tspan><tspan x="-38.2" y="21.3" fill="#2D4171" font-family="'HelveticaNeue-Bold'" font-size="19.5175px">78% </tspan><tspan x="6.9" y="21.3" fill="#4F70B5" font-family="'HelveticaNeue-Bold'" font-size="19.5175px">- </tspan><tspan x="19.5" y="21.3" fill="#D8EAF8" font-family="'HelveticaNeue-Bold'" font-size="19.5175px">22%</tspan></text>
		<text transform="matrix(1 0 0 1 163.2311 506.6234)"><tspan x="0" y="0" fill="#4F70B5" font-family="'HelveticaNeue'" font-size="14.1946px">BC</tspan><tspan x="-39.2" y="21.3" fill="#2D4171" font-family="'HelveticaNeue-Bold'" font-size="19.5175px">80% </tspan><tspan x="5.9" y="21.3" fill="#4F70B5" font-family="'HelveticaNeue-Bold'" font-size="19.5175px">- </tspan><tspan x="18.5" y="21.3" fill="#D8EAF8" font-family="'HelveticaNeue-Bold'" font-size="19.5175px">20%</tspan></text>
		<text transform="matrix(1 0 0 1 393.61 506.6234)"><tspan x="0" y="0" fill="#4F70B5" font-family="'HelveticaNeue'" font-size="14.1946px">YK</tspan><tspan x="-41.3" y="21.3" fill="#2D4171" font-family="'HelveticaNeue-Bold'" font-size="19.5175px">71% </tspan><tspan x="5.4" y="21.3" fill="#4F70B5" font-family="'HelveticaNeue-Bold'" font-size="19.5175px">- </tspan><tspan x="18.7" y="21.3" fill="#D8EAF8" font-family="'HelveticaNeue-Bold'" font-size="19.5175px">29%</tspan></text>
		<text transform="matrix(1 0 0 1 508.2516 506.6234)"><tspan x="0" y="0" fill="#4F70B5" font-family="'HelveticaNeue'" font-size="14.1946px">NS</tspan><tspan x="-40.9" y="21.3" fill="#2D4171" font-family="'HelveticaNeue-Bold'" font-size="19.5175px">89% </tspan><tspan x="5.8" y="21.3" fill="#4F70B5" font-family="'HelveticaNeue-Bold'" font-size="19.5175px">- </tspan><tspan x="19.1" y="21.3" fill="#D8EAF8" font-family="'HelveticaNeue-Bold'" font-size="19.5175px">11%</tspan></text>
	</g>
</g>
<g id="Information">
</g>
<g id="Margin_LR">
</g>
<g id="_x34__x2F_8_x2F_12_Layout" opacity="0.46">
</g>
<g id="Baseline_Grids" display="none">
</g>
</svg>
