<?xml version="1.0" encoding="utf-8"?>
<!-- Generator: Adobe Illustrator 19.2.1, SVG Export Plug-In . SVG Version: 6.00 Build 0)  -->
<svg version="1.1" xmlns="http://www.w3.org/2000/svg" xmlns:xlink="http://www.w3.org/1999/xlink" x="0px" y="0px" width="581px"
	 height="283.2px" viewBox="0 0 581 283.2" enable-background="new 0 0 581 283.2" xml:space="preserve">
<g id="Layer_5">
	<g>
		<rect x="74.2" y="9.7" fill="none" width="429.1" height="111.4"/>
		<text transform="matrix(1 0 0 1 107.9464 32.6855)"><tspan x="0" y="0" fill="#2D4171" font-family="'HelveticaNeue-Bold'" font-size="32.2187px">Nationally, about one in </tspan><tspan x="-18.6" y="38.1" fill="#2D4171" font-family="'HelveticaNeue-Bold'" font-size="32.2187px">every ten Canadian adults </tspan><tspan x="26.5" y="76.2" fill="#2D4171" font-family="'HelveticaNeue-Bold'" font-size="32.2187px">were active anglers.</tspan></text>
	</g>
	<g>
		<g>
			<circle fill="#D8EAF8" stroke="#4F70B5" stroke-width="0.5" stroke-miterlimit="10" cx="25.7" cy="163.4" r="10.3"/>
			<path fill="#D8EAF8" stroke="#4F70B5" stroke-width="0.5" stroke-miterlimit="10" d="M44.5,181.4c-2.8-2-17.3-0.2-18.9,0
				c-1.6-0.2-16-2-18.9,0c-3,2.1-6,44.7-1.5,45.5c4.5,0.8,1.5-28,4.1-28.8c2.6-0.8,1.5,50.6,1.5,50.6h3.5c0,0-2.1,20.9,0,21.7
				c2.1,0.8,3.3-10.9,3.3-21.7H21c0,0,0.5-21.2,4.6-21.7c4.1,0.5,4.6,21.7,4.6,21.7h3.4c0,10.8,1.1,22.6,3.3,21.7
				c2.1-0.8,0-21.7,0-21.7h3.5c0,0-1.1-51.4,1.5-50.6c2.6,0.8-0.4,29.6,4.1,28.8C50.5,226.1,47.5,183.5,44.5,181.4z"/>
		</g>
		<g>
			<circle fill="#D8EAF8" stroke="#4F70B5" stroke-width="0.5" stroke-miterlimit="10" cx="78.6" cy="163.4" r="10.3"/>
			<path fill="#D8EAF8" stroke="#4F70B5" stroke-width="0.5" stroke-miterlimit="10" d="M97.4,181.4c-2.8-2-17.3-0.2-18.9,0
				c-1.6-0.2-16-2-18.9,0c-3,2.1-6,44.7-1.5,45.5c4.5,0.8,1.5-28,4.1-28.8c2.6-0.8,1.5,50.6,1.5,50.6h3.5c0,0-2.1,20.9,0,21.7
				c2.1,0.8,3.3-10.9,3.3-21.7H74c0,0,0.5-21.2,4.6-21.7c4.1,0.5,4.6,21.7,4.6,21.7h3.4c0,10.8,1.1,22.6,3.3,21.7
				c2.1-0.8,0-21.7,0-21.7h3.5c0,0-1.1-51.4,1.5-50.6c2.6,0.8-0.4,29.6,4.1,28.8C103.4,226.1,100.4,183.5,97.4,181.4z"/>
		</g>
		<g>
			<circle fill="#D8EAF8" stroke="#4F70B5" stroke-width="0.5" stroke-miterlimit="10" cx="131.5" cy="163.4" r="10.3"/>
			<path fill="#D8EAF8" stroke="#4F70B5" stroke-width="0.5" stroke-miterlimit="10" d="M150.3,181.4c-2.8-2-17.3-0.2-18.9,0
				c-1.6-0.2-16-2-18.9,0c-3,2.1-6,44.7-1.5,45.5c4.5,0.8,1.5-28,4.1-28.8c2.6-0.8,1.5,50.6,1.5,50.6h3.5c0,0-2.1,20.9,0,21.7
				c2.1,0.8,3.3-10.9,3.3-21.7h3.4c0,0,0.5-21.2,4.6-21.7c4.1,0.5,4.6,21.7,4.6,21.7h3.4c0,10.8,1.1,22.6,3.3,21.7
				c2.1-0.8,0-21.7,0-21.7h3.5c0,0-1.1-51.4,1.5-50.6c2.6,0.8-0.4,29.6,4.1,28.8C156.4,226.1,153.4,183.5,150.3,181.4z"/>
		</g>
		<g>
			<circle fill="#D8EAF8" stroke="#4F70B5" stroke-width="0.5" stroke-miterlimit="10" cx="184.4" cy="163.4" r="10.3"/>
			<path fill="#D8EAF8" stroke="#4F70B5" stroke-width="0.5" stroke-miterlimit="10" d="M203.3,181.4c-2.8-2-17.3-0.2-18.9,0
				c-1.6-0.2-16-2-18.9,0c-3,2.1-6,44.7-1.5,45.5c4.5,0.8,1.5-28,4.1-28.8c2.6-0.8,1.5,50.6,1.5,50.6h3.5c0,0-2.1,20.9,0,21.7
				c2.1,0.8,3.3-10.9,3.3-21.7h3.4c0,0,0.5-21.2,4.6-21.7c4.1,0.5,4.6,21.7,4.6,21.7h3.4c0,10.8,1.1,22.6,3.3,21.7
				c2.1-0.8,0-21.7,0-21.7h3.5c0,0-1.1-51.4,1.5-50.6c2.6,0.8-0.4,29.6,4.1,28.8C209.3,226.1,206.3,183.5,203.3,181.4z"/>
		</g>
		<g>
			<circle fill="#D8EAF8" stroke="#4F70B5" stroke-width="0.5" stroke-miterlimit="10" cx="237.3" cy="163.4" r="10.3"/>
			<path fill="#D8EAF8" stroke="#4F70B5" stroke-width="0.5" stroke-miterlimit="10" d="M256.2,181.4c-2.8-2-17.3-0.2-18.9,0
				c-1.6-0.2-16-2-18.9,0c-3,2.1-6,44.7-1.5,45.5c4.5,0.8,1.5-28,4.1-28.8c2.6-0.8,1.5,50.6,1.5,50.6h3.5c0,0-2.1,20.9,0,21.7
				c2.1,0.8,3.3-10.9,3.3-21.7h3.4c0,0,0.5-21.2,4.6-21.7c4.1,0.5,4.6,21.7,4.6,21.7h3.4c0,10.8,1.1,22.6,3.3,21.7
				c2.1-0.8,0-21.7,0-21.7h3.5c0,0-1.1-51.4,1.5-50.6c2.6,0.8-0.4,29.6,4.1,28.8C262.2,226.1,259.2,183.5,256.2,181.4z"/>
		</g>
		<g>
			<circle fill="#D8EAF8" stroke="#4F70B5" stroke-width="0.5" stroke-miterlimit="10" cx="290.2" cy="163.4" r="10.3"/>
			<path fill="#D8EAF8" stroke="#4F70B5" stroke-width="0.5" stroke-miterlimit="10" d="M309.1,181.4c-2.8-2-17.3-0.2-18.9,0
				c-1.6-0.2-16-2-18.9,0c-3,2.1-6,44.7-1.5,45.5c4.5,0.8,1.5-28,4.1-28.8c2.6-0.8,1.5,50.6,1.5,50.6h3.5c0,0-2.1,20.9,0,21.7
				c2.1,0.8,3.3-10.9,3.3-21.7h3.4c0,0,0.5-21.2,4.6-21.7c4.1,0.5,4.6,21.7,4.6,21.7h3.4c0,10.8,1.1,22.6,3.3,21.7
				c2.1-0.8,0-21.7,0-21.7h3.5c0,0-1.1-51.4,1.5-50.6c2.6,0.8-0.4,29.6,4.1,28.8C315.1,226.1,312.1,183.5,309.1,181.4z"/>
		</g>
		<g>
			<circle fill="#D8EAF8" stroke="#4F70B5" stroke-width="0.5" stroke-miterlimit="10" cx="343.1" cy="163.4" r="10.3"/>
			<path fill="#D8EAF8" stroke="#4F70B5" stroke-width="0.5" stroke-miterlimit="10" d="M362,181.4c-2.8-2-17.3-0.2-18.9,0
				c-1.6-0.2-16-2-18.9,0c-3,2.1-6,44.7-1.5,45.5c4.5,0.8,1.5-28,4.1-28.8c2.6-0.8,1.5,50.6,1.5,50.6h3.5c0,0-2.1,20.9,0,21.7
				c2.1,0.8,3.3-10.9,3.3-21.7h3.4c0,0,0.5-21.2,4.6-21.7c4.1,0.5,4.6,21.7,4.6,21.7h3.4c0,10.8,1.1,22.6,3.3,21.7
				c2.1-0.8,0-21.7,0-21.7h3.5c0,0-1.1-51.4,1.5-50.6c2.6,0.8-0.4,29.6,4.1,28.8C368,226.1,365,183.5,362,181.4z"/>
		</g>
		<g>
			<circle fill="#D8EAF8" stroke="#4F70B5" stroke-width="0.5" stroke-miterlimit="10" cx="396" cy="163.4" r="10.3"/>
			<path fill="#D8EAF8" stroke="#4F70B5" stroke-width="0.5" stroke-miterlimit="10" d="M414.9,181.4c-2.8-2-17.3-0.2-18.9,0
				c-1.6-0.2-16-2-18.9,0c-3,2.1-6,44.7-1.5,45.5c4.5,0.8,1.5-28,4.1-28.8c2.6-0.8,1.5,50.6,1.5,50.6h3.5c0,0-2.1,20.9,0,21.7
				c2.1,0.8,3.3-10.9,3.3-21.7h3.4c0,0,0.5-21.2,4.6-21.7c4.1,0.5,4.6,21.7,4.6,21.7h3.4c0,10.8,1.1,22.6,3.3,21.7
				c2.1-0.8,0-21.7,0-21.7h3.5c0,0-1.1-51.4,1.5-50.6c2.6,0.8-0.4,29.6,4.1,28.8C420.9,226.1,417.9,183.5,414.9,181.4z"/>
		</g>
		<path fill="#4F70B5" stroke="#4F70B5" stroke-width="0.5" stroke-linecap="round" stroke-miterlimit="10" d="M527.6,267.4
			c0,0,1.4-94.2,16.7-107.3c15.2-13,23.7,9.4,23.7,9.4s-23.2-35.3-30.8,22.6s-6.7,75.2-6.7,75.2H527.6z"/>
		<g>
			<circle fill="#D8EAF8" stroke="#4F70B5" stroke-width="0.5" stroke-miterlimit="10" cx="448.9" cy="163.4" r="10.3"/>
			<path fill="#D8EAF8" stroke="#4F70B5" stroke-width="0.5" stroke-miterlimit="10" d="M467.8,181.4c-2.8-2-17.3-0.2-18.9,0
				c-1.6-0.2-16-2-18.9,0c-3,2.1-6,44.7-1.5,45.5c4.5,0.8,1.5-28,4.1-28.8c2.6-0.8,1.5,50.6,1.5,50.6h3.5c0,0-2.1,20.9,0,21.7
				c2.1,0.8,3.3-10.9,3.3-21.7h3.4c0,0,0.5-21.2,4.6-21.7c4.1,0.5,4.6,21.7,4.6,21.7h3.4c0,10.8,1.1,22.6,3.3,21.7
				c2.1-0.8,0-21.7,0-21.7h3.5c0,0-1.1-51.4,1.5-50.6c2.6,0.8-0.4,29.6,4.1,28.8C473.8,226.1,470.8,183.5,467.8,181.4z"/>
		</g>
		<path fill="#4F70B5" stroke="#A9C4E6" stroke-width="0.5" stroke-miterlimit="10" d="M520.7,181.4c-2.8-2-17.3-0.2-18.9,0
			c-1.6-0.2-16-2-18.9,0c-3,2.1-6,44.7-1.5,45.5c4.5,0.8,1.5-28,4.1-28.8c2.6-0.8,1.5,50.6,1.5,50.6h3.5c0,0-2.1,20.9,0,21.7
			c2.1,0.8,3.3-10.9,3.3-21.7h3.4c0,0,0.5-21.2,4.6-21.7c4.1,0.5,4.6,21.7,4.6,21.7h3.4c0,10.8,1.1,22.6,3.3,21.7
			c2.1-0.8,0-21.7,0-21.7h3.5c0,0-1.1-51.4,1.5-50.6c2.6,0.8,13.8,20.1,18.3,19.3C540.9,216.6,523.7,183.5,520.7,181.4z"/>
		<path fill="#4F70B5" stroke="#4F70B5" stroke-width="0.5" stroke-miterlimit="10" d="M564,255.5h10.8c0,0-28.6-26.3-5.4-51.2
			C591.5,222,564,255.5,564,255.5z"/>
		
			<line fill="#4F70B5" stroke="#4F70B5" stroke-width="0.5" stroke-linecap="round" stroke-miterlimit="10" x1="569.4" y1="204.3" x2="568" y2="169.6"/>
		<g>
			<path fill="#4F70B5" stroke="#A9C4E6" stroke-width="0.5" stroke-miterlimit="10" d="M518.7,159.3c-0.7-1.9-6.3-6.2-6.3-8.3
				c0-1.7-0.5-4.2-2.3-6.1c0,0-4.5-1.9-13.5-0.5c-9,1.3-1.7,7.2-8,9.6c-6.3,2.4-5.2,9.6-2.9,12.2c1,1.1,3.2,0.7,6.2,0
				c-0.8-2.8-1.4-6.7,2.7-10.8c1.8-1.8,4.9-2.3,7.5-2.3c5.6,0.1,10.1,4.7,10.1,10.3c0,0.9-0.2,1.8-0.4,2.7
				C520.2,166.6,519.7,162.2,518.7,159.3z"/>
			<path fill="#4F70B5" stroke="#A9C4E6" stroke-width="0.5" stroke-miterlimit="10" d="M501.8,153.1c-5.7,0-10.3,4.6-10.3,10.3
				c0,1,0.2,1.9,0.4,2.7c1.2,4.4,5.2,7.6,9.9,7.6c4.8,0,8.8-3.3,10-7.7c0.2-0.9,0.4-1.8,0.4-2.7
				C512.2,157.7,507.6,153.1,501.8,153.1z"/>
		</g>
		<path fill="#4F70B5" stroke="#A9C4E6" stroke-width="0.5" stroke-miterlimit="10" d="M508.2,273.1c2.8,1.4,12.2,2.7,12.5,1
			c0.3-1.7-0.5-5.2-3-5.7c-2.5-0.5-1.2-9.4-2-10.1c-0.8-0.7-6,0.2-7.5-0.7C506.7,256.8,505.4,271.7,508.2,273.1z"/>
		<path fill="#4F70B5" stroke="#A9C4E6" stroke-width="0.5" stroke-miterlimit="10" d="M488.1,274.5c2.8,1.4,12.2,2.7,12.5,1
			c0.3-1.7-0.5-5.2-3-5.7s-1.2-9.4-2-10.1c-0.8-0.7-6,0.2-7.5-0.7C486.7,258.2,485.4,273.1,488.1,274.5z"/>
	</g>
</g>
<g id="Information">
</g>
<g id="Margin_LR">
</g>
<g id="_x34__x2F_8_x2F_12_Layout" opacity="0.46">
</g>
<g id="Baseline_Grids" display="none">
</g>
</svg>
