<?xml version="1.0" encoding="utf-8"?>
<!-- Generator: Adobe Illustrator 19.2.1, SVG Export Plug-In . SVG Version: 6.00 Build 0)  -->
<svg version="1.1" xmlns="http://www.w3.org/2000/svg" xmlns:xlink="http://www.w3.org/1999/xlink" x="0px" y="0px" width="577.4px"
	 height="741.4px" viewBox="0 0 577.4 741.4" enable-background="new 0 0 577.4 741.4" xml:space="preserve">
<g id="Layer_5">
	
		<text transform="matrix(1 0 0 1 327.6276 595.4897)" fill="#D8EAF8" font-family="'HelveticaNeue-CondensedBlack'" font-size="189.0285px" letter-spacing="-11">51</text>
	
		<text transform="matrix(0.583 0 0 0.583 501.53 595.0034)" fill="#D8EAF8" font-family="'HelveticaNeue-CondensedBlack'" font-size="108.0657px">%</text>
	<path fill="#4F70B5" d="M140.2,536.1c0,0,119.5-10.9,128.5,26.8c-0.6,15.2-129.4,9.6-129.4,9.6"/>
	<g>
		<ellipse fill="none" cx="144" cy="421.6" rx="4.9" ry="5.1"/>
		<path fill="#4F70B5" d="M233.1,612.5c-1.3,5.6-3.6,11-6.8,15.8c-5,7.5-12.4,17-18.8,18.6c-10.8,2.8-11.8,13.6,14.1,11.3
			c0,0,2.4,32.3-29.6,32.3c-32,0-29.9-32.3-30.5-50.7c-0.4-9.9,4.1-77,2.1-109.5l0,0c-26.3-14.5-14.4-64.8-14.4-64.8
			c-0.6-0.9-1.2-1.8-1.9-2.6v-25.1c0,0,13-1.5,13-13s-1.7-20.6-18.9-20.6c-17.3,0-17.5,33.6-5.8,33.6V463c0,0-23.1,179.2-18.1,213.8
			c5,34.6,40.6,56.2,74.9,56.2s57.2-22,57.8-73.1C251.1,592.2,237.7,592.1,233.1,612.5z M139.1,421.6c0-2.8,2.2-5.1,4.9-5.1
			c2.7,0,4.9,2.3,4.9,5.1s-2.2,5.1-4.9,5.1C141.3,426.8,139.1,424.4,139.1,421.6z"/>
		<path fill="#D8EAF8" stroke="#2D4171" stroke-width="0.5" stroke-miterlimit="10" d="M163.6,534c1.3-26.3-6.1-54.8-15.1-68.4
			C148.5,465.6,135.4,516.7,163.6,534z"/>
	</g>
	<path fill="#4F70B5" d="M134.5,536.1c0,0-119.5-10.9-128.5,26.8c0.6,15.2,129.4,9.6,129.4,9.6"/>
	<circle fill="#D8EAF8" stroke="#2D4171" stroke-width="0.5" stroke-miterlimit="10" cx="140.3" cy="600.6" r="8"/>
	<circle fill="#D8EAF8" stroke="#2D4171" stroke-width="0.5" stroke-miterlimit="10" cx="138.8" cy="626.7" r="8"/>
	<circle fill="#D8EAF8" stroke="#2D4171" stroke-width="0.5" stroke-miterlimit="10" cx="138.8" cy="649.8" r="8"/>
	<path fill="none" stroke="#FBD6A6" stroke-width="1.088" stroke-linecap="round" stroke-miterlimit="10" d="M141.1,422.5
		c-2.7-6.9-3.1-14.8-1.1-21.9c2.7,0,5.3,0.1,8,0.1c0,7.7,0.1,15.4,0.1,23c-6.3-4.2-8.3-12.7-7.7-20.2c0.6-7.5,1.2-15.4,1.8-22.9
		c1.1-14.6-3.2-29.2,1.6-43.1c0.4,24.2,0.8,48.3,1.2,72.5c0.1,4.4-0.1,9.4-3.2,12.5c0.3-6.3,0.7-12.6,1-18.9
		c0.1-1.5,0.5-3.3,1.9-3.6c1.8-0.4,2.8,2.1,2.8,4c0.2,6.4-1.1,12.8-3.7,18.7C142.8,422.5,142,422.5,141.1,422.5z"/>
	
		<text transform="matrix(0 -1 1 0 52.2702 313.9595)" fill="#D8EAF8" font-family="'HelveticaNeue-CondensedBlack'" font-size="57.6305px">LICENSING</text>
	<path fill="#D8EAF8" stroke="#2D4171" stroke-width="3" stroke-miterlimit="10" d="M551,356H73.3c-10.6,0-19.3-8.6-19.3-19.3V46
		c0-10.6,8.6-19.3,19.3-19.3H551c10.6,0,19.3,8.6,19.3,19.3v290.8C570.2,347.4,561.6,356,551,356z"/>
	<g>
		<path fill="#7697CE" d="M110.8,202c0.6,19.5,14,24.6,14,24.6c22.4-1.5,43.4-6.1,43.4-6.1l-23-12.3c0,0,28.6-4.4,29.5-13.3
			c1-8.9-29.5-34.5-95.6-32.5v58.1c7.7,5,20.6,6.6,34.1,6.6C107.5,219.3,110.8,202,110.8,202z"/>
		<path fill="#D8EAF8" d="M124.8,226.6c0,0-13.5-5.1-14-24.6c0,0-3.3,17.4,2.5,25.1C117.1,227,121,226.9,124.8,226.6z"/>
	</g>
	<circle fill="#D8EAF8" cx="131.2" cy="183.7" r="5.1"/>
	<path fill="#A9C4E6" d="M178,192.9c2.9,7.4-7.4,15.3-20.1,15.3c-12.7,0,5.2,6.8,10.3,7.9c5.1,1.1,4.2,9.6-2.5,8.8
		c-6.7-0.8-29.6-8.6-28.5-16.7C138.3,200,175,185.2,178,192.9z"/>
	<path fill="#A9C4E6" d="M92.7,181.9c-6.2-0.4-7.3,14.5-2.3,15.6c5,1,19-0.5,16.2-4.8C103.9,188.5,98.1,182.3,92.7,181.9z"/>
	<rect x="205.2" y="46.8" fill="#A9C4E6" width="7.4" height="288.7"/>
	
		<rect x="79.4" y="128.2" fill="none" stroke="#4F70B5" stroke-width="1.3493" stroke-miterlimit="10" width="111.8" height="131.7"/>
	<g>
		<rect x="226.7" y="80.9" fill="none" width="322.9" height="246.1"/>
		<text transform="matrix(1 0 0 1 237.4557 98.5962)"><tspan x="0" y="0" fill="#2D4171" font-family="'HelveticaNeue'" font-size="24.7263px">In 2005, more than </tspan><tspan x="214.9" y="0" fill="#2D4171" font-family="'HelveticaNeue-Bold'" font-size="24.7263px">3.2 mil</tspan><tspan x="291.3" y="0" fill="#2D4171" font-family="'HelveticaNeue-Bold'" font-size="24.7263px">-</tspan><tspan x="-7" y="29.2" fill="#2D4171" font-family="'HelveticaNeue-Bold'" font-size="24.7263px">lion adults bought licenses </tspan><tspan x="-8.4" y="58.4" fill="#2D4171" font-family="'HelveticaNeue-Bold'" font-size="24.7263px">and fished for recreation in </tspan><tspan x="2.5" y="87.7" fill="#2D4171" font-family="'HelveticaNeue-Bold'" font-size="24.7263px">Canada.</tspan><tspan x="100.1" y="87.7" fill="#2D4171" font-family="'HelveticaNeue'" font-size="24.7263px"> Trends show that </tspan><tspan x="16.5" y="116.9" fill="#2D4171" font-family="'HelveticaNeue'" font-size="24.7263px">these numbers have de</tspan><tspan x="275.3" y="116.9" fill="#2D4171" font-family="'HelveticaNeue'" font-size="24.7263px">-</tspan><tspan x="28.2" y="146.1" fill="#2D4171" font-family="'HelveticaNeue'" font-size="24.7263px">creased at an average </tspan><tspan x="-6.9" y="175.3" fill="#2D4171" font-family="'HelveticaNeue'" font-size="24.7263px">annual rate of 2% during the </tspan><tspan x="69.1" y="204.6" fill="#2D4171" font-family="'HelveticaNeue'" font-size="24.7263px">past ten years.</tspan></text>
	</g>
	<text transform="matrix(1 0 0 1 321.4553 625.5269)"><tspan x="0" y="0" fill="#2D4171" font-family="'HelveticaNeue-Bold'" font-size="23.7092px">of all trips to Canada</tspan><tspan x="-13.4" y="28" fill="#2D4171" font-family="'HelveticaNeue-Bold'" font-size="23.7092px">in 2010 were for fishing</tspan></text>
</g>
<g id="Information">
</g>
<g id="Margin_LR">
</g>
<g id="_x34__x2F_8_x2F_12_Layout" opacity="0.46">
</g>
<g id="Baseline_Grids" display="none">
</g>
</svg>
