<?xml version="1.0" encoding="utf-8"?>
<!-- Generator: Adobe Illustrator 19.2.1, SVG Export Plug-In . SVG Version: 6.00 Build 0)  -->
<svg version="1.1" xmlns="http://www.w3.org/2000/svg" xmlns:xlink="http://www.w3.org/1999/xlink" x="0px" y="0px" width="256.4px"
	 height="252.6px" viewBox="0 0 256.4 252.6" enable-background="new 0 0 256.4 252.6" xml:space="preserve">
<g id="Layer_30">
	<path fill="#2D4171" d="M181,192.7c-2.2,33.4-27.9,50.5-61.4,50.5s-54.5-17.5-59.8-50.5c-11.6-72.5,28.5-85.1,62-85.1
		S185.6,123.6,181,192.7z"/>
	<path fill="#FFFFFF" stroke="#2D4171" stroke-miterlimit="10" d="M65.6,187.9c6.5-20.6-14.2-73.1,64.4-71.8
		c56.7,1,42.3,83.9,42.3,83.9l-31.9,5h-27.8l-22.3-5L65.6,187.9z"/>
	<path fill="#FFFFFF" stroke="#2D4171" stroke-width="2.8741" stroke-miterlimit="10" d="M52,184.4c-1.1,2.6,64.2,49.3,131.6,14.5
		c5.7-11.4-39,3.8-65.6,1.4C93.8,198.2,55.9,174.7,52,184.4z"/>
	<path fill="#FFFFFF" stroke="#2D4171" stroke-width="2.8741" stroke-miterlimit="10" d="M115.8,121.6c3.4,6.5,16,11.5,21.4,4.6
		c5.4-6.9,4.6-26.7,4.6-26.7s-20,3.7-26,0C109.8,95.8,115.8,121.6,115.8,121.6z"/>
	<path fill="#2D4171" d="M123.6,85.5c15.9-0.3,31.4,19.6,6.3,22C104.9,109.9,107.7,85.9,123.6,85.5z"/>
	
		<text transform="matrix(1 0 0 1 20.431 22.7879)" fill="#2D4171" font-family="'HelveticaNeue-CondensedBlack'" font-size="19.5838px">QUEBEC</text>
	<text transform="matrix(1 0 0 1 100.2738 22.3919)"><tspan x="0" y="0" fill="#2D4171" font-family="'HelveticaNeue-CondensedBlack'" font-size="19.5838px">BRITISH</tspan><tspan x="-0.7" y="14.7" fill="#2D4171" font-family="'HelveticaNeue-CondensedBlack'" font-size="15.2319px">COLOMBIA</tspan></text>
	
		<text transform="matrix(1 0 0 1 180.013 22.8743)" fill="#2D4171" font-family="'HelveticaNeue-CondensedBlack'" font-size="19.5838px">ONTARIO</text>
	<g>
		<path fill="#2D4171" d="M105.1,140.4l0.3-3.6l10.5,0.9l-0.3,3.6l-3.2-0.3l-1,12.6l-4.2-0.3l1-12.6L105.1,140.4z"/>
		<path fill="#2D4171" d="M116.6,142c0.3-1,0.7-1.9,1.2-2.5c0.5-0.6,1.1-1.1,1.9-1.3c0.8-0.2,1.7-0.3,2.8-0.2c1.1,0.1,2,0.3,2.7,0.7
			c0.7,0.4,1.3,0.9,1.7,1.6c0.4,0.7,0.7,1.6,0.8,2.7c0.1,1.1,0.1,2.4,0,3.9c-0.1,1.5-0.3,2.8-0.6,3.8s-0.7,1.9-1.2,2.5
			c-0.5,0.6-1.1,1.1-1.9,1.3c-0.8,0.2-1.7,0.3-2.8,0.2c-1.1-0.1-2-0.3-2.7-0.7c-0.7-0.3-1.3-0.9-1.7-1.6c-0.4-0.7-0.7-1.6-0.8-2.7
			c-0.1-1.1-0.1-2.4,0-3.9C116.1,144.3,116.3,143,116.6,142z M120.1,148.9c0,0.7,0,1.3,0.1,1.7c0.1,0.4,0.2,0.7,0.4,0.9
			c0.2,0.2,0.4,0.3,0.7,0.3c0.3,0,0.6,0,0.8-0.2c0.2-0.2,0.4-0.4,0.5-0.8c0.1-0.4,0.2-1,0.3-1.7c0.1-0.7,0.2-1.6,0.3-2.7
			s0.1-2,0.2-2.7c0-0.7,0-1.3-0.1-1.7c-0.1-0.4-0.2-0.7-0.4-0.9c-0.2-0.2-0.4-0.3-0.7-0.3c-0.3,0-0.6,0-0.8,0.2
			c-0.2,0.2-0.4,0.4-0.5,0.8c-0.1,0.4-0.2,1-0.3,1.7s-0.2,1.6-0.3,2.7S120.2,148.2,120.1,148.9z"/>
		<path fill="#2D4171" d="M136.1,139.3c0.8,0.1,1.5,0.3,2.1,0.6c0.6,0.3,1,0.7,1.4,1.2c0.3,0.5,0.6,1,0.7,1.6c0.1,0.6,0.2,1.3,0.1,2
			c-0.1,1.7-0.7,2.9-1.7,3.7s-2.3,1.1-4.1,0.9l-1.5-0.1l-0.5,6.2l-4.2-0.3l1.3-16.2L136.1,139.3z M134.2,146.2
			c0.5,0,0.9-0.1,1.3-0.4c0.3-0.3,0.5-0.8,0.5-1.5c0.1-1.3-0.4-2-1.5-2.1l-0.8-0.1l-0.3,3.9L134.2,146.2z"/>
		<path fill="#4F70B6" d="M83.9,154.4c1,0.1,1.7,0.4,2.2,0.9c0.5,0.5,0.7,1.3,0.6,2.3c-0.1,0.8-0.3,1.4-0.6,1.9
			c-0.4,0.5-0.9,0.7-1.5,0.8l0,0c0.6,0.1,1,0.4,1.2,0.7c0.2,0.3,0.4,0.8,0.4,1.4c0,0.2,0,0.5,0,0.7c0,0.3,0,0.5,0,0.9
			c0,0.6,0,1.1,0,1.4c0,0.3,0.2,0.6,0.4,0.7l0,0.1l-2.5-0.2c-0.1-0.2-0.2-0.4-0.2-0.6c0-0.2,0-0.4,0-0.7l0.1-2.2
			c0-0.5-0.1-0.8-0.3-1.1c-0.2-0.3-0.5-0.4-1-0.5l-1.2-0.1l-0.4,4.9l-2.3-0.2l0.9-11.6L83.9,154.4z M82.5,159.4c0.6,0,1-0.1,1.3-0.3
			c0.3-0.2,0.5-0.7,0.6-1.3c0.1-1.1-0.4-1.6-1.5-1.7l-1.1-0.1l-0.3,3.3L82.5,159.4z"/>
		<path fill="#4F70B6" d="M95,157.2l-4.1-0.3l-0.2,2.7l3.9,0.3l-0.2,1.9l-3.9-0.3l-0.3,3.1l4.3,0.4l-0.2,1.9l-6.6-0.5l0.9-11.6
			l6.5,0.5L95,157.2z"/>
		<path fill="#4F70B6" d="M97.9,163.9c0,0.3,0,0.5,0,0.7c0,0.2,0.1,0.4,0.2,0.6c0.1,0.2,0.3,0.3,0.4,0.4c0.2,0.1,0.4,0.2,0.7,0.2
			c0.4,0,0.7-0.1,1-0.3c0.3-0.2,0.5-0.6,0.5-1c0-0.3,0-0.5,0-0.7c-0.1-0.2-0.2-0.4-0.3-0.5c-0.1-0.2-0.4-0.3-0.6-0.5
			c-0.3-0.1-0.6-0.3-0.9-0.5c-0.5-0.2-0.9-0.4-1.3-0.7c-0.4-0.2-0.7-0.5-0.9-0.8c-0.2-0.3-0.4-0.6-0.5-1c-0.1-0.4-0.1-0.8-0.1-1.3
			c0.1-1.1,0.5-2,1.2-2.5c0.7-0.5,1.6-0.7,2.7-0.6c0.5,0,1,0.1,1.4,0.3c0.4,0.1,0.8,0.4,1.1,0.6c0.3,0.3,0.5,0.6,0.7,1
			c0.1,0.4,0.2,0.9,0.2,1.4l0,0.3l-2.2-0.2c0-0.6,0-1-0.2-1.3c-0.2-0.3-0.5-0.5-0.9-0.5c-0.3,0-0.5,0-0.7,0.1
			c-0.2,0.1-0.3,0.2-0.4,0.3c-0.1,0.1-0.2,0.3-0.2,0.4c-0.1,0.2-0.1,0.3-0.1,0.5c0,0.4,0,0.7,0.2,0.9c0.1,0.3,0.4,0.5,0.9,0.8
			l1.7,0.9c0.4,0.2,0.8,0.5,1,0.7c0.3,0.2,0.5,0.5,0.6,0.7s0.2,0.5,0.3,0.8c0,0.3,0,0.6,0,1c-0.1,1.2-0.5,2.1-1.3,2.6
			s-1.8,0.7-3,0.6c-1.3-0.1-2.2-0.5-2.8-1.1c-0.5-0.6-0.7-1.5-0.6-2.5l0-0.5l2.3,0.2L97.9,163.9z"/>
		<path fill="#4F70B6" d="M105.4,156.1l2.3,0.2l-0.9,11.6l-2.3-0.2L105.4,156.1z"/>
		<path fill="#4F70B6" d="M113.5,156.8c0.8,0.1,1.5,0.3,1.9,0.6c0.5,0.3,0.8,0.7,1.1,1.2c0.2,0.5,0.4,1.1,0.4,1.8c0,0.7,0,1.5,0,2.3
			c-0.1,1-0.2,1.9-0.4,2.6c-0.2,0.7-0.5,1.3-0.8,1.8c-0.3,0.5-0.8,0.8-1.3,1s-1.2,0.3-2,0.2l-3.7-0.3l0.9-11.6L113.5,156.8z
			 M112.3,166.6c0.4,0,0.7,0,1-0.1c0.3-0.1,0.5-0.3,0.6-0.6c0.2-0.3,0.3-0.7,0.4-1.3c0.1-0.5,0.2-1.2,0.2-2c0.1-0.7,0.1-1.2,0.1-1.7
			c0-0.5-0.1-0.9-0.2-1.3c-0.1-0.3-0.3-0.6-0.5-0.8c-0.2-0.2-0.6-0.3-1-0.3l-1-0.1l-0.7,8.1L112.3,166.6z"/>
		<path fill="#4F70B6" d="M125.3,159.7l-4.1-0.3l-0.2,2.7l3.9,0.3l-0.2,1.9l-3.9-0.3l-0.3,3.1l4.3,0.4l-0.2,1.9l-6.6-0.5l0.9-11.6
			l6.5,0.5L125.3,159.7z"/>
		<path fill="#4F70B6" d="M131.8,166.3L131.8,166.3l0.7-7.9l2.1,0.2l-0.9,11.6l-2.7-0.2l-2.2-8.3l0,0l-0.7,8.1l-2.1-0.2l0.9-11.6
			l2.7,0.2L131.8,166.3z"/>
		<path fill="#4F70B6" d="M143.1,161.2l-2.5-0.2l-0.8,9.6l-2.3-0.2l0.8-9.6l-2.5-0.2l0.2-1.9l7.4,0.6L143.1,161.2z"/>
		<path fill="#4F70B6" d="M144.5,159.4l2.3,0.2l-0.9,11.6l-2.3-0.2L144.5,159.4z"/>
		<path fill="#4F70B6" d="M153.8,160.1l2.1,11.8l-2.4-0.2l-0.3-2.5l-3.1-0.3l-0.7,2.4l-2.4-0.2l4-11.3L153.8,160.1z M153,167.3
			l-0.7-5.3l0,0l-1.5,5.1L153,167.3z"/>
		<path fill="#4F70B6" d="M157.9,160.5l2.3,0.2l-0.8,9.6l4.1,0.3l-0.2,1.9l-6.5-0.5L157.9,160.5z"/>
		<path fill="#2D4171" d="M93.3,170.3l2.1,13l-3.5-0.3l-0.2-2.3l-2.6-0.2l-0.5,2.2l-3.5-0.3l4.1-12.5L93.3,170.3z M91,172.7
			l-1.3,5.3l1.9,0.2L91,172.7L91,172.7z"/>
		<path fill="#2D4171" d="M100.8,170.9l1.5,8l0,0l0.6-7.8l3.1,0.3l-1,12.7l-3.6-0.3l-1.6-8l0,0l-0.6,7.9l-3.1-0.3l1-12.7
			L100.8,170.9z"/>
		<path fill="#2D4171" d="M115.9,178l-0.6,6.9l-2.2-0.2l0-1.1l0,0c-0.1,0.3-0.3,0.5-0.5,0.6c-0.2,0.2-0.4,0.3-0.7,0.3
			c-0.2,0.1-0.5,0.1-0.8,0.1c-0.3,0-0.6,0-0.9,0c-0.8-0.1-1.5-0.3-2-0.6c-0.5-0.3-0.8-0.8-1-1.3s-0.3-1.3-0.3-2.1
			c0-0.8,0-1.8,0.1-2.8c0.1-1.1,0.2-2,0.4-2.8c0.2-0.8,0.5-1.5,0.9-2c0.4-0.5,0.9-0.9,1.6-1.2c0.6-0.2,1.4-0.3,2.4-0.2
			c0.6,0,1.1,0.2,1.6,0.4c0.5,0.2,0.9,0.5,1.2,0.9c0.3,0.4,0.6,0.8,0.7,1.4c0.2,0.6,0.2,1.2,0.1,2l-3.2-0.3c0.1-0.7,0-1.2-0.1-1.5
			c-0.1-0.4-0.3-0.6-0.7-0.6c-0.3,0-0.5,0-0.7,0.1c-0.2,0.1-0.3,0.3-0.4,0.7c-0.1,0.3-0.2,0.8-0.3,1.3c-0.1,0.6-0.1,1.3-0.2,2.1
			s-0.1,1.6-0.1,2.1c0,0.6,0,1,0,1.4c0,0.3,0.1,0.6,0.3,0.7c0.1,0.1,0.3,0.2,0.6,0.2c0.2,0,0.3,0,0.5-0.1s0.3-0.2,0.4-0.4
			c0.1-0.2,0.2-0.5,0.3-0.8c0.1-0.3,0.1-0.8,0.2-1.3l-1.2-0.1l0.2-2.2L115.9,178z"/>
		<path fill="#2D4171" d="M121.2,172.6l-0.8,10l4.1,0.3l-0.2,2.7l-7.4-0.6l1-12.7L121.2,172.6z"/>
		<path fill="#2D4171" d="M133.9,173.6l-0.2,2.7l-4.2-0.3l-0.2,2.2l4,0.3l-0.2,2.6l-4-0.3l-0.2,2.5l4.4,0.4l-0.2,2.7l-7.7-0.6
			l1-12.7L133.9,173.6z"/>
		<path fill="#2D4171" d="M140.6,174.2c0.6,0.1,1.2,0.2,1.6,0.4c0.4,0.2,0.8,0.5,1,0.8c0.3,0.3,0.4,0.7,0.5,1.1
			c0.1,0.4,0.1,0.9,0.1,1.4c-0.1,0.9-0.3,1.5-0.7,2c-0.4,0.5-1,0.8-1.7,0.8l0,0c0.8,0.1,1.3,0.5,1.6,1c0.3,0.5,0.3,1.2,0.3,2
			l-0.1,1.1c0,0.2,0,0.3,0,0.5c0,0.2,0,0.3,0,0.5c0,0.2,0,0.3,0,0.4c0,0.1,0,0.2,0.1,0.3c0,0.1,0.1,0.1,0.1,0.2
			c0,0.1,0.1,0.1,0.2,0.2l0,0.2l-3.5-0.3c-0.1-0.2-0.1-0.4-0.1-0.6c0-0.2,0-0.5,0-0.7c0-0.2,0-0.4,0-0.7c0-0.2,0-0.4,0-0.5l0.1-0.9
			c0-0.4,0-0.7,0-0.9c0-0.2-0.1-0.4-0.1-0.6c-0.1-0.1-0.2-0.2-0.3-0.3c-0.1-0.1-0.3-0.1-0.5-0.1l-0.9-0.1l-0.4,5.1l-3.3-0.3l1-12.7
			L140.6,174.2z M139,179.4c0.5,0,0.8-0.1,1.1-0.3c0.2-0.3,0.4-0.6,0.4-1.1c0-0.5,0-0.9-0.2-1.2c-0.2-0.2-0.6-0.4-1.1-0.4l-0.6-0.1
			l-0.2,3L139,179.4z"/>
		<path fill="#2D4171" d="M150.5,178.4c0-0.4,0-0.7-0.2-1c-0.1-0.3-0.4-0.4-0.7-0.5c-0.4,0-0.6,0.1-0.8,0.3s-0.3,0.5-0.3,0.8
			c0,0.4,0.1,0.8,0.3,1c0.2,0.3,0.6,0.5,1,0.7c0.4,0.2,0.8,0.4,1.3,0.6c0.4,0.2,0.9,0.5,1.2,0.8c0.4,0.3,0.7,0.7,0.9,1.2
			c0.2,0.5,0.3,1.1,0.2,1.9c-0.1,1.4-0.6,2.3-1.4,2.9c-0.8,0.5-2,0.8-3.4,0.6c-0.7-0.1-1.3-0.2-1.8-0.3c-0.5-0.2-0.9-0.4-1.3-0.7
			c-0.3-0.3-0.6-0.7-0.7-1.2c-0.2-0.5-0.2-1-0.1-1.7l0-0.4l3.2,0.3l0,0.3c0,0.5,0,0.9,0.2,1.2c0.2,0.2,0.4,0.4,0.8,0.4
			c0.3,0,0.6-0.1,0.8-0.3s0.3-0.5,0.3-0.9c0-0.4-0.1-0.8-0.3-1c-0.2-0.3-0.5-0.5-0.9-0.7c-0.4-0.2-0.8-0.4-1.2-0.6
			c-0.4-0.2-0.8-0.5-1.2-0.8c-0.4-0.3-0.7-0.7-0.9-1.2c-0.2-0.5-0.3-1.1-0.2-1.8c0.1-1.3,0.5-2.3,1.3-2.9c0.7-0.6,1.8-0.9,3.2-0.8
			c1.4,0.1,2.5,0.5,3.1,1.2c0.6,0.7,0.8,1.7,0.7,3.1l-3.1-0.3L150.5,178.4z"/>
	</g>
	<path fill="#7698CF" d="M193.5,171.8c0,0,55.8,29.5,8.4,55c0,0,25.3-9,27.8-27.5C232.1,180.8,193.5,171.8,193.5,171.8z"/>
	<path fill="#7698CF" d="M192.1,185.2c0,0,32.1,17,4.8,31.7c0,0,14.6-5.2,16-15.8C214.3,190.4,192.1,185.2,192.1,185.2z"/>
	<path fill="#7698CF" d="M42.1,159.2c0,0-55.8,29.5-8.4,55c0,0-25.3-9-27.8-27.5S42.1,159.2,42.1,159.2z"/>
	<path fill="#7698CF" d="M43.5,172.6c0,0-32.1,17-4.8,31.7c0,0-14.6-5.2-16-15.8C21.3,177.8,43.5,172.6,43.5,172.6z"/>
	<path fill="none" stroke="#FBD7A7" stroke-width="2.7079" stroke-linecap="round" stroke-miterlimit="10" d="M128.9,77.7
		c18.8-9.9,79.4-26.8,86.7-41.9"/>
	
		<line fill="none" stroke="#FBD7A7" stroke-width="2.7079" stroke-linecap="round" stroke-miterlimit="10" x1="128.8" y1="46.7" x2="128.9" y2="77.7"/>
	<path fill="none" stroke="#2D4171" stroke-width="2.7079" stroke-linecap="round" stroke-miterlimit="10" d="M126.1,89.4
		c0.6-1.9,0.4-4,0.2-6.1c-0.2-2-0.4-4.1,0.3-6.1c0.7-1.9,2.6-3.6,4.6-3.3c2,0.2,3.5,3,2,4.5"/>
	<path fill="none" stroke="#FBD7A7" stroke-width="2.7079" stroke-linecap="round" stroke-miterlimit="10" d="M128.8,77.4
		C110,67.5,56.5,53.3,49.2,38.2"/>
</g>
<g id="Layer_2">
</g>
</svg>
