<?xml version="1.0" encoding="utf-8"?>
<!-- Generator: Adobe Illustrator 19.2.1, SVG Export Plug-In . SVG Version: 6.00 Build 0)  -->
<svg version="1.1" xmlns="http://www.w3.org/2000/svg" xmlns:xlink="http://www.w3.org/1999/xlink" x="0px" y="0px" width="335.8px"
	 height="371.1px" viewBox="0 0 335.8 371.1" style="enable-background:new 0 0 335.8 371.1;" xml:space="preserve">
<style type="text/css">
	.st0{fill:none;}
	.st1{fill:#AAC5E7;stroke:#000000;stroke-width:1.1128;stroke-miterlimit:10;}
	.st2{fill:#FBD7A7;}
	.st3{fill:#5D4838;}
	.st4{fill:#A79072;}
	.st5{fill:#2D4171;}
	.st6{fill:#D9EAF8;}
	.st7{fill:#4F70B6;}
	.st8{fill:#D9EAF8;stroke:#2D4171;stroke-width:0.5;stroke-miterlimit:10;}
	.st9{fill:none;stroke:#FBD7A7;stroke-width:1.088;stroke-linecap:round;stroke-miterlimit:10;}
	.st10{fill:none;stroke:#FBD7A7;stroke-width:2.7079;stroke-miterlimit:10;}
	.st11{fill:#FFFFFF;stroke:#2D4171;stroke-miterlimit:10;}
	.st12{fill:#FFFFFF;stroke:#2D4171;stroke-width:2.8741;stroke-miterlimit:10;}
	.st13{fill:#D9EAF8;stroke:#2D4171;stroke-width:3;stroke-miterlimit:10;}
	.st14{fill:#7698CF;}
	.st15{fill:#AAC5E7;}
	.st16{fill:none;stroke:#4F70B6;stroke-width:1.3493;stroke-miterlimit:10;}
	.st17{fill:#FFFFFF;}
	.st18{fill:#D9EAF8;stroke:#4F70B6;stroke-width:0.5;stroke-miterlimit:10;}
	.st19{fill:#4F70B6;stroke:#4F70B6;stroke-width:0.5;stroke-linecap:round;stroke-miterlimit:10;}
	.st20{fill:#4F70B6;stroke:#AAC5E7;stroke-width:0.5;stroke-miterlimit:10;}
	.st21{fill:#4F70B6;stroke:#4F70B6;stroke-width:0.5;stroke-miterlimit:10;}
	.st22{fill:none;stroke:#FBD7A7;stroke-width:2.7079;stroke-linecap:round;stroke-miterlimit:10;}
	.st23{fill:none;stroke:#2D4171;stroke-width:2.7079;stroke-linecap:round;stroke-miterlimit:10;}
	.st24{fill:none;stroke:#4F70B6;stroke-width:1.088;stroke-miterlimit:10;}
	.st25{fill:#7698CF;stroke:#2D4171;stroke-width:3;stroke-miterlimit:10;}
	.st26{fill:#D9EAF8;stroke:#4F70B6;stroke-width:3;stroke-miterlimit:10;}
	.st27{fill:#4F70B6;stroke:#2D4171;stroke-width:3;stroke-miterlimit:10;}
	.st28{fill:#FBD7A7;stroke:#A79072;stroke-width:3;stroke-miterlimit:10;}
	.st29{fill:none;stroke:#7698CF;stroke-width:1.0494;stroke-miterlimit:10;}
	.st30{fill:none;stroke:#2D4171;stroke-width:1.0494;stroke-miterlimit:10;}
	.st31{fill:none;stroke:#D9EAF8;stroke-width:1.2626;stroke-miterlimit:10;}
	.st32{fill:none;stroke:#4F70B6;stroke-width:1.2626;stroke-miterlimit:10;}
	.st33{fill:none;stroke:#7698CF;stroke-width:1.2626;stroke-miterlimit:10;}
	.st34{fill:none;stroke:#2D4171;stroke-width:1.2626;stroke-miterlimit:10;}
	.st35{fill:none;stroke:#7698CF;stroke-width:1.3994;stroke-miterlimit:10;}
	.st36{fill:none;stroke:#4F70B6;stroke-width:1.0494;stroke-miterlimit:10;}
	.st37{fill:none;stroke:#D9EAF8;stroke-width:1.0494;stroke-miterlimit:10;}
	.st38{fill:#FFFFFF;stroke:#2D4171;stroke-width:3;stroke-miterlimit:10;}
	.st39{fill:none;stroke:#000000;stroke-width:0.3;}
</style>
<g id="Layer_30">
	<path class="st6" d="M169.9,353.3v7.5c0,0,9.7-14.1,20.8-3.7C180.3,366.1,169.9,353.3,169.9,353.3z"/>
	<path class="st6" d="M169.9,318.8v7.5c0,0,9.7-14.1,20.8-3.7C180.3,331.6,169.9,318.8,169.9,318.8z"/>
	<path class="st6" d="M169.9,284.3v7.5c0,0,9.7-14.1,20.8-3.7C180.3,297.1,169.9,284.3,169.9,284.3z"/>
	<path class="st6" d="M169.9,247.5v7.5c0,0,9.7-14.1,20.8-3.7C180.3,260.3,169.9,247.5,169.9,247.5z"/>
	<path class="st6" d="M169.9,214v7.5c0,0,9.7-14.1,20.8-3.7C180.3,226.8,169.9,214,169.9,214z"/>
	<path class="st6" d="M169.9,179.1v7.5c0,0,9.7-14.1,20.8-3.7C180.3,191.9,169.9,179.1,169.9,179.1z"/>
	<path class="st6" d="M169.9,145.9v7.5c0,0,9.7-14.1,20.8-3.7C180.3,158.7,169.9,145.9,169.9,145.9z"/>
	<path class="st6" d="M169.9,110.2v7.5c0,0,9.7-14.1,20.8-3.7C180.3,123,169.9,110.2,169.9,110.2z"/>
	<path class="st6" d="M169.9,76.8v7.5c0,0,9.7-14.1,20.8-3.7C180.3,89.6,169.9,76.8,169.9,76.8z"/>
	<path class="st6" d="M169.9,43.4v7.5c0,0,9.7-14.1,20.8-3.7C180.3,56.2,169.9,43.4,169.9,43.4z"/>
	<g>
		<rect x="12.3" y="68.6" class="st0" width="143.5" height="28.2"/>
		<path class="st5" d="M40.7,82.4c-0.7,0.3-1.3,0.4-2,0.4c-1.1,0-2-0.2-2.9-0.6s-1.6-0.9-2.2-1.5c-0.6-0.7-1-1.4-1.4-2.3
			c-0.3-0.9-0.5-1.8-0.5-2.8c0-1,0.2-2,0.5-2.9c0.3-0.9,0.8-1.7,1.4-2.3c0.6-0.7,1.3-1.2,2.2-1.6c0.9-0.4,1.8-0.6,2.9-0.6
			c0.7,0,1.4,0.1,2.1,0.3c0.7,0.2,1.3,0.5,1.8,0.9c0.5,0.4,1,0.9,1.3,1.5s0.6,1.3,0.6,2.1h-2.9c-0.2-0.8-0.5-1.4-1.1-1.8
			c-0.5-0.4-1.2-0.6-1.9-0.6c-0.7,0-1.3,0.1-1.8,0.4c-0.5,0.3-0.9,0.6-1.2,1.1c-0.3,0.5-0.5,1-0.7,1.5c-0.1,0.6-0.2,1.2-0.2,1.8
			c0,0.6,0.1,1.2,0.2,1.7c0.1,0.6,0.4,1.1,0.7,1.5s0.7,0.8,1.2,1.1c0.5,0.3,1.1,0.4,1.8,0.4c1,0,1.8-0.3,2.4-0.8
			c0.6-0.5,0.9-1.3,1-2.2h-3.1V75h5.9v7.6h-2L42.5,81C42,81.7,41.3,82.2,40.7,82.4z"/>
		<path class="st5" d="M54.8,68.6c0.6,0,1.2,0.1,1.7,0.3c0.5,0.2,0.9,0.5,1.3,0.8c0.4,0.4,0.6,0.8,0.8,1.2c0.2,0.5,0.3,1,0.3,1.5
			c0,0.8-0.2,1.5-0.5,2.1c-0.3,0.6-0.9,1.1-1.7,1.4v0c0.4,0.1,0.7,0.3,0.9,0.5c0.2,0.2,0.5,0.5,0.6,0.8c0.2,0.3,0.3,0.6,0.3,1
			c0.1,0.4,0.1,0.7,0.1,1.1c0,0.2,0,0.5,0,0.8c0,0.3,0,0.6,0.1,0.9s0.1,0.6,0.2,0.9c0.1,0.3,0.2,0.5,0.3,0.7h-3.1
			c-0.2-0.4-0.3-1-0.3-1.6c0-0.6-0.1-1.2-0.2-1.8c-0.1-0.7-0.3-1.3-0.7-1.6c-0.3-0.3-0.9-0.5-1.7-0.5h-3.1v5.5h-3.1v-14H54.8z
			 M53.7,74.9c0.7,0,1.2-0.2,1.6-0.5c0.4-0.3,0.5-0.8,0.5-1.5c0-0.7-0.2-1.2-0.5-1.5S54.4,71,53.7,71h-3.4v3.9H53.7z"/>
		<path class="st5" d="M71.9,68.6v2.6h-7.4v3h6.8v2.4h-6.8V80H72v2.6H61.4v-14H71.9z"/>
		<path class="st5" d="M81.1,68.6l5.2,14h-3.2L82,79.4h-5.2l-1.1,3.1h-3.1l5.3-14H81.1z M81.2,77.1L79.5,72h0l-1.8,5.1H81.2z"/>
		<path class="st5" d="M84.6,71.1v-2.6h11.5v2.6h-4.2v11.4h-3.1V71.1H84.6z"/>
		<path class="st5" d="M109.7,68.6c0.7,0,1.3,0.1,1.8,0.2c0.5,0.1,1,0.3,1.4,0.6c0.4,0.3,0.7,0.6,0.9,1.1s0.3,1,0.3,1.6
			c0,0.7-0.2,1.3-0.5,1.8c-0.3,0.5-0.8,0.9-1.4,1.2c0.9,0.2,1.5,0.7,1.9,1.3c0.4,0.6,0.6,1.4,0.6,2.2c0,0.7-0.1,1.3-0.4,1.8
			c-0.3,0.5-0.6,0.9-1.1,1.3c-0.5,0.3-1,0.6-1.6,0.7s-1.2,0.2-1.8,0.2h-6.8v-14H109.7z M109.3,74.2c0.5,0,1-0.1,1.4-0.4
			c0.4-0.3,0.5-0.7,0.5-1.3c0-0.3-0.1-0.6-0.2-0.8s-0.3-0.4-0.5-0.5c-0.2-0.1-0.4-0.2-0.7-0.2s-0.5-0.1-0.8-0.1h-2.9v3.3H109.3z
			 M109.5,80.2c0.3,0,0.6,0,0.9-0.1c0.3-0.1,0.5-0.2,0.7-0.3s0.4-0.3,0.5-0.6c0.1-0.2,0.2-0.5,0.2-0.9c0-0.7-0.2-1.2-0.6-1.5
			c-0.4-0.3-0.9-0.5-1.6-0.5h-3.3v3.8H109.5z"/>
		<path class="st5" d="M127.4,68.6v2.6H120v3h6.8v2.4H120V80h7.5v2.6h-10.6v-14H127.4z"/>
		<path class="st5" d="M136.6,68.6l5.2,14h-3.2l-1.1-3.1h-5.2l-1.1,3.1h-3.1l5.3-14H136.6z M136.7,77.1L135,72h0l-1.8,5.1H136.7z"/>
		<path class="st5" d="M150.5,68.6c0.6,0,1.2,0.1,1.7,0.3c0.5,0.2,0.9,0.5,1.3,0.8c0.4,0.4,0.6,0.8,0.8,1.2c0.2,0.5,0.3,1,0.3,1.5
			c0,0.8-0.2,1.5-0.5,2.1c-0.3,0.6-0.9,1.1-1.7,1.4v0c0.4,0.1,0.7,0.3,0.9,0.5c0.2,0.2,0.5,0.5,0.6,0.8c0.2,0.3,0.3,0.6,0.3,1
			c0.1,0.4,0.1,0.7,0.1,1.1c0,0.2,0,0.5,0,0.8c0,0.3,0,0.6,0.1,0.9s0.1,0.6,0.2,0.9c0.1,0.3,0.2,0.5,0.3,0.7H152
			c-0.2-0.4-0.3-1-0.3-1.6c0-0.6-0.1-1.2-0.2-1.8c-0.1-0.7-0.3-1.3-0.7-1.6c-0.3-0.3-0.9-0.5-1.7-0.5h-3.1v5.5H143v-14H150.5z
			 M149.4,74.9c0.7,0,1.2-0.2,1.6-0.5c0.4-0.3,0.5-0.8,0.5-1.5c0-0.7-0.2-1.2-0.5-1.5s-0.9-0.5-1.6-0.5h-3.4v3.9H149.4z"/>
		<path class="st5" d="M135.7,84.5V90h3.3v0.7h-4.1v-6.2H135.7z"/>
		<path class="st5" d="M142.3,84.5l2.4,6.2h-0.9l-0.7-1.9h-2.6l-0.7,1.9H139l2.4-6.2H142.3z M142.9,88.1l-1-2.9h0l-1.1,2.9H142.9z"
			/>
		<path class="st5" d="M146.2,84.5v3.1l3.2-3.1h1.1l-2.6,2.5l2.7,3.7h-1l-2.2-3.1l-1,1v2.2h-0.8v-6.2H146.2z"/>
		<path class="st5" d="M155.4,84.5v0.7H152v2h3.2v0.7H152V90h3.5v0.7h-4.3v-6.2H155.4z"/>
	</g>
	<g>
		<rect x="29.5" y="33.9" class="st0" width="126.3" height="32.9"/>
		<path class="st5" d="M135.2,33.9v5.5h3.3v0.7h-4.1v-6.2H135.2z"/>
		<path class="st5" d="M142,33.9l2.4,6.2h-0.9l-0.7-1.9h-2.6l-0.7,1.9h-0.8l2.4-6.2H142z M142.5,37.6l-1-2.9h0l-1.1,2.9H142.5z"/>
		<path class="st5" d="M146,33.9V37l3.2-3.1h1.1l-2.6,2.5l2.7,3.7h-1L147,37l-1,1v2.2h-0.8v-6.2H146z"/>
		<path class="st5" d="M155.4,33.9v0.7H152v2h3.2v0.7H152v2.1h3.5v0.7h-4.3v-6.2H155.4z"/>
		<path class="st5" d="M41.6,43l5.2,14h-3.2l-1.1-3.1h-5.2L36.3,57h-3.1l5.3-14H41.6z M41.8,51.6l-1.8-5.1h0l-1.8,5.1H41.8z"/>
		<path class="st5" d="M45.6,45.6V43H57v2.6h-4.2V57h-3.1V45.6H45.6z"/>
		<path class="st5" d="M62.1,43v5.4h5.7V43h3.1v14h-3.1v-6h-5.7v6H59V43H62.1z"/>
		<path class="st5" d="M80.9,43l5.2,14h-3.2l-1.1-3.1h-5.2L75.6,57h-3.1l5.3-14H80.9z M81.1,51.6l-1.8-5.1h0l-1.8,5.1H81.1z"/>
		<path class="st5" d="M94.3,43c0.7,0,1.3,0.1,1.8,0.2c0.5,0.1,1,0.3,1.4,0.6c0.4,0.3,0.7,0.6,0.9,1.1s0.3,1,0.3,1.6
			c0,0.7-0.2,1.3-0.5,1.8c-0.3,0.5-0.8,0.9-1.4,1.2c0.9,0.2,1.5,0.7,1.9,1.3c0.4,0.6,0.6,1.4,0.6,2.2c0,0.7-0.1,1.3-0.4,1.8
			c-0.3,0.5-0.6,0.9-1.1,1.3c-0.5,0.3-1,0.6-1.6,0.7S95.1,57,94.5,57h-6.8V43H94.3z M93.9,48.7c0.5,0,1-0.1,1.4-0.4
			c0.4-0.3,0.5-0.7,0.5-1.3c0-0.3-0.1-0.6-0.2-0.8s-0.3-0.4-0.5-0.5c-0.2-0.1-0.4-0.2-0.7-0.2s-0.5-0.1-0.8-0.1h-2.9v3.3H93.9z
			 M94.1,54.6c0.3,0,0.6,0,0.9-0.1c0.3-0.1,0.5-0.2,0.7-0.3s0.4-0.3,0.5-0.6c0.1-0.2,0.2-0.5,0.2-0.9c0-0.7-0.2-1.2-0.6-1.5
			c-0.4-0.3-0.9-0.5-1.6-0.5h-3.3v3.8H94.1z"/>
		<path class="st5" d="M108.9,43l5.2,14h-3.2l-1.1-3.1h-5.2l-1.1,3.1h-3.1l5.3-14H108.9z M109.1,51.6l-1.8-5.1h0l-1.8,5.1H109.1z"/>
		<path class="st5" d="M118.1,53.6c0.2,0.3,0.4,0.6,0.7,0.8c0.3,0.2,0.6,0.4,1,0.5c0.4,0.1,0.8,0.1,1.2,0.1c0.3,0,0.6,0,0.9-0.1
			c0.3,0,0.6-0.1,0.9-0.3c0.3-0.1,0.5-0.3,0.7-0.5c0.2-0.2,0.3-0.5,0.3-0.9c0-0.4-0.1-0.7-0.4-0.9s-0.6-0.4-0.9-0.6
			s-0.8-0.3-1.3-0.4c-0.5-0.1-1-0.2-1.5-0.4c-0.5-0.1-1-0.3-1.5-0.5c-0.5-0.2-0.9-0.4-1.3-0.7s-0.7-0.7-1-1.1
			c-0.2-0.5-0.4-1-0.4-1.6c0-0.7,0.2-1.3,0.5-1.9c0.3-0.5,0.7-1,1.2-1.3s1.1-0.6,1.7-0.8c0.6-0.2,1.3-0.3,1.9-0.3
			c0.7,0,1.4,0.1,2.1,0.2c0.7,0.2,1.3,0.4,1.8,0.8c0.5,0.4,0.9,0.8,1.2,1.4s0.5,1.3,0.5,2.1h-3c0-0.4-0.1-0.8-0.3-1
			c-0.2-0.3-0.3-0.5-0.6-0.6c-0.2-0.2-0.5-0.3-0.9-0.3s-0.7-0.1-1-0.1c-0.2,0-0.5,0-0.7,0.1s-0.5,0.1-0.7,0.3
			c-0.2,0.1-0.4,0.3-0.5,0.5s-0.2,0.4-0.2,0.7c0,0.3,0.1,0.5,0.2,0.7c0.1,0.2,0.3,0.3,0.6,0.5c0.3,0.1,0.7,0.3,1.3,0.4
			s1.2,0.3,2.1,0.5c0.3,0.1,0.6,0.1,1.1,0.3c0.5,0.1,0.9,0.4,1.4,0.7s0.9,0.7,1.2,1.2s0.5,1.1,0.5,1.9c0,0.6-0.1,1.2-0.4,1.8
			s-0.6,1-1.1,1.4c-0.5,0.4-1.1,0.7-1.8,0.9s-1.6,0.3-2.5,0.3c-0.8,0-1.5-0.1-2.2-0.3s-1.4-0.5-1.9-0.9c-0.6-0.4-1-0.9-1.3-1.5
			c-0.3-0.6-0.5-1.4-0.5-2.2h3C117.8,52.8,117.9,53.2,118.1,53.6z"/>
		<path class="st5" d="M137.8,46.7c-0.2-0.3-0.4-0.6-0.7-0.8c-0.3-0.2-0.6-0.4-0.9-0.5c-0.3-0.1-0.7-0.2-1.1-0.2
			c-0.7,0-1.3,0.1-1.8,0.4c-0.5,0.3-0.9,0.6-1.2,1.1c-0.3,0.5-0.5,1-0.7,1.5c-0.1,0.6-0.2,1.2-0.2,1.8c0,0.6,0.1,1.2,0.2,1.7
			c0.1,0.6,0.4,1.1,0.7,1.5c0.3,0.4,0.7,0.8,1.2,1.1c0.5,0.3,1.1,0.4,1.8,0.4c0.9,0,1.7-0.3,2.2-0.9c0.5-0.6,0.9-1.3,1-2.3h3
			c-0.1,0.9-0.3,1.7-0.6,2.4c-0.3,0.7-0.8,1.3-1.3,1.8c-0.5,0.5-1.2,0.9-1.9,1.1c-0.7,0.3-1.5,0.4-2.4,0.4c-1.1,0-2-0.2-2.9-0.6
			c-0.9-0.4-1.6-0.9-2.2-1.5c-0.6-0.7-1-1.4-1.4-2.3c-0.3-0.9-0.5-1.8-0.5-2.8c0-1,0.2-2,0.5-2.9c0.3-0.9,0.8-1.7,1.4-2.3
			c0.6-0.7,1.3-1.2,2.2-1.6c0.9-0.4,1.8-0.6,2.9-0.6c0.8,0,1.5,0.1,2.2,0.3c0.7,0.2,1.3,0.5,1.8,1c0.5,0.4,1,1,1.3,1.6
			c0.4,0.6,0.6,1.3,0.7,2.2h-3C138.1,47.4,138,47,137.8,46.7z"/>
		<path class="st5" d="M150.7,43l5.2,14h-3.2l-1.1-3.1h-5.2l-1.1,3.1h-3.1l5.3-14H150.7z M150.9,51.6l-1.8-5.1h0l-1.8,5.1H150.9z"/>
	</g>
	<g>
		<g>
			<path class="st5" d="M208.4,43.7c0.4,0,0.8,0,1.1,0.1s0.6,0.2,0.9,0.4c0.2,0.2,0.4,0.4,0.6,0.7c0.1,0.3,0.2,0.6,0.2,1
				c0,0.4-0.1,0.8-0.3,1.1c-0.2,0.3-0.5,0.5-0.9,0.7c0.5,0.2,0.9,0.4,1.2,0.8c0.3,0.4,0.4,0.8,0.4,1.4c0,0.4-0.1,0.8-0.3,1.1
				c-0.2,0.3-0.4,0.6-0.7,0.8c-0.3,0.2-0.6,0.3-1,0.4s-0.7,0.1-1.1,0.1h-4.1v-8.5H208.4z M208.2,47.2c0.3,0,0.6-0.1,0.8-0.2
				s0.3-0.4,0.3-0.8c0-0.2,0-0.4-0.1-0.5c-0.1-0.1-0.2-0.2-0.3-0.3c-0.1-0.1-0.3-0.1-0.4-0.1c-0.2,0-0.3,0-0.5,0h-1.8v2H208.2z
				 M208.3,50.8c0.2,0,0.4,0,0.5-0.1c0.2,0,0.3-0.1,0.4-0.2c0.1-0.1,0.2-0.2,0.3-0.3c0.1-0.1,0.1-0.3,0.1-0.6c0-0.4-0.1-0.8-0.4-0.9
				c-0.2-0.2-0.6-0.3-1-0.3h-2v2.3H208.3z"/>
			<path class="st5" d="M214.7,43.7v8.5h-1.9v-8.5H214.7z"/>
			<path class="st5" d="M221.4,52.2c-0.4,0.2-0.8,0.3-1.2,0.3c-0.7,0-1.2-0.1-1.8-0.3c-0.5-0.2-1-0.5-1.3-0.9
				c-0.4-0.4-0.6-0.9-0.8-1.4c-0.2-0.5-0.3-1.1-0.3-1.7c0-0.6,0.1-1.2,0.3-1.8c0.2-0.5,0.5-1,0.8-1.4c0.4-0.4,0.8-0.7,1.3-1
				s1.1-0.3,1.8-0.3c0.4,0,0.9,0.1,1.3,0.2c0.4,0.1,0.8,0.3,1.1,0.6s0.6,0.6,0.8,0.9c0.2,0.4,0.3,0.8,0.4,1.3H222
				c-0.1-0.5-0.3-0.8-0.6-1.1c-0.3-0.2-0.7-0.4-1.2-0.4c-0.4,0-0.8,0.1-1.1,0.2s-0.5,0.4-0.7,0.7s-0.3,0.6-0.4,0.9s-0.1,0.7-0.1,1.1
				c0,0.4,0,0.7,0.1,1c0.1,0.3,0.2,0.6,0.4,0.9c0.2,0.3,0.4,0.5,0.7,0.7s0.7,0.2,1.1,0.2c0.6,0,1.1-0.2,1.4-0.5
				c0.3-0.3,0.5-0.8,0.6-1.4h-1.9v-1.4h3.6v4.6h-1.2l-0.2-1C222.2,51.7,221.8,52,221.4,52.2z"/>
			<path class="st5" d="M230.7,43.7v7h4.2v1.6h-6v-8.5H230.7z"/>
			<path class="st5" d="M240.1,43.7l3.2,8.5h-2l-0.6-1.9h-3.2l-0.7,1.9H235l3.2-8.5H240.1z M240.3,49l-1.1-3.1h0L238,49H240.3z"/>
			<path class="st5" d="M246,43.7v3.5l3.3-3.5h2.3l-3.3,3.4l3.7,5.2h-2.4l-2.6-3.8l-1.1,1.1v2.8h-1.9v-8.5H246z"/>
			<path class="st5" d="M259.1,43.7v1.6h-4.5v1.8h4.1v1.5h-4.1v2.1h4.6v1.6h-6.5v-8.5H259.1z"/>
			<path class="st5" d="M263.1,45.3v-1.6h7v1.6h-2.6v7h-1.9v-7H263.1z"/>
			<path class="st5" d="M275.7,43.7c0.4,0,0.7,0.1,1,0.2c0.3,0.1,0.6,0.3,0.8,0.5c0.2,0.2,0.4,0.5,0.5,0.7c0.1,0.3,0.2,0.6,0.2,0.9
				c0,0.5-0.1,0.9-0.3,1.3c-0.2,0.4-0.6,0.6-1,0.8v0c0.2,0.1,0.4,0.2,0.6,0.3s0.3,0.3,0.4,0.5s0.2,0.4,0.2,0.6
				c0,0.2,0.1,0.4,0.1,0.6c0,0.1,0,0.3,0,0.5s0,0.4,0,0.6s0.1,0.4,0.1,0.5c0,0.2,0.1,0.3,0.2,0.4h-1.9c-0.1-0.3-0.2-0.6-0.2-1
				c0-0.4-0.1-0.7-0.1-1.1c-0.1-0.4-0.2-0.8-0.4-1c-0.2-0.2-0.5-0.3-1-0.3H273v3.3h-1.9v-8.5H275.7z M275.1,47.6
				c0.4,0,0.8-0.1,1-0.3s0.3-0.5,0.3-0.9c0-0.4-0.1-0.7-0.3-0.9s-0.5-0.3-1-0.3H273v2.4H275.1z"/>
			<path class="st5" d="M279.7,46.2c0.2-0.5,0.5-1,0.8-1.4c0.4-0.4,0.8-0.7,1.3-1s1.1-0.3,1.8-0.3c0.7,0,1.3,0.1,1.8,0.3
				s1,0.6,1.3,1c0.4,0.4,0.6,0.9,0.8,1.4s0.3,1.1,0.3,1.8c0,0.6-0.1,1.2-0.3,1.7s-0.5,1-0.8,1.4c-0.4,0.4-0.8,0.7-1.3,0.9
				c-0.5,0.2-1.1,0.3-1.8,0.3c-0.7,0-1.2-0.1-1.8-0.3c-0.5-0.2-1-0.5-1.3-0.9c-0.4-0.4-0.6-0.9-0.8-1.4c-0.2-0.5-0.3-1.1-0.3-1.7
				C279.4,47.4,279.5,46.8,279.7,46.2z M281.4,49.1c0.1,0.3,0.2,0.6,0.4,0.9c0.2,0.3,0.4,0.5,0.7,0.7s0.7,0.2,1.1,0.2
				s0.8-0.1,1.1-0.2s0.5-0.4,0.7-0.7c0.2-0.3,0.3-0.6,0.4-0.9c0.1-0.3,0.1-0.7,0.1-1c0-0.4,0-0.7-0.1-1.1s-0.2-0.7-0.4-0.9
				s-0.4-0.5-0.7-0.7s-0.7-0.2-1.1-0.2s-0.8,0.1-1.1,0.2s-0.5,0.4-0.7,0.7s-0.3,0.6-0.4,0.9s-0.1,0.7-0.1,1.1
				C281.3,48.4,281.3,48.7,281.4,49.1z"/>
			<path class="st5" d="M295.4,51.6c-0.6,0.6-1.5,0.8-2.7,0.8c-1.2,0-2.1-0.3-2.7-0.8c-0.6-0.6-1-1.4-1-2.6v-5.3h1.9V49
				c0,0.2,0,0.5,0.1,0.7c0,0.2,0.1,0.4,0.3,0.6c0.1,0.2,0.3,0.3,0.5,0.4c0.2,0.1,0.5,0.2,0.9,0.2c0.7,0,1.1-0.1,1.4-0.4
				c0.3-0.3,0.4-0.8,0.4-1.4v-5.3h1.9V49C296.3,50.2,296,51,295.4,51.6z"/>
			<path class="st5" d="M297.3,45.3v-1.6h7v1.6h-2.6v7h-1.9v-7H297.3z"/>
		</g>
	</g>
	<g>
		<g>
			<path class="st6" d="M118.3,7.4V2.9h13.1v4.5h-4v15.7h-5.3V7.4H118.3z"/>
			<path class="st6" d="M132.4,8.2c0.2-1.3,0.7-2.4,1.2-3.3c0.6-0.8,1.3-1.5,2.2-1.8c0.9-0.4,2.1-0.6,3.4-0.6s2.5,0.2,3.4,0.6
				c0.9,0.4,1.7,1,2.2,1.8c0.6,0.8,1,1.9,1.2,3.3s0.4,2.9,0.4,4.8s-0.1,3.5-0.4,4.8c-0.2,1.3-0.7,2.4-1.2,3.3
				c-0.6,0.8-1.3,1.4-2.2,1.8c-0.9,0.4-2.1,0.5-3.4,0.5s-2.5-0.2-3.4-0.5c-0.9-0.4-1.7-1-2.2-1.8c-0.6-0.8-1-1.9-1.2-3.3
				c-0.2-1.3-0.4-2.9-0.4-4.8S132.1,9.5,132.4,8.2z M137.5,16.4c0,0.9,0.1,1.6,0.2,2.1c0.1,0.5,0.3,0.9,0.5,1.1
				c0.2,0.2,0.6,0.3,0.9,0.3s0.7-0.1,0.9-0.3c0.2-0.2,0.4-0.6,0.5-1.1c0.1-0.5,0.2-1.2,0.2-2.1c0-0.9,0.1-2,0.1-3.4s0-2.5-0.1-3.4
				c0-0.9-0.1-1.6-0.2-2.1c-0.1-0.5-0.3-0.9-0.5-1.1c-0.2-0.2-0.6-0.3-0.9-0.3s-0.7,0.1-0.9,0.3c-0.2,0.2-0.4,0.6-0.5,1.1
				c-0.1,0.5-0.2,1.2-0.2,2.1c0,0.9-0.1,2-0.1,3.4S137.4,15.5,137.5,16.4z"/>
			<path class="st6" d="M156,2.9c1,0,1.9,0.2,2.6,0.5c0.7,0.3,1.3,0.8,1.8,1.3c0.5,0.6,0.8,1.2,1.1,2c0.2,0.8,0.3,1.6,0.3,2.5
				c0,2.1-0.6,3.7-1.7,4.7c-1.1,1-2.8,1.6-4.9,1.6h-1.8v7.7h-5.3V2.9H156z M154.4,11.6c0.7,0,1.2-0.2,1.5-0.6c0.3-0.4,0.5-1,0.5-1.9
				c0-1.6-0.7-2.5-2-2.5h-1v4.9H154.4z"/>
			<path class="st6" d="M178.7,8.3c0-0.6-0.1-1.1-0.4-1.5s-0.6-0.6-1.1-0.6c-0.6,0-1,0.2-1.2,0.6c-0.3,0.4-0.4,0.8-0.4,1.2
				c0,0.7,0.2,1.2,0.6,1.6c0.4,0.4,1,0.7,1.6,1c0.6,0.3,1.3,0.6,2.1,0.9s1.4,0.7,2.1,1.1c0.6,0.5,1.2,1.1,1.6,1.9
				c0.4,0.8,0.6,1.8,0.6,3c0,2.1-0.6,3.7-1.8,4.7s-3,1.5-5.3,1.5c-1.1,0-2.1-0.1-2.9-0.3s-1.5-0.5-2.1-0.9c-0.6-0.4-1-1-1.3-1.7
				c-0.3-0.7-0.5-1.6-0.5-2.7v-0.7h5.1v0.5c0,0.9,0.2,1.5,0.5,1.8c0.3,0.3,0.7,0.5,1.2,0.5c0.5,0,1-0.2,1.3-0.6
				c0.3-0.4,0.4-0.8,0.4-1.4c0-0.7-0.2-1.2-0.6-1.6c-0.4-0.4-0.9-0.7-1.5-1c-0.6-0.3-1.3-0.6-2-0.8s-1.4-0.7-2-1.1s-1.1-1-1.5-1.8
				s-0.6-1.7-0.6-2.9c0-2.1,0.5-3.6,1.6-4.7c1.1-1.1,2.8-1.6,5-1.6c2.3,0,4,0.5,5,1.5c1,1,1.5,2.6,1.5,4.7h-4.9V8.3z"/>
			<path class="st6" d="M193.7,2.9c1,0,1.9,0.2,2.6,0.5c0.7,0.3,1.3,0.8,1.8,1.3c0.5,0.6,0.8,1.2,1.1,2c0.2,0.8,0.3,1.6,0.3,2.5
				c0,2.1-0.6,3.7-1.7,4.7c-1.1,1-2.8,1.6-4.9,1.6h-1.8v7.7h-5.3V2.9H193.7z M192.1,11.6c0.7,0,1.2-0.2,1.5-0.6
				c0.3-0.4,0.5-1,0.5-1.9c0-1.6-0.7-2.5-2-2.5h-1v4.9H192.1z"/>
			<path class="st6" d="M201,8.2c0.2-1.3,0.7-2.4,1.2-3.3c0.6-0.8,1.3-1.5,2.2-1.8c0.9-0.4,2.1-0.6,3.4-0.6s2.5,0.2,3.4,0.6
				c0.9,0.4,1.7,1,2.2,1.8c0.6,0.8,1,1.9,1.2,3.3s0.4,2.9,0.4,4.8s-0.1,3.5-0.4,4.8c-0.2,1.3-0.7,2.4-1.2,3.3
				c-0.6,0.8-1.3,1.4-2.2,1.8c-0.9,0.4-2.1,0.5-3.4,0.5s-2.5-0.2-3.4-0.5c-0.9-0.4-1.7-1-2.2-1.8c-0.6-0.8-1-1.9-1.2-3.3
				c-0.2-1.3-0.4-2.9-0.4-4.8S200.8,9.5,201,8.2z M206.1,16.4c0,0.9,0.1,1.6,0.2,2.1c0.1,0.5,0.3,0.9,0.5,1.1
				c0.2,0.2,0.6,0.3,0.9,0.3s0.7-0.1,0.9-0.3c0.2-0.2,0.4-0.6,0.5-1.1c0.1-0.5,0.2-1.2,0.2-2.1c0-0.9,0.1-2,0.1-3.4s0-2.5-0.1-3.4
				c0-0.9-0.1-1.6-0.2-2.1c-0.1-0.5-0.3-0.9-0.5-1.1c-0.2-0.2-0.6-0.3-0.9-0.3s-0.7,0.1-0.9,0.3c-0.2,0.2-0.4,0.6-0.5,1.1
				c-0.1,0.5-0.2,1.2-0.2,2.1c0,0.9-0.1,2-0.1,3.4S206.1,15.5,206.1,16.4z"/>
			<path class="st6" d="M215.7,7.4V2.9h13.1v4.5h-4v15.7h-5.3V7.4H215.7z"/>
			<path class="st6" d="M237.9,8.3c0-0.6-0.1-1.1-0.4-1.5s-0.6-0.6-1.1-0.6c-0.6,0-1,0.2-1.2,0.6c-0.3,0.4-0.4,0.8-0.4,1.2
				c0,0.7,0.2,1.2,0.6,1.6c0.4,0.4,1,0.7,1.6,1c0.6,0.3,1.3,0.6,2.1,0.9s1.4,0.7,2.1,1.1c0.6,0.5,1.2,1.1,1.6,1.9
				c0.4,0.8,0.6,1.8,0.6,3c0,2.1-0.6,3.7-1.8,4.7s-3,1.5-5.3,1.5c-1.1,0-2.1-0.1-2.9-0.3s-1.5-0.5-2.1-0.9c-0.6-0.4-1-1-1.3-1.7
				c-0.3-0.7-0.5-1.6-0.5-2.7v-0.7h5.1v0.5c0,0.9,0.2,1.5,0.5,1.8c0.3,0.3,0.7,0.5,1.2,0.5c0.5,0,1-0.2,1.3-0.6
				c0.3-0.4,0.4-0.8,0.4-1.4c0-0.7-0.2-1.2-0.6-1.6c-0.4-0.4-0.9-0.7-1.5-1c-0.6-0.3-1.3-0.6-2-0.8s-1.4-0.7-2-1.1s-1.1-1-1.5-1.8
				s-0.6-1.7-0.6-2.9c0-2.1,0.5-3.6,1.6-4.7c1.1-1.1,2.8-1.6,5-1.6c2.3,0,4,0.5,5,1.5c1,1,1.5,2.6,1.5,4.7h-4.9V8.3z"/>
		</g>
	</g>
	<g>
		<g>
			<path class="st5" d="M203.8,78.4v-1.6h7v1.6h-2.6v7h-1.9v-7H203.8z"/>
			<path class="st5" d="M216.3,76.9c0.4,0,0.7,0.1,1,0.2c0.3,0.1,0.6,0.3,0.8,0.5s0.4,0.5,0.5,0.7c0.1,0.3,0.2,0.6,0.2,0.9
				c0,0.5-0.1,0.9-0.3,1.3c-0.2,0.4-0.6,0.6-1,0.8v0c0.2,0.1,0.4,0.2,0.6,0.3s0.3,0.3,0.4,0.5s0.2,0.4,0.2,0.6s0.1,0.4,0.1,0.6
				c0,0.1,0,0.3,0,0.5c0,0.2,0,0.4,0,0.6c0,0.2,0.1,0.4,0.1,0.5c0,0.2,0.1,0.3,0.2,0.4h-1.9c-0.1-0.3-0.2-0.6-0.2-1
				c0-0.4-0.1-0.7-0.1-1.1c-0.1-0.4-0.2-0.8-0.4-1c-0.2-0.2-0.5-0.3-1-0.3h-1.9v3.3h-1.9v-8.5H216.3z M215.7,80.7
				c0.4,0,0.8-0.1,1-0.3c0.2-0.2,0.3-0.5,0.3-0.9c0-0.4-0.1-0.7-0.3-0.9c-0.2-0.2-0.5-0.3-1-0.3h-2.1v2.4H215.7z"/>
			<path class="st5" d="M220.3,79.4c0.2-0.5,0.5-1,0.8-1.4c0.4-0.4,0.8-0.7,1.3-1s1.1-0.3,1.8-0.3c0.7,0,1.3,0.1,1.8,0.3
				s1,0.6,1.3,1c0.4,0.4,0.6,0.9,0.8,1.4s0.3,1.1,0.3,1.8c0,0.6-0.1,1.2-0.3,1.7s-0.5,1-0.8,1.4c-0.4,0.4-0.8,0.7-1.3,0.9
				c-0.5,0.2-1.1,0.3-1.8,0.3c-0.7,0-1.2-0.1-1.8-0.3c-0.5-0.2-1-0.5-1.3-0.9c-0.4-0.4-0.6-0.9-0.8-1.4s-0.3-1.1-0.3-1.7
				C220,80.5,220.1,79.9,220.3,79.4z M222,82.2c0.1,0.3,0.2,0.6,0.4,0.9c0.2,0.3,0.4,0.5,0.7,0.7c0.3,0.2,0.7,0.2,1.1,0.2
				s0.8-0.1,1.1-0.2c0.3-0.2,0.5-0.4,0.7-0.7c0.2-0.3,0.3-0.6,0.4-0.9c0.1-0.3,0.1-0.7,0.1-1c0-0.4,0-0.7-0.1-1.1
				c-0.1-0.4-0.2-0.7-0.4-0.9s-0.4-0.5-0.7-0.7c-0.3-0.2-0.7-0.2-1.1-0.2s-0.8,0.1-1.1,0.2c-0.3,0.2-0.5,0.4-0.7,0.7
				s-0.3,0.6-0.4,0.9c-0.1,0.4-0.1,0.7-0.1,1.1C221.9,81.5,221.9,81.9,222,82.2z"/>
			<path class="st5" d="M233.5,76.9c0.5,0,1,0.1,1.4,0.2c0.4,0.2,0.7,0.4,0.9,0.6s0.4,0.5,0.5,0.9s0.2,0.7,0.2,1
				c0,0.3-0.1,0.7-0.2,1s-0.3,0.6-0.5,0.9s-0.5,0.5-0.9,0.6c-0.4,0.2-0.8,0.2-1.4,0.2h-2v3.1h-1.9v-8.5H233.5z M233,80.9
				c0.2,0,0.4,0,0.6,0c0.2,0,0.4-0.1,0.5-0.2c0.2-0.1,0.3-0.2,0.4-0.4c0.1-0.2,0.1-0.4,0.1-0.7c0-0.3,0-0.5-0.1-0.7
				c-0.1-0.2-0.2-0.3-0.4-0.4s-0.3-0.2-0.5-0.2c-0.2,0-0.4,0-0.6,0h-1.5v2.6H233z"/>
			<path class="st5" d="M239.5,76.9v3.3h3.5v-3.3h1.9v8.5H243v-3.7h-3.5v3.7h-1.9v-8.5H239.5z"/>
			<path class="st5" d="M245.6,76.9h2.1l2,3.4l2-3.4h2.1l-3.2,5.3v3.3h-1.9v-3.3L245.6,76.9z"/>
			<path class="st5" d="M259.7,76.9v7h4.2v1.6h-6v-8.5H259.7z"/>
			<path class="st5" d="M269.2,76.9l3.2,8.5h-2l-0.6-1.9h-3.2l-0.7,1.9H264l3.2-8.5H269.2z M269.3,82.1l-1.1-3.1h0l-1.1,3.1H269.3z"
				/>
			<path class="st5" d="M275,76.9v3.5l3.3-3.5h2.3l-3.3,3.4l3.7,5.2h-2.4l-2.6-3.8l-1.1,1.1v2.8h-1.9v-8.5H275z"/>
			<path class="st5" d="M288.2,76.9v1.6h-4.5v1.8h4.1v1.5h-4.1v2.1h4.6v1.6h-6.5v-8.5H288.2z"/>
			<path class="st5" d="M292.2,78.4v-1.6h7v1.6h-2.6v7h-1.9v-7H292.2z"/>
			<path class="st5" d="M304.8,76.9c0.4,0,0.7,0.1,1,0.2c0.3,0.1,0.6,0.3,0.8,0.5c0.2,0.2,0.4,0.5,0.5,0.7c0.1,0.3,0.2,0.6,0.2,0.9
				c0,0.5-0.1,0.9-0.3,1.3c-0.2,0.4-0.6,0.6-1,0.8v0c0.2,0.1,0.4,0.2,0.6,0.3s0.3,0.3,0.4,0.5s0.2,0.4,0.2,0.6
				c0,0.2,0.1,0.4,0.1,0.6c0,0.1,0,0.3,0,0.5s0,0.4,0,0.6s0.1,0.4,0.1,0.5c0,0.2,0.1,0.3,0.2,0.4h-1.9c-0.1-0.3-0.2-0.6-0.2-1
				c0-0.4-0.1-0.7-0.1-1.1c-0.1-0.4-0.2-0.8-0.4-1c-0.2-0.2-0.5-0.3-1-0.3h-1.9v3.3h-1.9v-8.5H304.8z M304.1,80.7
				c0.4,0,0.8-0.1,1-0.3s0.3-0.5,0.3-0.9c0-0.4-0.1-0.7-0.3-0.9s-0.5-0.3-1-0.3h-2.1v2.4H304.1z"/>
			<path class="st5" d="M308.7,79.4c0.2-0.5,0.5-1,0.8-1.4c0.4-0.4,0.8-0.7,1.3-1s1.1-0.3,1.8-0.3c0.7,0,1.3,0.1,1.8,0.3
				s1,0.6,1.3,1c0.4,0.4,0.6,0.9,0.8,1.4s0.3,1.1,0.3,1.8c0,0.6-0.1,1.2-0.3,1.7s-0.5,1-0.8,1.4c-0.4,0.4-0.8,0.7-1.3,0.9
				c-0.5,0.2-1.1,0.3-1.8,0.3c-0.7,0-1.2-0.1-1.8-0.3c-0.5-0.2-1-0.5-1.3-0.9c-0.4-0.4-0.6-0.9-0.8-1.4c-0.2-0.5-0.3-1.1-0.3-1.7
				C308.4,80.5,308.5,79.9,308.7,79.4z M310.5,82.2c0.1,0.3,0.2,0.6,0.4,0.9c0.2,0.3,0.4,0.5,0.7,0.7s0.7,0.2,1.1,0.2
				s0.8-0.1,1.1-0.2s0.5-0.4,0.7-0.7c0.2-0.3,0.3-0.6,0.4-0.9c0.1-0.3,0.1-0.7,0.1-1c0-0.4,0-0.7-0.1-1.1s-0.2-0.7-0.4-0.9
				s-0.4-0.5-0.7-0.7s-0.7-0.2-1.1-0.2s-0.8,0.1-1.1,0.2s-0.5,0.4-0.7,0.7s-0.3,0.6-0.4,0.9s-0.1,0.7-0.1,1.1
				C310.3,81.5,310.4,81.9,310.5,82.2z"/>
			<path class="st5" d="M324.4,84.7c-0.6,0.6-1.5,0.8-2.7,0.8c-1.2,0-2.1-0.3-2.7-0.8c-0.6-0.6-1-1.4-1-2.6v-5.3h1.9v5.3
				c0,0.2,0,0.5,0.1,0.7c0,0.2,0.1,0.4,0.3,0.6c0.1,0.2,0.3,0.3,0.5,0.4c0.2,0.1,0.5,0.2,0.9,0.2c0.7,0,1.1-0.1,1.4-0.4
				c0.3-0.3,0.4-0.8,0.4-1.4v-5.3h1.9v5.3C325.4,83.3,325.1,84.2,324.4,84.7z"/>
			<path class="st5" d="M326.3,78.4v-1.6h7v1.6h-2.6v7h-1.9v-7H326.3z"/>
		</g>
	</g>
	<g>
		<g>
			<path class="st5" d="M205.9,116.9c0.1,0.2,0.2,0.4,0.4,0.5s0.4,0.2,0.6,0.3c0.2,0.1,0.5,0.1,0.7,0.1c0.2,0,0.3,0,0.5,0
				s0.4-0.1,0.5-0.2c0.2-0.1,0.3-0.2,0.4-0.3c0.1-0.1,0.2-0.3,0.2-0.5c0-0.2-0.1-0.4-0.2-0.6s-0.3-0.3-0.6-0.4s-0.5-0.2-0.8-0.3
				c-0.3-0.1-0.6-0.2-0.9-0.2c-0.3-0.1-0.6-0.2-0.9-0.3c-0.3-0.1-0.6-0.3-0.8-0.4c-0.2-0.2-0.4-0.4-0.6-0.7s-0.2-0.6-0.2-1
				c0-0.4,0.1-0.8,0.3-1.1c0.2-0.3,0.4-0.6,0.7-0.8c0.3-0.2,0.6-0.4,1-0.5c0.4-0.1,0.8-0.2,1.1-0.2c0.4,0,0.9,0,1.3,0.1
				c0.4,0.1,0.8,0.3,1.1,0.5c0.3,0.2,0.6,0.5,0.8,0.9c0.2,0.3,0.3,0.8,0.3,1.3H209c0-0.3-0.1-0.5-0.2-0.6s-0.2-0.3-0.4-0.4
				c-0.2-0.1-0.3-0.2-0.5-0.2c-0.2,0-0.4-0.1-0.6-0.1c-0.2,0-0.3,0-0.5,0c-0.2,0-0.3,0.1-0.4,0.2c-0.1,0.1-0.2,0.2-0.3,0.3
				c-0.1,0.1-0.1,0.3-0.1,0.5c0,0.2,0,0.3,0.1,0.4c0.1,0.1,0.2,0.2,0.4,0.3c0.2,0.1,0.4,0.2,0.8,0.3c0.3,0.1,0.8,0.2,1.3,0.3
				c0.2,0,0.4,0.1,0.7,0.2c0.3,0.1,0.6,0.2,0.8,0.4s0.5,0.4,0.7,0.7c0.2,0.3,0.3,0.7,0.3,1.2c0,0.4-0.1,0.8-0.2,1.1
				c-0.2,0.3-0.4,0.6-0.7,0.9c-0.3,0.2-0.7,0.4-1.1,0.6c-0.4,0.1-1,0.2-1.5,0.2c-0.5,0-0.9-0.1-1.4-0.2c-0.4-0.1-0.8-0.3-1.2-0.5
				c-0.3-0.2-0.6-0.6-0.8-0.9c-0.2-0.4-0.3-0.8-0.3-1.4h1.8C205.7,116.5,205.8,116.7,205.9,116.9z"/>
			<path class="st5" d="M214.8,110.5l2,5.9h0l1.9-5.9h2.6v8.5h-1.8V113h0l-2.1,6.1h-1.4l-2.1-6h0v6h-1.8v-8.5H214.8z"/>
			<path class="st5" d="M227.3,110.5l3.2,8.5h-2l-0.6-1.9h-3.2L224,119h-1.9l3.2-8.5H227.3z M227.4,115.7l-1.1-3.1h0l-1.1,3.1H227.4
				z"/>
			<path class="st5" d="M233.1,110.5v7h4.2v1.6h-6v-8.5H233.1z"/>
			<path class="st5" d="M240.2,110.5v7h4.2v1.6h-6v-8.5H240.2z"/>
			<path class="st5" d="M251.4,110.5l2,5.9h0l1.9-5.9h2.6v8.5h-1.8V113h0l-2.1,6.1h-1.4l-2.1-6h0v6h-1.8v-8.5H251.4z"/>
			<path class="st5" d="M259.5,113c0.2-0.5,0.5-1,0.8-1.4c0.4-0.4,0.8-0.7,1.3-1s1.1-0.3,1.8-0.3c0.7,0,1.3,0.1,1.8,0.3s1,0.6,1.3,1
				c0.4,0.4,0.6,0.9,0.8,1.4s0.3,1.1,0.3,1.8c0,0.6-0.1,1.2-0.3,1.7s-0.5,1-0.8,1.4c-0.4,0.4-0.8,0.7-1.3,0.9
				c-0.5,0.2-1.1,0.3-1.8,0.3c-0.7,0-1.2-0.1-1.8-0.3c-0.5-0.2-1-0.5-1.3-0.9c-0.4-0.4-0.6-0.9-0.8-1.4s-0.3-1.1-0.3-1.7
				C259.2,114.2,259.3,113.6,259.5,113z M261.3,115.8c0.1,0.3,0.2,0.6,0.4,0.9c0.2,0.3,0.4,0.5,0.7,0.7c0.3,0.2,0.7,0.2,1.1,0.2
				s0.8-0.1,1.1-0.2c0.3-0.2,0.5-0.4,0.7-0.7c0.2-0.3,0.3-0.6,0.4-0.9c0.1-0.3,0.1-0.7,0.1-1c0-0.4,0-0.7-0.1-1.1
				c-0.1-0.4-0.2-0.7-0.4-0.9s-0.4-0.5-0.7-0.7c-0.3-0.2-0.7-0.2-1.1-0.2s-0.8,0.1-1.1,0.2c-0.3,0.2-0.5,0.4-0.7,0.7
				s-0.3,0.6-0.4,0.9c-0.1,0.4-0.1,0.7-0.1,1.1C261.1,115.2,261.2,115.5,261.3,115.8z"/>
			<path class="st5" d="M275.2,118.4c-0.6,0.6-1.5,0.8-2.7,0.8c-1.2,0-2.1-0.3-2.7-0.8c-0.6-0.6-1-1.4-1-2.6v-5.3h1.9v5.3
				c0,0.2,0,0.5,0.1,0.7c0,0.2,0.1,0.4,0.3,0.6c0.1,0.2,0.3,0.3,0.5,0.4c0.2,0.1,0.5,0.2,0.9,0.2c0.7,0,1.1-0.1,1.4-0.4
				c0.3-0.3,0.4-0.8,0.4-1.4v-5.3h1.9v5.3C276.2,117,275.9,117.8,275.2,118.4z"/>
			<path class="st5" d="M277.1,112.1v-1.6h7v1.6h-2.6v7h-1.9v-7H277.1z"/>
			<path class="st5" d="M287,110.5v3.3h3.5v-3.3h1.9v8.5h-1.9v-3.7H287v3.7h-1.9v-8.5H287z"/>
			<path class="st5" d="M301.3,110.5c0.4,0,0.8,0,1.1,0.1s0.6,0.2,0.9,0.4c0.2,0.2,0.4,0.4,0.6,0.7c0.1,0.3,0.2,0.6,0.2,1
				c0,0.4-0.1,0.8-0.3,1.1s-0.5,0.5-0.9,0.7c0.5,0.2,0.9,0.4,1.2,0.8c0.3,0.4,0.4,0.8,0.4,1.4c0,0.4-0.1,0.8-0.3,1.1
				c-0.2,0.3-0.4,0.6-0.7,0.8c-0.3,0.2-0.6,0.3-1,0.4c-0.4,0.1-0.7,0.1-1.1,0.1h-4.1v-8.5H301.3z M301.1,113.9
				c0.3,0,0.6-0.1,0.8-0.2c0.2-0.2,0.3-0.4,0.3-0.8c0-0.2,0-0.4-0.1-0.5c-0.1-0.1-0.2-0.2-0.3-0.3s-0.3-0.1-0.4-0.1
				c-0.2,0-0.3,0-0.5,0h-1.8v2H301.1z M301.2,117.6c0.2,0,0.4,0,0.5-0.1c0.2,0,0.3-0.1,0.4-0.2c0.1-0.1,0.2-0.2,0.3-0.3
				c0.1-0.1,0.1-0.3,0.1-0.6c0-0.4-0.1-0.8-0.4-0.9s-0.6-0.3-1-0.3h-2v2.3H301.2z"/>
			<path class="st5" d="M310,110.5l3.2,8.5h-2l-0.6-1.9h-3.2l-0.7,1.9h-1.9l3.2-8.5H310z M310.1,115.7l-1.1-3.1h0l-1.1,3.1H310.1z"
				/>
			<path class="st5" d="M315.4,116.9c0.1,0.2,0.2,0.4,0.4,0.5c0.2,0.1,0.4,0.2,0.6,0.3c0.2,0.1,0.5,0.1,0.7,0.1c0.2,0,0.3,0,0.5,0
				c0.2,0,0.4-0.1,0.5-0.2c0.2-0.1,0.3-0.2,0.4-0.3c0.1-0.1,0.2-0.3,0.2-0.5c0-0.2-0.1-0.4-0.2-0.6c-0.1-0.1-0.3-0.3-0.6-0.4
				s-0.5-0.2-0.8-0.3c-0.3-0.1-0.6-0.2-0.9-0.2c-0.3-0.1-0.6-0.2-0.9-0.3c-0.3-0.1-0.6-0.3-0.8-0.4s-0.4-0.4-0.6-0.7
				c-0.1-0.3-0.2-0.6-0.2-1c0-0.4,0.1-0.8,0.3-1.1c0.2-0.3,0.4-0.6,0.7-0.8c0.3-0.2,0.6-0.4,1-0.5c0.4-0.1,0.8-0.2,1.1-0.2
				c0.4,0,0.9,0,1.3,0.1c0.4,0.1,0.8,0.3,1.1,0.5c0.3,0.2,0.6,0.5,0.8,0.9c0.2,0.3,0.3,0.8,0.3,1.3h-1.8c0-0.3-0.1-0.5-0.2-0.6
				s-0.2-0.3-0.4-0.4c-0.2-0.1-0.3-0.2-0.5-0.2s-0.4-0.1-0.6-0.1c-0.2,0-0.3,0-0.5,0c-0.2,0-0.3,0.1-0.4,0.2
				c-0.1,0.1-0.2,0.2-0.3,0.3c-0.1,0.1-0.1,0.3-0.1,0.5c0,0.2,0,0.3,0.1,0.4c0.1,0.1,0.2,0.2,0.4,0.3c0.2,0.1,0.4,0.2,0.8,0.3
				c0.3,0.1,0.8,0.2,1.3,0.3c0.2,0,0.4,0.1,0.7,0.2c0.3,0.1,0.6,0.2,0.8,0.4s0.5,0.4,0.7,0.7c0.2,0.3,0.3,0.7,0.3,1.2
				c0,0.4-0.1,0.8-0.2,1.1c-0.2,0.3-0.4,0.6-0.7,0.9c-0.3,0.2-0.7,0.4-1.1,0.6c-0.4,0.1-1,0.2-1.5,0.2c-0.5,0-0.9-0.1-1.4-0.2
				c-0.4-0.1-0.8-0.3-1.2-0.5c-0.3-0.2-0.6-0.6-0.8-0.9c-0.2-0.4-0.3-0.8-0.3-1.4h1.8C315.2,116.5,315.3,116.7,315.4,116.9z"/>
			<path class="st5" d="M323.1,116.9c0.1,0.2,0.2,0.4,0.4,0.5s0.4,0.2,0.6,0.3c0.2,0.1,0.5,0.1,0.7,0.1c0.2,0,0.3,0,0.5,0
				s0.4-0.1,0.5-0.2c0.2-0.1,0.3-0.2,0.4-0.3c0.1-0.1,0.2-0.3,0.2-0.5c0-0.2-0.1-0.4-0.2-0.6s-0.3-0.3-0.6-0.4s-0.5-0.2-0.8-0.3
				c-0.3-0.1-0.6-0.2-0.9-0.2c-0.3-0.1-0.6-0.2-0.9-0.3c-0.3-0.1-0.6-0.3-0.8-0.4c-0.2-0.2-0.4-0.4-0.6-0.7s-0.2-0.6-0.2-1
				c0-0.4,0.1-0.8,0.3-1.1c0.2-0.3,0.4-0.6,0.7-0.8c0.3-0.2,0.6-0.4,1-0.5c0.4-0.1,0.8-0.2,1.1-0.2c0.4,0,0.9,0,1.3,0.1
				c0.4,0.1,0.8,0.3,1.1,0.5c0.3,0.2,0.6,0.5,0.8,0.9c0.2,0.3,0.3,0.8,0.3,1.3h-1.8c0-0.3-0.1-0.5-0.2-0.6s-0.2-0.3-0.4-0.4
				c-0.2-0.1-0.3-0.2-0.5-0.2c-0.2,0-0.4-0.1-0.6-0.1c-0.2,0-0.3,0-0.5,0c-0.2,0-0.3,0.1-0.4,0.2c-0.1,0.1-0.2,0.2-0.3,0.3
				c-0.1,0.1-0.1,0.3-0.1,0.5c0,0.2,0,0.3,0.1,0.4c0.1,0.1,0.2,0.2,0.4,0.3c0.2,0.1,0.4,0.2,0.8,0.3c0.3,0.1,0.8,0.2,1.3,0.3
				c0.2,0,0.4,0.1,0.7,0.2c0.3,0.1,0.6,0.2,0.8,0.4s0.5,0.4,0.7,0.7c0.2,0.3,0.3,0.7,0.3,1.2c0,0.4-0.1,0.8-0.2,1.1
				c-0.2,0.3-0.4,0.6-0.7,0.9c-0.3,0.2-0.7,0.4-1.1,0.6c-0.4,0.1-1,0.2-1.5,0.2c-0.5,0-0.9-0.1-1.4-0.2c-0.4-0.1-0.8-0.3-1.2-0.5
				c-0.3-0.2-0.6-0.6-0.8-0.9c-0.2-0.4-0.3-0.8-0.3-1.4h1.8C323,116.5,323,116.7,323.1,116.9z"/>
		</g>
	</g>
	<g>
		<g>
			<path class="st5" d="M203.5,146h2.1l2,3.4l2-3.4h2.1l-3.2,5.3v3.3h-1.9v-3.3L203.5,146z"/>
			<path class="st5" d="M218.8,146v1.6h-4.5v1.8h4.1v1.5h-4.1v2.1h4.6v1.6h-6.5V146H218.8z"/>
			<path class="st5" d="M222,146v7h4.2v1.6h-6V146H222z"/>
			<path class="st5" d="M229.1,146v7h4.2v1.6h-6V146H229.1z"/>
			<path class="st5" d="M234.3,148.6c0.2-0.5,0.5-1,0.8-1.4c0.4-0.4,0.8-0.7,1.3-1s1.1-0.3,1.8-0.3c0.7,0,1.3,0.1,1.8,0.3
				s1,0.6,1.3,1c0.4,0.4,0.6,0.9,0.8,1.4s0.3,1.1,0.3,1.8c0,0.6-0.1,1.2-0.3,1.7s-0.5,1-0.8,1.4c-0.4,0.4-0.8,0.7-1.3,0.9
				c-0.5,0.2-1.1,0.3-1.8,0.3c-0.7,0-1.2-0.1-1.8-0.3c-0.5-0.2-1-0.5-1.3-0.9c-0.4-0.4-0.6-0.9-0.8-1.4c-0.2-0.5-0.3-1.1-0.3-1.7
				C234,149.7,234.1,149.1,234.3,148.6z M236,151.4c0.1,0.3,0.2,0.6,0.4,0.9c0.2,0.3,0.4,0.5,0.7,0.7s0.7,0.2,1.1,0.2
				s0.8-0.1,1.1-0.2s0.5-0.4,0.7-0.7c0.2-0.3,0.3-0.6,0.4-0.9c0.1-0.3,0.1-0.7,0.1-1c0-0.4,0-0.7-0.1-1.1s-0.2-0.7-0.4-0.9
				s-0.4-0.5-0.7-0.7s-0.7-0.2-1.1-0.2s-0.8,0.1-1.1,0.2s-0.5,0.4-0.7,0.7s-0.3,0.6-0.4,0.9s-0.1,0.7-0.1,1.1
				C235.9,150.7,235.9,151.1,236,151.4z"/>
			<path class="st5" d="M249.9,154.6l-1.4-5.8h0l-1.4,5.8h-1.9l-2.3-8.5h1.9l1.4,5.8h0l1.5-5.8h1.8l1.5,5.9h0l1.4-5.9h1.8l-2.3,8.5
				H249.9z"/>
			<path class="st5" d="M262.1,146c0.5,0,1,0.1,1.4,0.2c0.4,0.2,0.7,0.4,0.9,0.6s0.4,0.5,0.5,0.9s0.2,0.7,0.2,1c0,0.3-0.1,0.7-0.2,1
				s-0.3,0.6-0.5,0.9s-0.5,0.5-0.9,0.6c-0.4,0.2-0.8,0.2-1.4,0.2h-2v3.1h-1.9V146H262.1z M261.6,150.1c0.2,0,0.4,0,0.6,0
				c0.2,0,0.4-0.1,0.5-0.2c0.2-0.1,0.3-0.2,0.4-0.4c0.1-0.2,0.1-0.4,0.1-0.7c0-0.3,0-0.5-0.1-0.7c-0.1-0.2-0.2-0.3-0.4-0.4
				s-0.3-0.2-0.5-0.2c-0.2,0-0.4,0-0.6,0h-1.5v2.6H261.6z"/>
			<path class="st5" d="M272.7,146v1.6h-4.5v1.8h4.1v1.5h-4.1v2.1h4.6v1.6h-6.5V146H272.7z"/>
			<path class="st5" d="M278.6,146c0.4,0,0.7,0.1,1,0.2c0.3,0.1,0.6,0.3,0.8,0.5c0.2,0.2,0.4,0.5,0.5,0.7c0.1,0.3,0.2,0.6,0.2,0.9
				c0,0.5-0.1,0.9-0.3,1.3c-0.2,0.4-0.6,0.6-1,0.8v0c0.2,0.1,0.4,0.2,0.6,0.3s0.3,0.3,0.4,0.5s0.2,0.4,0.2,0.6
				c0,0.2,0.1,0.4,0.1,0.6c0,0.1,0,0.3,0,0.5s0,0.4,0,0.6s0.1,0.4,0.1,0.5c0,0.2,0.1,0.3,0.2,0.4h-1.9c-0.1-0.3-0.2-0.6-0.2-1
				c0-0.4-0.1-0.7-0.1-1.1c-0.1-0.4-0.2-0.8-0.4-1c-0.2-0.2-0.5-0.3-1-0.3h-1.9v3.3H274V146H278.6z M278,149.9c0.4,0,0.8-0.1,1-0.3
				s0.3-0.5,0.3-0.9c0-0.4-0.1-0.7-0.3-0.9s-0.5-0.3-1-0.3h-2.1v2.4H278z"/>
			<path class="st5" d="M288.1,148.3c-0.1-0.2-0.3-0.3-0.4-0.5c-0.2-0.1-0.4-0.2-0.6-0.3c-0.2-0.1-0.4-0.1-0.7-0.1
				c-0.4,0-0.8,0.1-1.1,0.2s-0.5,0.4-0.7,0.7s-0.3,0.6-0.4,0.9s-0.1,0.7-0.1,1.1c0,0.4,0,0.7,0.1,1c0.1,0.3,0.2,0.6,0.4,0.9
				c0.2,0.3,0.4,0.5,0.7,0.7s0.7,0.2,1.1,0.2c0.6,0,1-0.2,1.3-0.5s0.5-0.8,0.6-1.4h1.8c0,0.5-0.2,1-0.4,1.4
				c-0.2,0.4-0.5,0.8-0.8,1.1c-0.3,0.3-0.7,0.5-1.1,0.7c-0.4,0.2-0.9,0.2-1.4,0.2c-0.7,0-1.2-0.1-1.8-0.3c-0.5-0.2-1-0.5-1.3-0.9
				c-0.4-0.4-0.6-0.9-0.8-1.4c-0.2-0.5-0.3-1.1-0.3-1.7c0-0.6,0.1-1.2,0.3-1.8c0.2-0.5,0.5-1,0.8-1.4c0.4-0.4,0.8-0.7,1.3-1
				s1.1-0.3,1.8-0.3c0.5,0,0.9,0.1,1.3,0.2c0.4,0.1,0.8,0.3,1.1,0.6s0.6,0.6,0.8,1c0.2,0.4,0.4,0.8,0.4,1.3h-1.8
				C288.3,148.7,288.3,148.5,288.1,148.3z"/>
			<path class="st5" d="M293.4,146v3.3h3.5V146h1.9v8.5h-1.9v-3.7h-3.5v3.7h-1.9V146H293.4z"/>
		</g>
	</g>
	<g>
		<g>
			<path class="st5" d="M210.7,187.3l-1.4-5.8h0l-1.4,5.8h-1.9l-2.3-8.5h1.9l1.4,5.8h0l1.5-5.8h1.8l1.5,5.9h0l1.4-5.9h1.8l-2.3,8.5
				H210.7z"/>
			<path class="st5" d="M217.6,178.8v3.3h3.5v-3.3h1.9v8.5h-1.9v-3.7h-3.5v3.7h-1.9v-8.5H217.6z"/>
			<path class="st5" d="M226.5,178.8v8.5h-1.9v-8.5H226.5z"/>
			<path class="st5" d="M227.4,180.4v-1.6h7v1.6h-2.6v7H230v-7H227.4z"/>
			<path class="st5" d="M241.8,178.8v1.6h-4.5v1.8h4.1v1.5h-4.1v2.1h4.6v1.6h-6.5v-8.5H241.8z"/>
			<path class="st5" d="M247.9,185.2c0.1,0.2,0.2,0.4,0.4,0.5c0.2,0.1,0.4,0.2,0.6,0.3c0.2,0.1,0.5,0.1,0.7,0.1c0.2,0,0.3,0,0.5,0
				c0.2,0,0.4-0.1,0.5-0.2c0.2-0.1,0.3-0.2,0.4-0.3c0.1-0.1,0.2-0.3,0.2-0.5c0-0.2-0.1-0.4-0.2-0.6c-0.1-0.1-0.3-0.3-0.6-0.4
				s-0.5-0.2-0.8-0.3c-0.3-0.1-0.6-0.2-0.9-0.2c-0.3-0.1-0.6-0.2-0.9-0.3c-0.3-0.1-0.6-0.3-0.8-0.4s-0.4-0.4-0.6-0.7
				c-0.1-0.3-0.2-0.6-0.2-1c0-0.4,0.1-0.8,0.3-1.1c0.2-0.3,0.4-0.6,0.7-0.8c0.3-0.2,0.6-0.4,1-0.5c0.4-0.1,0.8-0.2,1.1-0.2
				c0.4,0,0.9,0,1.3,0.1c0.4,0.1,0.8,0.3,1.1,0.5c0.3,0.2,0.6,0.5,0.8,0.9c0.2,0.3,0.3,0.8,0.3,1.3h-1.8c0-0.3-0.1-0.5-0.2-0.6
				s-0.2-0.3-0.4-0.4c-0.2-0.1-0.3-0.2-0.5-0.2s-0.4-0.1-0.6-0.1c-0.2,0-0.3,0-0.5,0c-0.2,0-0.3,0.1-0.4,0.2
				c-0.1,0.1-0.2,0.2-0.3,0.3c-0.1,0.1-0.1,0.3-0.1,0.5c0,0.2,0,0.3,0.1,0.4c0.1,0.1,0.2,0.2,0.4,0.3c0.2,0.1,0.4,0.2,0.8,0.3
				c0.3,0.1,0.8,0.2,1.3,0.3c0.2,0,0.4,0.1,0.7,0.2c0.3,0.1,0.6,0.2,0.8,0.4s0.5,0.4,0.7,0.7c0.2,0.3,0.3,0.7,0.3,1.2
				c0,0.4-0.1,0.8-0.2,1.1c-0.2,0.3-0.4,0.6-0.7,0.9c-0.3,0.2-0.7,0.4-1.1,0.6c-0.4,0.1-1,0.2-1.5,0.2c-0.5,0-0.9-0.1-1.4-0.2
				c-0.4-0.1-0.8-0.3-1.2-0.5c-0.3-0.2-0.6-0.6-0.8-0.9c-0.2-0.4-0.3-0.8-0.3-1.4h1.8C247.8,184.8,247.8,185,247.9,185.2z"/>
			<path class="st5" d="M253.6,180.4v-1.6h7v1.6H258v7h-1.9v-7H253.6z"/>
			<path class="st5" d="M267.9,186.7c-0.6,0.6-1.5,0.8-2.7,0.8c-1.2,0-2.1-0.3-2.7-0.8c-0.6-0.6-1-1.4-1-2.6v-5.3h1.9v5.3
				c0,0.2,0,0.5,0.1,0.7c0,0.2,0.1,0.4,0.3,0.6c0.1,0.2,0.3,0.3,0.5,0.4c0.2,0.1,0.5,0.2,0.9,0.2c0.7,0,1.1-0.1,1.4-0.4
				c0.3-0.3,0.4-0.8,0.4-1.4v-5.3h1.9v5.3C268.8,185.3,268.5,186.1,267.9,186.7z"/>
			<path class="st5" d="M275.1,178.8c0.4,0,0.7,0.1,1,0.2c0.3,0.1,0.6,0.3,0.8,0.5s0.4,0.5,0.5,0.7c0.1,0.3,0.2,0.6,0.2,0.9
				c0,0.5-0.1,0.9-0.3,1.3c-0.2,0.4-0.6,0.6-1,0.8v0c0.2,0.1,0.4,0.2,0.6,0.3s0.3,0.3,0.4,0.5s0.2,0.4,0.2,0.6s0.1,0.4,0.1,0.6
				c0,0.1,0,0.3,0,0.5c0,0.2,0,0.4,0,0.6c0,0.2,0.1,0.4,0.1,0.5c0,0.2,0.1,0.3,0.2,0.4h-1.9c-0.1-0.3-0.2-0.6-0.2-1
				c0-0.4-0.1-0.7-0.1-1.1c-0.1-0.4-0.2-0.8-0.4-1c-0.2-0.2-0.5-0.3-1-0.3h-1.9v3.3h-1.9v-8.5H275.1z M274.4,182.7
				c0.4,0,0.8-0.1,1-0.3c0.2-0.2,0.3-0.5,0.3-0.9c0-0.4-0.1-0.7-0.3-0.9c-0.2-0.2-0.5-0.3-1-0.3h-2.1v2.4H274.4z"/>
			<path class="st5" d="M284.2,187.3c-0.4,0.2-0.8,0.3-1.2,0.3c-0.7,0-1.2-0.1-1.8-0.3c-0.5-0.2-1-0.5-1.3-0.9
				c-0.4-0.4-0.6-0.9-0.8-1.4s-0.3-1.1-0.3-1.7c0-0.6,0.1-1.2,0.3-1.8s0.5-1,0.8-1.4c0.4-0.4,0.8-0.7,1.3-1s1.1-0.3,1.8-0.3
				c0.4,0,0.9,0.1,1.3,0.2c0.4,0.1,0.8,0.3,1.1,0.6s0.6,0.6,0.8,0.9c0.2,0.4,0.3,0.8,0.4,1.3h-1.8c-0.1-0.5-0.3-0.8-0.6-1.1
				c-0.3-0.2-0.7-0.4-1.2-0.4c-0.4,0-0.8,0.1-1.1,0.2c-0.3,0.2-0.5,0.4-0.7,0.7s-0.3,0.6-0.4,0.9c-0.1,0.4-0.1,0.7-0.1,1.1
				c0,0.4,0,0.7,0.1,1c0.1,0.3,0.2,0.6,0.4,0.9c0.2,0.3,0.4,0.5,0.7,0.7c0.3,0.2,0.7,0.2,1.1,0.2c0.6,0,1.1-0.2,1.4-0.5
				c0.3-0.3,0.5-0.8,0.6-1.4h-1.9v-1.4h3.6v4.6h-1.2l-0.2-1C284.9,186.8,284.6,187.1,284.2,187.3z"/>
			<path class="st5" d="M294.6,178.8v1.6h-4.5v1.8h4.1v1.5h-4.1v2.1h4.6v1.6h-6.5v-8.5H294.6z"/>
			<path class="st5" d="M295.9,181.3c0.2-0.5,0.5-1,0.8-1.4c0.4-0.4,0.8-0.7,1.3-1s1.1-0.3,1.8-0.3c0.7,0,1.3,0.1,1.8,0.3
				s1,0.6,1.3,1c0.4,0.4,0.6,0.9,0.8,1.4s0.3,1.1,0.3,1.8c0,0.6-0.1,1.2-0.3,1.7s-0.5,1-0.8,1.4c-0.4,0.4-0.8,0.7-1.3,0.9
				c-0.5,0.2-1.1,0.3-1.8,0.3c-0.7,0-1.2-0.1-1.8-0.3c-0.5-0.2-1-0.5-1.3-0.9c-0.4-0.4-0.6-0.9-0.8-1.4c-0.2-0.5-0.3-1.1-0.3-1.7
				C295.6,182.5,295.7,181.9,295.9,181.3z M297.6,184.2c0.1,0.3,0.2,0.6,0.4,0.9c0.2,0.3,0.4,0.5,0.7,0.7s0.7,0.2,1.1,0.2
				s0.8-0.1,1.1-0.2s0.5-0.4,0.7-0.7c0.2-0.3,0.3-0.6,0.4-0.9c0.1-0.3,0.1-0.7,0.1-1c0-0.4,0-0.7-0.1-1.1s-0.2-0.7-0.4-0.9
				s-0.4-0.5-0.7-0.7s-0.7-0.2-1.1-0.2s-0.8,0.1-1.1,0.2s-0.5,0.4-0.7,0.7s-0.3,0.6-0.4,0.9s-0.1,0.7-0.1,1.1
				C297.4,183.5,297.5,183.8,297.6,184.2z"/>
			<path class="st5" d="M307.1,178.8l3.6,5.7h0v-5.7h1.8v8.5h-1.9l-3.6-5.7h0v5.7h-1.8v-8.5H307.1z"/>
		</g>
	</g>
	<g>
		<g>
			<path class="st5" d="M208.4,213.3c0.4,0,0.8,0,1.1,0.1s0.6,0.2,0.9,0.4c0.2,0.2,0.4,0.4,0.6,0.7c0.1,0.3,0.2,0.6,0.2,1
				c0,0.4-0.1,0.8-0.3,1.1c-0.2,0.3-0.5,0.5-0.9,0.7c0.5,0.2,0.9,0.4,1.2,0.8c0.3,0.4,0.4,0.8,0.4,1.4c0,0.4-0.1,0.8-0.3,1.1
				c-0.2,0.3-0.4,0.6-0.7,0.8c-0.3,0.2-0.6,0.3-1,0.4s-0.7,0.1-1.1,0.1h-4.1v-8.5H208.4z M208.2,216.8c0.3,0,0.6-0.1,0.8-0.2
				s0.3-0.4,0.3-0.8c0-0.2,0-0.4-0.1-0.5c-0.1-0.1-0.2-0.2-0.3-0.3c-0.1-0.1-0.3-0.1-0.4-0.1c-0.2,0-0.3,0-0.5,0h-1.8v2H208.2z
				 M208.3,220.4c0.2,0,0.4,0,0.5-0.1c0.2,0,0.3-0.1,0.4-0.2c0.1-0.1,0.2-0.2,0.3-0.3c0.1-0.1,0.1-0.3,0.1-0.6
				c0-0.4-0.1-0.8-0.4-0.9c-0.2-0.2-0.6-0.3-1-0.3h-2v2.3H208.3z"/>
			<path class="st5" d="M214.7,213.3v7h4.2v1.6h-6v-8.5H214.7z"/>
			<path class="st5" d="M226.2,221.2c-0.6,0.6-1.5,0.8-2.7,0.8c-1.2,0-2.1-0.3-2.7-0.8c-0.6-0.6-1-1.4-1-2.6v-5.3h1.9v5.3
				c0,0.2,0,0.5,0.1,0.7c0,0.2,0.1,0.4,0.3,0.6c0.1,0.2,0.3,0.3,0.5,0.4c0.2,0.1,0.5,0.2,0.9,0.2c0.7,0,1.1-0.1,1.4-0.4
				c0.3-0.3,0.4-0.8,0.4-1.4v-5.3h1.9v5.3C227.2,219.8,226.9,220.6,226.2,221.2z"/>
			<path class="st5" d="M235.2,213.3v1.6h-4.5v1.8h4.1v1.5h-4.1v2.1h4.6v1.6h-6.5v-8.5H235.2z"/>
			<path class="st5" d="M242.6,213.3v1.6h-4.1v2h3.6v1.5h-3.6v3.5h-1.9v-8.5H242.6z"/>
			<path class="st5" d="M245.5,213.3v8.5h-1.9v-8.5H245.5z"/>
			<path class="st5" d="M249.1,213.3l3.6,5.7h0v-5.7h1.8v8.5h-1.9l-3.6-5.7h0v5.7h-1.8v-8.5H249.1z"/>
			<path class="st5" d="M258.7,214.9v-1.6h7v1.6h-2.6v7h-1.9v-7H258.7z"/>
			<path class="st5" d="M273,221.2c-0.6,0.6-1.5,0.8-2.7,0.8c-1.2,0-2.1-0.3-2.7-0.8c-0.6-0.6-1-1.4-1-2.6v-5.3h1.9v5.3
				c0,0.2,0,0.5,0.1,0.7c0,0.2,0.1,0.4,0.3,0.6c0.1,0.2,0.3,0.3,0.5,0.4c0.2,0.1,0.5,0.2,0.9,0.2c0.7,0,1.1-0.1,1.4-0.4
				c0.3-0.3,0.4-0.8,0.4-1.4v-5.3h1.9v5.3C274,219.8,273.6,220.6,273,221.2z"/>
			<path class="st5" d="M277.4,213.3l3.6,5.7h0v-5.7h1.8v8.5h-1.9l-3.6-5.7h0v5.7h-1.8v-8.5H277.4z"/>
			<path class="st5" d="M288.7,213.3l3.2,8.5h-2l-0.6-1.9h-3.2l-0.7,1.9h-1.9l3.2-8.5H288.7z M288.8,218.6l-1.1-3.1h0l-1.1,3.1
				H288.8z"/>
		</g>
	</g>
	<g>
		<g>
			<path class="st5" d="M208.7,246.9l3.2,8.5h-2l-0.6-1.9h-3.2l-0.7,1.9h-1.9l3.2-8.5H208.7z M208.8,252.2l-1.1-3.1h0l-1.1,3.1
				H208.8z"/>
			<path class="st5" d="M210.8,248.5v-1.6h7v1.6h-2.6v7h-1.9v-7H210.8z"/>
			<path class="st5" d="M220.7,246.9v7h4.2v1.6h-6v-8.5H220.7z"/>
			<path class="st5" d="M230.2,246.9l3.2,8.5h-2l-0.6-1.9h-3.2l-0.7,1.9H225l3.2-8.5H230.2z M230.3,252.2l-1.1-3.1h0l-1.1,3.1H230.3
				z"/>
			<path class="st5" d="M236,246.9l3.6,5.7h0v-5.7h1.8v8.5h-1.9l-3.6-5.7h0v5.7h-1.8v-8.5H236z"/>
			<path class="st5" d="M242.3,248.5v-1.6h7v1.6h-2.6v7h-1.9v-7H242.3z"/>
			<path class="st5" d="M252.2,246.9v8.5h-1.9v-8.5H252.2z"/>
			<path class="st5" d="M259.3,249.2c-0.1-0.2-0.3-0.3-0.4-0.5c-0.2-0.1-0.4-0.2-0.6-0.3c-0.2-0.1-0.4-0.1-0.7-0.1
				c-0.4,0-0.8,0.1-1.1,0.2s-0.5,0.4-0.7,0.7s-0.3,0.6-0.4,0.9s-0.1,0.7-0.1,1.1c0,0.4,0,0.7,0.1,1c0.1,0.3,0.2,0.6,0.4,0.9
				c0.2,0.3,0.4,0.5,0.7,0.7s0.7,0.2,1.1,0.2c0.6,0,1-0.2,1.3-0.5s0.5-0.8,0.6-1.4h1.8c0,0.5-0.2,1-0.4,1.4
				c-0.2,0.4-0.5,0.8-0.8,1.1c-0.3,0.3-0.7,0.5-1.1,0.7c-0.4,0.2-0.9,0.2-1.4,0.2c-0.7,0-1.2-0.1-1.8-0.3c-0.5-0.2-1-0.5-1.3-0.9
				c-0.4-0.4-0.6-0.9-0.8-1.4c-0.2-0.5-0.3-1.1-0.3-1.7c0-0.6,0.1-1.2,0.3-1.8c0.2-0.5,0.5-1,0.8-1.4c0.4-0.4,0.8-0.7,1.3-1
				s1.1-0.3,1.8-0.3c0.5,0,0.9,0.1,1.3,0.2c0.4,0.1,0.8,0.3,1.1,0.6s0.6,0.6,0.8,1c0.2,0.4,0.4,0.8,0.4,1.3h-1.8
				C259.5,249.6,259.4,249.4,259.3,249.2z"/>
			<path class="st5" d="M267.5,253.4c0.1,0.2,0.2,0.4,0.4,0.5c0.2,0.1,0.4,0.2,0.6,0.3c0.2,0.1,0.5,0.1,0.7,0.1c0.2,0,0.3,0,0.5,0
				c0.2,0,0.4-0.1,0.5-0.2c0.2-0.1,0.3-0.2,0.4-0.3c0.1-0.1,0.2-0.3,0.2-0.5c0-0.2-0.1-0.4-0.2-0.6c-0.1-0.1-0.3-0.3-0.6-0.4
				s-0.5-0.2-0.8-0.3c-0.3-0.1-0.6-0.2-0.9-0.2c-0.3-0.1-0.6-0.2-0.9-0.3c-0.3-0.1-0.6-0.3-0.8-0.4s-0.4-0.4-0.6-0.7
				c-0.1-0.3-0.2-0.6-0.2-1c0-0.4,0.1-0.8,0.3-1.1c0.2-0.3,0.4-0.6,0.7-0.8c0.3-0.2,0.6-0.4,1-0.5c0.4-0.1,0.8-0.2,1.1-0.2
				c0.4,0,0.9,0,1.3,0.1c0.4,0.1,0.8,0.3,1.1,0.5c0.3,0.2,0.6,0.5,0.8,0.9c0.2,0.3,0.3,0.8,0.3,1.3h-1.8c0-0.3-0.1-0.5-0.2-0.6
				s-0.2-0.3-0.4-0.4c-0.2-0.1-0.3-0.2-0.5-0.2s-0.4-0.1-0.6-0.1c-0.2,0-0.3,0-0.5,0c-0.2,0-0.3,0.1-0.4,0.2
				c-0.1,0.1-0.2,0.2-0.3,0.3c-0.1,0.1-0.1,0.3-0.1,0.5c0,0.2,0,0.3,0.1,0.4c0.1,0.1,0.2,0.2,0.4,0.3c0.2,0.1,0.4,0.2,0.8,0.3
				c0.3,0.1,0.8,0.2,1.3,0.3c0.2,0,0.4,0.1,0.7,0.2c0.3,0.1,0.6,0.2,0.8,0.4s0.5,0.4,0.7,0.7c0.2,0.3,0.3,0.7,0.3,1.2
				c0,0.4-0.1,0.8-0.2,1.1c-0.2,0.3-0.4,0.6-0.7,0.9c-0.3,0.2-0.7,0.4-1.1,0.6c-0.4,0.1-1,0.2-1.5,0.2c-0.5,0-0.9-0.1-1.4-0.2
				c-0.4-0.1-0.8-0.3-1.2-0.5c-0.3-0.2-0.6-0.6-0.8-0.9c-0.2-0.4-0.3-0.8-0.3-1.4h1.8C267.3,252.9,267.4,253.2,267.5,253.4z"/>
			<path class="st5" d="M278.1,246.9l3.2,8.5h-2l-0.6-1.9h-3.2l-0.7,1.9h-1.9l3.2-8.5H278.1z M278.2,252.2l-1.1-3.1h0l-1.1,3.1
				H278.2z"/>
			<path class="st5" d="M283.9,246.9v7h4.2v1.6h-6v-8.5H283.9z"/>
			<path class="st5" d="M291.7,246.9l2,5.9h0l1.9-5.9h2.6v8.5h-1.8v-6.1h0l-2.1,6.1H293l-2.1-6h0v6h-1.8v-8.5H291.7z"/>
			<path class="st5" d="M299.9,249.5c0.2-0.5,0.5-1,0.8-1.4c0.4-0.4,0.8-0.7,1.3-1s1.1-0.3,1.8-0.3c0.7,0,1.3,0.1,1.8,0.3
				s1,0.6,1.3,1c0.4,0.4,0.6,0.9,0.8,1.4s0.3,1.1,0.3,1.8c0,0.6-0.1,1.2-0.3,1.7s-0.5,1-0.8,1.4c-0.4,0.4-0.8,0.7-1.3,0.9
				c-0.5,0.2-1.1,0.3-1.8,0.3c-0.7,0-1.2-0.1-1.8-0.3c-0.5-0.2-1-0.5-1.3-0.9c-0.4-0.4-0.6-0.9-0.8-1.4s-0.3-1.1-0.3-1.7
				C299.6,250.6,299.7,250,299.9,249.5z M301.6,252.3c0.1,0.3,0.2,0.6,0.4,0.9c0.2,0.3,0.4,0.5,0.7,0.7c0.3,0.2,0.7,0.2,1.1,0.2
				s0.8-0.1,1.1-0.2c0.3-0.2,0.5-0.4,0.7-0.7c0.2-0.3,0.3-0.6,0.4-0.9c0.1-0.3,0.1-0.7,0.1-1c0-0.4,0-0.7-0.1-1.1
				c-0.1-0.4-0.2-0.7-0.4-0.9s-0.4-0.5-0.7-0.7c-0.3-0.2-0.7-0.2-1.1-0.2s-0.8,0.1-1.1,0.2c-0.3,0.2-0.5,0.4-0.7,0.7
				s-0.3,0.6-0.4,0.9c-0.1,0.4-0.1,0.7-0.1,1.1C301.5,251.6,301.5,252,301.6,252.3z"/>
			<path class="st5" d="M311.1,246.9l3.6,5.7h0v-5.7h1.8v8.5h-1.9l-3.6-5.7h0v5.7h-1.8v-8.5H311.1z"/>
		</g>
	</g>
	<g>
		<g>
			<path class="st5" d="M210.7,292.5l-1.4-5.8h0l-1.4,5.8h-1.9l-2.3-8.5h1.9l1.4,5.8h0l1.5-5.8h1.8l1.5,5.9h0l1.4-5.9h1.8l-2.3,8.5
				H210.7z"/>
			<path class="st5" d="M219.7,283.9l3.2,8.5h-2l-0.6-1.9h-3.2l-0.7,1.9h-1.9l3.2-8.5H219.7z M219.8,289.2l-1.1-3.1h0l-1.1,3.1
				H219.8z"/>
			<path class="st5" d="M225.5,283.9v7h4.2v1.6h-6v-8.5H225.5z"/>
			<path class="st5" d="M232.6,283.9v7h4.2v1.6h-6v-8.5H232.6z"/>
			<path class="st5" d="M244.2,283.9v1.6h-4.5v1.8h4.1v1.5h-4.1v2.1h4.6v1.6h-6.5v-8.5H244.2z"/>
			<path class="st5" d="M244.7,283.9h2.1l2,3.4l2-3.4h2.1l-3.2,5.3v3.3h-1.9v-3.3L244.7,283.9z"/>
			<path class="st5" d="M260,283.9v1.6h-4.5v1.8h4.1v1.5h-4.1v2.1h4.6v1.6h-6.5v-8.5H260z"/>
		</g>
	</g>
	<g>
		<g>
			<path class="st5" d="M206.3,318.4l3.6,5.7h0v-5.7h1.8v8.5h-1.9l-3.6-5.7h0v5.7h-1.8v-8.5H206.3z"/>
			<path class="st5" d="M213.2,321c0.2-0.5,0.5-1,0.8-1.4c0.4-0.4,0.8-0.7,1.3-1s1.1-0.3,1.8-0.3c0.7,0,1.3,0.1,1.8,0.3s1,0.6,1.3,1
				c0.4,0.4,0.6,0.9,0.8,1.4s0.3,1.1,0.3,1.8c0,0.6-0.1,1.2-0.3,1.7s-0.5,1-0.8,1.4c-0.4,0.4-0.8,0.7-1.3,0.9
				c-0.5,0.2-1.1,0.3-1.8,0.3c-0.7,0-1.2-0.1-1.8-0.3c-0.5-0.2-1-0.5-1.3-0.9c-0.4-0.4-0.6-0.9-0.8-1.4s-0.3-1.1-0.3-1.7
				C212.9,322.1,213,321.5,213.2,321z M214.9,323.8c0.1,0.3,0.2,0.6,0.4,0.9c0.2,0.3,0.4,0.5,0.7,0.7c0.3,0.2,0.7,0.2,1.1,0.2
				s0.8-0.1,1.1-0.2c0.3-0.2,0.5-0.4,0.7-0.7c0.2-0.3,0.3-0.6,0.4-0.9c0.1-0.3,0.1-0.7,0.1-1c0-0.4,0-0.7-0.1-1.1
				c-0.1-0.4-0.2-0.7-0.4-0.9s-0.4-0.5-0.7-0.7c-0.3-0.2-0.7-0.2-1.1-0.2s-0.8,0.1-1.1,0.2c-0.3,0.2-0.5,0.4-0.7,0.7
				s-0.3,0.6-0.4,0.9c-0.1,0.4-0.1,0.7-0.1,1.1C214.8,323.1,214.8,323.4,214.9,323.8z"/>
			<path class="st5" d="M221.9,320v-1.6h7v1.6h-2.6v7h-1.9v-7H221.9z"/>
			<path class="st5" d="M231.8,318.4v3.3h3.5v-3.3h1.9v8.5h-1.9v-3.7h-3.5v3.7h-1.9v-8.5H231.8z"/>
			<path class="st5" d="M245.2,318.4v1.6h-4.5v1.8h4.1v1.5h-4.1v2.1h4.6v1.6h-6.5v-8.5H245.2z"/>
			<path class="st5" d="M251.1,318.4c0.4,0,0.7,0.1,1,0.2c0.3,0.1,0.6,0.3,0.8,0.5c0.2,0.2,0.4,0.5,0.5,0.7c0.1,0.3,0.2,0.6,0.2,0.9
				c0,0.5-0.1,0.9-0.3,1.3c-0.2,0.4-0.6,0.6-1,0.8v0c0.2,0.1,0.4,0.2,0.6,0.3s0.3,0.3,0.4,0.5s0.2,0.4,0.2,0.6
				c0,0.2,0.1,0.4,0.1,0.6c0,0.1,0,0.3,0,0.5s0,0.4,0,0.6s0.1,0.4,0.1,0.5c0,0.2,0.1,0.3,0.2,0.4H252c-0.1-0.3-0.2-0.6-0.2-1
				c0-0.4-0.1-0.7-0.1-1.1c-0.1-0.4-0.2-0.8-0.4-1c-0.2-0.2-0.5-0.3-1-0.3h-1.9v3.3h-1.9v-8.5H251.1z M250.5,322.3
				c0.4,0,0.8-0.1,1-0.3s0.3-0.5,0.3-0.9c0-0.4-0.1-0.7-0.3-0.9s-0.5-0.3-1-0.3h-2.1v2.4H250.5z"/>
			<path class="st5" d="M257,318.4l3.6,5.7h0v-5.7h1.8v8.5h-1.9l-3.6-5.7h0v5.7h-1.8v-8.5H257z"/>
			<path class="st5" d="M271.2,318.4c0.5,0,1,0.1,1.4,0.2c0.4,0.2,0.7,0.4,0.9,0.6s0.4,0.5,0.5,0.9s0.2,0.7,0.2,1
				c0,0.3-0.1,0.7-0.2,1s-0.3,0.6-0.5,0.9s-0.5,0.5-0.9,0.6c-0.4,0.2-0.8,0.2-1.4,0.2h-2v3.1h-1.9v-8.5H271.2z M270.7,322.4
				c0.2,0,0.4,0,0.6,0c0.2,0,0.4-0.1,0.5-0.2c0.2-0.1,0.3-0.2,0.4-0.4c0.1-0.2,0.1-0.4,0.1-0.7c0-0.3,0-0.5-0.1-0.7
				c-0.1-0.2-0.2-0.3-0.4-0.4s-0.3-0.2-0.5-0.2c-0.2,0-0.4,0-0.6,0h-1.5v2.6H270.7z"/>
			<path class="st5" d="M277.2,318.4v8.5h-1.9v-8.5H277.2z"/>
			<path class="st5" d="M280.8,318.4v3.5l3.3-3.5h2.3l-3.3,3.4l3.7,5.2h-2.4l-2.6-3.8l-1.1,1.1v2.8h-1.9v-8.5H280.8z"/>
			<path class="st5" d="M293.9,318.4v1.6h-4.5v1.8h4.1v1.5h-4.1v2.1h4.6v1.6h-6.5v-8.5H293.9z"/>
		</g>
	</g>
	<g>
		<g>
			<path class="st5" d="M206.3,352.9v7h4.2v1.6h-6v-8.5H206.3z"/>
			<path class="st5" d="M215.8,352.9l3.2,8.5h-2l-0.6-1.9h-3.2l-0.7,1.9h-1.9l3.2-8.5H215.8z M215.9,358.2l-1.1-3.1h0l-1.1,3.1
				H215.9z"/>
			<path class="st5" d="M224.3,352.9c0.4,0,0.7,0.1,1,0.2c0.3,0.1,0.6,0.3,0.8,0.5s0.4,0.5,0.5,0.7c0.1,0.3,0.2,0.6,0.2,0.9
				c0,0.5-0.1,0.9-0.3,1.3c-0.2,0.4-0.6,0.6-1,0.8v0c0.2,0.1,0.4,0.2,0.6,0.3s0.3,0.3,0.4,0.5s0.2,0.4,0.2,0.6s0.1,0.4,0.1,0.6
				c0,0.1,0,0.3,0,0.5c0,0.2,0,0.4,0,0.6c0,0.2,0.1,0.4,0.1,0.5c0,0.2,0.1,0.3,0.2,0.4h-1.9c-0.1-0.3-0.2-0.6-0.2-1
				c0-0.4-0.1-0.7-0.1-1.1c-0.1-0.4-0.2-0.8-0.4-1c-0.2-0.2-0.5-0.3-1-0.3h-1.9v3.3h-1.9v-8.5H224.3z M223.7,356.8
				c0.4,0,0.8-0.1,1-0.3c0.2-0.2,0.3-0.5,0.3-0.9c0-0.4-0.1-0.7-0.3-0.9c-0.2-0.2-0.5-0.3-1-0.3h-2.1v2.4H223.7z"/>
			<path class="st5" d="M233.4,361.4c-0.4,0.2-0.8,0.3-1.2,0.3c-0.7,0-1.2-0.1-1.8-0.3c-0.5-0.2-1-0.5-1.3-0.9
				c-0.4-0.4-0.6-0.9-0.8-1.4s-0.3-1.1-0.3-1.7c0-0.6,0.1-1.2,0.3-1.8s0.5-1,0.8-1.4c0.4-0.4,0.8-0.7,1.3-1s1.1-0.3,1.8-0.3
				c0.4,0,0.9,0.1,1.3,0.2c0.4,0.1,0.8,0.3,1.1,0.6s0.6,0.6,0.8,0.9c0.2,0.4,0.3,0.8,0.4,1.3H234c-0.1-0.5-0.3-0.8-0.6-1.1
				c-0.3-0.2-0.7-0.4-1.2-0.4c-0.4,0-0.8,0.1-1.1,0.2c-0.3,0.2-0.5,0.4-0.7,0.7s-0.3,0.6-0.4,0.9c-0.1,0.4-0.1,0.7-0.1,1.1
				c0,0.4,0,0.7,0.1,1c0.1,0.3,0.2,0.6,0.4,0.9c0.2,0.3,0.4,0.5,0.7,0.7c0.3,0.2,0.7,0.2,1.1,0.2c0.6,0,1.1-0.2,1.4-0.5
				c0.3-0.3,0.5-0.8,0.6-1.4h-1.9v-1.4h3.6v4.6h-1.2l-0.2-1C234.2,360.9,233.8,361.2,233.4,361.4z"/>
			<path class="st5" d="M243.8,352.9v1.6h-4.5v1.8h4.1v1.5h-4.1v2.1h4.6v1.6h-6.5v-8.5H243.8z"/>
			<path class="st5" d="M251.2,352.9l2,5.9h0l1.9-5.9h2.6v8.5H256v-6.1h0l-2.1,6.1h-1.4l-2.1-6h0v6h-1.8v-8.5H251.2z"/>
			<path class="st5" d="M259.3,355.5c0.2-0.5,0.5-1,0.8-1.4c0.4-0.4,0.8-0.7,1.3-1s1.1-0.3,1.8-0.3c0.7,0,1.3,0.1,1.8,0.3
				s1,0.6,1.3,1c0.4,0.4,0.6,0.9,0.8,1.4s0.3,1.1,0.3,1.8c0,0.6-0.1,1.2-0.3,1.7s-0.5,1-0.8,1.4c-0.4,0.4-0.8,0.7-1.3,0.9
				c-0.5,0.2-1.1,0.3-1.8,0.3c-0.7,0-1.2-0.1-1.8-0.3c-0.5-0.2-1-0.5-1.3-0.9c-0.4-0.4-0.6-0.9-0.8-1.4s-0.3-1.1-0.3-1.7
				C259,356.6,259.1,356,259.3,355.5z M261,358.3c0.1,0.3,0.2,0.6,0.4,0.9c0.2,0.3,0.4,0.5,0.7,0.7c0.3,0.2,0.7,0.2,1.1,0.2
				s0.8-0.1,1.1-0.2c0.3-0.2,0.5-0.4,0.7-0.7c0.2-0.3,0.3-0.6,0.4-0.9c0.1-0.3,0.1-0.7,0.1-1c0-0.4,0-0.7-0.1-1.1
				c-0.1-0.4-0.2-0.7-0.4-0.9s-0.4-0.5-0.7-0.7c-0.3-0.2-0.7-0.2-1.1-0.2s-0.8,0.1-1.1,0.2c-0.3,0.2-0.5,0.4-0.7,0.7
				s-0.3,0.6-0.4,0.9c-0.1,0.4-0.1,0.7-0.1,1.1C260.9,357.6,260.9,357.9,261,358.3z"/>
			<path class="st5" d="M275,360.8c-0.6,0.6-1.5,0.8-2.7,0.8c-1.2,0-2.1-0.3-2.7-0.8c-0.6-0.6-1-1.4-1-2.6v-5.3h1.9v5.3
				c0,0.2,0,0.5,0.1,0.7c0,0.2,0.1,0.4,0.3,0.6c0.1,0.2,0.3,0.3,0.5,0.4c0.2,0.1,0.5,0.2,0.9,0.2c0.7,0,1.1-0.1,1.4-0.4
				c0.3-0.3,0.4-0.8,0.4-1.4v-5.3h1.9v5.3C275.9,359.4,275.6,360.3,275,360.8z"/>
			<path class="st5" d="M276.9,354.5v-1.6h7v1.6h-2.6v7h-1.9v-7H276.9z"/>
			<path class="st5" d="M286.7,352.9v3.3h3.5v-3.3h1.9v8.5h-1.9v-3.7h-3.5v3.7h-1.9v-8.5H286.7z"/>
			<path class="st5" d="M301.1,352.9c0.4,0,0.8,0,1.1,0.1s0.6,0.2,0.9,0.4c0.2,0.2,0.4,0.4,0.6,0.7c0.1,0.3,0.2,0.6,0.2,1
				c0,0.4-0.1,0.8-0.3,1.1s-0.5,0.5-0.9,0.7c0.5,0.2,0.9,0.4,1.2,0.8c0.3,0.4,0.4,0.8,0.4,1.4c0,0.4-0.1,0.8-0.3,1.1
				c-0.2,0.3-0.4,0.6-0.7,0.8c-0.3,0.2-0.6,0.3-1,0.4c-0.4,0.1-0.7,0.1-1.1,0.1h-4.1v-8.5H301.1z M300.8,356.4
				c0.3,0,0.6-0.1,0.8-0.2c0.2-0.2,0.3-0.4,0.3-0.8c0-0.2,0-0.4-0.1-0.5c-0.1-0.1-0.2-0.2-0.3-0.3s-0.3-0.1-0.4-0.1
				c-0.2,0-0.3,0-0.5,0h-1.8v2H300.8z M301,360c0.2,0,0.4,0,0.5-0.1c0.2,0,0.3-0.1,0.4-0.2c0.1-0.1,0.2-0.2,0.3-0.3
				c0.1-0.1,0.1-0.3,0.1-0.6c0-0.4-0.1-0.8-0.4-0.9s-0.6-0.3-1-0.3h-2v2.3H301z"/>
			<path class="st5" d="M309.8,352.9l3.2,8.5h-2l-0.6-1.9h-3.2l-0.7,1.9h-1.9l3.2-8.5H309.8z M309.9,358.2l-1.1-3.1h0l-1.1,3.1
				H309.9z"/>
			<path class="st5" d="M315.1,359.4c0.1,0.2,0.2,0.4,0.4,0.5c0.2,0.1,0.4,0.2,0.6,0.3c0.2,0.1,0.5,0.1,0.7,0.1c0.2,0,0.3,0,0.5,0
				c0.2,0,0.4-0.1,0.5-0.2c0.2-0.1,0.3-0.2,0.4-0.3c0.1-0.1,0.2-0.3,0.2-0.5c0-0.2-0.1-0.4-0.2-0.6c-0.1-0.1-0.3-0.3-0.6-0.4
				s-0.5-0.2-0.8-0.3c-0.3-0.1-0.6-0.2-0.9-0.2c-0.3-0.1-0.6-0.2-0.9-0.3c-0.3-0.1-0.6-0.3-0.8-0.4s-0.4-0.4-0.6-0.7
				c-0.1-0.3-0.2-0.6-0.2-1c0-0.4,0.1-0.8,0.3-1.1c0.2-0.3,0.4-0.6,0.7-0.8c0.3-0.2,0.6-0.4,1-0.5c0.4-0.1,0.8-0.2,1.1-0.2
				c0.4,0,0.9,0,1.3,0.1c0.4,0.1,0.8,0.3,1.1,0.5c0.3,0.2,0.6,0.5,0.8,0.9c0.2,0.3,0.3,0.8,0.3,1.3h-1.8c0-0.3-0.1-0.5-0.2-0.6
				s-0.2-0.3-0.4-0.4c-0.2-0.1-0.3-0.2-0.5-0.2s-0.4-0.1-0.6-0.1c-0.2,0-0.3,0-0.5,0c-0.2,0-0.3,0.1-0.4,0.2
				c-0.1,0.1-0.2,0.2-0.3,0.3c-0.1,0.1-0.1,0.3-0.1,0.5c0,0.2,0,0.3,0.1,0.4c0.1,0.1,0.2,0.2,0.4,0.3c0.2,0.1,0.4,0.2,0.8,0.3
				c0.3,0.1,0.8,0.2,1.3,0.3c0.2,0,0.4,0.1,0.7,0.2c0.3,0.1,0.6,0.2,0.8,0.4s0.5,0.4,0.7,0.7c0.2,0.3,0.3,0.7,0.3,1.2
				c0,0.4-0.1,0.8-0.2,1.1c-0.2,0.3-0.4,0.6-0.7,0.9c-0.3,0.2-0.7,0.4-1.1,0.6c-0.4,0.1-1,0.2-1.5,0.2c-0.5,0-0.9-0.1-1.4-0.2
				c-0.4-0.1-0.8-0.3-1.2-0.5c-0.3-0.2-0.6-0.6-0.8-0.9c-0.2-0.4-0.3-0.8-0.3-1.4h1.8C315,358.9,315,359.2,315.1,359.4z"/>
			<path class="st5" d="M322.9,359.4c0.1,0.2,0.2,0.4,0.4,0.5s0.4,0.2,0.6,0.3c0.2,0.1,0.5,0.1,0.7,0.1c0.2,0,0.3,0,0.5,0
				s0.4-0.1,0.5-0.2c0.2-0.1,0.3-0.2,0.4-0.3c0.1-0.1,0.2-0.3,0.2-0.5c0-0.2-0.1-0.4-0.2-0.6s-0.3-0.3-0.6-0.4s-0.5-0.2-0.8-0.3
				c-0.3-0.1-0.6-0.2-0.9-0.2c-0.3-0.1-0.6-0.2-0.9-0.3c-0.3-0.1-0.6-0.3-0.8-0.4c-0.2-0.2-0.4-0.4-0.6-0.7s-0.2-0.6-0.2-1
				c0-0.4,0.1-0.8,0.3-1.1c0.2-0.3,0.4-0.6,0.7-0.8c0.3-0.2,0.6-0.4,1-0.5c0.4-0.1,0.8-0.2,1.1-0.2c0.4,0,0.9,0,1.3,0.1
				c0.4,0.1,0.8,0.3,1.1,0.5c0.3,0.2,0.6,0.5,0.8,0.9c0.2,0.3,0.3,0.8,0.3,1.3H326c0-0.3-0.1-0.5-0.2-0.6s-0.2-0.3-0.4-0.4
				c-0.2-0.1-0.3-0.2-0.5-0.2c-0.2,0-0.4-0.1-0.6-0.1c-0.2,0-0.3,0-0.5,0c-0.2,0-0.3,0.1-0.4,0.2c-0.1,0.1-0.2,0.2-0.3,0.3
				c-0.1,0.1-0.1,0.3-0.1,0.5c0,0.2,0,0.3,0.1,0.4c0.1,0.1,0.2,0.2,0.4,0.3c0.2,0.1,0.4,0.2,0.8,0.3c0.3,0.1,0.8,0.2,1.3,0.3
				c0.2,0,0.4,0.1,0.7,0.2c0.3,0.1,0.6,0.2,0.8,0.4s0.5,0.4,0.7,0.7c0.2,0.3,0.3,0.7,0.3,1.2c0,0.4-0.1,0.8-0.2,1.1
				c-0.2,0.3-0.4,0.6-0.7,0.9c-0.3,0.2-0.7,0.4-1.1,0.6c-0.4,0.1-1,0.2-1.5,0.2c-0.5,0-0.9-0.1-1.4-0.2c-0.4-0.1-0.8-0.3-1.2-0.5
				c-0.3-0.2-0.6-0.6-0.8-0.9c-0.2-0.4-0.3-0.8-0.3-1.4h1.8C322.7,358.9,322.8,359.2,322.9,359.4z"/>
		</g>
	</g>
	<g>
		<rect x="12.3" y="102.9" class="st0" width="143.5" height="28.2"/>
		<path class="st5" d="M104.8,107.1c0.3-0.9,0.8-1.7,1.4-2.3c0.6-0.7,1.3-1.2,2.2-1.6c0.9-0.4,1.8-0.6,2.9-0.6c1.1,0,2,0.2,2.9,0.6
			c0.8,0.4,1.6,0.9,2.2,1.6c0.6,0.7,1,1.4,1.4,2.3c0.3,0.9,0.5,1.9,0.5,2.9c0,1-0.2,2-0.5,2.8c-0.3,0.9-0.8,1.6-1.4,2.3
			c-0.6,0.7-1.3,1.2-2.2,1.5c-0.8,0.4-1.8,0.6-2.9,0.6c-1.1,0-2-0.2-2.9-0.6c-0.9-0.4-1.6-0.9-2.2-1.5c-0.6-0.7-1-1.4-1.4-2.3
			c-0.3-0.9-0.5-1.8-0.5-2.8C104.3,108.9,104.5,108,104.8,107.1z M107.6,111.7c0.1,0.6,0.4,1.1,0.7,1.5c0.3,0.4,0.7,0.8,1.2,1.1
			c0.5,0.3,1.1,0.4,1.8,0.4c0.7,0,1.3-0.1,1.8-0.4c0.5-0.3,0.9-0.6,1.2-1.1c0.3-0.4,0.5-0.9,0.7-1.5c0.1-0.6,0.2-1.1,0.2-1.7
			c0-0.6-0.1-1.2-0.2-1.8c-0.1-0.6-0.4-1.1-0.7-1.5c-0.3-0.5-0.7-0.8-1.2-1.1c-0.5-0.3-1.1-0.4-1.8-0.4c-0.7,0-1.3,0.1-1.8,0.4
			c-0.5,0.3-0.9,0.6-1.2,1.1c-0.3,0.5-0.5,1-0.7,1.5c-0.1,0.6-0.2,1.2-0.2,1.8C107.4,110.6,107.4,111.1,107.6,111.7z"/>
		<path class="st5" d="M119.1,105.5v-2.6h11.5v2.6h-4.2v11.4h-3.1v-11.4H119.1z"/>
		<path class="st5" d="M131,105.5v-2.6h11.5v2.6h-4.2v11.4h-3.1v-11.4H131z"/>
		<path class="st5" d="M142.6,102.9h3.4l3.3,5.5l3.3-5.5h3.4l-5.2,8.6v5.4h-3.1v-5.4L142.6,102.9z"/>
		<path class="st5" d="M135.7,118.9v5.5h3.3v0.7h-4.1v-6.2H135.7z"/>
		<path class="st5" d="M142.3,118.9l2.4,6.2h-0.9l-0.7-1.9h-2.6l-0.7,1.9H139l2.4-6.2H142.3z M142.9,122.5l-1-2.9h0l-1.1,2.9H142.9z
			"/>
		<path class="st5" d="M146.2,118.9v3.1l3.2-3.1h1.1l-2.6,2.5l2.7,3.7h-1l-2.2-3.1l-1,1v2.2h-0.8v-6.2H146.2z"/>
		<path class="st5" d="M155.4,118.9v0.7H152v2h3.2v0.7H152v2.1h3.5v0.7h-4.3v-6.2H155.4z"/>
	</g>
	<g>
		<rect x="29.9" y="137.1" class="st0" width="125.8" height="32.9"/>
		<path class="st5" d="M135.7,137.1v5.5h3.3v0.7h-4.1v-6.2H135.7z"/>
		<path class="st5" d="M142.3,137.1l2.4,6.2h-0.9l-0.7-1.9h-2.6l-0.7,1.9H139l2.4-6.2H142.3z M142.9,140.7l-1-2.9h0l-1.1,2.9H142.9z
			"/>
		<path class="st5" d="M146.2,137.1v3.1l3.2-3.1h1.1l-2.6,2.5l2.7,3.7h-1l-2.2-3.1l-1,1v2.2h-0.8v-6.2H146.2z"/>
		<path class="st5" d="M155.4,137.1v0.7H152v2h3.2v0.7H152v2.1h3.5v0.7h-4.3v-6.2H155.4z"/>
		<path class="st5" d="M122.3,146.2v2.6h-7.4v3h6.8v2.4h-6.8v3.4h7.5v2.6h-10.6v-14H122.3z"/>
		<path class="st5" d="M132.1,146.2c0.6,0,1.2,0.1,1.7,0.3c0.5,0.2,0.9,0.5,1.3,0.8c0.4,0.4,0.6,0.8,0.8,1.2c0.2,0.5,0.3,1,0.3,1.5
			c0,0.8-0.2,1.5-0.5,2.1c-0.3,0.6-0.9,1.1-1.7,1.4v0c0.4,0.1,0.7,0.3,0.9,0.5c0.2,0.2,0.5,0.5,0.6,0.8c0.2,0.3,0.3,0.6,0.3,1
			c0.1,0.4,0.1,0.7,0.1,1.1c0,0.2,0,0.5,0,0.8c0,0.3,0,0.6,0.1,0.9s0.1,0.6,0.2,0.9c0.1,0.3,0.2,0.5,0.3,0.7h-3.1
			c-0.2-0.4-0.3-1-0.3-1.6c0-0.6-0.1-1.2-0.2-1.8c-0.1-0.7-0.3-1.3-0.7-1.6c-0.3-0.3-0.9-0.5-1.7-0.5h-3.1v5.5h-3.1v-14H132.1z
			 M131,152.5c0.7,0,1.2-0.2,1.6-0.5c0.4-0.3,0.5-0.8,0.5-1.5c0-0.7-0.2-1.2-0.5-1.5s-0.9-0.5-1.6-0.5h-3.4v3.9H131z"/>
		<path class="st5" d="M141.7,146.2v14h-3.1v-14H141.7z"/>
		<path class="st5" d="M154.9,146.2v2.6h-7.4v3h6.8v2.4h-6.8v3.4h7.5v2.6h-10.6v-14H154.9z"/>
	</g>
	<g>
		<rect x="12.3" y="171.2" class="st0" width="143.5" height="28.2"/>
		<path class="st5" d="M88.3,171.2v2.6h-6.8v3.2h5.9v2.4h-5.9v5.8h-3.1v-14H88.3z"/>
		<path class="st5" d="M97.6,171.2c0.6,0,1.2,0.1,1.7,0.3c0.5,0.2,0.9,0.5,1.3,0.8c0.4,0.4,0.6,0.8,0.8,1.2c0.2,0.5,0.3,1,0.3,1.5
			c0,0.8-0.2,1.5-0.5,2.1c-0.3,0.6-0.9,1.1-1.7,1.4v0c0.4,0.1,0.7,0.3,0.9,0.5c0.2,0.2,0.5,0.5,0.6,0.8c0.2,0.3,0.3,0.6,0.3,1
			c0.1,0.4,0.1,0.7,0.1,1.1c0,0.2,0,0.5,0,0.8c0,0.3,0,0.6,0.1,0.9c0,0.3,0.1,0.6,0.2,0.9c0.1,0.3,0.2,0.5,0.3,0.7H99
			c-0.2-0.4-0.3-1-0.3-1.6c0-0.6-0.1-1.2-0.2-1.8c-0.1-0.7-0.3-1.3-0.7-1.6c-0.3-0.3-0.9-0.5-1.7-0.5h-3.1v5.5H90v-14H97.6z
			 M96.5,177.5c0.7,0,1.2-0.2,1.6-0.5c0.4-0.3,0.5-0.8,0.5-1.5c0-0.7-0.2-1.2-0.5-1.5s-0.9-0.5-1.6-0.5h-3.4v3.9H96.5z"/>
		<path class="st5" d="M111.2,171.2l5.2,14h-3.2l-1.1-3.1h-5.2l-1.1,3.1h-3.1l5.3-14H111.2z M111.3,179.8l-1.8-5.1h0l-1.8,5.1H111.3
			z"/>
		<path class="st5" d="M120,181.7c0.2,0.3,0.4,0.6,0.7,0.8c0.3,0.2,0.6,0.4,1,0.5c0.4,0.1,0.8,0.1,1.2,0.1c0.3,0,0.6,0,0.9-0.1
			c0.3,0,0.6-0.1,0.9-0.3c0.3-0.1,0.5-0.3,0.7-0.5c0.2-0.2,0.3-0.5,0.3-0.9c0-0.4-0.1-0.7-0.4-0.9s-0.6-0.4-0.9-0.6
			s-0.8-0.3-1.3-0.4c-0.5-0.1-1-0.2-1.5-0.4c-0.5-0.1-1-0.3-1.5-0.5c-0.5-0.2-0.9-0.4-1.3-0.7s-0.7-0.7-1-1.1
			c-0.2-0.5-0.4-1-0.4-1.6c0-0.7,0.2-1.3,0.5-1.9c0.3-0.5,0.7-1,1.2-1.3s1.1-0.6,1.7-0.8c0.6-0.2,1.3-0.3,1.9-0.3
			c0.7,0,1.4,0.1,2.1,0.2c0.7,0.2,1.3,0.4,1.8,0.8c0.5,0.4,0.9,0.8,1.2,1.4s0.5,1.3,0.5,2.1h-3c0-0.4-0.1-0.8-0.3-1
			c-0.2-0.3-0.3-0.5-0.6-0.6c-0.2-0.2-0.5-0.3-0.9-0.3s-0.7-0.1-1-0.1c-0.2,0-0.5,0-0.7,0.1s-0.5,0.1-0.7,0.3
			c-0.2,0.1-0.4,0.3-0.5,0.5s-0.2,0.4-0.2,0.7c0,0.3,0.1,0.5,0.2,0.7c0.1,0.2,0.3,0.3,0.6,0.5c0.3,0.1,0.7,0.3,1.3,0.4
			s1.2,0.3,2.1,0.5c0.3,0.1,0.6,0.1,1.1,0.3c0.5,0.1,0.9,0.4,1.4,0.7s0.9,0.7,1.2,1.2s0.5,1.1,0.5,1.9c0,0.6-0.1,1.2-0.4,1.8
			s-0.6,1-1.1,1.4c-0.5,0.4-1.1,0.7-1.8,0.9s-1.6,0.3-2.5,0.3c-0.8,0-1.5-0.1-2.2-0.3s-1.4-0.5-1.9-0.9c-0.6-0.4-1-0.9-1.3-1.5
			c-0.3-0.6-0.5-1.4-0.5-2.2h3C119.7,181,119.8,181.4,120,181.7z"/>
		<path class="st5" d="M140.8,171.2v2.6h-7.4v3h6.8v2.4h-6.8v3.4h7.5v2.6h-10.6v-14H140.8z"/>
		<path class="st5" d="M150.5,171.2c0.6,0,1.2,0.1,1.7,0.3c0.5,0.2,0.9,0.5,1.3,0.8c0.4,0.4,0.6,0.8,0.8,1.2c0.2,0.5,0.3,1,0.3,1.5
			c0,0.8-0.2,1.5-0.5,2.1c-0.3,0.6-0.9,1.1-1.7,1.4v0c0.4,0.1,0.7,0.3,0.9,0.5c0.2,0.2,0.5,0.5,0.6,0.8c0.2,0.3,0.3,0.6,0.3,1
			c0.1,0.4,0.1,0.7,0.1,1.1c0,0.2,0,0.5,0,0.8c0,0.3,0,0.6,0.1,0.9c0,0.3,0.1,0.6,0.2,0.9c0.1,0.3,0.2,0.5,0.3,0.7H152
			c-0.2-0.4-0.3-1-0.3-1.6c0-0.6-0.1-1.2-0.2-1.8c-0.1-0.7-0.3-1.3-0.7-1.6c-0.3-0.3-0.9-0.5-1.7-0.5h-3.1v5.5H143v-14H150.5z
			 M149.4,177.5c0.7,0,1.2-0.2,1.6-0.5c0.4-0.3,0.5-0.8,0.5-1.5c0-0.7-0.2-1.2-0.5-1.5s-0.9-0.5-1.6-0.5h-3.4v3.9H149.4z"/>
		<path class="st5" d="M134.6,187.1c0.6,0,1.1,0.1,1.4,0.4s0.5,0.7,0.5,1.2c0,0.4-0.1,0.7-0.3,1c-0.2,0.3-0.4,0.5-0.8,0.6v0
			c0.2,0,0.3,0.1,0.4,0.2c0.1,0.1,0.2,0.2,0.3,0.3c0.1,0.1,0.1,0.2,0.1,0.4c0,0.1,0.1,0.3,0.1,0.4c0,0.2,0,0.3,0,0.5s0,0.3,0,0.5
			c0,0.2,0.1,0.3,0.1,0.4c0,0.1,0.1,0.3,0.2,0.4h-0.9c-0.1-0.1-0.1-0.2-0.1-0.3c0-0.1,0-0.2,0-0.4s0-0.3,0-0.4c0-0.2,0-0.3-0.1-0.5
			c0-0.2-0.1-0.3-0.1-0.4c0-0.1-0.1-0.3-0.2-0.4c-0.1-0.1-0.2-0.2-0.3-0.2c-0.1-0.1-0.3-0.1-0.5-0.1h-2v2.7h-0.8v-6.2H134.6z
			 M134.8,189.9c0.2,0,0.3-0.1,0.5-0.2c0.1-0.1,0.2-0.2,0.3-0.3c0.1-0.1,0.1-0.3,0.1-0.6c0-0.3-0.1-0.6-0.3-0.8
			c-0.2-0.2-0.5-0.3-0.8-0.3h-2.1v2.2h1.7C134.4,190,134.6,190,134.8,189.9z"/>
		<path class="st5" d="M138.5,187.1v6.2h-0.8v-6.2H138.5z"/>
		<path class="st5" d="M141.4,193.3l-2.2-6.2h0.9l1.8,5.4h0l1.8-5.4h0.9l-2.2,6.2H141.4z"/>
		<path class="st5" d="M149.5,187.1v0.7H146v2h3.2v0.7H146v2.1h3.5v0.7h-4.3v-6.2H149.5z"/>
		<path class="st5" d="M153.4,187.1c0.6,0,1.1,0.1,1.4,0.4c0.3,0.3,0.5,0.7,0.5,1.2c0,0.4-0.1,0.7-0.3,1s-0.4,0.5-0.8,0.6v0
			c0.2,0,0.3,0.1,0.4,0.2c0.1,0.1,0.2,0.2,0.3,0.3c0.1,0.1,0.1,0.2,0.1,0.4s0.1,0.3,0.1,0.4c0,0.2,0,0.3,0,0.5s0,0.3,0,0.5
			s0.1,0.3,0.1,0.4c0,0.1,0.1,0.3,0.2,0.4h-0.9c-0.1-0.1-0.1-0.2-0.1-0.3c0-0.1,0-0.2,0-0.4s0-0.3,0-0.4c0-0.2,0-0.3-0.1-0.5
			c0-0.2-0.1-0.3-0.1-0.4c0-0.1-0.1-0.3-0.2-0.4c-0.1-0.1-0.2-0.2-0.3-0.2c-0.1-0.1-0.3-0.1-0.5-0.1h-2v2.7h-0.8v-6.2H153.4z
			 M153.6,189.9c0.2,0,0.3-0.1,0.5-0.2c0.1-0.1,0.2-0.2,0.3-0.3c0.1-0.1,0.1-0.3,0.1-0.6c0-0.3-0.1-0.6-0.3-0.8s-0.5-0.3-0.8-0.3
			h-2.1v2.2h1.7C153.2,190,153.4,190,153.6,189.9z"/>
	</g>
	<g>
		<rect x="12.3" y="239.4" class="st0" width="143.5" height="28.2"/>
		<path class="st5" d="M38.1,243.1c-0.2-0.3-0.4-0.6-0.7-0.8c-0.3-0.2-0.6-0.4-0.9-0.5c-0.3-0.1-0.7-0.2-1.1-0.2
			c-0.7,0-1.3,0.1-1.8,0.4c-0.5,0.3-0.9,0.6-1.2,1.1c-0.3,0.5-0.5,1-0.7,1.5c-0.1,0.6-0.2,1.2-0.2,1.8c0,0.6,0.1,1.2,0.2,1.7
			c0.1,0.6,0.4,1.1,0.7,1.5c0.3,0.4,0.7,0.8,1.2,1.1c0.5,0.3,1.1,0.4,1.8,0.4c0.9,0,1.7-0.3,2.2-0.9c0.5-0.6,0.9-1.3,1-2.3h3
			c-0.1,0.9-0.3,1.7-0.6,2.4c-0.3,0.7-0.8,1.3-1.3,1.8c-0.5,0.5-1.2,0.9-1.9,1.1c-0.7,0.3-1.5,0.4-2.4,0.4c-1.1,0-2-0.2-2.9-0.6
			c-0.9-0.4-1.6-0.9-2.2-1.5c-0.6-0.7-1-1.4-1.4-2.3c-0.3-0.9-0.5-1.8-0.5-2.8c0-1,0.2-2,0.5-2.9c0.3-0.9,0.8-1.7,1.4-2.3
			c0.6-0.7,1.3-1.2,2.2-1.6c0.9-0.4,1.8-0.6,2.9-0.6c0.8,0,1.5,0.1,2.2,0.3c0.7,0.2,1.3,0.5,1.8,1c0.5,0.4,1,1,1.3,1.6
			c0.4,0.6,0.6,1.3,0.7,2.2h-3C38.4,243.7,38.3,243.4,38.1,243.1z"/>
		<path class="st5" d="M50.6,239.4l5.2,14h-3.2l-1.1-3.1h-5.2l-1.1,3.1h-3.1l5.3-14H50.6z M50.8,247.9l-1.8-5.1h0l-1.8,5.1H50.8z"/>
		<path class="st5" d="M59.4,249.9c0.2,0.3,0.4,0.6,0.7,0.8c0.3,0.2,0.6,0.4,1,0.5c0.4,0.1,0.8,0.1,1.2,0.1c0.3,0,0.6,0,0.9-0.1
			c0.3,0,0.6-0.1,0.9-0.3c0.3-0.1,0.5-0.3,0.7-0.5c0.2-0.2,0.3-0.5,0.3-0.9c0-0.4-0.1-0.7-0.4-0.9s-0.6-0.4-0.9-0.6
			c-0.4-0.2-0.8-0.3-1.3-0.4c-0.5-0.1-1-0.2-1.5-0.4c-0.5-0.1-1-0.3-1.5-0.5c-0.5-0.2-0.9-0.4-1.3-0.7s-0.7-0.7-1-1.1
			c-0.2-0.5-0.4-1-0.4-1.6c0-0.7,0.2-1.3,0.5-1.9c0.3-0.5,0.7-1,1.2-1.3s1.1-0.6,1.7-0.8c0.6-0.2,1.3-0.3,1.9-0.3
			c0.7,0,1.4,0.1,2.1,0.2c0.7,0.2,1.3,0.4,1.8,0.8c0.5,0.4,0.9,0.8,1.2,1.4s0.5,1.3,0.5,2.1h-3c0-0.4-0.1-0.8-0.3-1
			c-0.2-0.3-0.3-0.5-0.6-0.6c-0.2-0.2-0.5-0.3-0.9-0.3s-0.7-0.1-1-0.1c-0.2,0-0.5,0-0.7,0.1s-0.5,0.1-0.7,0.3
			c-0.2,0.1-0.4,0.3-0.5,0.5s-0.2,0.4-0.2,0.7c0,0.3,0.1,0.5,0.2,0.7c0.1,0.2,0.3,0.3,0.6,0.5c0.3,0.1,0.7,0.3,1.3,0.4
			s1.2,0.3,2.1,0.5c0.3,0.1,0.6,0.1,1.1,0.3c0.5,0.1,0.9,0.4,1.4,0.7s0.9,0.7,1.2,1.2s0.5,1.1,0.5,1.9c0,0.6-0.1,1.2-0.4,1.8
			s-0.6,1-1.1,1.4c-0.5,0.4-1.1,0.7-1.8,0.9c-0.7,0.2-1.6,0.3-2.5,0.3c-0.8,0-1.5-0.1-2.2-0.3s-1.4-0.5-1.9-0.9
			c-0.6-0.4-1-0.9-1.3-1.5c-0.3-0.6-0.5-1.4-0.5-2.2h3C59.1,249.2,59.2,249.6,59.4,249.9z"/>
		<path class="st5" d="M78.7,243.1c-0.2-0.3-0.4-0.6-0.7-0.8c-0.3-0.2-0.6-0.4-0.9-0.5s-0.7-0.2-1.1-0.2c-0.7,0-1.3,0.1-1.8,0.4
			c-0.5,0.3-0.9,0.6-1.2,1.1c-0.3,0.5-0.5,1-0.7,1.5c-0.1,0.6-0.2,1.2-0.2,1.8c0,0.6,0.1,1.2,0.2,1.7c0.1,0.6,0.4,1.1,0.7,1.5
			s0.7,0.8,1.2,1.1c0.5,0.3,1.1,0.4,1.8,0.4c0.9,0,1.7-0.3,2.2-0.9c0.5-0.6,0.9-1.3,1-2.3h3c-0.1,0.9-0.3,1.7-0.6,2.4
			c-0.3,0.7-0.8,1.3-1.3,1.8c-0.5,0.5-1.2,0.9-1.9,1.1c-0.7,0.3-1.5,0.4-2.4,0.4c-1.1,0-2-0.2-2.9-0.6s-1.6-0.9-2.2-1.5
			c-0.6-0.7-1-1.4-1.4-2.3c-0.3-0.9-0.5-1.8-0.5-2.8c0-1,0.2-2,0.5-2.9c0.3-0.9,0.8-1.7,1.4-2.3c0.6-0.7,1.3-1.2,2.2-1.6
			C74,239.2,75,239,76,239c0.8,0,1.5,0.1,2.2,0.3c0.7,0.2,1.3,0.5,1.8,1c0.5,0.4,1,1,1.3,1.6c0.4,0.6,0.6,1.3,0.7,2.2h-3
			C79,243.7,78.9,243.4,78.7,243.1z"/>
		<path class="st5" d="M91.2,239.4l5.2,14h-3.2l-1.1-3.1H87l-1.1,3.1h-3.1l5.3-14H91.2z M91.4,247.9l-1.8-5.1h0l-1.8,5.1H91.4z"/>
		<path class="st5" d="M104,239.4c0.9,0,1.6,0.1,2.2,0.4c0.6,0.3,1.1,0.6,1.5,1c0.4,0.4,0.7,0.9,0.8,1.4c0.2,0.5,0.3,1.1,0.3,1.7
			c0,0.6-0.1,1.1-0.3,1.7c-0.2,0.5-0.5,1-0.8,1.4c-0.4,0.4-0.9,0.8-1.5,1c-0.6,0.3-1.4,0.4-2.2,0.4h-3.2v5h-3.1v-14H104z
			 M103.2,245.9c0.4,0,0.7,0,1-0.1c0.3-0.1,0.6-0.2,0.9-0.3c0.2-0.1,0.4-0.4,0.6-0.6c0.1-0.3,0.2-0.6,0.2-1.1s-0.1-0.8-0.2-1.1
			c-0.2-0.3-0.3-0.5-0.6-0.6c-0.2-0.1-0.5-0.3-0.9-0.3c-0.3-0.1-0.7-0.1-1-0.1h-2.4v4.2H103.2z"/>
		<path class="st5" d="M121.2,239.4v2.6h-7.4v3h6.8v2.4h-6.8v3.4h7.5v2.6h-10.6v-14H121.2z"/>
		<path class="st5" d="M129.5,239.4c0.9,0,1.7,0.1,2.5,0.4c0.8,0.3,1.4,0.7,2,1.3c0.6,0.6,1,1.3,1.3,2.2c0.3,0.9,0.5,1.9,0.5,3
			c0,1-0.1,2-0.4,2.8c-0.3,0.9-0.7,1.6-1.2,2.2c-0.5,0.6-1.2,1.1-2,1.5c-0.8,0.4-1.7,0.5-2.8,0.5h-6v-14H129.5z M129.3,250.8
			c0.4,0,0.9-0.1,1.3-0.2s0.8-0.4,1.1-0.7s0.6-0.8,0.8-1.3c0.2-0.5,0.3-1.2,0.3-2c0-0.7-0.1-1.3-0.2-1.9c-0.1-0.6-0.4-1.1-0.7-1.5
			c-0.3-0.4-0.7-0.7-1.2-0.9s-1.2-0.3-1.9-0.3h-2.2v8.8H129.3z"/>
		<path class="st5" d="M141,239.4v14h-3.1v-14H141z"/>
		<path class="st5" d="M150.7,239.4l5.2,14h-3.2l-1.1-3.1h-5.2l-1.1,3.1h-3.1l5.3-14H150.7z M150.9,247.9l-1.8-5.1h0l-1.8,5.1H150.9
			z"/>
		<path class="st5" d="M134.6,255.3c0.6,0,1.1,0.1,1.4,0.4c0.3,0.3,0.5,0.7,0.5,1.2c0,0.4-0.1,0.7-0.3,1c-0.2,0.3-0.4,0.5-0.8,0.6v0
			c0.2,0,0.3,0.1,0.4,0.2c0.1,0.1,0.2,0.2,0.3,0.3c0.1,0.1,0.1,0.2,0.1,0.4c0,0.1,0.1,0.3,0.1,0.4c0,0.2,0,0.3,0,0.5s0,0.3,0,0.5
			c0,0.2,0.1,0.3,0.1,0.4c0,0.1,0.1,0.3,0.2,0.4h-0.9c-0.1-0.1-0.1-0.2-0.1-0.3c0-0.1,0-0.2,0-0.4s0-0.3,0-0.4c0-0.2,0-0.3-0.1-0.5
			c0-0.2-0.1-0.3-0.1-0.4c0-0.1-0.1-0.3-0.2-0.4c-0.1-0.1-0.2-0.2-0.3-0.2c-0.1-0.1-0.3-0.1-0.5-0.1h-2v2.7h-0.8v-6.2H134.6z
			 M134.8,258.1c0.2,0,0.3-0.1,0.5-0.2c0.1-0.1,0.2-0.2,0.3-0.3c0.1-0.1,0.1-0.3,0.1-0.6c0-0.3-0.1-0.6-0.3-0.8
			c-0.2-0.2-0.5-0.3-0.8-0.3h-2.1v2.2h1.7C134.4,258.2,134.6,258.1,134.8,258.1z"/>
		<path class="st5" d="M138.5,255.3v6.2h-0.8v-6.2H138.5z"/>
		<path class="st5" d="M141.4,261.5l-2.2-6.2h0.9l1.8,5.4h0l1.8-5.4h0.9l-2.2,6.2H141.4z"/>
		<path class="st5" d="M149.5,255.3v0.7H146v2h3.2v0.7H146v2.1h3.5v0.7h-4.3v-6.2H149.5z"/>
		<path class="st5" d="M153.4,255.3c0.6,0,1.1,0.1,1.4,0.4c0.3,0.3,0.5,0.7,0.5,1.2c0,0.4-0.1,0.7-0.3,1s-0.4,0.5-0.8,0.6v0
			c0.2,0,0.3,0.1,0.4,0.2c0.1,0.1,0.2,0.2,0.3,0.3c0.1,0.1,0.1,0.2,0.1,0.4s0.1,0.3,0.1,0.4c0,0.2,0,0.3,0,0.5s0,0.3,0,0.5
			s0.1,0.3,0.1,0.4c0,0.1,0.1,0.3,0.2,0.4h-0.9c-0.1-0.1-0.1-0.2-0.1-0.3c0-0.1,0-0.2,0-0.4s0-0.3,0-0.4c0-0.2,0-0.3-0.1-0.5
			c0-0.2-0.1-0.3-0.1-0.4c0-0.1-0.1-0.3-0.2-0.4c-0.1-0.1-0.2-0.2-0.3-0.2c-0.1-0.1-0.3-0.1-0.5-0.1h-2v2.7h-0.8v-6.2H153.4z
			 M153.6,258.1c0.2,0,0.3-0.1,0.5-0.2c0.1-0.1,0.2-0.2,0.3-0.3c0.1-0.1,0.1-0.3,0.1-0.6c0-0.3-0.1-0.6-0.3-0.8s-0.5-0.3-0.8-0.3
			h-2.1v2.2h1.7C153.2,258.2,153.4,258.1,153.6,258.1z"/>
	</g>
	<g>
		<rect x="12.3" y="205.5" class="st0" width="143.5" height="28.2"/>
		<path class="st5" d="M90.2,205.5l5.8,9.4h0v-9.4h2.9v14h-3.1l-5.8-9.4h0v9.4h-2.9v-14H90.2z"/>
		<path class="st5" d="M101.5,209.7c0.3-0.9,0.8-1.7,1.4-2.3c0.6-0.7,1.3-1.2,2.2-1.6c0.9-0.4,1.8-0.6,2.9-0.6c1.1,0,2,0.2,2.9,0.6
			c0.8,0.4,1.6,0.9,2.2,1.6c0.6,0.7,1,1.4,1.4,2.3c0.3,0.9,0.5,1.9,0.5,2.9c0,1-0.2,2-0.5,2.8c-0.3,0.9-0.8,1.6-1.4,2.3
			c-0.6,0.7-1.3,1.2-2.2,1.5c-0.8,0.4-1.8,0.6-2.9,0.6c-1.1,0-2-0.2-2.9-0.6c-0.9-0.4-1.6-0.9-2.2-1.5c-0.6-0.7-1-1.4-1.4-2.3
			c-0.3-0.9-0.5-1.8-0.5-2.8C101,211.6,101.2,210.6,101.5,209.7z M104.3,214.3c0.1,0.6,0.4,1.1,0.7,1.5c0.3,0.4,0.7,0.8,1.2,1.1
			c0.5,0.3,1.1,0.4,1.8,0.4c0.7,0,1.3-0.1,1.8-0.4c0.5-0.3,0.9-0.6,1.2-1.1c0.3-0.4,0.5-0.9,0.7-1.5c0.1-0.6,0.2-1.1,0.2-1.7
			c0-0.6-0.1-1.2-0.2-1.8c-0.1-0.6-0.4-1.1-0.7-1.5c-0.3-0.5-0.7-0.8-1.2-1.1c-0.5-0.3-1.1-0.4-1.8-0.4c-0.7,0-1.3,0.1-1.8,0.4
			c-0.5,0.3-0.9,0.6-1.2,1.1c-0.3,0.5-0.5,1-0.7,1.5c-0.1,0.6-0.2,1.2-0.2,1.8C104.1,213.2,104.2,213.8,104.3,214.3z"/>
		<path class="st5" d="M124.4,205.5c0.6,0,1.2,0.1,1.7,0.3c0.5,0.2,0.9,0.5,1.3,0.8c0.4,0.4,0.6,0.8,0.8,1.2c0.2,0.5,0.3,1,0.3,1.5
			c0,0.8-0.2,1.5-0.5,2.1c-0.3,0.6-0.9,1.1-1.7,1.4v0c0.4,0.1,0.7,0.3,0.9,0.5c0.2,0.2,0.5,0.5,0.6,0.8c0.2,0.3,0.3,0.6,0.3,1
			c0.1,0.4,0.1,0.7,0.1,1.1c0,0.2,0,0.5,0,0.8c0,0.3,0,0.6,0.1,0.9s0.1,0.6,0.2,0.9c0.1,0.3,0.2,0.5,0.3,0.7h-3.1
			c-0.2-0.4-0.3-1-0.3-1.6c0-0.6-0.1-1.2-0.2-1.8c-0.1-0.7-0.3-1.3-0.7-1.6c-0.3-0.3-0.9-0.5-1.7-0.5H120v5.5h-3.1v-14H124.4z
			 M123.3,211.9c0.7,0,1.2-0.2,1.6-0.5c0.4-0.3,0.5-0.8,0.5-1.5c0-0.7-0.2-1.2-0.5-1.5s-0.9-0.5-1.6-0.5H120v3.9H123.3z"/>
		<path class="st5" d="M129.6,208.1v-2.6H141v2.6h-4.2v11.4h-3.1v-11.4H129.6z"/>
		<path class="st5" d="M145.7,205.5v5.4h5.7v-5.4h3.1v14h-3.1v-6h-5.7v6h-3.1v-14H145.7z"/>
		<path class="st5" d="M135.7,221.5v5.5h3.3v0.7h-4.1v-6.2H135.7z"/>
		<path class="st5" d="M142.3,221.5l2.4,6.2h-0.9l-0.7-1.9h-2.6l-0.7,1.9H139l2.4-6.2H142.3z M142.9,225.1l-1-2.9h0l-1.1,2.9H142.9z
			"/>
		<path class="st5" d="M146.2,221.5v3.1l3.2-3.1h1.1l-2.6,2.5l2.7,3.7h-1l-2.2-3.1l-1,1v2.2h-0.8v-6.2H146.2z"/>
		<path class="st5" d="M155.4,221.5v0.7H152v2h3.2v0.7H152v2.1h3.5v0.7h-4.3v-6.2H155.4z"/>
	</g>
	<g>
		<rect x="27.5" y="274.5" class="st0" width="128.3" height="32.9"/>
		<path class="st5" d="M135.7,274.5v5.5h3.3v0.7h-4.1v-6.2H135.7z"/>
		<path class="st5" d="M142.3,274.5l2.4,6.2h-0.9l-0.7-1.9h-2.6l-0.7,1.9H139l2.4-6.2H142.3z M142.9,278.2l-1-2.9h0l-1.1,2.9H142.9z
			"/>
		<path class="st5" d="M146.2,274.5v3.1l3.2-3.1h1.1l-2.6,2.5l2.7,3.7h-1l-2.2-3.1l-1,1v2.2h-0.8v-6.2H146.2z"/>
		<path class="st5" d="M155.4,274.5v0.7H152v2h3.2v0.7H152v2.1h3.5v0.7h-4.3v-6.2H155.4z"/>
		<path class="st5" d="M67.7,297.6l-2.4-9.5h0l-2.3,9.5h-3.1l-3.7-14h3.1l2.2,9.5h0l2.4-9.5h2.9l2.4,9.6h0l2.3-9.6h3l-3.8,14H67.7z"
			/>
		<path class="st5" d="M79,283.6v14h-3.1v-14H79z"/>
		<path class="st5" d="M84.8,283.6l5.8,9.4h0v-9.4h2.9v14h-3.1l-5.8-9.4h0v9.4h-2.9v-14H84.8z"/>
		<path class="st5" d="M99.3,283.6l5.8,9.4h0v-9.4h2.9v14H105l-5.8-9.4h0v9.4h-2.9v-14H99.3z"/>
		<path class="st5" d="M113.8,283.6v14h-3.1v-14H113.8z"/>
		<path class="st5" d="M122.8,283.6c0.9,0,1.6,0.1,2.2,0.4c0.6,0.3,1.1,0.6,1.5,1c0.4,0.4,0.7,0.9,0.8,1.4c0.2,0.5,0.3,1.1,0.3,1.7
			c0,0.6-0.1,1.1-0.3,1.7c-0.2,0.5-0.5,1-0.8,1.4c-0.4,0.4-0.9,0.8-1.5,1c-0.6,0.3-1.4,0.4-2.2,0.4h-3.2v5h-3.1v-14H122.8z
			 M122,290.2c0.4,0,0.7,0,1-0.1c0.3-0.1,0.6-0.2,0.9-0.3c0.2-0.1,0.4-0.4,0.6-0.6c0.1-0.3,0.2-0.6,0.2-1.1s-0.1-0.8-0.2-1.1
			c-0.2-0.3-0.3-0.5-0.6-0.6c-0.2-0.1-0.5-0.3-0.9-0.3c-0.3-0.1-0.7-0.1-1-0.1h-2.4v4.2H122z"/>
		<path class="st5" d="M140,283.6v2.6h-7.4v3h6.8v2.4h-6.8v3.4h7.5v2.6h-10.6v-14H140z"/>
		<path class="st5" d="M150.6,297.5c-0.7,0.3-1.3,0.4-2,0.4c-1.1,0-2-0.2-2.9-0.6c-0.9-0.4-1.6-0.9-2.2-1.5c-0.6-0.7-1-1.4-1.4-2.3
			c-0.3-0.9-0.5-1.8-0.5-2.8c0-1,0.2-2,0.5-2.9c0.3-0.9,0.8-1.7,1.4-2.3c0.6-0.7,1.3-1.2,2.2-1.6c0.9-0.4,1.8-0.6,2.9-0.6
			c0.7,0,1.4,0.1,2.1,0.3c0.7,0.2,1.3,0.5,1.8,0.9c0.5,0.4,1,0.9,1.3,1.5s0.6,1.3,0.6,2.1h-2.9c-0.2-0.8-0.5-1.4-1.1-1.8
			c-0.5-0.4-1.2-0.6-1.9-0.6c-0.7,0-1.3,0.1-1.8,0.4c-0.5,0.3-0.9,0.6-1.2,1.1c-0.3,0.5-0.5,1-0.7,1.5c-0.1,0.6-0.2,1.2-0.2,1.8
			c0,0.6,0.1,1.2,0.2,1.7c0.1,0.6,0.4,1.1,0.7,1.5c0.3,0.4,0.7,0.8,1.2,1.1c0.5,0.3,1.1,0.4,1.8,0.4c1,0,1.8-0.3,2.4-0.8
			c0.6-0.5,0.9-1.3,1-2.2h-3.1V290h5.9v7.6h-2l-0.3-1.6C151.8,296.7,151.2,297.2,150.6,297.5z"/>
	</g>
	<g>
		<rect x="-7" y="309.7" class="st0" width="162.8" height="28.2"/>
		<path class="st5" d="M135.7,309.7v5.5h3.3v0.7h-4.1v-6.2H135.7z"/>
		<path class="st5" d="M142.3,309.7l2.4,6.2h-0.9l-0.7-1.9h-2.6l-0.7,1.9H139l2.4-6.2H142.3z M142.9,313.4l-1-2.9h0l-1.1,2.9H142.9z
			"/>
		<path class="st5" d="M146.2,309.7v3.1l3.2-3.1h1.1l-2.6,2.5l2.7,3.7h-1l-2.2-3.1l-1,1v2.2h-0.8v-6.2H146.2z"/>
		<path class="st5" d="M155.4,309.7v0.7H152v2h3.2v0.7H152v2.1h3.5v0.7h-4.3v-6.2H155.4z"/>
		<path class="st5" d="M15.7,332.8l-2.4-9.5h0l-2.3,9.5H7.9l-3.7-14h3.1l2.2,9.5h0l2.4-9.5h2.9l2.4,9.6h0l2.3-9.6h3l-3.8,14H15.7z"
			/>
		<path class="st5" d="M30.4,318.8l5.2,14h-3.2l-1.1-3.1h-5.2l-1.1,3.1H22l5.3-14H30.4z M30.6,327.4l-1.8-5.1h0l-1.8,5.1H30.6z"/>
		<path class="st5" d="M39.2,329.3c0.2,0.3,0.4,0.6,0.7,0.8c0.3,0.2,0.6,0.4,1,0.5c0.4,0.1,0.8,0.1,1.2,0.1c0.3,0,0.6,0,0.9-0.1
			c0.3,0,0.6-0.1,0.9-0.3s0.5-0.3,0.7-0.5s0.3-0.5,0.3-0.9c0-0.4-0.1-0.7-0.4-0.9c-0.2-0.2-0.6-0.4-1-0.6s-0.8-0.3-1.3-0.4
			c-0.5-0.1-1-0.2-1.5-0.4c-0.5-0.1-1-0.3-1.5-0.5s-0.9-0.4-1.3-0.7c-0.4-0.3-0.7-0.7-0.9-1.1c-0.2-0.5-0.4-1-0.4-1.6
			c0-0.7,0.2-1.3,0.5-1.9s0.7-1,1.2-1.3s1.1-0.6,1.7-0.8c0.6-0.2,1.3-0.3,1.9-0.3c0.7,0,1.4,0.1,2.1,0.2c0.7,0.2,1.3,0.4,1.8,0.8
			c0.5,0.4,0.9,0.8,1.2,1.4s0.5,1.3,0.5,2.1h-3c0-0.4-0.1-0.8-0.3-1c-0.2-0.3-0.3-0.5-0.6-0.6s-0.5-0.3-0.9-0.3
			c-0.3-0.1-0.7-0.1-1-0.1c-0.2,0-0.5,0-0.7,0.1s-0.5,0.1-0.7,0.3c-0.2,0.1-0.4,0.3-0.5,0.5c-0.1,0.2-0.2,0.4-0.2,0.7
			c0,0.3,0.1,0.5,0.2,0.7c0.1,0.2,0.3,0.3,0.6,0.5c0.3,0.1,0.7,0.3,1.3,0.4c0.5,0.1,1.2,0.3,2.1,0.5c0.3,0.1,0.6,0.1,1.1,0.3
			c0.5,0.1,0.9,0.4,1.4,0.7s0.9,0.7,1.2,1.2c0.3,0.5,0.5,1.1,0.5,1.9c0,0.6-0.1,1.2-0.4,1.8s-0.6,1-1.1,1.4
			c-0.5,0.4-1.1,0.7-1.8,0.9s-1.6,0.3-2.5,0.3c-0.8,0-1.5-0.1-2.2-0.3s-1.4-0.5-1.9-0.9c-0.6-0.4-1-0.9-1.3-1.5
			c-0.3-0.6-0.5-1.4-0.5-2.2h3C39,328.6,39.1,329,39.2,329.3z"/>
		<path class="st5" d="M52.7,318.8v5.8l5.5-5.8H62l-5.5,5.5l6,8.5h-3.9l-4.2-6.3l-1.8,1.8v4.5h-3.1v-14H52.7z"/>
		<path class="st5" d="M70.7,318.8l5.2,14h-3.2l-1.1-3.1h-5.2l-1.1,3.1h-3.1l5.3-14H70.7z M70.9,327.4l-1.8-5.1h0l-1.8,5.1H70.9z"/>
		<path class="st5" d="M80.2,318.8v14h-3.1v-14H80.2z"/>
		<path class="st5" d="M82.8,323c0.3-0.9,0.8-1.7,1.4-2.3c0.6-0.7,1.3-1.2,2.2-1.6c0.9-0.4,1.8-0.6,2.9-0.6c1.1,0,2,0.2,2.9,0.6
			c0.8,0.4,1.6,0.9,2.2,1.6s1,1.4,1.4,2.3c0.3,0.9,0.5,1.9,0.5,2.9c0,1-0.2,2-0.5,2.8c-0.3,0.9-0.8,1.6-1.4,2.3
			c-0.6,0.7-1.3,1.2-2.2,1.5s-1.8,0.6-2.9,0.6c-1.1,0-2-0.2-2.9-0.6s-1.6-0.9-2.2-1.5c-0.6-0.7-1-1.4-1.4-2.3
			c-0.3-0.9-0.5-1.8-0.5-2.8C82.3,324.8,82.5,323.8,82.8,323z M85.6,327.6c0.1,0.6,0.4,1.1,0.7,1.5s0.7,0.8,1.2,1.1
			c0.5,0.3,1.1,0.4,1.8,0.4s1.3-0.1,1.8-0.4c0.5-0.3,0.9-0.6,1.2-1.1c0.3-0.4,0.5-0.9,0.7-1.5c0.1-0.6,0.2-1.1,0.2-1.7
			c0-0.6-0.1-1.2-0.2-1.8c-0.1-0.6-0.4-1.1-0.7-1.5c-0.3-0.5-0.7-0.8-1.2-1.1c-0.5-0.3-1.1-0.4-1.8-0.4s-1.3,0.1-1.8,0.4
			c-0.5,0.3-0.9,0.6-1.2,1.1c-0.3,0.5-0.5,1-0.7,1.5c-0.1,0.6-0.2,1.2-0.2,1.8C85.4,326.4,85.5,327,85.6,327.6z"/>
		<path class="st5" d="M108.4,332.8l-2.4-9.5h0l-2.3,9.5h-3.1l-3.7-14h3.1l2.2,9.5h0l2.4-9.5h2.9l2.4,9.6h0l2.3-9.6h3l-3.8,14H108.4
			z"/>
		<path class="st5" d="M123.1,318.8l5.2,14h-3.2l-1.1-3.1h-5.2l-1.1,3.1h-3.1l5.3-14H123.1z M123.3,327.4l-1.8-5.1h0l-1.8,5.1H123.3
			z"/>
		<path class="st5" d="M132.7,318.8v5.8l5.5-5.8h3.8l-5.5,5.5l6,8.5h-3.9l-4.2-6.3l-1.8,1.8v4.5h-3.1v-14H132.7z"/>
		<path class="st5" d="M150.7,318.8l5.2,14h-3.2l-1.1-3.1h-5.2l-1.1,3.1h-3.1l5.3-14H150.7z M150.9,327.4l-1.8-5.1h0l-1.8,5.1H150.9
			z"/>
	</g>
	<g>
		<rect x="46.6" y="343.8" class="st0" width="109.2" height="32.9"/>
		<path class="st5" d="M135.7,343.8v5.5h3.3v0.7h-4.1v-6.2H135.7z"/>
		<path class="st5" d="M142.3,343.8l2.4,6.2h-0.9l-0.7-1.9h-2.6l-0.7,1.9H139l2.4-6.2H142.3z M142.9,347.4l-1-2.9h0l-1.1,2.9H142.9z
			"/>
		<path class="st5" d="M146.2,343.8v3.1l3.2-3.1h1.1l-2.6,2.5l2.7,3.7h-1l-2.2-3.1l-1,1v2.2h-0.8v-6.2H146.2z"/>
		<path class="st5" d="M155.4,343.8v0.7H152v2h3.2v0.7H152v2.1h3.5v0.7h-4.3v-6.2H155.4z"/>
		<path class="st5" d="M60.5,352.9l5.8,9.4h0v-9.4h2.9v14h-3.1l-5.8-9.4h0v9.4h-2.9v-14H60.5z"/>
		<path class="st5" d="M75,352.9v14H72v-14H75z"/>
		<path class="st5" d="M84,352.9c0.9,0,1.6,0.1,2.2,0.4c0.6,0.3,1.1,0.6,1.5,1s0.7,0.9,0.8,1.4c0.2,0.5,0.3,1.1,0.3,1.7
			c0,0.6-0.1,1.1-0.3,1.7c-0.2,0.5-0.5,1-0.8,1.4s-0.9,0.8-1.5,1c-0.6,0.3-1.4,0.4-2.2,0.4h-3.2v5h-3.1v-14H84z M83.2,359.5
			c0.4,0,0.7,0,1-0.1s0.6-0.2,0.9-0.3c0.2-0.1,0.4-0.4,0.6-0.6c0.2-0.3,0.2-0.6,0.2-1.1s-0.1-0.8-0.2-1.1c-0.2-0.3-0.3-0.5-0.6-0.6
			c-0.2-0.1-0.5-0.3-0.9-0.3s-0.7-0.1-1-0.1h-2.4v4.2H83.2z"/>
		<path class="st5" d="M93.9,352.9v14h-3.1v-14H93.9z"/>
		<path class="st5" d="M98.9,363.4c0.2,0.3,0.4,0.6,0.7,0.8c0.3,0.2,0.6,0.4,1,0.5c0.4,0.1,0.8,0.1,1.2,0.1c0.3,0,0.6,0,0.9-0.1
			c0.3,0,0.6-0.1,0.9-0.3s0.5-0.3,0.7-0.5s0.3-0.5,0.3-0.9c0-0.4-0.1-0.7-0.4-0.9c-0.2-0.2-0.6-0.4-1-0.6s-0.8-0.3-1.3-0.4
			c-0.5-0.1-1-0.2-1.5-0.4c-0.5-0.1-1-0.3-1.5-0.5s-0.9-0.4-1.3-0.7c-0.4-0.3-0.7-0.7-0.9-1.1c-0.2-0.5-0.4-1-0.4-1.6
			c0-0.7,0.2-1.3,0.5-1.9s0.7-1,1.2-1.3s1.1-0.6,1.7-0.8c0.6-0.2,1.3-0.3,1.9-0.3c0.7,0,1.4,0.1,2.1,0.2c0.7,0.2,1.3,0.4,1.8,0.8
			c0.5,0.4,0.9,0.8,1.2,1.4s0.5,1.3,0.5,2.1h-3c0-0.4-0.1-0.8-0.3-1c-0.2-0.3-0.3-0.5-0.6-0.6s-0.5-0.3-0.9-0.3
			c-0.3-0.1-0.7-0.1-1-0.1c-0.2,0-0.5,0-0.7,0.1s-0.5,0.1-0.7,0.3c-0.2,0.1-0.4,0.3-0.5,0.5c-0.1,0.2-0.2,0.4-0.2,0.7
			c0,0.3,0.1,0.5,0.2,0.7c0.1,0.2,0.3,0.3,0.6,0.5c0.3,0.1,0.7,0.3,1.3,0.4c0.5,0.1,1.2,0.3,2.1,0.5c0.3,0.1,0.6,0.1,1.1,0.3
			c0.5,0.1,0.9,0.4,1.4,0.7s0.9,0.7,1.2,1.2c0.3,0.5,0.5,1.1,0.5,1.9c0,0.6-0.1,1.2-0.4,1.8s-0.6,1-1.1,1.4
			c-0.5,0.4-1.1,0.7-1.8,0.9s-1.6,0.3-2.5,0.3c-0.8,0-1.5-0.1-2.2-0.3s-1.4-0.5-1.9-0.9c-0.6-0.4-1-0.9-1.3-1.5
			c-0.3-0.6-0.5-1.4-0.5-2.2h3C98.7,362.7,98.8,363.1,98.9,363.4z"/>
		<path class="st5" d="M111.6,363.4c0.2,0.3,0.4,0.6,0.7,0.8c0.3,0.2,0.6,0.4,1,0.5c0.4,0.1,0.8,0.1,1.2,0.1c0.3,0,0.6,0,0.9-0.1
			c0.3,0,0.6-0.1,0.9-0.3c0.3-0.1,0.5-0.3,0.7-0.5c0.2-0.2,0.3-0.5,0.3-0.9c0-0.4-0.1-0.7-0.4-0.9s-0.6-0.4-0.9-0.6
			s-0.8-0.3-1.3-0.4c-0.5-0.1-1-0.2-1.5-0.4c-0.5-0.1-1-0.3-1.5-0.5c-0.5-0.2-0.9-0.4-1.3-0.7s-0.7-0.7-1-1.1
			c-0.2-0.5-0.4-1-0.4-1.6c0-0.7,0.2-1.3,0.5-1.9c0.3-0.5,0.7-1,1.2-1.3s1.1-0.6,1.7-0.8c0.6-0.2,1.3-0.3,1.9-0.3
			c0.7,0,1.4,0.1,2.1,0.2c0.7,0.2,1.3,0.4,1.8,0.8c0.5,0.4,0.9,0.8,1.2,1.4s0.5,1.3,0.5,2.1h-3c0-0.4-0.1-0.8-0.3-1
			c-0.2-0.3-0.3-0.5-0.6-0.6c-0.2-0.2-0.5-0.3-0.9-0.3s-0.7-0.1-1-0.1c-0.2,0-0.5,0-0.7,0.1s-0.5,0.1-0.7,0.3
			c-0.2,0.1-0.4,0.3-0.5,0.5s-0.2,0.4-0.2,0.7c0,0.3,0.1,0.5,0.2,0.7c0.1,0.2,0.3,0.3,0.6,0.5c0.3,0.1,0.7,0.3,1.3,0.4
			s1.2,0.3,2.1,0.5c0.3,0.1,0.6,0.1,1.1,0.3c0.5,0.1,0.9,0.4,1.4,0.7s0.9,0.7,1.2,1.2s0.5,1.1,0.5,1.9c0,0.6-0.1,1.2-0.4,1.8
			s-0.6,1-1.1,1.4c-0.5,0.4-1.1,0.7-1.8,0.9s-1.6,0.3-2.5,0.3c-0.8,0-1.5-0.1-2.2-0.3s-1.4-0.5-1.9-0.9c-0.6-0.4-1-0.9-1.3-1.5
			c-0.3-0.6-0.5-1.4-0.5-2.2h3C111.4,362.7,111.5,363.1,111.6,363.4z"/>
		<path class="st5" d="M125.1,352.9v14H122v-14H125.1z"/>
		<path class="st5" d="M130.8,352.9l5.8,9.4h0v-9.4h2.9v14h-3.1l-5.8-9.4h0v9.4h-2.9v-14H130.8z"/>
		<path class="st5" d="M150.6,366.8c-0.7,0.3-1.3,0.4-2,0.4c-1.1,0-2-0.2-2.9-0.6s-1.6-0.9-2.2-1.5c-0.6-0.7-1-1.4-1.4-2.3
			c-0.3-0.9-0.5-1.8-0.5-2.8c0-1,0.2-2,0.5-2.9c0.3-0.9,0.8-1.7,1.4-2.3c0.6-0.7,1.3-1.2,2.2-1.6c0.9-0.4,1.8-0.6,2.9-0.6
			c0.7,0,1.4,0.1,2.1,0.3c0.7,0.2,1.3,0.5,1.8,0.9c0.5,0.4,1,0.9,1.3,1.5s0.6,1.3,0.6,2.1h-2.9c-0.2-0.8-0.5-1.4-1.1-1.8
			c-0.5-0.4-1.2-0.6-1.9-0.6c-0.7,0-1.3,0.1-1.8,0.4c-0.5,0.3-0.9,0.6-1.2,1.1c-0.3,0.5-0.5,1-0.7,1.5c-0.1,0.6-0.2,1.2-0.2,1.8
			c0,0.6,0.1,1.2,0.2,1.7c0.1,0.6,0.4,1.1,0.7,1.5s0.7,0.8,1.2,1.1c0.5,0.3,1.1,0.4,1.8,0.4c1,0,1.8-0.3,2.4-0.8
			c0.6-0.5,0.9-1.3,1-2.2h-3.1v-2.3h5.9v7.6h-2l-0.3-1.6C151.8,366,151.2,366.5,150.6,366.8z"/>
	</g>
</g>
<g id="Layer_2">
</g>
</svg>
