<?xml version="1.0" encoding="utf-8"?>
<!-- Generator: Adobe Illustrator 19.2.1, SVG Export Plug-In . SVG Version: 6.00 Build 0)  -->
<svg version="1.1" xmlns="http://www.w3.org/2000/svg" xmlns:xlink="http://www.w3.org/1999/xlink" x="0px" y="0px"
	 width="1195.7px" height="174.9px" viewBox="0 0 1195.7 174.9" enable-background="new 0 0 1195.7 174.9" xml:space="preserve">
<g id="Layer_5">
	<path fill="#5C4737" d="M120.9,40.1c3.6,3.3,0.7,10.7,0.7,10.7s7.8-10.5,14.4-14.1c6.6-3.6,16.5,3.1,16.5,3.1s-6.2,10.3-16.7,6.8
		C125.3,43.1,120.9,40.1,120.9,40.1z"/>
	<path fill="#5C4737" d="M299.2,40.1c3.6,3.3,0.7,10.7,0.7,10.7s7.8-10.5,14.4-14.1c6.6-3.6,16.5,3.1,16.5,3.1s-6.2,10.3-16.7,6.8
		C303.6,43.1,299.2,40.1,299.2,40.1z"/>
	<path fill="#A79072" d="M534.9,64.1c3,2.7,0.5,8.9,0.5,8.9s6.5-8.7,12-11.7c5.5-3,13.7,2.5,13.7,2.5s-5.1,8.5-13.8,5.7
		C538.6,66.6,534.9,64.1,534.9,64.1z"/>
	<g>
		<path fill="#5C4737" d="M106.6,70.6c-2,3-9.1,5.1-19.9,7.9c-1.9,23.7-16.7,48.2-45.8,48.2c-21.1,0-26.1-11.5-28.1-17.2
			c-1.2-3.4-3.7-31.1-0.2-30.7c2.3,0.3,4.3,10.1,9.6,14.2c6.5,5.1,19.8,10.8,7.9,11.2c-10.3,0.3-9.1,17.3,11.8,16.1
			c11-0.6,18.3-11.7,21.3-34.5c-4.7,1-11,3.5-17.2,7.1l3.5-11.2c4.4-3.7,8.8-6.6,14.9-8.8c1.9-17.9,5.2-26.2,15.2-36.5
			c5.4-0.7,8.8-1.2,13.4-1.4c-4.4,8.8-4.7,13.5-5.2,29.2c8.1-2.7,12.8-4.6,20.4-8.1L106.6,70.6z M111.7,5.9
			c-1.5,8.3-3.5,13.7-6.9,16.9c-3.4,3-8.1,4.2-15.2,4.2c-7.1,0-18.6-0.7-25.7-0.7c-13.2,0-25.5,4.9-25.5,16.7c0,5.1,2.9,8.8,9,11.7
			c2.2,1,3,1.9,3,2.5c0,3.4-5.7,9-11,10.8c-7.4-2-11.2-6.8-11.2-14.4C28.2,41,43.8,6.9,74.7,6.9c2.5,0,20.8,1.7,24.7,1.7
			c4.6,0,7.3-1,8.1-2.7H111.7z"/>
		<g>
			<path fill="#5C4737" d="M137.2,109.8c-2.5,0-4.2-2.5-4.2-6.1c0-4.7,1.7-12.2,5.1-22.8l8.3-25.9h-1l-21,4.4
				c-3.5,9.5-11.8,31.4-11.8,48.7c0,10.8,5.4,18.9,12.5,18.9c3.5,0,12-2.5,28.9-20.3v-9.5C146.5,105.4,142.5,109.8,137.2,109.8z"/>
		</g>
		<path fill="#5C4737" d="M152.1,99.3c8.6-9,22-25.9,27.2-40.9c8.1-2.2,17.4-3.4,18.4-3.4c0.5,0,0.8,0.2,0.8,0.7
			c0,0.5-0.2,1.5-0.7,2.5c-0.8,2.4-1.4,5.2-1.4,7.3c0,3,1,5.7,4.4,10.6c4.2,6.4,5.6,10.3,5.6,14.9c0,16.9-19.8,36-37.2,36
			c-7.4,0-14.9-4.7-14.9-9.3c0-2.5,8.5-13,11.2-13c1.9,0,3.2,1.9,4.4,5.7c1.7,5.6,3.7,7.8,7.4,7.8c6.8,0,13.9-7.4,13.9-14.7
			c0-3.7-1.4-7.3-5.4-13.5c-4.4-6.8-5.7-9.3-7.6-14.9c-7.6,12-13.7,19.8-24.3,31.6h-1.9V99.3z"/>
		<path fill="#5C4737" d="M212.6,127c-0.7-5.7-1-12-1-18.8c0-32.1,8.1-58.1,28.1-90.8c14-5.7,26.5-10,28.1-10
			c2.9,0,5.1,5.4,5.1,12.2c0,11.3-6.4,24.2-22.1,45c13.5-7.8,16.6-9.6,22-9.6c5.7,0,9.5,4.4,9.5,11c0,4.6-2.5,14.2-7.1,26.4
			c-2.9,7.4-4.7,14.2-4.7,16.2c0,2.4,1.7,4.6,3.7,4.6c3.5,0,9.8-5.1,19.4-15.9v9.5C280,120.6,269.9,127,261.3,127
			c-7.4,0-13-5.6-13-13.5c0-6.3,2.7-15.9,7.6-27.9c2.7-6.1,4.1-10.6,4.1-12.7c0-2-1.4-3.4-3.2-3.4c-4.6,0-14,6.9-22.8,16.7
			c-2.2,12.3-2.9,20.8-2.9,36.5L212.6,127z M265.7,22.4c0-3-1-4.9-2.7-4.9c-4.1,0-10.8,10.5-17.6,26.4c-3.7,9.1-5.7,15.4-9.1,29.1
			C258.7,46.7,265.7,31.2,265.7,22.4z"/>
		<g>
			<path fill="#5C4737" d="M317.2,109.8c-2.5,0-4.2-2.5-4.2-6.1c0-4.7,1.7-12.2,5.1-22.8l8.3-25.9h-1l-21,4.4
				c-3.5,9.5-11.8,31.4-11.8,48.7c0,10.8,5.4,18.9,12.5,18.9c3.5,0,12-2.5,28.9-20.3v-9.5C326.5,105.4,322.5,109.8,317.2,109.8z"/>
		</g>
		<path fill="#5C4737" d="M334,127c-0.3-4.9-0.8-9.8-0.8-16.6c0-17.1,3.5-31.1,13-51.9l20.1-3.9c-2.9,7.8-6.6,18.4-8.3,26.9
			c13-14.4,25-26.7,35.7-26.7c5.6,0,9.8,4.7,9.8,11.2c0,4.7-2.5,14.4-7.1,26c-3,7.8-4.9,13.9-4.9,16.2c0,3,1.5,4.9,4.1,4.9
			c5.7,0,17.2-13.2,19.4-15.9v9.5c-13.2,13.9-23.3,20.1-32.6,20.1c-7.4,0-12.3-5.6-12.3-14.2c0-5.4,2.9-16.1,7.3-27
			c2.4-5.9,3.5-9.6,3.9-12.3c0-1.9-0.7-2.7-2-2.7c-4.7,0-16.9,14.5-24.2,23.3c-2.5,12.8-2.7,19.1-2.7,28.9L334,127z"/>
		<path fill="#5C4737" d="M455,107.1c-11.3,12.7-17.9,17.2-25.3,17.2c-9.1,0-15.5-9.5-15.5-23.2c0-22.5,20.6-46.3,40.1-46.3
			c5.6,0,9.8,2,14.2,6.8c5.6-2,8.6-3.4,15.5-6.6h1.9c-2,6.3-3.5,12.3-4.9,18.9l-7.8,41.4c5.7-2.3,13.1-3.9,17.5-10.9
			c1.1-1.7-2.5,0-2.5-1.4c-0.1-1.7,4-5.3,6.4-8.1c0.5-0.6,1.4-0.2,1.4,0.5v3.2c0,5.5-2.5,10.8-6.8,14.3c-5.5,4.4-10.9,7.2-18.2,10
			c-8.8,27.7-23.7,44.4-39.7,44.4c-8.6,0-14.4-5.9-14.4-14.7c0-16.6,20.6-24.3,34.6-29.4L455,107.1z M423,152.7
			c0,4.9,3.2,8.5,7.9,8.5c7.6,0,13-8.8,18.8-30.6C431.5,137.2,423,144.1,423,152.7z M434.2,97.1c0,7.6,3.4,12.3,8.6,12.3
			c14.9,0,19.9-34.8,19.9-39.2c0-5.2-2.9-9-6.8-9C443,61.3,434.2,83.1,434.2,97.1z"/>
		<g>
			<path fill="#A79072" d="M549.3,113.9c-1.8,0-3-1.8-3-4.3c0-3.3,1.2-8.6,3.6-16.1l5.8-18.2H555l-14.8,3.1
				c-2.5,6.7-8.3,22.2-8.3,34.3c0,7.6,3.8,13.4,8.8,13.4c2.5,0,8.5-1.8,20.4-14.3v-6.7C555.8,110.8,553,113.9,549.3,113.9z"/>
		</g>
		<path fill="#A79072" d="M561.1,126.1c-0.2-3.5-0.6-6.9-0.6-11.7c0-12,2.5-21.9,9.2-36.6l14.2-2.7c-2,5.5-4.6,13-5.8,19
			c9.2-10.1,17.6-18.8,25.2-18.8c3.9,0,6.9,3.3,6.9,7.9c0,3.3-1.8,10.1-5,18.4c-2.1,5.5-3.5,9.8-3.5,11.4c0,2.1,1.1,3.5,2.9,3.5
			c2.2,0,6.7-2.4,9.5-5.2c0.8-0.8-3.6-1.5-1.9-2.3c1.9-0.9,3.8-3.4,4.9-4.8c0.3-0.3,0.8-0.2,0.8,0.3l0.1,2.6
			c0.1,3.2-1.1,6.3-3.5,8.6c-7.5,7.2-13.6,10.5-19.3,10.5c-5.2,0-8.7-3.9-8.7-10c0-3.8,2-11.3,5.1-19.1c1.7-4.2,2.5-6.8,2.7-8.7
			c0-1.3-0.5-1.9-1.4-1.9c-3.3,0-11.9,10.3-17,16.5c-1.8,9.1-1.9,13.5-1.9,20.4L561.1,126.1z"/>
		<path fill="#5C4737" d="M743.5,106.7c-7.6,7.4-20.6,20.3-47.2,20.3s-45.1-18.3-45.1-44.3c0-42.3,34-75.4,62.2-75.4
			c15.9,0,27,10.5,27,25.9c0,19.9-14,36.8-30.4,36.8c-8.6,0-18.5-11.8-18.4-18.8c0-4.3,7.4-17,9.4-15.9c3.8,2.2-2.7,8.4,2.8,17.3
			c0.5,0.8,0,1.8-0.9,1.9c-5.5,0.5-2.4,6.1,7.2,6.5c9.3,0.3,14-19.6,14-32.6c0-9.1-4.6-14.9-11.7-14.9c-16.4,0-36.7,34.5-36.7,62.7
			c0,23,14.4,39.4,34.6,39.4c12,0,21.3-4.9,33.1-18.4V106.7z"/>
		<path fill="#5C4737" d="M831.6,106.7c-14.2,13.4-21.3,20.1-29.7,20.1c-12.7,0-12.5-17.9-12.3-23c-11.3,16.2-19.9,23-29.6,23
			c-9.8,0-17.4-10.3-17.4-23.5c0-28.4,27.9-48.7,43.1-48.7c6.8,0,11.7,3.2,14.4,9.5l16.9-9.3h4.6L814.2,79c-1.9,6.1-5.6,19.9-5.6,25
			c0,4.6,2,7.1,5.1,7.1c3.9,0,7.3-3.2,17.9-13.9V106.7z M763.5,101.3c0,5.9,3.2,10,7.8,10c12.2,0,22.8-26.2,22.8-40.1
			c0-6.1-2.9-9.8-7.6-9.8C774.3,61.5,763.5,87.5,763.5,101.3z"/>
		<path fill="#5C4737" d="M831.6,127c-0.3-4.9-0.8-9.8-0.8-16.6c0-17.1,3.5-31.1,13-51.9l20.1-3.9c-2.9,7.8-6.6,18.4-8.3,26.9
			c13-14.4,25-26.7,35.7-26.7c5.6,0,9.8,4.7,9.8,11.2c0,4.7-2.5,14.4-7.1,26c-3,7.8-4.9,13.9-4.9,16.2c0,3,1.5,4.9,4.1,4.9
			c5.7,0,17.2-13.2,19.4-15.9v9.5c-13.2,13.9-23.3,20.1-32.6,20.1c-7.4,0-12.3-5.6-12.3-14.2c0-5.4,2.9-16.1,7.3-27
			c2.4-5.9,3.5-9.6,3.9-12.3c0-1.9-0.7-2.7-2-2.7c-4.7,0-16.9,14.5-24.2,23.3c-2.5,12.8-2.7,19.1-2.7,28.9L831.6,127z"/>
		<path fill="#5C4737" d="M1000.6,106.7c-14.2,13.4-21.3,20.1-29.7,20.1c-12.7,0-12.5-17.9-12.3-23c-11.3,16.2-19.9,23-29.6,23
			c-9.8,0-17.4-10.3-17.4-23.5c0-28.4,27.9-48.7,43.1-48.7c6.8,0,11.7,3.2,14.4,9.5l16.9-9.3h4.6L983.2,79c-1.9,6.1-5.6,19.9-5.6,25
			c0,4.6,2,7.1,5.1,7.1c3.9,0,7.3-3.2,17.9-13.9V106.7z M932.5,101.3c0,5.9,3.2,10,7.8,10c12.2,0,22.8-26.2,22.8-40.1
			c0-6.1-2.9-9.8-7.6-9.8C943.3,61.5,932.5,87.5,932.5,101.3z"/>
		<path fill="#5C4737" d="M1059.3,11.7c-0.9-1.4,0.5-3.6,1.9-2.8c19.3,10.8,25.1-2,28.5-0.7c2,0.7-0.7,6.2-6.1,15.4
			c-12,20.6-17.1,66.6-17.1,80.4c0,4.2,1.9,6.9,4.7,6.9c4.7,0,12-7.6,17.4-13.7v9.5c-10.8,10.6-20.6,20.1-29.1,20.1
			c-1.9,0-12.7,0-12.8-22.3c-4.9,7.6-8.1,11.5-13.4,15.5c-5.4,4.4-11,6.8-15.7,6.8c-9.5,0-17.7-10.3-17.7-22.1
			c0-24.7,21.5-49.9,42.3-49.9c5.2,0,7.8,1.2,12,5.4l9.2-28.4c2-6.1,1-12.7-2.6-18L1059.3,11.7z M1021.2,101.3c0,6.1,3,9.8,7.8,9.8
			c12,0,22.1-25.5,22.1-39.4c0-6.4-3-10.6-7.9-10.6C1031.9,61.1,1021.2,87.8,1021.2,101.3z"/>
		<path fill="#5C4737" d="M1184.2,88.8c1.6-1.9,1.7,0.3,1.4,1.3c-2.1,6.3-6.1,13.6-10.8,18.5c-12.3,12.8-19.8,18.3-27.8,18.3
			c-12.7,0-12.5-17.9-12.3-23c-11.3,16.2-19.9,23-29.6,23c-9.8,0-17.4-10.3-17.4-23.5c0-28.4,27.9-48.7,43.1-48.7
			c6.8,0,11.7,3.2,14.4,9.5l16.9-9.3h4.6l-7.3,24.2c-1.9,6.1-5.6,19.9-5.6,25c0,4.6,2,7.1,5.1,7.1c3.3,0,7.8-0.1,14.5-9
			c1-1.4-13.9-1.9-6.3-3.8S1181.3,92,1184.2,88.8z M1108.6,101.3c0,5.9,3.2,10,7.8,10c12.2,0,22.8-26.2,22.8-40.1
			c0-6.1-2.9-9.8-7.6-9.8C1119.4,61.5,1108.6,87.5,1108.6,101.3z"/>
	</g>
</g>
<g id="Information">
</g>
<g id="Margin_LR">
</g>
<g id="_x34__x2F_8_x2F_12_Layout" opacity="0.46">
</g>
<g id="Baseline_Grids" display="none">
</g>
</svg>
