<?xml version="1.0" encoding="utf-8"?>
<!-- Generator: Adobe Illustrator 19.2.1, SVG Export Plug-In . SVG Version: 6.00 Build 0)  -->
<svg version="1.1" xmlns="http://www.w3.org/2000/svg" xmlns:xlink="http://www.w3.org/1999/xlink" x="0px" y="0px" width="577.4px"
	 height="741.4px" viewBox="0 0 577.4 741.4" enable-background="new 0 0 577.4 741.4" xml:space="preserve">
<g id="Layer_5">
	<polygon fill="#D8EAF8" points="587.3,425.3 297,425.3 297,797.4 370.1,797.4 370.1,501.7 587.3,501.7 	"/>
	<line fill="none" stroke="#4F70B5" stroke-width="1.088" stroke-miterlimit="10" x1="62.2" y1="309" x2="62.2" y2="177.7"/>
	<path fill="#4F70B5" d="M232.7,471.9h20.2c0,0,1.1-369.7-97.1-376.7C49.1,87.7,60.3,196.6,60.3,196.6s7.2-92.6,94.9-81.6
		S232.7,471.9,232.7,471.9z"/>
	<circle fill="#4F70B5" cx="351.4" cy="170.5" r="56.6"/>
	<g>
		<path fill="#4F70B5" d="M344.8,240.7c-25.3,1.9-33.4,14-35.8,38.8c27.9,10.2,59.7,22.2,54.1,42.2c-3.6,12.7-30.4,16.8-54.2,15.8
			c2.1,27.7,5.3,44.9,0.3,54.5c-12.2,23.6-184.6,90-140.3,144.2c40,48.8,219.1-95.3,221.6-127.7C393,376.1,409.8,235.8,344.8,240.7z
			"/>
		<path fill="#4F70B5" d="M307.9,287.3c-40.1-14.7-90.9-21.7-89.5,7.4c0.9,20.1,50.5,32.4,89.8,34c23.8,1,43.8-1.9,47-9.3
			C358.6,311.4,335.8,297.5,307.9,287.3z"/>
	</g>
	<path fill="#D8EAF8" d="M40.6,389.3h43.6c0,0-82.1-56.2-21.8-120.9C115.3,328.9,40.6,389.3,40.6,389.3z"/>
</g>
<g id="Information">
</g>
<g id="Margin_LR">
</g>
<g id="_x34__x2F_8_x2F_12_Layout" opacity="0.46">
</g>
<g id="Baseline_Grids" display="none">
</g>
</svg>
